<?xml version="1.0" encoding="utf-8"?>
<!-- Generator: Adobe Illustrator 26.0.1, SVG Export Plug-In . SVG Version: 6.00 Build 0)  -->
<svg version="1.1" id="Layer_1" xmlns="http://www.w3.org/2000/svg" xmlns:xlink="http://www.w3.org/1999/xlink" x="0px" y="0px"
	 viewBox="0 0 20.4 20.2" style="enable-background:new 0 0 20.4 20.2;" xml:space="preserve">
<style type="text/css">
	.st0{fill:#650821;}
</style>
<path class="st0" d="M7.1,9.1H2c-1.1,0-2-0.9-2-2L0,2c0-1.1,0.9-2,2-2l5.1,0c1.1,0,2,0.9,2,2v5.1C9.1,8.2,8.2,9.1,7.1,9.1z"/>
<g>
	<path class="st0" d="M18.4,1c0.6,0,1,0.4,1,1v5.1c0,0.6-0.4,1-1,1h-5.1c-0.6,0-1-0.4-1-1V2c0-0.6,0.4-1,1-1H18.4 M18.4,0h-5.1
		c-1.1,0-2,0.9-2,2v5.1c0,1.1,0.9,2,2,2h5.1c1.1,0,2-0.9,2-2V2C20.4,0.9,19.5,0,18.4,0L18.4,0z"/>
</g>
<path class="st0" d="M7.1,20.2H2c-1.1,0-2-0.9-2-2l0-5.1c0-1.1,0.9-2,2-2h5.1c1.1,0,2,0.9,2,2v5.1C9.1,19.3,8.2,20.2,7.1,20.2z"/>
<path class="st0" d="M18.4,20.2h-5.1c-1.1,0-2-0.9-2-2v-5.1c0-1.1,0.9-2,2-2h5.1c1.1,0,2,0.9,2,2v5.1C20.4,19.3,19.5,20.2,18.4,20.2
	z"/>
</svg>
