<?xml version="1.0" encoding="utf-8"?>
<!-- Generator: Adobe Illustrator 24.3.0, SVG Export Plug-In . SVG Version: 6.00 Build 0)  -->
<svg version="1.1" id="Layer_1" xmlns="http://www.w3.org/2000/svg" xmlns:xlink="http://www.w3.org/1999/xlink" x="0px" y="0px"
	 viewBox="0 0 721 160.27" style="enable-background:new 0 0 721 160.27;" xml:space="preserve">
<style type="text/css">
	.st0{fill:#0993D8;}
	.st1{fill:#0972DB;}
	.st2{fill:#1157BC;}
	.st3{fill:#0C2BC6;}
	.st4{fill:#0B1FAF;}
	.st5{fill:#FFFFFF;}
</style>
<g>
	<polygon class="st0" points="685.09,50 547.45,50 547.45,0 685.09,0 721,25 	"/>
	<polygon class="st1" points="553.62,50 410.32,50 410.32,0 553.62,0 591,25 	"/>
	<polygon class="st2" points="426.11,50 273.19,50 273.19,0 426.11,0 466,25 	"/>
	<polygon class="st3" points="278.1,50 129,50 129,0 278.1,0 317,25 	"/>
	<polygon class="st4" points="130.07,50 0,50 0,0 130.07,0 164,25 	"/>
	<g>
		<g>
			<path class="st5" d="M49.61,23.17c0,1.2-0.38,2.09-1.12,2.66c-0.75,0.57-1.92,0.85-3.5,0.85h-1.16v2.15h1.55v1.88h-5.82v-1.88
				h1.39v-7.29h-1.39v-1.88h5.37c1.58,0,2.75,0.29,3.52,0.86S49.61,21.98,49.61,23.17z M46.58,23.17c0-0.46-0.09-0.81-0.28-1.05
				c-0.19-0.24-0.45-0.4-0.8-0.47c-0.35-0.07-0.75-0.11-1.21-0.11h-0.45v3.31h0.45c0.61,0,1.08-0.06,1.42-0.19
				c0.33-0.12,0.56-0.31,0.69-0.55C46.51,23.87,46.58,23.56,46.58,23.17z"/>
			<path class="st5" d="M56.03,21.53v7.29h3.26v-3.41h2.16v5.28h-9.87v-1.88h1.57v-7.29h-1.57v-1.88h6.07v1.88H56.03z"/>
			<path class="st5" d="M70.87,21.53l2.31,7.29h1.32v1.88h-5.43v-1.88h1.41l-0.53-1.88h-2.86l-0.59,1.88h1.47v1.88H63.1v-1.88h1.36
				l2.15-7.29h-1.47v-1.88h7.22v1.88H70.87z M68.57,21.98l-0.99,3.33h1.92L68.57,21.98z"/>
			<path class="st5" d="M85.11,21.53h-1.42v-1.88h4.93v1.88h-1.54v9.24h-2.45l-4.78-8.19v6.24h1.38v1.88h-4.83v-1.88h1.49v-7.29
				h-1.49v-1.88h4.64l4.06,6.9V21.53z"/>
		</g>
	</g>
	<g>
		<path class="st5" d="M183.78,21.67c0,0.67-0.16,1.24-0.47,1.7c-0.31,0.46-0.79,0.83-1.43,1.12l1.78,3.33h1.43v1.88h-3.36
			l-2.49-4.83h-1.26v2.95h1.38v1.88h-5.78v-1.88h1.52v-7.29h-1.52v-1.88h6.3c1.22,0,2.18,0.26,2.87,0.77
			C183.43,19.95,183.78,20.69,183.78,21.67z M180.77,21.79c0-0.42-0.13-0.73-0.4-0.94s-0.63-0.31-1.1-0.31h-1.3v2.56h1.05
			C180.19,23.1,180.77,22.66,180.77,21.79z"/>
		<path class="st5" d="M194.71,22.15v-1.62h-3.42v2.53h2.76v1.86h-2.76v2.89h3.42v-1.63h2.12v3.51h-9.73v-1.88h1.33v-7.29h-1.33
			v-1.88h9.73v3.49H194.71z"/>
		<path class="st5" d="M204.51,19.57v-0.92h1.88V22h-1.88c-0.08-0.54-0.25-0.94-0.52-1.21c-0.27-0.27-0.62-0.41-1.05-0.41
			c-0.3,0-0.56,0.09-0.78,0.26s-0.32,0.39-0.32,0.64c0,0.23,0.07,0.43,0.21,0.59s0.31,0.31,0.53,0.42c0.21,0.12,0.54,0.27,0.97,0.46
			l0.45,0.19c0.97,0.42,1.71,0.91,2.2,1.48c0.5,0.57,0.74,1.27,0.74,2.12c0,1.01-0.29,1.81-0.87,2.4c-0.58,0.59-1.36,0.88-2.34,0.88
			c-0.96,0-1.7-0.36-2.23-1.08v0.94h-1.88v-3.75h1.88c0.04,0.65,0.21,1.14,0.5,1.48c0.29,0.34,0.69,0.51,1.2,0.51
			c0.34,0,0.62-0.11,0.85-0.34c0.23-0.23,0.35-0.51,0.35-0.83c0-0.33-0.13-0.64-0.4-0.91c-0.27-0.28-0.72-0.55-1.36-0.83
			c-1.09-0.48-1.88-0.99-2.37-1.55c-0.49-0.55-0.74-1.19-0.74-1.9c0-0.56,0.13-1.07,0.39-1.54s0.62-0.83,1.07-1.09
			c0.46-0.27,0.95-0.4,1.49-0.4c0.43,0,0.82,0.09,1.17,0.26S204.28,19.23,204.51,19.57z"/>
		<path class="st5" d="M216.9,22.15v-1.62h-3.42v2.53h2.76v1.86h-2.76v2.89h3.42v-1.63h2.12v3.51h-9.73v-1.88h1.33v-7.29h-1.33
			v-1.88h9.73v3.49H216.9z"/>
		<path class="st5" d="M228.83,20.53l2.31,7.29h1.32v1.88h-5.43v-1.88h1.41l-0.53-1.88h-2.86l-0.59,1.88h1.47v1.88h-4.88v-1.88h1.36
			l2.15-7.29h-1.47v-1.88h7.22v1.88H228.83z M226.53,20.98l-0.99,3.33h1.92L226.53,20.98z"/>
		<path class="st5" d="M244.52,21.67c0,0.67-0.16,1.24-0.47,1.7c-0.31,0.46-0.79,0.83-1.43,1.12l1.78,3.33h1.43v1.88h-3.36
			l-2.49-4.83h-1.26v2.95h1.38v1.88h-5.78v-1.88h1.52v-7.29h-1.52v-1.88h6.3c1.22,0,2.18,0.26,2.87,0.77
			C244.17,19.95,244.52,20.69,244.52,21.67z M241.51,21.79c0-0.42-0.13-0.73-0.4-0.94s-0.63-0.31-1.1-0.31h-1.3v2.56h1.05
			C240.93,23.1,241.51,22.66,241.51,21.79z"/>
		<path class="st5" d="M256.58,19.51v-0.85h1.88v3.88h-1.88c-0.55-1.4-1.47-2.1-2.76-2.1c-0.64,0-1.21,0.17-1.7,0.5
			c-0.5,0.33-0.88,0.79-1.16,1.36c-0.28,0.57-0.41,1.21-0.41,1.91c0,0.65,0.13,1.25,0.39,1.8c0.26,0.54,0.63,0.98,1.09,1.3
			c0.47,0.33,1.01,0.49,1.62,0.49c0.75,0,1.41-0.26,1.96-0.78c0.55-0.52,0.93-1.2,1.12-2.05l2.18,1.03
			c-0.82,2.56-2.64,3.84-5.46,3.84c-1.21,0-2.27-0.23-3.17-0.7c-0.91-0.46-1.6-1.12-2.09-1.98c-0.49-0.85-0.73-1.85-0.73-3
			c0-1.08,0.25-2.05,0.75-2.92s1.2-1.54,2.08-2.03c0.89-0.49,1.88-0.74,2.98-0.74C254.59,18.48,255.7,18.82,256.58,19.51z"/>
		<path class="st5" d="M265.53,20.53v2.4h3.02v-2.4h-1.13v-1.88h5.29v1.88h-1.38v7.29h1.38v1.88h-5.29v-1.88h1.13v-3h-3.02v3h1.16
			v1.88h-5.33v-1.88h1.38v-7.29h-1.38v-1.88h5.33v1.88H265.53z"/>
	</g>
	<g>
		<g>
			<path class="st5" d="M347.01,25.31c0,1.16-0.25,2.14-0.74,2.94c-0.49,0.81-1.17,1.41-2.03,1.82s-1.86,0.62-3,0.62h-6.09v-1.88
				h1.68v-7.29h-1.68v-1.88h5.95c1.14,0,2.15,0.19,3.03,0.58c0.88,0.39,1.58,1.01,2.09,1.85C346.75,22.94,347.01,24.01,347.01,25.31
				z M344.01,25.22c0-1.22-0.28-2.13-0.85-2.75c-0.56-0.62-1.39-0.93-2.49-0.93h-0.97v7.29h0.67c0.99,0,1.75-0.17,2.29-0.5
				c0.54-0.33,0.89-0.76,1.07-1.27C343.92,26.53,344.01,25.92,344.01,25.22z"/>
			<path class="st5" d="M356.83,23.15v-1.62h-3.42v2.53h2.76v1.86h-2.76v2.89h3.42v-1.63h2.12v3.51h-9.73v-1.88h1.33v-7.29h-1.33
				v-1.88h9.73v3.49H356.83z"/>
			<path class="st5" d="M366.63,20.57v-0.92h1.88V23h-1.88c-0.08-0.54-0.25-0.94-0.52-1.21c-0.27-0.27-0.62-0.41-1.05-0.41
				c-0.3,0-0.56,0.09-0.78,0.26s-0.32,0.39-0.32,0.64c0,0.23,0.07,0.43,0.21,0.59s0.31,0.31,0.53,0.42
				c0.21,0.12,0.54,0.27,0.97,0.46l0.45,0.19c0.97,0.42,1.71,0.91,2.2,1.48c0.5,0.57,0.74,1.27,0.74,2.12c0,1.01-0.29,1.81-0.87,2.4
				c-0.58,0.59-1.36,0.88-2.34,0.88c-0.96,0-1.7-0.36-2.23-1.08v0.94h-1.88v-3.75h1.88c0.04,0.65,0.21,1.14,0.5,1.48
				c0.29,0.34,0.69,0.51,1.2,0.51c0.34,0,0.62-0.11,0.85-0.34c0.23-0.23,0.35-0.51,0.35-0.83c0-0.33-0.13-0.64-0.4-0.91
				c-0.27-0.28-0.72-0.55-1.36-0.83c-1.09-0.48-1.88-0.99-2.37-1.55c-0.49-0.55-0.74-1.19-0.74-1.9c0-0.56,0.13-1.07,0.39-1.54
				s0.62-0.83,1.07-1.09c0.46-0.27,0.95-0.4,1.49-0.4c0.43,0,0.82,0.09,1.17,0.26S366.4,20.23,366.63,20.57z"/>
			<path class="st5" d="M375.63,21.53v7.29h1.7v1.88h-6.24v-1.88h1.66v-7.29h-1.66v-1.88h6.24v1.88H375.63z"/>
			<path class="st5" d="M388.75,20.56v-0.9h1.88v3.91h-1.88c-0.23-0.65-0.62-1.17-1.18-1.55c-0.55-0.39-1.17-0.58-1.85-0.58
				c-0.63,0-1.19,0.15-1.67,0.44c-0.49,0.29-0.86,0.7-1.12,1.23c-0.26,0.53-0.4,1.15-0.4,1.85c0,1.2,0.29,2.14,0.87,2.83
				c0.58,0.69,1.37,1.04,2.38,1.04c0.67,0,1.22-0.16,1.65-0.47c0.43-0.31,0.73-0.77,0.92-1.36h-1.95v-1.88h5.19
				c0,1.2-0.24,2.23-0.71,3.08c-0.48,0.85-1.16,1.51-2.05,1.96c-0.89,0.45-1.96,0.67-3.2,0.67c-1.25,0-2.34-0.23-3.28-0.68
				c-0.94-0.45-1.65-1.11-2.16-1.96s-0.75-1.87-0.75-3.04c0-1.1,0.25-2.08,0.77-2.94c0.51-0.86,1.21-1.53,2.1-2.01
				s1.89-0.72,3.01-0.72C386.79,19.48,387.94,19.84,388.75,20.56z"/>
			<path class="st5" d="M402.64,21.53h-1.42v-1.88h4.93v1.88h-1.54v9.24h-2.45l-4.78-8.19v6.24h1.38v1.88h-4.83v-1.88h1.49v-7.29
				h-1.49v-1.88h4.64l4.07,6.9V21.53z"/>
		</g>
	</g>
	<g>
		<g>
			<path class="st5" d="M484.72,25.31c0,1.16-0.25,2.14-0.74,2.94c-0.49,0.81-1.17,1.41-2.03,1.82s-1.86,0.62-3,0.62h-6.09v-1.88
				h1.68v-7.29h-1.68v-1.88h5.95c1.14,0,2.15,0.19,3.03,0.58c0.88,0.39,1.58,1.01,2.09,1.85C484.46,22.94,484.72,24.01,484.72,25.31
				z M481.72,25.22c0-1.22-0.28-2.13-0.85-2.75c-0.56-0.62-1.39-0.93-2.49-0.93h-0.97v7.29h0.67c0.99,0,1.75-0.17,2.29-0.5
				c0.54-0.33,0.89-0.76,1.07-1.27C481.63,26.53,481.72,25.92,481.72,25.22z"/>
			<path class="st5" d="M494.54,23.15v-1.62h-3.42v2.53h2.76v1.86h-2.76v2.89h3.42v-1.63h2.12v3.51h-9.73v-1.88h1.33v-7.29h-1.33
				v-1.88h9.73v3.49H494.54z"/>
			<path class="st5" d="M502.91,21.53l1.86,5.52l1.86-5.52h-1.39v-1.88h4.87v1.88h-1.33l-3.18,9.22h-2.28l-3.29-9.22h-1.32v-1.88
				h5.62v1.88H502.91z"/>
			<path class="st5" d="M519.74,23.15v-1.62h-3.42v2.53h2.76v1.86h-2.76v2.89h3.42v-1.63h2.12v3.51h-9.73v-1.88h1.33v-7.29h-1.33
				v-1.88h9.73v3.49H519.74z"/>
			<path class="st5" d="M528.7,21.53v7.29h3.26v-3.41h2.16v5.28h-9.87v-1.88h1.58v-7.29h-1.58v-1.88h6.07v1.88H528.7z"/>
			<path class="st5" d="M536.59,25.14c0-1.12,0.26-2.1,0.77-2.96s1.23-1.52,2.16-2c0.93-0.48,2-0.71,3.21-0.71s2.28,0.24,3.2,0.71
				c0.93,0.48,1.64,1.14,2.15,2c0.51,0.86,0.77,1.84,0.77,2.95c0,1.12-0.25,2.11-0.77,2.97c-0.51,0.86-1.23,1.53-2.16,2
				c-0.93,0.47-2,0.71-3.2,0.71c-1.18,0-2.23-0.24-3.17-0.71c-0.93-0.47-1.67-1.14-2.19-2C536.85,27.26,536.59,26.27,536.59,25.14z
				 M545.78,25.13c0-0.67-0.12-1.28-0.37-1.83c-0.24-0.55-0.6-0.99-1.06-1.31c-0.46-0.32-1-0.49-1.62-0.49s-1.16,0.16-1.62,0.49
				c-0.46,0.33-0.81,0.76-1.06,1.31c-0.25,0.55-0.37,1.16-0.37,1.83c0,0.7,0.13,1.33,0.38,1.89c0.25,0.56,0.61,1,1.07,1.32
				s0.99,0.48,1.59,0.48c0.62,0,1.16-0.16,1.63-0.48c0.47-0.32,0.82-0.76,1.07-1.32S545.78,25.83,545.78,25.13z"/>
			<path class="st5" d="M561.32,23.17c0,1.2-0.38,2.09-1.12,2.66c-0.75,0.57-1.92,0.85-3.5,0.85h-1.16v2.15h1.55v1.88h-5.82v-1.88
				h1.39v-7.29h-1.39v-1.88h5.37c1.58,0,2.75,0.29,3.52,0.86S561.32,21.98,561.32,23.17z M558.29,23.17c0-0.46-0.09-0.81-0.28-1.05
				c-0.19-0.24-0.45-0.4-0.8-0.47c-0.35-0.07-0.75-0.11-1.21-0.11h-0.45v3.31H556c0.61,0,1.08-0.06,1.42-0.19
				c0.33-0.12,0.56-0.31,0.69-0.55C558.23,23.87,558.29,23.56,558.29,23.17z"/>
		</g>
	</g>
	<g>
		<g>
			<path class="st5" d="M609.52,21.53v7.29h3.26v-3.41h2.16v5.28h-9.87v-1.88h1.58v-7.29h-1.58v-1.88h6.07v1.88H609.52z"/>
			<path class="st5" d="M624.35,21.53l2.31,7.29h1.32v1.88h-5.43v-1.88h1.41l-0.53-1.88h-2.86l-0.59,1.88h1.47v1.88h-4.88v-1.88
				h1.36l2.15-7.29h-1.47v-1.88h7.22v1.88H624.35z M622.05,21.98l-0.99,3.33h1.92L622.05,21.98z"/>
			<path class="st5" d="M633.03,21.53v5.16c0,0.61,0.06,1.08,0.17,1.41c0.12,0.33,0.28,0.56,0.48,0.68
				c0.21,0.12,0.47,0.19,0.81,0.19c0.51,0,0.88-0.17,1.13-0.52c0.25-0.35,0.37-0.96,0.37-1.84v-5.07h-1.07v-1.88h4.41v1.88h-1.35
				v5.6c0,1.29-0.29,2.23-0.88,2.82c-0.58,0.59-1.56,0.88-2.92,0.88c-0.97,0-1.75-0.13-2.33-0.39s-1.01-0.69-1.28-1.3
				c-0.28-0.61-0.41-1.45-0.41-2.5v-5.1h-1.3v-1.88h5.27v1.88H633.03z"/>
			<path class="st5" d="M650.21,21.53h-1.42v-1.88h4.93v1.88h-1.54v9.24h-2.45l-4.78-8.19v6.24h1.38v1.88h-4.83v-1.88h1.49v-7.29
				h-1.49v-1.88h4.64l4.06,6.9V21.53z"/>
			<path class="st5" d="M664.88,20.51v-0.85h1.88v3.88h-1.88c-0.55-1.4-1.47-2.1-2.76-2.1c-0.64,0-1.21,0.17-1.7,0.5
				s-0.88,0.79-1.16,1.36c-0.28,0.57-0.41,1.21-0.41,1.91c0,0.65,0.13,1.25,0.39,1.8c0.26,0.54,0.63,0.98,1.1,1.3
				c0.47,0.33,1.01,0.49,1.62,0.49c0.75,0,1.4-0.26,1.96-0.78c0.55-0.52,0.93-1.2,1.12-2.05l2.17,1.03
				c-0.82,2.56-2.64,3.84-5.46,3.84c-1.21,0-2.27-0.23-3.18-0.7s-1.6-1.12-2.09-1.98s-0.73-1.85-0.73-3c0-1.08,0.25-2.05,0.75-2.92
				c0.5-0.86,1.2-1.54,2.08-2.03c0.88-0.49,1.88-0.74,2.98-0.74C662.89,19.48,664,19.82,664.88,20.51z"/>
			<path class="st5" d="M673.83,21.53v2.4h3.02v-2.4h-1.13v-1.88h5.29v1.88h-1.38v7.29h1.38v1.88h-5.29v-1.88h1.13v-3h-3.02v3h1.16
				v1.88h-5.33v-1.88h1.38v-7.29h-1.38v-1.88h5.33v1.88H673.83z"/>
		</g>
	</g>
</g>
<g>
	<path d="M25.28,81.4c-0.39,0.53-0.9,0.96-1.53,1.29c-0.62,0.33-1.38,0.5-2.25,0.5c-0.76,0-1.45-0.13-2.09-0.38
		c-0.64-0.26-1.19-0.62-1.65-1.08c-0.46-0.46-0.82-1.01-1.08-1.65s-0.39-1.34-0.39-2.11c0-0.77,0.13-1.48,0.4-2.12
		s0.63-1.19,1.11-1.64c0.47-0.45,1.03-0.81,1.67-1.06s1.34-0.38,2.1-0.38c0.34,0,0.68,0.03,1.02,0.1s0.68,0.16,0.99,0.29
		c0.32,0.13,0.61,0.29,0.87,0.48c0.26,0.19,0.49,0.41,0.67,0.67l-1.09,0.84c-0.24-0.34-0.59-0.61-1.03-0.83
		C22.55,74.11,22.07,74,21.56,74c-0.58,0-1.1,0.1-1.56,0.31s-0.86,0.5-1.18,0.86c-0.33,0.36-0.58,0.79-0.76,1.27
		c-0.18,0.48-0.27,0.99-0.27,1.53c0,0.56,0.09,1.08,0.26,1.57c0.17,0.49,0.42,0.91,0.74,1.27c0.32,0.36,0.71,0.64,1.18,0.85
		c0.46,0.21,0.98,0.31,1.55,0.31c0.56,0,1.07-0.11,1.53-0.34c0.46-0.22,0.84-0.55,1.13-0.98L25.28,81.4z"/>
	<path d="M33.18,79.61c0,0.51-0.09,0.98-0.27,1.41s-0.43,0.8-0.76,1.11c-0.32,0.31-0.7,0.56-1.14,0.73
		c-0.44,0.17-0.91,0.26-1.41,0.26s-0.98-0.09-1.41-0.26c-0.44-0.17-0.82-0.42-1.13-0.73c-0.32-0.31-0.57-0.68-0.75-1.11
		c-0.18-0.43-0.27-0.9-0.27-1.41c0-0.51,0.09-0.98,0.27-1.41c0.18-0.42,0.43-0.79,0.75-1.1c0.32-0.31,0.69-0.55,1.13-0.72
		c0.44-0.17,0.91-0.26,1.41-0.26s0.98,0.09,1.41,0.26c0.44,0.17,0.82,0.41,1.14,0.72c0.32,0.31,0.57,0.67,0.76,1.1
		S33.18,79.1,33.18,79.61z M31.8,79.62c0-0.32-0.05-0.62-0.15-0.91c-0.1-0.29-0.24-0.54-0.43-0.76s-0.42-0.39-0.7-0.52
		s-0.59-0.2-0.95-0.2c-0.36,0-0.67,0.06-0.95,0.2c-0.28,0.13-0.51,0.3-0.7,0.52c-0.19,0.22-0.33,0.47-0.43,0.76
		c-0.1,0.29-0.15,0.59-0.15,0.91c0,0.32,0.05,0.62,0.15,0.91c0.1,0.29,0.24,0.54,0.43,0.77c0.19,0.22,0.42,0.4,0.7,0.53
		c0.28,0.13,0.59,0.2,0.95,0.2c0.36,0,0.67-0.06,0.95-0.2s0.51-0.31,0.7-0.53c0.19-0.22,0.33-0.48,0.43-0.77S31.8,79.94,31.8,79.62z
		"/>
	<path d="M37.09,76.5c0.37-0.25,0.81-0.37,1.31-0.37c0.45,0,0.85,0.1,1.21,0.31c0.36,0.21,0.64,0.55,0.85,1.02
		c0.22-0.43,0.54-0.76,0.94-0.99c0.4-0.23,0.84-0.34,1.32-0.34c0.43,0,0.8,0.07,1.11,0.22c0.31,0.15,0.56,0.34,0.77,0.58
		c0.21,0.24,0.36,0.53,0.46,0.85c0.1,0.33,0.15,0.68,0.15,1.05v4.12h-1.32v-3.68c0-0.27-0.02-0.53-0.07-0.77
		c-0.05-0.24-0.13-0.46-0.24-0.64c-0.11-0.19-0.26-0.34-0.45-0.45s-0.42-0.17-0.71-0.17c-0.3,0-0.56,0.06-0.77,0.19
		c-0.21,0.13-0.39,0.29-0.52,0.49c-0.14,0.2-0.23,0.43-0.29,0.68c-0.06,0.25-0.09,0.51-0.09,0.77v3.58h-1.32V79
		c0-0.26-0.02-0.5-0.07-0.71c-0.05-0.21-0.13-0.4-0.24-0.55c-0.11-0.15-0.26-0.28-0.43-0.36c-0.18-0.09-0.4-0.13-0.66-0.13
		c-0.49,0-0.89,0.2-1.21,0.59c-0.32,0.4-0.48,0.93-0.48,1.59v3.53H35v-5.21c0-0.18,0-0.41-0.01-0.69c-0.01-0.28-0.02-0.53-0.04-0.74
		h1.25c0.02,0.17,0.03,0.36,0.04,0.57c0.01,0.21,0.01,0.38,0.01,0.52h0.04C36.45,77.05,36.72,76.74,37.09,76.5z"/>
	<path d="M48.73,86.3h-1.32v-10h1.29v1.04h0.04c0.21-0.35,0.53-0.65,0.94-0.88c0.41-0.23,0.9-0.34,1.45-0.34
		c0.49,0,0.94,0.09,1.35,0.27s0.75,0.42,1.05,0.74c0.29,0.32,0.52,0.69,0.68,1.11c0.16,0.42,0.24,0.88,0.24,1.36
		s-0.08,0.94-0.24,1.37c-0.16,0.43-0.38,0.8-0.67,1.12c-0.29,0.32-0.64,0.57-1.05,0.75c-0.41,0.18-0.87,0.27-1.38,0.27
		c-0.47,0-0.92-0.1-1.34-0.31s-0.75-0.49-0.99-0.87h-0.04V86.3z M53.1,79.61c0-0.31-0.05-0.61-0.14-0.9
		c-0.09-0.29-0.23-0.55-0.42-0.77c-0.19-0.22-0.42-0.4-0.69-0.53c-0.28-0.13-0.59-0.2-0.96-0.2c-0.34,0-0.64,0.07-0.92,0.2
		c-0.28,0.13-0.51,0.31-0.71,0.53c-0.2,0.22-0.35,0.48-0.46,0.77c-0.11,0.29-0.16,0.59-0.16,0.91s0.05,0.62,0.16,0.91
		c0.11,0.29,0.26,0.54,0.46,0.76c0.2,0.22,0.43,0.39,0.71,0.52c0.28,0.13,0.58,0.2,0.92,0.2c0.36,0,0.68-0.07,0.96-0.2
		s0.51-0.31,0.69-0.54c0.19-0.22,0.33-0.48,0.42-0.77C53.05,80.22,53.1,79.92,53.1,79.61z"/>
	<path d="M62.49,79.57c0,0.07,0,0.15,0,0.22s0,0.15-0.01,0.22H57.2c0.01,0.28,0.07,0.54,0.19,0.79c0.12,0.25,0.27,0.46,0.47,0.64
		c0.2,0.18,0.42,0.32,0.68,0.42c0.26,0.1,0.53,0.15,0.82,0.15c0.45,0,0.83-0.1,1.16-0.29c0.33-0.2,0.58-0.43,0.77-0.71l0.92,0.74
		c-0.35,0.47-0.77,0.82-1.25,1.04c-0.48,0.22-1.02,0.33-1.6,0.33c-0.5,0-0.97-0.08-1.4-0.25s-0.8-0.4-1.11-0.71
		c-0.31-0.3-0.55-0.67-0.73-1.1s-0.27-0.91-0.27-1.43c0-0.51,0.09-0.99,0.26-1.42s0.41-0.8,0.72-1.11s0.67-0.55,1.09-0.72
		c0.42-0.17,0.87-0.26,1.36-0.26s0.93,0.08,1.33,0.24s0.73,0.39,1.01,0.69c0.28,0.3,0.49,0.66,0.64,1.08
		C62.42,78.56,62.49,79.04,62.49,79.57z M61.15,79.04c-0.01-0.26-0.05-0.51-0.13-0.74c-0.08-0.23-0.2-0.43-0.35-0.59
		c-0.15-0.17-0.35-0.3-0.57-0.4c-0.23-0.1-0.5-0.15-0.81-0.15c-0.28,0-0.54,0.05-0.79,0.15c-0.25,0.1-0.46,0.23-0.64,0.4
		c-0.18,0.17-0.33,0.37-0.45,0.59c-0.12,0.23-0.18,0.47-0.2,0.74H61.15z"/>
	<path d="M67.56,77.39H65.8v3.45c0,0.4,0.07,0.69,0.22,0.86c0.15,0.17,0.39,0.26,0.71,0.26c0.12,0,0.25-0.01,0.39-0.04
		c0.14-0.03,0.27-0.06,0.38-0.12l0.04,1.08c-0.16,0.06-0.33,0.1-0.53,0.13s-0.39,0.05-0.59,0.05c-0.63,0-1.1-0.17-1.44-0.52
		c-0.33-0.35-0.5-0.86-0.5-1.55v-3.6h-1.27v-1.08h1.27v-1.9h1.3v1.9h1.76V77.39z"/>
	<path d="M70.46,73.91c0,0.24-0.09,0.44-0.26,0.6c-0.17,0.16-0.38,0.24-0.62,0.24c-0.24,0-0.44-0.08-0.61-0.25
		c-0.17-0.16-0.25-0.36-0.25-0.59c0-0.24,0.08-0.45,0.25-0.61c0.17-0.16,0.37-0.24,0.61-0.24c0.24,0,0.45,0.08,0.62,0.24
		C70.37,73.47,70.46,73.67,70.46,73.91z M70.25,82.94h-1.32v-6.64h1.32V82.94z"/>
	<path d="M75.79,77.39h-1.76v3.45c0,0.4,0.07,0.69,0.22,0.86c0.15,0.17,0.39,0.26,0.71,0.26c0.12,0,0.25-0.01,0.39-0.04
		c0.14-0.03,0.27-0.06,0.38-0.12l0.04,1.08c-0.16,0.06-0.33,0.1-0.53,0.13s-0.39,0.05-0.59,0.05c-0.63,0-1.1-0.17-1.44-0.52
		c-0.33-0.35-0.5-0.86-0.5-1.55v-3.6h-1.27v-1.08h1.27v-1.9h1.3v1.9h1.76V77.39z"/>
	<path d="M78.69,73.91c0,0.24-0.09,0.44-0.26,0.6c-0.17,0.16-0.38,0.24-0.62,0.24c-0.24,0-0.44-0.08-0.61-0.25
		c-0.17-0.16-0.25-0.36-0.25-0.59c0-0.24,0.08-0.45,0.25-0.61c0.17-0.16,0.37-0.24,0.61-0.24c0.24,0,0.45,0.08,0.62,0.24
		C78.6,73.47,78.69,73.67,78.69,73.91z M78.48,82.94h-1.32v-6.64h1.32V82.94z"/>
	<path d="M83.9,82.94h-1.43l-2.7-6.64h1.46l1.95,5.22h0.03l1.96-5.22h1.4L83.9,82.94z"/>
	<path d="M94.03,79.57c0,0.07,0,0.15,0,0.22s0,0.15-0.01,0.22h-5.28c0.01,0.28,0.07,0.54,0.19,0.79c0.12,0.25,0.27,0.46,0.47,0.64
		s0.42,0.32,0.68,0.42c0.26,0.1,0.53,0.15,0.82,0.15c0.45,0,0.83-0.1,1.16-0.29c0.33-0.2,0.58-0.43,0.77-0.71l0.92,0.74
		c-0.35,0.47-0.77,0.82-1.25,1.04s-1.01,0.33-1.6,0.33c-0.5,0-0.97-0.08-1.4-0.25s-0.8-0.4-1.11-0.71c-0.31-0.3-0.55-0.67-0.73-1.1
		c-0.18-0.43-0.27-0.91-0.27-1.43c0-0.51,0.09-0.99,0.26-1.42c0.17-0.43,0.41-0.8,0.72-1.11s0.67-0.55,1.09-0.72
		c0.42-0.17,0.87-0.26,1.36-0.26c0.49,0,0.93,0.08,1.33,0.24s0.73,0.39,1.01,0.69c0.28,0.3,0.49,0.66,0.64,1.08
		C93.96,78.56,94.03,79.04,94.03,79.57z M92.69,79.04c-0.01-0.26-0.05-0.51-0.13-0.74c-0.08-0.23-0.2-0.43-0.35-0.59
		c-0.15-0.17-0.34-0.3-0.57-0.4c-0.23-0.1-0.5-0.15-0.8-0.15c-0.28,0-0.54,0.05-0.79,0.15c-0.25,0.1-0.46,0.23-0.64,0.4
		c-0.18,0.17-0.33,0.37-0.45,0.59c-0.12,0.23-0.18,0.47-0.2,0.74H92.69z"/>
	<path d="M99.58,82.94h-1.54l4.3-9.91h1.26l4.26,9.91h-1.57l-1.01-2.44h-4.7L99.58,82.94z M101.06,79.29h3.71l-1.85-4.65
		L101.06,79.29z"/>
	<path d="M110.25,76.31c0.02,0.17,0.03,0.36,0.04,0.57c0.01,0.21,0.01,0.38,0.01,0.52h0.04c0.08-0.18,0.2-0.34,0.34-0.5
		s0.31-0.29,0.5-0.41s0.39-0.21,0.62-0.27c0.22-0.06,0.46-0.1,0.7-0.1c0.43,0,0.8,0.07,1.11,0.22c0.31,0.15,0.57,0.34,0.77,0.58
		s0.36,0.53,0.46,0.85c0.1,0.33,0.15,0.68,0.15,1.05v4.12h-1.32v-3.68c0-0.27-0.02-0.53-0.06-0.77c-0.04-0.24-0.12-0.46-0.23-0.64
		c-0.11-0.19-0.27-0.34-0.46-0.45c-0.2-0.11-0.45-0.17-0.76-0.17c-0.52,0-0.95,0.2-1.28,0.59c-0.33,0.4-0.5,0.93-0.5,1.59v3.53
		h-1.32v-5.21c0-0.18,0-0.41-0.01-0.69c-0.01-0.28-0.02-0.53-0.04-0.74H110.25z"/>
	<path d="M121.33,78.65c0-0.49-0.15-0.86-0.45-1.1c-0.3-0.24-0.7-0.36-1.19-0.36c-0.37,0-0.73,0.07-1.06,0.22
		c-0.33,0.15-0.61,0.33-0.83,0.55l-0.7-0.84c0.33-0.31,0.73-0.55,1.2-0.73c0.47-0.18,0.98-0.27,1.52-0.27c0.48,0,0.89,0.07,1.24,0.2
		c0.35,0.14,0.64,0.32,0.86,0.55c0.22,0.23,0.39,0.51,0.5,0.83c0.11,0.32,0.17,0.66,0.17,1.02v2.9c0,0.22,0.01,0.46,0.02,0.71
		s0.04,0.45,0.08,0.61h-1.19c-0.07-0.32-0.11-0.63-0.11-0.95h-0.04c-0.24,0.35-0.55,0.63-0.92,0.83c-0.37,0.2-0.81,0.29-1.31,0.29
		c-0.26,0-0.53-0.04-0.82-0.1c-0.29-0.07-0.54-0.18-0.78-0.34s-0.43-0.37-0.58-0.63c-0.15-0.26-0.23-0.58-0.23-0.97
		c0-0.5,0.14-0.9,0.41-1.2c0.27-0.29,0.62-0.52,1.06-0.67c0.44-0.15,0.93-0.25,1.48-0.3s1.11-0.07,1.67-0.07V78.65z M121.01,79.78
		c-0.33,0-0.67,0.01-1.02,0.04c-0.35,0.03-0.67,0.08-0.95,0.17c-0.28,0.08-0.52,0.21-0.71,0.38c-0.19,0.17-0.28,0.39-0.28,0.67
		c0,0.2,0.04,0.36,0.12,0.49c0.08,0.13,0.18,0.24,0.31,0.32s0.28,0.14,0.43,0.17c0.16,0.03,0.32,0.05,0.49,0.05
		c0.62,0,1.09-0.18,1.42-0.55c0.33-0.37,0.5-0.83,0.5-1.39v-0.35H121.01z"/>
	<path d="M126.13,82.94h-1.32V72.36h1.32V82.94z"/>
	<path d="M130.95,81.52h0.03l1.83-5.21h1.4l-3.22,8.2c-0.11,0.28-0.23,0.53-0.36,0.75s-0.29,0.41-0.46,0.56
		c-0.18,0.15-0.38,0.27-0.62,0.36s-0.52,0.13-0.85,0.13c-0.14,0-0.28-0.01-0.43-0.02c-0.14-0.01-0.29-0.04-0.44-0.08l0.13-1.16
		c0.22,0.07,0.44,0.11,0.66,0.11c0.34,0,0.6-0.1,0.77-0.29s0.32-0.46,0.46-0.82l0.42-1.11l-2.84-6.64h1.47L130.95,81.52z"/>
	<path d="M139.07,77.99c-0.15-0.24-0.36-0.44-0.63-0.59c-0.27-0.15-0.57-0.23-0.91-0.23c-0.15,0-0.3,0.02-0.45,0.05
		c-0.15,0.03-0.28,0.08-0.4,0.15c-0.12,0.07-0.21,0.16-0.28,0.27c-0.07,0.11-0.1,0.24-0.1,0.4c0,0.28,0.13,0.49,0.38,0.62
		s0.63,0.26,1.13,0.37c0.32,0.07,0.61,0.16,0.88,0.27c0.27,0.1,0.51,0.23,0.71,0.38s0.36,0.34,0.47,0.55
		c0.11,0.21,0.17,0.47,0.17,0.76c0,0.39-0.07,0.72-0.22,0.99c-0.15,0.27-0.35,0.49-0.59,0.67c-0.25,0.17-0.53,0.3-0.85,0.37
		c-0.32,0.07-0.64,0.11-0.98,0.11c-0.5,0-1-0.1-1.48-0.29c-0.48-0.2-0.88-0.49-1.2-0.9l0.94-0.8c0.18,0.26,0.42,0.48,0.74,0.66
		s0.66,0.27,1.03,0.27c0.17,0,0.33-0.02,0.48-0.05c0.15-0.03,0.29-0.09,0.42-0.16s0.23-0.17,0.3-0.29c0.08-0.12,0.11-0.27,0.11-0.46
		c0-0.31-0.15-0.54-0.44-0.69c-0.29-0.15-0.73-0.29-1.29-0.42c-0.22-0.06-0.45-0.12-0.68-0.2c-0.23-0.08-0.44-0.19-0.62-0.33
		c-0.19-0.14-0.34-0.31-0.46-0.53c-0.12-0.21-0.17-0.47-0.17-0.78c0-0.35,0.07-0.66,0.22-0.92c0.14-0.26,0.33-0.47,0.57-0.63
		c0.23-0.16,0.5-0.28,0.8-0.36c0.3-0.08,0.61-0.12,0.92-0.12c0.48,0,0.94,0.09,1.38,0.28c0.44,0.19,0.79,0.46,1.03,0.81
		L139.07,77.99z"/>
	<path d="M143.24,73.91c0,0.24-0.09,0.44-0.26,0.6c-0.17,0.16-0.38,0.24-0.62,0.24c-0.24,0-0.44-0.08-0.61-0.25
		c-0.17-0.16-0.25-0.36-0.25-0.59c0-0.24,0.08-0.45,0.25-0.61c0.17-0.16,0.37-0.24,0.61-0.24c0.24,0,0.45,0.08,0.62,0.24
		C143.16,73.47,143.24,73.67,143.24,73.91z M143.03,82.94h-1.32v-6.64h1.32V82.94z"/>
	<path d="M148.91,77.99c-0.15-0.24-0.36-0.44-0.63-0.59c-0.27-0.15-0.57-0.23-0.91-0.23c-0.15,0-0.3,0.02-0.45,0.05
		c-0.15,0.03-0.28,0.08-0.4,0.15c-0.12,0.07-0.21,0.16-0.28,0.27c-0.07,0.11-0.1,0.24-0.1,0.4c0,0.28,0.13,0.49,0.38,0.62
		s0.63,0.26,1.13,0.37c0.32,0.07,0.61,0.16,0.88,0.27c0.27,0.1,0.51,0.23,0.71,0.38s0.36,0.34,0.47,0.55
		c0.11,0.21,0.17,0.47,0.17,0.76c0,0.39-0.07,0.72-0.22,0.99c-0.15,0.27-0.35,0.49-0.59,0.67c-0.25,0.17-0.53,0.3-0.85,0.37
		c-0.32,0.07-0.64,0.11-0.98,0.11c-0.5,0-1-0.1-1.48-0.29c-0.48-0.2-0.88-0.49-1.2-0.9l0.94-0.8c0.18,0.26,0.42,0.48,0.74,0.66
		s0.66,0.27,1.03,0.27c0.17,0,0.33-0.02,0.48-0.05c0.15-0.03,0.29-0.09,0.42-0.16s0.23-0.17,0.3-0.29c0.08-0.12,0.11-0.27,0.11-0.46
		c0-0.31-0.15-0.54-0.44-0.69c-0.29-0.15-0.73-0.29-1.29-0.42c-0.22-0.06-0.45-0.12-0.68-0.2c-0.23-0.08-0.44-0.19-0.62-0.33
		c-0.19-0.14-0.34-0.31-0.46-0.53c-0.12-0.21-0.17-0.47-0.17-0.78c0-0.35,0.07-0.66,0.22-0.92c0.14-0.26,0.33-0.47,0.57-0.63
		c0.23-0.16,0.5-0.28,0.8-0.36c0.3-0.08,0.61-0.12,0.92-0.12c0.48,0,0.94,0.09,1.38,0.28c0.44,0.19,0.79,0.46,1.03,0.81
		L148.91,77.99z"/>
</g>
<g>
	<path d="M178,83.58c-0.65,0-1.22-0.11-1.71-0.33s-0.89-0.51-1.2-0.88c-0.32-0.36-0.55-0.78-0.71-1.25
		c-0.15-0.47-0.23-0.96-0.23-1.46v-6.24h1.39v6.16c0,0.34,0.04,0.67,0.13,1c0.08,0.33,0.22,0.63,0.41,0.89
		c0.19,0.26,0.44,0.47,0.76,0.63c0.31,0.16,0.7,0.24,1.17,0.24c0.46,0,0.84-0.08,1.16-0.24s0.57-0.37,0.76-0.63
		c0.19-0.26,0.33-0.56,0.41-0.89c0.08-0.33,0.13-0.67,0.13-1v-6.16h1.38v6.24c0,0.5-0.08,0.99-0.23,1.46
		c-0.15,0.47-0.39,0.89-0.71,1.25c-0.32,0.36-0.72,0.66-1.2,0.88S178.65,83.58,178,83.58z"/>
	<path d="M187.7,78.37c-0.15-0.24-0.36-0.44-0.63-0.59c-0.27-0.15-0.57-0.23-0.91-0.23c-0.15,0-0.3,0.02-0.45,0.05
		s-0.28,0.08-0.4,0.15c-0.12,0.07-0.21,0.16-0.28,0.27s-0.11,0.24-0.11,0.4c0,0.28,0.13,0.49,0.38,0.62
		c0.25,0.14,0.63,0.26,1.13,0.37c0.32,0.07,0.61,0.16,0.88,0.27c0.27,0.1,0.51,0.23,0.71,0.38c0.2,0.15,0.36,0.34,0.47,0.55
		c0.11,0.21,0.17,0.47,0.17,0.76c0,0.39-0.07,0.72-0.22,0.99c-0.15,0.27-0.35,0.49-0.59,0.67c-0.25,0.17-0.53,0.3-0.85,0.37
		c-0.32,0.07-0.64,0.11-0.98,0.11c-0.5,0-1-0.1-1.48-0.29c-0.48-0.2-0.88-0.49-1.2-0.9l0.94-0.8c0.18,0.26,0.42,0.48,0.74,0.66
		c0.31,0.18,0.65,0.27,1.03,0.27c0.17,0,0.33-0.02,0.48-0.05c0.15-0.03,0.29-0.09,0.42-0.16c0.13-0.07,0.23-0.17,0.3-0.29
		c0.07-0.12,0.11-0.27,0.11-0.46c0-0.31-0.15-0.54-0.44-0.69c-0.29-0.15-0.73-0.29-1.29-0.42c-0.22-0.06-0.45-0.12-0.68-0.2
		c-0.23-0.08-0.44-0.19-0.62-0.33c-0.19-0.14-0.34-0.31-0.46-0.53c-0.12-0.21-0.18-0.47-0.18-0.78c0-0.35,0.07-0.66,0.22-0.92
		c0.14-0.26,0.33-0.47,0.57-0.63c0.23-0.16,0.5-0.28,0.8-0.36c0.3-0.08,0.61-0.12,0.92-0.12c0.48,0,0.94,0.09,1.38,0.28
		c0.44,0.19,0.79,0.46,1.03,0.81L187.7,78.37z"/>
	<path d="M196.53,79.95c0,0.07,0,0.15,0,0.22s0,0.15-0.01,0.22h-5.28c0.01,0.28,0.07,0.54,0.19,0.79c0.12,0.25,0.27,0.46,0.47,0.64
		c0.2,0.18,0.42,0.32,0.68,0.42c0.26,0.1,0.53,0.15,0.82,0.15c0.45,0,0.83-0.1,1.16-0.29c0.33-0.2,0.58-0.43,0.77-0.71l0.92,0.74
		c-0.36,0.47-0.77,0.82-1.25,1.04c-0.48,0.22-1.01,0.33-1.6,0.33c-0.5,0-0.97-0.08-1.4-0.25c-0.43-0.17-0.8-0.4-1.11-0.71
		s-0.55-0.67-0.73-1.1c-0.18-0.43-0.27-0.91-0.27-1.43c0-0.51,0.09-0.99,0.26-1.42s0.41-0.8,0.72-1.11s0.67-0.55,1.09-0.72
		c0.42-0.17,0.87-0.26,1.36-0.26s0.93,0.08,1.33,0.24c0.4,0.16,0.73,0.39,1.01,0.69c0.28,0.3,0.49,0.66,0.64,1.08
		C196.46,78.94,196.53,79.42,196.53,79.95z M195.19,79.42c-0.01-0.26-0.05-0.51-0.13-0.74c-0.08-0.23-0.2-0.43-0.35-0.59
		s-0.35-0.3-0.57-0.4c-0.23-0.1-0.5-0.15-0.8-0.15c-0.28,0-0.54,0.05-0.79,0.15c-0.25,0.1-0.46,0.23-0.64,0.4s-0.33,0.37-0.45,0.59
		c-0.12,0.23-0.19,0.47-0.2,0.74H195.19z"/>
	<path d="M198.34,77.43c-0.01-0.28-0.02-0.53-0.04-0.74h1.25c0.02,0.17,0.03,0.36,0.04,0.58c0.01,0.22,0.01,0.4,0.01,0.54h0.04
		c0.19-0.39,0.46-0.71,0.82-0.94c0.36-0.24,0.76-0.36,1.21-0.36c0.21,0,0.38,0.02,0.52,0.06l-0.06,1.22
		c-0.19-0.05-0.39-0.07-0.6-0.07c-0.32,0-0.59,0.06-0.83,0.17c-0.23,0.12-0.43,0.27-0.58,0.47c-0.15,0.2-0.27,0.42-0.34,0.68
		c-0.07,0.26-0.11,0.52-0.11,0.81v3.49h-1.32v-5.21C198.35,77.94,198.35,77.71,198.34,77.43z"/>
	<path d="M211.92,75.25c-0.2-0.27-0.46-0.49-0.8-0.67c-0.34-0.17-0.71-0.26-1.13-0.26c-0.22,0-0.45,0.03-0.68,0.09
		c-0.23,0.06-0.44,0.16-0.62,0.29c-0.19,0.14-0.34,0.3-0.46,0.5s-0.17,0.44-0.17,0.72c0,0.27,0.05,0.5,0.16,0.68
		s0.25,0.34,0.43,0.46s0.4,0.23,0.64,0.32c0.25,0.09,0.51,0.18,0.79,0.27c0.34,0.1,0.68,0.22,1.02,0.35
		c0.35,0.13,0.66,0.3,0.94,0.52c0.28,0.21,0.51,0.48,0.69,0.81c0.18,0.32,0.27,0.73,0.27,1.23c0,0.51-0.1,0.96-0.29,1.34
		s-0.45,0.69-0.76,0.94c-0.32,0.25-0.68,0.43-1.1,0.55c-0.42,0.12-0.84,0.18-1.28,0.18c-0.62,0-1.23-0.12-1.81-0.36
		c-0.58-0.24-1.07-0.6-1.45-1.08l1.08-0.91c0.23,0.35,0.55,0.63,0.94,0.84c0.39,0.21,0.82,0.32,1.27,0.32c0.23,0,0.47-0.03,0.7-0.1
		c0.23-0.06,0.45-0.17,0.64-0.31c0.19-0.14,0.35-0.31,0.47-0.52c0.12-0.21,0.18-0.46,0.18-0.76s-0.06-0.55-0.19-0.75
		s-0.3-0.37-0.51-0.51c-0.21-0.14-0.46-0.26-0.75-0.36s-0.59-0.2-0.9-0.3c-0.32-0.09-0.63-0.21-0.94-0.34
		c-0.31-0.14-0.58-0.31-0.83-0.52c-0.24-0.21-0.44-0.47-0.59-0.78c-0.15-0.31-0.22-0.69-0.22-1.15c0-0.49,0.1-0.92,0.3-1.27
		c0.2-0.35,0.46-0.65,0.78-0.88c0.32-0.23,0.69-0.4,1.09-0.51c0.41-0.11,0.81-0.16,1.23-0.16c0.58,0,1.12,0.1,1.62,0.31
		c0.5,0.21,0.91,0.48,1.22,0.83L211.92,75.25z"/>
	<path d="M219.56,83.32c-0.02-0.17-0.03-0.36-0.04-0.57s-0.01-0.39-0.01-0.52h-0.03c-0.17,0.35-0.45,0.66-0.85,0.9
		s-0.84,0.37-1.32,0.37c-0.43,0-0.8-0.07-1.11-0.21c-0.31-0.14-0.57-0.33-0.77-0.58c-0.2-0.25-0.35-0.53-0.45-0.86
		c-0.1-0.33-0.15-0.68-0.15-1.05v-4.12h1.32v3.67c0,0.27,0.02,0.53,0.06,0.78c0.04,0.25,0.12,0.46,0.23,0.65
		c0.11,0.19,0.27,0.34,0.46,0.45c0.2,0.11,0.45,0.17,0.76,0.17c0.53,0,0.96-0.2,1.29-0.6c0.33-0.4,0.49-0.93,0.49-1.59v-3.53h1.32
		v5.21c0,0.18,0,0.41,0.01,0.69c0.01,0.28,0.02,0.53,0.04,0.74H219.56z"/>
	<path d="M223.02,77.43c-0.01-0.28-0.02-0.53-0.04-0.74h1.25c0.02,0.17,0.03,0.36,0.04,0.58c0.01,0.22,0.01,0.4,0.01,0.54h0.04
		c0.19-0.39,0.46-0.71,0.82-0.94c0.36-0.24,0.76-0.36,1.21-0.36c0.21,0,0.38,0.02,0.52,0.06l-0.06,1.22
		c-0.19-0.05-0.39-0.07-0.6-0.07c-0.32,0-0.59,0.06-0.83,0.17c-0.23,0.12-0.43,0.27-0.58,0.47c-0.15,0.2-0.27,0.42-0.34,0.68
		c-0.07,0.26-0.11,0.52-0.11,0.81v3.49h-1.32v-5.21C223.03,77.94,223.03,77.71,223.02,77.43z"/>
	<path d="M231.22,83.32h-1.43l-2.7-6.64h1.46l1.95,5.22h0.03l1.96-5.22h1.4L231.22,83.32z"/>
	<path d="M241.36,79.95c0,0.07,0,0.15,0,0.22s0,0.15-0.01,0.22h-5.28c0.01,0.28,0.07,0.54,0.19,0.79c0.12,0.25,0.27,0.46,0.47,0.64
		s0.42,0.32,0.68,0.42c0.26,0.1,0.53,0.15,0.82,0.15c0.45,0,0.83-0.1,1.16-0.29c0.33-0.2,0.58-0.43,0.77-0.71l0.92,0.74
		c-0.36,0.47-0.77,0.82-1.25,1.04s-1.01,0.33-1.6,0.33c-0.5,0-0.97-0.08-1.4-0.25s-0.8-0.4-1.11-0.71c-0.31-0.3-0.55-0.67-0.73-1.1
		s-0.27-0.91-0.27-1.43c0-0.51,0.09-0.99,0.26-1.42c0.17-0.43,0.41-0.8,0.72-1.11s0.67-0.55,1.09-0.72
		c0.42-0.17,0.87-0.26,1.36-0.26s0.93,0.08,1.33,0.24s0.73,0.39,1.01,0.69c0.28,0.3,0.49,0.66,0.64,1.08
		C241.29,78.94,241.36,79.42,241.36,79.95z M240.02,79.42c-0.01-0.26-0.05-0.51-0.13-0.74c-0.08-0.23-0.2-0.43-0.35-0.59
		c-0.15-0.17-0.34-0.3-0.57-0.4c-0.23-0.1-0.5-0.15-0.81-0.15c-0.28,0-0.54,0.05-0.79,0.15c-0.25,0.1-0.46,0.23-0.64,0.4
		s-0.33,0.37-0.45,0.59c-0.12,0.23-0.18,0.47-0.2,0.74H240.02z"/>
	<path d="M245.7,81.9h0.03l1.83-5.21h1.4l-3.22,8.2c-0.11,0.28-0.23,0.53-0.37,0.75s-0.29,0.41-0.46,0.56
		c-0.18,0.15-0.39,0.27-0.62,0.36c-0.24,0.08-0.52,0.13-0.85,0.13c-0.14,0-0.28-0.01-0.43-0.02c-0.15-0.01-0.29-0.04-0.44-0.08
		l0.12-1.16c0.22,0.07,0.44,0.11,0.66,0.11c0.35,0,0.6-0.1,0.77-0.29s0.32-0.46,0.46-0.82l0.42-1.11l-2.84-6.64h1.47L245.7,81.9z"/>
	<path d="M250.07,83.79l-0.99-0.34l4.3-10.51l0.99,0.36L250.07,83.79z"/>
	<path d="M182.71,98.58c-0.39,0.53-0.9,0.96-1.53,1.29c-0.62,0.33-1.38,0.5-2.25,0.5c-0.76,0-1.45-0.13-2.09-0.38
		c-0.64-0.26-1.19-0.62-1.65-1.08c-0.46-0.46-0.82-1.01-1.09-1.65c-0.26-0.64-0.39-1.34-0.39-2.11c0-0.77,0.13-1.48,0.4-2.12
		c0.27-0.64,0.63-1.19,1.11-1.64c0.47-0.45,1.03-0.8,1.67-1.06c0.64-0.25,1.34-0.38,2.1-0.38c0.34,0,0.68,0.03,1.02,0.1
		c0.35,0.07,0.68,0.16,0.99,0.29c0.32,0.13,0.61,0.29,0.87,0.48s0.49,0.41,0.67,0.67l-1.09,0.84c-0.24-0.34-0.59-0.61-1.03-0.83
		c-0.44-0.22-0.92-0.33-1.44-0.33c-0.58,0-1.1,0.11-1.56,0.32c-0.46,0.21-0.86,0.5-1.18,0.86c-0.33,0.36-0.58,0.79-0.76,1.27
		s-0.27,0.99-0.27,1.53c0,0.56,0.09,1.08,0.26,1.57s0.42,0.91,0.74,1.27c0.32,0.36,0.71,0.64,1.18,0.85s0.98,0.31,1.55,0.31
		c0.56,0,1.07-0.11,1.53-0.34c0.46-0.22,0.83-0.55,1.13-0.98L182.71,98.58z"/>
	<path d="M190.61,96.79c0,0.51-0.09,0.98-0.27,1.41c-0.18,0.43-0.43,0.8-0.76,1.11c-0.32,0.31-0.7,0.56-1.14,0.73
		s-0.91,0.26-1.41,0.26s-0.98-0.09-1.41-0.26s-0.82-0.42-1.13-0.73c-0.32-0.31-0.57-0.68-0.75-1.11c-0.18-0.43-0.27-0.9-0.27-1.41
		s0.09-0.98,0.27-1.41c0.18-0.42,0.43-0.79,0.75-1.1c0.32-0.31,0.7-0.55,1.13-0.72c0.44-0.17,0.91-0.26,1.41-0.26
		s0.98,0.09,1.41,0.26c0.44,0.17,0.82,0.41,1.14,0.72c0.32,0.31,0.57,0.67,0.76,1.1C190.52,95.81,190.61,96.28,190.61,96.79z
		 M189.24,96.8c0-0.32-0.05-0.62-0.15-0.91s-0.24-0.54-0.43-0.76c-0.19-0.22-0.42-0.39-0.7-0.52c-0.28-0.13-0.59-0.2-0.95-0.2
		s-0.67,0.06-0.95,0.2c-0.28,0.13-0.51,0.3-0.7,0.52c-0.19,0.22-0.33,0.47-0.43,0.76c-0.1,0.29-0.15,0.59-0.15,0.91
		s0.05,0.62,0.15,0.91c0.1,0.29,0.24,0.54,0.43,0.77c0.19,0.22,0.42,0.4,0.7,0.53c0.28,0.13,0.59,0.2,0.95,0.2s0.67-0.07,0.95-0.2
		c0.28-0.13,0.51-0.31,0.7-0.53c0.19-0.22,0.33-0.48,0.43-0.77C189.19,97.42,189.24,97.12,189.24,96.8z"/>
	<path d="M193.62,93.49c0.02,0.17,0.03,0.36,0.04,0.57c0.01,0.21,0.01,0.38,0.01,0.53h0.04c0.08-0.18,0.2-0.34,0.34-0.5
		c0.14-0.15,0.31-0.29,0.5-0.41c0.19-0.12,0.39-0.21,0.62-0.27c0.22-0.06,0.46-0.1,0.7-0.1c0.43,0,0.8,0.07,1.11,0.22
		c0.31,0.15,0.56,0.34,0.77,0.58c0.21,0.24,0.36,0.53,0.46,0.85c0.1,0.33,0.15,0.68,0.15,1.05v4.12h-1.32v-3.68
		c0-0.27-0.02-0.53-0.06-0.77c-0.04-0.24-0.12-0.46-0.23-0.64c-0.11-0.19-0.27-0.34-0.46-0.45c-0.2-0.11-0.45-0.17-0.76-0.17
		c-0.52,0-0.95,0.2-1.28,0.59c-0.33,0.4-0.5,0.93-0.5,1.59v3.53h-1.32v-5.21c0-0.18,0-0.41-0.01-0.69
		c-0.01-0.28-0.02-0.53-0.04-0.74H193.62z"/>
	<path d="M203.83,94.57h-1.76v3.45c0,0.4,0.07,0.69,0.22,0.86c0.15,0.17,0.39,0.26,0.71,0.26c0.12,0,0.25-0.01,0.39-0.04
		c0.14-0.03,0.27-0.06,0.38-0.12l0.04,1.08c-0.16,0.06-0.33,0.1-0.53,0.13c-0.19,0.03-0.39,0.05-0.6,0.05
		c-0.62,0-1.1-0.17-1.43-0.52c-0.33-0.34-0.5-0.86-0.5-1.55v-3.6h-1.27v-1.08h1.27v-1.9h1.3v1.9h1.76V94.57z"/>
	<path d="M211.39,96.75c0,0.07,0,0.15,0,0.22c0,0.08,0,0.15-0.01,0.22h-5.28c0.01,0.28,0.07,0.54,0.19,0.79
		c0.12,0.25,0.27,0.46,0.47,0.64c0.2,0.18,0.42,0.32,0.68,0.42s0.53,0.15,0.82,0.15c0.45,0,0.83-0.1,1.16-0.29
		c0.33-0.2,0.58-0.43,0.77-0.71l0.92,0.74c-0.35,0.47-0.77,0.82-1.25,1.04c-0.48,0.22-1.02,0.33-1.6,0.33c-0.5,0-0.97-0.08-1.4-0.25
		s-0.8-0.4-1.11-0.71c-0.31-0.3-0.55-0.67-0.73-1.1c-0.18-0.43-0.27-0.91-0.27-1.43c0-0.51,0.09-0.99,0.26-1.42
		c0.17-0.43,0.41-0.8,0.72-1.11c0.31-0.31,0.67-0.55,1.09-0.72c0.42-0.17,0.88-0.26,1.36-0.26s0.93,0.08,1.33,0.24
		c0.4,0.16,0.73,0.39,1.01,0.69c0.28,0.3,0.49,0.66,0.64,1.08C211.31,95.74,211.39,96.22,211.39,96.75z M210.04,96.22
		c-0.01-0.26-0.05-0.51-0.13-0.74c-0.08-0.23-0.2-0.43-0.35-0.59s-0.35-0.3-0.57-0.4c-0.23-0.1-0.5-0.15-0.8-0.15
		c-0.28,0-0.54,0.05-0.79,0.15c-0.25,0.1-0.46,0.23-0.64,0.4c-0.18,0.17-0.33,0.37-0.45,0.59c-0.12,0.23-0.18,0.47-0.2,0.74H210.04z
		"/>
	<path d="M214.69,96.64l-2.42-3.15h1.62l1.62,2.28l1.64-2.28h1.54l-2.39,3.14l2.67,3.5h-1.64l-1.85-2.59l-1.88,2.59h-1.58
		L214.69,96.64z"/>
	<path d="M223.47,94.57h-1.76v3.45c0,0.4,0.07,0.69,0.22,0.86c0.15,0.17,0.39,0.26,0.71,0.26c0.12,0,0.25-0.01,0.39-0.04
		c0.14-0.03,0.27-0.06,0.38-0.12l0.04,1.08c-0.16,0.06-0.33,0.1-0.53,0.13c-0.19,0.03-0.39,0.05-0.59,0.05
		c-0.63,0-1.1-0.17-1.44-0.52c-0.33-0.34-0.5-0.86-0.5-1.55v-3.6h-1.27v-1.08h1.27v-1.9h1.3v1.9h1.76V94.57z"/>
	<path d="M229.5,100.12c-0.02-0.17-0.03-0.36-0.04-0.57c-0.01-0.21-0.01-0.38-0.01-0.52h-0.03c-0.17,0.35-0.45,0.66-0.85,0.9
		s-0.84,0.37-1.32,0.37c-0.43,0-0.8-0.07-1.11-0.21s-0.57-0.33-0.77-0.58s-0.35-0.53-0.45-0.86c-0.1-0.33-0.15-0.68-0.15-1.05v-4.12
		h1.32v3.67c0,0.27,0.02,0.53,0.06,0.78c0.04,0.25,0.12,0.46,0.23,0.65c0.11,0.19,0.27,0.34,0.46,0.45c0.2,0.11,0.45,0.17,0.76,0.17
		c0.53,0,0.96-0.2,1.29-0.6c0.33-0.4,0.49-0.93,0.49-1.59v-3.53h1.32v5.21c0,0.18,0,0.41,0.01,0.69s0.02,0.53,0.04,0.74H229.5z"/>
	<path d="M237.1,95.83c0-0.5-0.15-0.86-0.45-1.1c-0.3-0.24-0.7-0.36-1.19-0.36c-0.37,0-0.72,0.07-1.06,0.22
		c-0.33,0.14-0.61,0.33-0.83,0.55l-0.7-0.84c0.33-0.31,0.73-0.55,1.2-0.73c0.47-0.18,0.98-0.27,1.52-0.27c0.48,0,0.89,0.07,1.24,0.2
		c0.35,0.14,0.64,0.32,0.86,0.55s0.39,0.51,0.5,0.83s0.17,0.66,0.17,1.02v2.9c0,0.22,0.01,0.46,0.02,0.71
		c0.01,0.25,0.04,0.45,0.08,0.61h-1.19c-0.07-0.32-0.11-0.63-0.11-0.95h-0.04c-0.24,0.35-0.55,0.63-0.92,0.83
		c-0.37,0.2-0.8,0.29-1.31,0.29c-0.26,0-0.53-0.04-0.82-0.11c-0.29-0.07-0.54-0.18-0.78-0.34c-0.23-0.16-0.43-0.37-0.58-0.63
		c-0.15-0.26-0.23-0.58-0.23-0.97c0-0.5,0.14-0.9,0.41-1.2c0.27-0.29,0.63-0.52,1.06-0.67c0.44-0.15,0.93-0.25,1.48-0.3
		s1.11-0.07,1.67-0.07V95.83z M236.78,96.96c-0.33,0-0.67,0.01-1.02,0.04c-0.35,0.03-0.67,0.08-0.95,0.17s-0.52,0.21-0.71,0.38
		c-0.19,0.17-0.28,0.39-0.28,0.67c0,0.2,0.04,0.36,0.12,0.49s0.18,0.24,0.32,0.32s0.28,0.14,0.43,0.17
		c0.16,0.03,0.32,0.05,0.49,0.05c0.62,0,1.09-0.18,1.42-0.55c0.33-0.37,0.5-0.83,0.5-1.39v-0.35H236.78z"/>
	<path d="M241.91,100.12h-1.32V89.54h1.32V100.12z"/>
	<path d="M249.16,100.12h-1.38v-9.91h1.38V100.12z"/>
	<path d="M252.69,93.49c0.02,0.17,0.03,0.36,0.04,0.57s0.01,0.38,0.01,0.53h0.04c0.08-0.18,0.2-0.34,0.34-0.5
		c0.14-0.15,0.31-0.29,0.5-0.41c0.19-0.12,0.39-0.21,0.62-0.27c0.22-0.06,0.46-0.1,0.7-0.1c0.43,0,0.8,0.07,1.11,0.22
		c0.31,0.15,0.56,0.34,0.77,0.58c0.21,0.24,0.36,0.53,0.46,0.85c0.1,0.33,0.15,0.68,0.15,1.05v4.12h-1.31v-3.68
		c0-0.27-0.02-0.53-0.06-0.77c-0.04-0.24-0.12-0.46-0.23-0.64c-0.11-0.19-0.27-0.34-0.46-0.45c-0.2-0.11-0.45-0.17-0.76-0.17
		c-0.52,0-0.95,0.2-1.28,0.59c-0.33,0.4-0.5,0.93-0.5,1.59v3.53h-1.32v-5.21c0-0.18,0-0.41-0.01-0.69
		c-0.01-0.28-0.02-0.53-0.04-0.74H252.69z"/>
	<path d="M262.89,94.57h-1.76v3.45c0,0.4,0.07,0.69,0.22,0.86c0.15,0.17,0.39,0.26,0.71,0.26c0.12,0,0.25-0.01,0.39-0.04
		c0.14-0.03,0.27-0.06,0.38-0.12l0.04,1.08c-0.16,0.06-0.33,0.1-0.53,0.13c-0.19,0.03-0.39,0.05-0.59,0.05
		c-0.62,0-1.1-0.17-1.44-0.52c-0.33-0.34-0.5-0.86-0.5-1.55v-3.6h-1.28v-1.08h1.28v-1.9h1.3v1.9h1.76V94.57z"/>
	<path d="M270.45,96.75c0,0.07,0,0.15,0,0.22c0,0.08-0.01,0.15-0.01,0.22h-5.28c0.01,0.28,0.07,0.54,0.19,0.79s0.27,0.46,0.47,0.64
		c0.2,0.18,0.42,0.32,0.68,0.42c0.26,0.1,0.53,0.15,0.82,0.15c0.45,0,0.84-0.1,1.16-0.29c0.33-0.2,0.58-0.43,0.77-0.71l0.92,0.74
		c-0.35,0.47-0.77,0.82-1.25,1.04c-0.48,0.22-1.02,0.33-1.6,0.33c-0.5,0-0.97-0.08-1.4-0.25s-0.8-0.4-1.11-0.71
		c-0.31-0.3-0.55-0.67-0.73-1.1c-0.18-0.43-0.27-0.91-0.27-1.43c0-0.51,0.09-0.99,0.26-1.42c0.17-0.43,0.41-0.8,0.72-1.11
		c0.31-0.31,0.67-0.55,1.09-0.72c0.42-0.17,0.88-0.26,1.36-0.26s0.93,0.08,1.33,0.24c0.4,0.16,0.73,0.39,1.01,0.69
		c0.28,0.3,0.49,0.66,0.64,1.08C270.38,95.74,270.45,96.22,270.45,96.75z M269.11,96.22c-0.01-0.26-0.05-0.51-0.13-0.74
		c-0.08-0.23-0.2-0.43-0.35-0.59c-0.15-0.17-0.34-0.3-0.57-0.4c-0.23-0.1-0.5-0.15-0.8-0.15c-0.28,0-0.54,0.05-0.79,0.15
		c-0.25,0.1-0.46,0.23-0.64,0.4c-0.18,0.17-0.33,0.37-0.45,0.59c-0.12,0.23-0.18,0.47-0.2,0.74H269.11z"/>
	<path d="M272.26,94.23c-0.01-0.28-0.02-0.53-0.04-0.74h1.25c0.02,0.17,0.03,0.36,0.04,0.58c0.01,0.22,0.01,0.4,0.01,0.54h0.04
		c0.19-0.39,0.46-0.71,0.82-0.94c0.36-0.24,0.76-0.36,1.21-0.36c0.21,0,0.38,0.02,0.52,0.06l-0.06,1.22
		c-0.19-0.05-0.39-0.07-0.6-0.07c-0.32,0-0.59,0.06-0.83,0.17c-0.23,0.12-0.43,0.27-0.58,0.47c-0.15,0.2-0.27,0.42-0.34,0.68
		s-0.11,0.52-0.11,0.8v3.49h-1.32v-5.21C272.27,94.74,272.27,94.51,272.26,94.23z"/>
	<path d="M280.46,100.12h-1.43l-2.7-6.64h1.46l1.95,5.22h0.03l1.96-5.22h1.4L280.46,100.12z"/>
	<path d="M285.93,91.09c0,0.24-0.09,0.44-0.26,0.6c-0.17,0.16-0.38,0.24-0.62,0.24c-0.24,0-0.44-0.08-0.61-0.25
		c-0.17-0.16-0.25-0.36-0.25-0.59c0-0.24,0.08-0.45,0.25-0.61c0.17-0.16,0.37-0.24,0.61-0.24c0.24,0,0.45,0.08,0.62,0.24
		C285.85,90.65,285.93,90.85,285.93,91.09z M285.72,100.12h-1.32v-6.64h1.32V100.12z"/>
	<path d="M294.22,96.75c0,0.07,0,0.15,0,0.22c0,0.08-0.01,0.15-0.01,0.22h-5.28c0.01,0.28,0.07,0.54,0.19,0.79s0.27,0.46,0.47,0.64
		c0.2,0.18,0.42,0.32,0.68,0.42c0.26,0.1,0.53,0.15,0.82,0.15c0.45,0,0.84-0.1,1.16-0.29c0.33-0.2,0.58-0.43,0.77-0.71l0.92,0.74
		c-0.35,0.47-0.77,0.82-1.25,1.04c-0.48,0.22-1.02,0.33-1.6,0.33c-0.5,0-0.97-0.08-1.4-0.25s-0.8-0.4-1.11-0.71
		c-0.31-0.3-0.55-0.67-0.73-1.1c-0.18-0.43-0.27-0.91-0.27-1.43c0-0.51,0.09-0.99,0.26-1.42c0.17-0.43,0.41-0.8,0.72-1.11
		c0.31-0.31,0.67-0.55,1.09-0.72c0.42-0.17,0.88-0.26,1.36-0.26s0.93,0.08,1.33,0.24c0.4,0.16,0.73,0.39,1.01,0.69
		c0.28,0.3,0.49,0.66,0.64,1.08C294.15,95.74,294.22,96.22,294.22,96.75z M292.88,96.22c-0.01-0.26-0.05-0.51-0.13-0.74
		c-0.08-0.23-0.2-0.43-0.35-0.59c-0.15-0.17-0.34-0.3-0.57-0.4c-0.23-0.1-0.5-0.15-0.8-0.15c-0.28,0-0.54,0.05-0.79,0.15
		c-0.25,0.1-0.46,0.23-0.64,0.4c-0.18,0.17-0.33,0.37-0.45,0.59c-0.12,0.23-0.18,0.47-0.2,0.74H292.88z"/>
	<path d="M296.53,93.49l1.5,5.07h0.03l1.58-5.07h1.39l1.61,5.07h0.03l1.5-5.07h1.39l-2.2,6.64h-1.37l-1.64-4.98h-0.03l-1.62,4.98
		h-1.37l-2.21-6.64H296.53z"/>
	<path d="M174.22,123.81h3.42c0.37,0,0.75,0.04,1.12,0.13s0.71,0.22,1,0.42c0.29,0.2,0.53,0.45,0.71,0.77
		c0.18,0.32,0.27,0.71,0.27,1.19c0,0.55-0.16,1.01-0.48,1.39c-0.32,0.37-0.74,0.63-1.26,0.77v0.03c0.32,0.04,0.61,0.12,0.88,0.25
		c0.27,0.13,0.5,0.29,0.7,0.5c0.2,0.21,0.35,0.45,0.46,0.73s0.16,0.59,0.16,0.94c0,0.48-0.1,0.89-0.29,1.25s-0.46,0.65-0.8,0.88
		s-0.73,0.4-1.18,0.52c-0.45,0.12-0.94,0.17-1.45,0.17h-3.26V123.81z M175.6,128h1.81c0.26,0,0.51-0.03,0.75-0.09
		s0.45-0.15,0.62-0.28s0.32-0.29,0.42-0.48c0.1-0.19,0.15-0.42,0.15-0.69c0-0.53-0.2-0.91-0.59-1.14c-0.39-0.23-0.92-0.34-1.58-0.34
		h-1.58V128z M175.6,132.55h1.74c0.29,0,0.58-0.03,0.88-0.08c0.29-0.05,0.56-0.14,0.8-0.27c0.24-0.13,0.43-0.31,0.57-0.53
		c0.14-0.22,0.22-0.5,0.22-0.83c0-0.59-0.2-1.01-0.6-1.27c-0.4-0.26-0.98-0.39-1.74-0.39h-1.86V132.55z"/>
	<path d="M187.26,129.43c0-0.49-0.15-0.86-0.45-1.1c-0.3-0.24-0.7-0.36-1.19-0.36c-0.37,0-0.73,0.07-1.06,0.22
		c-0.33,0.15-0.61,0.33-0.83,0.55l-0.7-0.84c0.33-0.31,0.73-0.55,1.2-0.73c0.47-0.18,0.98-0.27,1.52-0.27c0.48,0,0.89,0.07,1.24,0.2
		c0.35,0.14,0.64,0.32,0.86,0.55c0.22,0.23,0.39,0.51,0.5,0.83c0.11,0.32,0.17,0.66,0.17,1.02v2.9c0,0.22,0.01,0.46,0.02,0.71
		s0.04,0.45,0.08,0.61h-1.19c-0.07-0.32-0.11-0.63-0.11-0.95h-0.04c-0.24,0.36-0.55,0.63-0.92,0.83c-0.37,0.2-0.8,0.29-1.31,0.29
		c-0.26,0-0.53-0.04-0.82-0.1c-0.28-0.07-0.54-0.18-0.78-0.34c-0.23-0.16-0.43-0.37-0.58-0.63c-0.15-0.26-0.23-0.58-0.23-0.97
		c0-0.5,0.13-0.9,0.41-1.2c0.27-0.29,0.63-0.52,1.06-0.67c0.44-0.15,0.93-0.25,1.48-0.3s1.11-0.07,1.67-0.07V129.43z M186.94,130.56
		c-0.33,0-0.66,0.01-1.01,0.04c-0.35,0.03-0.67,0.08-0.95,0.17c-0.28,0.08-0.52,0.21-0.71,0.38c-0.19,0.17-0.28,0.39-0.28,0.67
		c0,0.2,0.04,0.36,0.12,0.49c0.08,0.13,0.18,0.24,0.31,0.32s0.28,0.14,0.43,0.17c0.16,0.03,0.32,0.05,0.49,0.05
		c0.62,0,1.09-0.18,1.42-0.55c0.33-0.37,0.5-0.83,0.5-1.39v-0.35H186.94z"/>
	<path d="M194.31,128.77c-0.15-0.24-0.36-0.44-0.63-0.59s-0.57-0.23-0.91-0.23c-0.15,0-0.3,0.02-0.45,0.05
		c-0.15,0.03-0.28,0.08-0.4,0.15c-0.12,0.07-0.21,0.16-0.28,0.27s-0.11,0.24-0.11,0.4c0,0.28,0.13,0.49,0.38,0.62
		c0.25,0.14,0.63,0.26,1.13,0.37c0.32,0.08,0.61,0.16,0.88,0.27c0.27,0.1,0.51,0.23,0.71,0.38c0.2,0.15,0.36,0.34,0.47,0.55
		c0.11,0.21,0.17,0.47,0.17,0.76c0,0.39-0.07,0.72-0.22,0.99s-0.35,0.49-0.59,0.67c-0.25,0.17-0.53,0.3-0.85,0.37
		c-0.32,0.07-0.64,0.11-0.98,0.11c-0.5,0-1-0.1-1.48-0.29c-0.48-0.2-0.88-0.5-1.2-0.9l0.94-0.8c0.18,0.26,0.42,0.48,0.74,0.66
		c0.31,0.18,0.66,0.27,1.03,0.27c0.17,0,0.33-0.02,0.48-0.05c0.15-0.03,0.29-0.09,0.42-0.16c0.13-0.07,0.23-0.17,0.3-0.29
		c0.08-0.12,0.11-0.28,0.11-0.46c0-0.31-0.15-0.54-0.44-0.69c-0.29-0.15-0.73-0.29-1.29-0.42c-0.22-0.06-0.45-0.12-0.68-0.2
		c-0.23-0.08-0.44-0.19-0.62-0.33c-0.19-0.14-0.34-0.32-0.46-0.53s-0.17-0.47-0.17-0.78c0-0.35,0.07-0.66,0.22-0.92
		c0.14-0.26,0.33-0.47,0.57-0.63c0.23-0.16,0.5-0.28,0.8-0.36c0.3-0.08,0.61-0.12,0.92-0.12c0.47,0,0.94,0.09,1.38,0.28
		c0.44,0.19,0.79,0.46,1.03,0.81L194.31,128.77z"/>
	<path d="M203.14,130.35c0,0.08,0,0.15,0,0.22c0,0.07,0,0.15-0.01,0.22h-5.28c0.01,0.28,0.07,0.54,0.19,0.79
		c0.12,0.25,0.27,0.46,0.47,0.64c0.2,0.18,0.42,0.32,0.68,0.42c0.26,0.1,0.53,0.15,0.82,0.15c0.45,0,0.83-0.1,1.16-0.29
		c0.33-0.2,0.58-0.43,0.77-0.71l0.92,0.74c-0.35,0.47-0.77,0.82-1.25,1.04c-0.48,0.22-1.02,0.33-1.6,0.33c-0.5,0-0.97-0.08-1.4-0.25
		s-0.8-0.4-1.11-0.71c-0.31-0.3-0.55-0.67-0.73-1.1c-0.18-0.43-0.27-0.91-0.27-1.43c0-0.51,0.09-0.99,0.26-1.42
		c0.17-0.43,0.41-0.8,0.72-1.11c0.31-0.31,0.67-0.55,1.09-0.72s0.88-0.26,1.36-0.26s0.93,0.08,1.33,0.24
		c0.4,0.16,0.73,0.39,1.01,0.69c0.28,0.3,0.49,0.66,0.64,1.08S203.14,129.82,203.14,130.35z M201.8,129.82
		c-0.01-0.26-0.05-0.51-0.13-0.74c-0.08-0.23-0.2-0.43-0.35-0.59s-0.35-0.3-0.57-0.4s-0.5-0.15-0.8-0.15
		c-0.28,0-0.54,0.05-0.79,0.15c-0.25,0.1-0.46,0.23-0.64,0.4c-0.18,0.17-0.33,0.37-0.45,0.59s-0.18,0.47-0.2,0.74H201.8z"/>
	<path d="M206.3,133.72h-1.32v-10.58h1.32V133.72z"/>
	<path d="M210.14,124.69c0,0.24-0.08,0.44-0.26,0.6c-0.17,0.16-0.38,0.24-0.62,0.24c-0.24,0-0.44-0.08-0.61-0.25
		c-0.17-0.16-0.25-0.36-0.25-0.59c0-0.24,0.08-0.45,0.25-0.61c0.17-0.16,0.37-0.25,0.61-0.25c0.24,0,0.45,0.08,0.62,0.25
		S210.14,124.45,210.14,124.69z M209.93,133.72h-1.32v-6.64h1.32V133.72z"/>
	<path d="M213.42,127.09c0.02,0.17,0.03,0.36,0.04,0.57c0.01,0.21,0.01,0.38,0.01,0.52h0.04c0.08-0.18,0.2-0.34,0.34-0.5
		c0.14-0.15,0.31-0.29,0.5-0.41c0.19-0.12,0.39-0.21,0.62-0.27s0.46-0.1,0.7-0.1c0.43,0,0.8,0.07,1.11,0.22
		c0.31,0.14,0.56,0.34,0.77,0.58c0.21,0.24,0.36,0.53,0.46,0.85c0.1,0.33,0.15,0.68,0.15,1.05v4.12h-1.32v-3.68
		c0-0.27-0.02-0.53-0.06-0.77c-0.04-0.24-0.12-0.46-0.23-0.64c-0.11-0.19-0.27-0.34-0.46-0.45c-0.2-0.11-0.45-0.17-0.76-0.17
		c-0.52,0-0.95,0.2-1.28,0.59c-0.33,0.4-0.5,0.93-0.5,1.59v3.53h-1.32v-5.21c0-0.18,0-0.41-0.01-0.69
		c-0.01-0.28-0.02-0.53-0.04-0.74H213.42z"/>
	<path d="M226.58,130.35c0,0.08,0,0.15,0,0.22c0,0.07,0,0.15-0.01,0.22h-5.28c0.01,0.28,0.07,0.54,0.19,0.79
		c0.12,0.25,0.27,0.46,0.47,0.64c0.2,0.18,0.42,0.32,0.68,0.42c0.26,0.1,0.53,0.15,0.82,0.15c0.45,0,0.83-0.1,1.16-0.29
		c0.33-0.2,0.58-0.43,0.77-0.71l0.92,0.74c-0.35,0.47-0.77,0.82-1.25,1.04c-0.48,0.22-1.02,0.33-1.6,0.33c-0.5,0-0.97-0.08-1.4-0.25
		s-0.8-0.4-1.11-0.71c-0.31-0.3-0.55-0.67-0.73-1.1c-0.18-0.43-0.27-0.91-0.27-1.43c0-0.51,0.09-0.99,0.26-1.42
		c0.17-0.43,0.41-0.8,0.72-1.11c0.31-0.31,0.67-0.55,1.09-0.72s0.88-0.26,1.36-0.26s0.93,0.08,1.33,0.24
		c0.4,0.16,0.73,0.39,1.01,0.69c0.28,0.3,0.49,0.66,0.64,1.08S226.58,129.82,226.58,130.35z M225.23,129.82
		c-0.01-0.26-0.05-0.51-0.13-0.74c-0.08-0.23-0.2-0.43-0.35-0.59s-0.35-0.3-0.57-0.4s-0.5-0.15-0.8-0.15
		c-0.28,0-0.54,0.05-0.79,0.15c-0.25,0.1-0.46,0.23-0.64,0.4c-0.18,0.17-0.33,0.37-0.45,0.59s-0.18,0.47-0.2,0.74H225.23z"/>
	<path d="M235.1,133.72h-1.39v-8.69h-3.18v-1.22h7.74v1.22h-3.18V133.72z"/>
	<path d="M244.38,130.35c0,0.08,0,0.15,0,0.22c0,0.07,0,0.15-0.01,0.22h-5.28c0.01,0.28,0.07,0.54,0.19,0.79
		c0.12,0.25,0.27,0.46,0.47,0.64c0.2,0.18,0.42,0.32,0.68,0.42c0.26,0.1,0.53,0.15,0.82,0.15c0.45,0,0.83-0.1,1.16-0.29
		s0.58-0.43,0.77-0.71l0.92,0.74c-0.36,0.47-0.77,0.82-1.25,1.04c-0.48,0.22-1.01,0.33-1.6,0.33c-0.5,0-0.97-0.08-1.4-0.25
		c-0.43-0.17-0.8-0.4-1.11-0.71c-0.31-0.3-0.55-0.67-0.73-1.1c-0.18-0.43-0.27-0.91-0.27-1.43c0-0.51,0.09-0.99,0.26-1.42
		c0.17-0.43,0.41-0.8,0.72-1.11c0.31-0.31,0.67-0.55,1.09-0.72c0.42-0.17,0.87-0.26,1.36-0.26s0.93,0.08,1.33,0.24
		c0.4,0.16,0.73,0.39,1.01,0.69s0.49,0.66,0.64,1.08C244.31,129.34,244.38,129.82,244.38,130.35z M243.04,129.82
		c-0.01-0.26-0.05-0.51-0.13-0.74s-0.2-0.43-0.35-0.59s-0.35-0.3-0.57-0.4s-0.5-0.15-0.8-0.15c-0.28,0-0.54,0.05-0.79,0.15
		c-0.25,0.1-0.46,0.23-0.64,0.4s-0.33,0.37-0.45,0.59c-0.12,0.23-0.19,0.47-0.2,0.74H243.04z"/>
	<path d="M249.79,128.77c-0.15-0.24-0.36-0.44-0.63-0.59c-0.27-0.15-0.57-0.23-0.91-0.23c-0.15,0-0.3,0.02-0.45,0.05
		c-0.15,0.03-0.28,0.08-0.4,0.15c-0.12,0.07-0.21,0.16-0.28,0.27s-0.11,0.24-0.11,0.4c0,0.28,0.13,0.49,0.38,0.62
		c0.25,0.14,0.63,0.26,1.13,0.37c0.32,0.08,0.61,0.16,0.88,0.27c0.27,0.1,0.51,0.23,0.71,0.38c0.2,0.15,0.36,0.34,0.47,0.55
		s0.17,0.47,0.17,0.76c0,0.39-0.07,0.72-0.22,0.99c-0.15,0.27-0.35,0.49-0.59,0.67c-0.25,0.17-0.53,0.3-0.85,0.37
		c-0.32,0.07-0.64,0.11-0.98,0.11c-0.5,0-1-0.1-1.48-0.29c-0.48-0.2-0.88-0.5-1.2-0.9l0.94-0.8c0.18,0.26,0.42,0.48,0.74,0.66
		c0.31,0.18,0.65,0.27,1.03,0.27c0.17,0,0.33-0.02,0.48-0.05c0.15-0.03,0.29-0.09,0.42-0.16c0.12-0.07,0.23-0.17,0.3-0.29
		s0.11-0.28,0.11-0.46c0-0.31-0.15-0.54-0.44-0.69c-0.29-0.15-0.73-0.29-1.29-0.42c-0.22-0.06-0.45-0.12-0.68-0.2
		c-0.23-0.08-0.44-0.19-0.62-0.33c-0.19-0.14-0.34-0.32-0.46-0.53s-0.18-0.47-0.18-0.78c0-0.35,0.07-0.66,0.22-0.92
		c0.14-0.26,0.33-0.47,0.57-0.63c0.23-0.16,0.5-0.28,0.8-0.36c0.3-0.08,0.61-0.12,0.92-0.12c0.48,0,0.94,0.09,1.38,0.28
		c0.44,0.19,0.79,0.46,1.03,0.81L249.79,128.77z"/>
	<path d="M255.67,128.17h-1.76v3.45c0,0.4,0.07,0.69,0.22,0.86c0.15,0.17,0.39,0.26,0.71,0.26c0.12,0,0.25-0.01,0.39-0.04
		c0.14-0.03,0.27-0.06,0.38-0.12l0.04,1.08c-0.16,0.06-0.33,0.1-0.53,0.13c-0.19,0.03-0.39,0.05-0.6,0.05
		c-0.62,0-1.1-0.17-1.43-0.52c-0.33-0.35-0.5-0.86-0.5-1.55v-3.6h-1.27v-1.08h1.27v-1.9h1.3v1.9h1.76V128.17z"/>
	<path d="M258.56,124.69c0,0.24-0.09,0.44-0.26,0.6c-0.17,0.16-0.38,0.24-0.62,0.24c-0.24,0-0.44-0.08-0.61-0.25
		c-0.17-0.16-0.25-0.36-0.25-0.59c0-0.24,0.08-0.45,0.25-0.61c0.17-0.16,0.37-0.25,0.61-0.25c0.24,0,0.45,0.08,0.62,0.25
		C258.48,124.25,258.56,124.45,258.56,124.69z M258.36,133.72h-1.32v-6.64h1.32V133.72z"/>
	<path d="M261.84,127.09c0.02,0.17,0.03,0.36,0.04,0.57s0.01,0.38,0.01,0.52h0.04c0.08-0.18,0.2-0.34,0.34-0.5
		c0.14-0.15,0.31-0.29,0.5-0.41c0.19-0.12,0.39-0.21,0.62-0.27c0.22-0.07,0.46-0.1,0.7-0.1c0.43,0,0.8,0.07,1.11,0.22
		s0.56,0.34,0.77,0.58c0.21,0.24,0.36,0.53,0.46,0.85c0.1,0.33,0.15,0.68,0.15,1.05v4.12h-1.31v-3.68c0-0.27-0.02-0.53-0.06-0.77
		c-0.04-0.24-0.12-0.46-0.23-0.64s-0.27-0.34-0.46-0.45c-0.2-0.11-0.45-0.17-0.76-0.17c-0.52,0-0.95,0.2-1.28,0.59
		c-0.33,0.4-0.5,0.93-0.5,1.59v3.53h-1.32v-5.21c0-0.18,0-0.41-0.01-0.69s-0.02-0.53-0.04-0.74H261.84z"/>
	<path d="M269.32,134.86c0.29,0.33,0.65,0.59,1.09,0.78c0.43,0.2,0.88,0.29,1.34,0.29c0.44,0,0.81-0.06,1.11-0.19
		s0.54-0.3,0.72-0.52c0.18-0.22,0.31-0.48,0.39-0.78c0.08-0.3,0.12-0.62,0.12-0.97v-0.85h-0.03c-0.24,0.37-0.57,0.66-0.99,0.85
		c-0.42,0.2-0.87,0.29-1.34,0.29c-0.5,0-0.96-0.09-1.38-0.27c-0.42-0.18-0.77-0.42-1.06-0.73c-0.29-0.31-0.51-0.67-0.67-1.08
		c-0.16-0.42-0.24-0.86-0.24-1.34c0-0.48,0.08-0.92,0.24-1.34c0.16-0.42,0.38-0.79,0.67-1.1c0.29-0.31,0.64-0.56,1.05-0.74
		c0.41-0.18,0.87-0.27,1.37-0.27c0.47,0,0.93,0.1,1.37,0.31c0.43,0.21,0.78,0.52,1.03,0.94h0.03v-1.06h1.27v6.3
		c0,0.49-0.06,0.95-0.18,1.39c-0.12,0.44-0.33,0.83-0.62,1.18s-0.67,0.61-1.13,0.82c-0.47,0.21-1.04,0.31-1.74,0.31
		c-0.58,0-1.16-0.11-1.74-0.32c-0.58-0.21-1.09-0.51-1.51-0.89L269.32,134.86z M269.71,130.34c0,0.31,0.05,0.6,0.15,0.88
		c0.1,0.28,0.24,0.53,0.44,0.74s0.42,0.39,0.7,0.52c0.27,0.13,0.58,0.2,0.93,0.2c0.34,0,0.64-0.06,0.93-0.18s0.52-0.29,0.72-0.5
		s0.35-0.46,0.46-0.74c0.11-0.28,0.16-0.59,0.16-0.92c0-0.32-0.05-0.62-0.16-0.9c-0.11-0.28-0.26-0.53-0.46-0.74
		s-0.44-0.39-0.71-0.51c-0.28-0.13-0.58-0.19-0.92-0.19c-0.35,0-0.66,0.06-0.93,0.19s-0.5,0.29-0.7,0.5s-0.34,0.46-0.44,0.74
		C269.76,129.72,269.71,130.02,269.71,130.34z"/>
</g>
<g>
	<path d="M332.97,82.97h-1.54l4.3-9.91h1.26l4.26,9.91h-1.57l-1.01-2.44h-4.7L332.97,82.97z M334.46,79.31h3.71l-1.85-4.65
		L334.46,79.31z"/>
	<path d="M345.57,77.41h-1.54v5.56h-1.32v-5.56h-1.32v-1.08h1.32v-1.39c0-0.39,0.04-0.75,0.13-1.08c0.09-0.33,0.23-0.62,0.43-0.86
		c0.2-0.24,0.46-0.43,0.77-0.57c0.31-0.14,0.69-0.21,1.14-0.21c0.32,0,0.59,0.03,0.83,0.1l-0.15,1.13c-0.1-0.03-0.21-0.05-0.31-0.07
		c-0.1-0.02-0.22-0.03-0.35-0.03c-0.25,0-0.46,0.04-0.61,0.13c-0.15,0.09-0.27,0.21-0.36,0.36s-0.14,0.32-0.17,0.51
		c-0.03,0.19-0.04,0.39-0.04,0.6v1.39h1.54V77.41z"/>
	<path d="M349.62,77.41h-1.54v5.56h-1.32v-5.56h-1.32v-1.08h1.32v-1.39c0-0.39,0.04-0.75,0.13-1.08c0.09-0.33,0.23-0.62,0.43-0.86
		c0.2-0.24,0.46-0.43,0.77-0.57c0.31-0.14,0.69-0.21,1.14-0.21c0.32,0,0.59,0.03,0.83,0.1l-0.15,1.13c-0.1-0.03-0.21-0.05-0.31-0.07
		c-0.1-0.02-0.22-0.03-0.35-0.03c-0.25,0-0.46,0.04-0.61,0.13c-0.15,0.09-0.27,0.21-0.36,0.36s-0.14,0.32-0.17,0.51
		c-0.03,0.19-0.04,0.39-0.04,0.6v1.39h1.54V77.41z M352.45,73.94c0,0.24-0.09,0.44-0.26,0.6c-0.17,0.16-0.38,0.24-0.62,0.24
		c-0.24,0-0.44-0.08-0.61-0.25c-0.17-0.16-0.25-0.36-0.25-0.59c0-0.24,0.08-0.45,0.25-0.61c0.17-0.16,0.37-0.24,0.61-0.24
		c0.24,0,0.45,0.08,0.62,0.24C352.36,73.49,352.45,73.69,352.45,73.94z M352.24,82.97h-1.32v-6.64h1.32V82.97z"/>
	<path d="M355.72,76.33c0.02,0.17,0.03,0.36,0.04,0.57c0.01,0.21,0.01,0.38,0.01,0.52h0.04c0.08-0.18,0.2-0.34,0.34-0.5
		c0.14-0.15,0.31-0.29,0.5-0.41c0.19-0.12,0.39-0.21,0.62-0.27c0.22-0.06,0.46-0.1,0.7-0.1c0.43,0,0.8,0.07,1.11,0.22
		c0.31,0.15,0.56,0.34,0.77,0.58s0.36,0.53,0.46,0.85s0.15,0.68,0.15,1.05v4.12h-1.32v-3.68c0-0.27-0.02-0.53-0.06-0.77
		c-0.04-0.24-0.12-0.46-0.23-0.64c-0.11-0.19-0.27-0.34-0.46-0.45s-0.45-0.17-0.76-0.17c-0.52,0-0.95,0.2-1.28,0.59
		c-0.33,0.4-0.5,0.93-0.5,1.59v3.53h-1.32v-5.21c0-0.18,0-0.41-0.01-0.69c-0.01-0.28-0.02-0.53-0.04-0.74H355.72z"/>
	<path d="M364.22,73.94c0,0.24-0.09,0.44-0.26,0.6c-0.17,0.16-0.38,0.24-0.62,0.24s-0.44-0.08-0.61-0.25
		c-0.17-0.16-0.25-0.36-0.25-0.59c0-0.24,0.08-0.45,0.25-0.61c0.17-0.16,0.37-0.24,0.61-0.24s0.45,0.08,0.62,0.24
		C364.13,73.49,364.22,73.69,364.22,73.94z M364.01,82.97h-1.32v-6.64h1.32V82.97z"/>
	<path d="M369.55,77.41h-1.76v3.45c0,0.4,0.07,0.69,0.22,0.86c0.15,0.17,0.39,0.26,0.71,0.26c0.12,0,0.25-0.01,0.39-0.04
		c0.14-0.03,0.27-0.06,0.38-0.12l0.04,1.08c-0.16,0.06-0.33,0.1-0.53,0.13s-0.39,0.05-0.59,0.05c-0.63,0-1.1-0.17-1.44-0.52
		s-0.5-0.86-0.5-1.55v-3.6h-1.27v-1.08h1.27v-1.9h1.3v1.9h1.76V77.41z"/>
	<path d="M373.43,81.54h0.03l1.83-5.21h1.4l-3.22,8.2c-0.11,0.28-0.23,0.53-0.36,0.75s-0.28,0.41-0.46,0.56s-0.38,0.27-0.62,0.36
		s-0.52,0.13-0.85,0.13c-0.14,0-0.28-0.01-0.43-0.02c-0.15-0.01-0.29-0.04-0.44-0.08l0.13-1.16c0.22,0.07,0.44,0.11,0.66,0.11
		c0.34,0,0.6-0.1,0.77-0.29s0.32-0.46,0.46-0.82l0.42-1.11l-2.84-6.64h1.47L373.43,81.54z"/>
	<path d="M381.54,73.05h3.4c0.63,0,1.27,0.09,1.9,0.28s1.21,0.48,1.72,0.88c0.51,0.4,0.93,0.92,1.25,1.54
		c0.32,0.63,0.48,1.38,0.48,2.25c0,0.85-0.16,1.58-0.48,2.21s-0.73,1.13-1.25,1.54c-0.51,0.41-1.09,0.71-1.72,0.91
		s-1.27,0.3-1.9,0.3h-3.4V73.05z M382.92,81.75h1.74c0.6,0,1.15-0.08,1.66-0.25c0.51-0.17,0.95-0.41,1.32-0.73
		c0.37-0.32,0.66-0.71,0.86-1.18s0.31-0.99,0.31-1.58c0-0.62-0.1-1.16-0.31-1.62c-0.21-0.47-0.49-0.86-0.86-1.17
		c-0.37-0.31-0.81-0.55-1.32-0.71s-1.06-0.25-1.66-0.25h-1.74V81.75z"/>
	<path d="M393.66,73.94c0,0.24-0.09,0.44-0.26,0.6c-0.17,0.16-0.38,0.24-0.62,0.24s-0.44-0.08-0.61-0.25
		c-0.17-0.16-0.25-0.36-0.25-0.59c0-0.24,0.08-0.45,0.25-0.61c0.17-0.16,0.37-0.24,0.61-0.24s0.45,0.08,0.62,0.24
		C393.58,73.49,393.66,73.69,393.66,73.94z M393.45,82.97h-1.32v-6.64h1.32V82.97z"/>
	<path d="M399.88,78.67c0-0.49-0.15-0.86-0.45-1.1s-0.7-0.36-1.19-0.36c-0.37,0-0.73,0.07-1.06,0.22c-0.33,0.15-0.61,0.33-0.83,0.55
		l-0.7-0.84c0.33-0.31,0.73-0.55,1.2-0.73c0.47-0.18,0.98-0.27,1.52-0.27c0.48,0,0.89,0.07,1.24,0.2c0.35,0.14,0.64,0.32,0.86,0.55
		c0.22,0.23,0.39,0.51,0.5,0.83c0.11,0.32,0.17,0.66,0.17,1.02v2.9c0,0.22,0.01,0.46,0.02,0.71c0.01,0.25,0.04,0.45,0.08,0.61h-1.19
		c-0.07-0.32-0.11-0.63-0.11-0.95h-0.04c-0.24,0.35-0.55,0.63-0.92,0.83c-0.37,0.2-0.8,0.29-1.31,0.29c-0.26,0-0.53-0.04-0.82-0.1
		c-0.28-0.07-0.54-0.18-0.78-0.34c-0.23-0.16-0.43-0.37-0.58-0.63c-0.15-0.26-0.23-0.58-0.23-0.97c0-0.5,0.14-0.9,0.41-1.2
		c0.27-0.29,0.62-0.52,1.06-0.67c0.44-0.15,0.93-0.25,1.48-0.3s1.11-0.07,1.67-0.07V78.67z M399.55,79.8
		c-0.33,0-0.67,0.01-1.01,0.04s-0.67,0.08-0.95,0.17c-0.28,0.08-0.52,0.21-0.71,0.38s-0.28,0.39-0.28,0.67
		c0,0.2,0.04,0.36,0.12,0.49c0.08,0.13,0.18,0.24,0.32,0.32s0.28,0.14,0.43,0.17c0.16,0.03,0.32,0.05,0.49,0.05
		c0.62,0,1.09-0.18,1.42-0.55s0.5-0.83,0.5-1.39V79.8H399.55z"/>
	<path d="M403.85,84.1c0.29,0.33,0.65,0.59,1.08,0.78c0.43,0.2,0.88,0.29,1.34,0.29c0.44,0,0.81-0.06,1.11-0.19s0.54-0.3,0.72-0.52
		c0.18-0.22,0.31-0.48,0.39-0.78c0.08-0.3,0.12-0.62,0.12-0.97v-0.85h-0.03c-0.24,0.37-0.57,0.66-0.99,0.85
		c-0.42,0.2-0.87,0.29-1.34,0.29c-0.5,0-0.96-0.09-1.38-0.27s-0.77-0.42-1.06-0.73c-0.29-0.31-0.51-0.67-0.67-1.08
		c-0.16-0.42-0.24-0.86-0.24-1.34s0.08-0.92,0.24-1.34c0.16-0.42,0.38-0.79,0.67-1.1c0.29-0.31,0.64-0.56,1.05-0.74
		c0.41-0.18,0.87-0.27,1.37-0.27c0.48,0,0.93,0.1,1.37,0.31c0.43,0.21,0.78,0.52,1.03,0.94h0.03v-1.06h1.27v6.3
		c0,0.49-0.06,0.95-0.18,1.39c-0.12,0.44-0.33,0.83-0.62,1.18s-0.67,0.61-1.13,0.82c-0.47,0.21-1.04,0.31-1.74,0.31
		c-0.58,0-1.16-0.1-1.74-0.31c-0.58-0.21-1.08-0.51-1.51-0.89L403.85,84.1z M404.25,79.58c0,0.31,0.05,0.6,0.15,0.88
		c0.1,0.28,0.24,0.53,0.44,0.74c0.19,0.21,0.42,0.39,0.7,0.52c0.27,0.13,0.58,0.2,0.93,0.2c0.34,0,0.65-0.06,0.93-0.18
		c0.28-0.12,0.52-0.29,0.72-0.5c0.2-0.21,0.35-0.46,0.46-0.74c0.11-0.28,0.16-0.59,0.16-0.92c0-0.32-0.05-0.62-0.16-0.9
		c-0.11-0.28-0.26-0.53-0.46-0.74s-0.44-0.39-0.72-0.51s-0.58-0.19-0.92-0.19c-0.35,0-0.66,0.06-0.93,0.19
		c-0.27,0.13-0.5,0.29-0.7,0.5c-0.19,0.21-0.34,0.46-0.44,0.74S404.25,79.26,404.25,79.58z"/>
	<path d="M412.17,77.07c-0.01-0.28-0.02-0.53-0.04-0.74h1.25c0.02,0.17,0.03,0.36,0.04,0.58c0.01,0.22,0.01,0.4,0.01,0.54h0.04
		c0.19-0.39,0.46-0.71,0.82-0.94c0.36-0.24,0.76-0.36,1.21-0.36c0.21,0,0.38,0.02,0.52,0.06l-0.06,1.22
		c-0.19-0.05-0.39-0.07-0.6-0.07c-0.32,0-0.59,0.06-0.83,0.17c-0.23,0.12-0.43,0.27-0.58,0.47c-0.15,0.2-0.27,0.42-0.34,0.68
		c-0.07,0.26-0.11,0.52-0.11,0.81v3.49h-1.32v-5.21C412.18,77.58,412.18,77.35,412.17,77.07z"/>
	<path d="M421.2,78.67c0-0.49-0.15-0.86-0.45-1.1c-0.3-0.24-0.7-0.36-1.19-0.36c-0.37,0-0.73,0.07-1.06,0.22
		c-0.33,0.15-0.61,0.33-0.83,0.55l-0.7-0.84c0.33-0.31,0.73-0.55,1.2-0.73c0.47-0.18,0.98-0.27,1.52-0.27c0.48,0,0.89,0.07,1.24,0.2
		c0.35,0.14,0.64,0.32,0.86,0.55c0.22,0.23,0.39,0.51,0.5,0.83c0.11,0.32,0.17,0.66,0.17,1.02v2.9c0,0.22,0.01,0.46,0.02,0.71
		s0.04,0.45,0.08,0.61h-1.19c-0.07-0.32-0.11-0.63-0.11-0.95h-0.04c-0.24,0.35-0.55,0.63-0.92,0.83c-0.37,0.2-0.81,0.29-1.31,0.29
		c-0.26,0-0.53-0.04-0.82-0.1c-0.29-0.07-0.54-0.18-0.78-0.34s-0.43-0.37-0.58-0.63c-0.15-0.26-0.23-0.58-0.23-0.97
		c0-0.5,0.14-0.9,0.41-1.2c0.27-0.29,0.62-0.52,1.06-0.67c0.44-0.15,0.93-0.25,1.48-0.3s1.11-0.07,1.67-0.07V78.67z M420.88,79.8
		c-0.33,0-0.67,0.01-1.02,0.04c-0.35,0.03-0.67,0.08-0.95,0.17c-0.28,0.08-0.52,0.21-0.71,0.38c-0.19,0.17-0.28,0.39-0.28,0.67
		c0,0.2,0.04,0.36,0.12,0.49c0.08,0.13,0.18,0.24,0.31,0.32s0.28,0.14,0.43,0.17c0.16,0.03,0.32,0.05,0.49,0.05
		c0.62,0,1.09-0.18,1.42-0.55c0.33-0.37,0.5-0.83,0.5-1.39V79.8H420.88z"/>
	<path d="M426.75,76.52c0.37-0.25,0.81-0.37,1.31-0.37c0.45,0,0.85,0.1,1.21,0.31c0.36,0.21,0.64,0.55,0.85,1.02
		c0.22-0.43,0.54-0.76,0.94-0.99c0.4-0.23,0.84-0.34,1.32-0.34c0.43,0,0.8,0.07,1.11,0.22c0.31,0.15,0.56,0.34,0.77,0.58
		s0.36,0.53,0.46,0.85c0.1,0.33,0.15,0.68,0.15,1.05v4.12h-1.32v-3.68c0-0.27-0.02-0.53-0.07-0.77c-0.05-0.24-0.13-0.46-0.24-0.64
		c-0.11-0.19-0.26-0.34-0.45-0.45s-0.42-0.17-0.71-0.17c-0.3,0-0.56,0.06-0.77,0.19c-0.21,0.13-0.39,0.29-0.52,0.49
		c-0.14,0.2-0.23,0.43-0.29,0.68s-0.09,0.51-0.09,0.77v3.58h-1.32v-3.95c0-0.26-0.02-0.5-0.07-0.71c-0.05-0.21-0.13-0.4-0.24-0.55
		c-0.11-0.15-0.26-0.28-0.43-0.36c-0.18-0.09-0.4-0.13-0.66-0.13c-0.49,0-0.89,0.2-1.21,0.59c-0.32,0.4-0.48,0.93-0.48,1.59v3.53
		h-1.32v-5.21c0-0.18,0-0.41-0.01-0.69c-0.01-0.28-0.02-0.53-0.04-0.74h1.25c0.02,0.17,0.03,0.36,0.04,0.57
		c0.01,0.21,0.01,0.38,0.01,0.52h0.04C426.11,77.07,426.38,76.77,426.75,76.52z"/>
	<path d="M332.57,106.65h3.02c0.53,0,1.02,0.05,1.46,0.16s0.81,0.27,1.12,0.5c0.31,0.22,0.55,0.51,0.71,0.85
		c0.17,0.34,0.25,0.76,0.25,1.25c0,0.49-0.09,0.92-0.27,1.27c-0.18,0.35-0.43,0.64-0.76,0.87c-0.32,0.22-0.71,0.39-1.15,0.5
		s-0.92,0.16-1.43,0.16h-1.57v4.35h-1.39V106.65z M333.95,111.04h1.47c0.34,0,0.65-0.03,0.93-0.09c0.28-0.06,0.53-0.15,0.73-0.28
		s0.36-0.29,0.48-0.5c0.11-0.21,0.17-0.46,0.17-0.76s-0.06-0.55-0.18-0.75c-0.12-0.2-0.28-0.36-0.48-0.49
		c-0.2-0.13-0.44-0.21-0.72-0.27c-0.28-0.05-0.58-0.08-0.91-0.08h-1.5V111.04z"/>
	<path d="M340.17,110.67c-0.01-0.28-0.02-0.53-0.04-0.74h1.25c0.02,0.17,0.03,0.36,0.04,0.58c0.01,0.22,0.01,0.4,0.01,0.54h0.04
		c0.19-0.39,0.46-0.71,0.82-0.95s0.76-0.36,1.21-0.36c0.21,0,0.38,0.02,0.52,0.06l-0.06,1.22c-0.19-0.05-0.39-0.07-0.6-0.07
		c-0.32,0-0.59,0.06-0.83,0.17c-0.23,0.12-0.43,0.27-0.58,0.47s-0.27,0.42-0.34,0.68c-0.08,0.26-0.11,0.53-0.11,0.81v3.49h-1.32
		v-5.21C340.18,111.18,340.18,110.95,340.17,110.67z"/>
	<path d="M351.72,113.23c0,0.51-0.09,0.99-0.27,1.41c-0.18,0.43-0.43,0.8-0.76,1.11c-0.32,0.31-0.7,0.56-1.14,0.73
		c-0.44,0.17-0.91,0.26-1.41,0.26s-0.98-0.09-1.41-0.26c-0.44-0.17-0.82-0.42-1.13-0.73s-0.57-0.68-0.75-1.11
		c-0.18-0.43-0.27-0.9-0.27-1.41c0-0.51,0.09-0.98,0.27-1.41s0.43-0.79,0.75-1.1c0.32-0.31,0.7-0.55,1.13-0.72s0.91-0.26,1.41-0.26
		s0.98,0.09,1.41,0.26s0.82,0.41,1.14,0.72c0.32,0.31,0.57,0.67,0.76,1.1C351.63,112.25,351.72,112.72,351.72,113.23z
		 M350.35,113.24c0-0.32-0.05-0.62-0.15-0.91c-0.1-0.29-0.24-0.54-0.43-0.76c-0.19-0.22-0.42-0.39-0.7-0.52
		c-0.28-0.13-0.59-0.2-0.95-0.2s-0.67,0.07-0.95,0.2c-0.28,0.13-0.51,0.3-0.7,0.52c-0.19,0.22-0.33,0.47-0.43,0.76
		c-0.1,0.29-0.15,0.59-0.15,0.91c0,0.32,0.05,0.62,0.15,0.91c0.1,0.29,0.24,0.54,0.43,0.77c0.19,0.22,0.42,0.4,0.7,0.53
		c0.28,0.13,0.59,0.2,0.95,0.2s0.67-0.06,0.95-0.2c0.28-0.13,0.51-0.31,0.7-0.53c0.19-0.22,0.33-0.48,0.43-0.77
		C350.3,113.86,350.35,113.56,350.35,113.24z"/>
	<path d="M356.79,111.01h-1.76v3.45c0,0.4,0.07,0.69,0.22,0.86s0.39,0.26,0.71,0.26c0.12,0,0.25-0.01,0.39-0.04
		c0.14-0.03,0.27-0.06,0.38-0.12l0.04,1.08c-0.16,0.06-0.33,0.1-0.53,0.13c-0.19,0.03-0.39,0.05-0.59,0.05
		c-0.63,0-1.1-0.17-1.44-0.52c-0.33-0.35-0.5-0.86-0.5-1.55v-3.6h-1.27v-1.08h1.27v-1.9h1.3v1.9h1.76V111.01z"/>
	<path d="M364.86,113.23c0,0.51-0.09,0.99-0.27,1.41c-0.18,0.43-0.43,0.8-0.76,1.11s-0.7,0.56-1.14,0.73
		c-0.44,0.17-0.91,0.26-1.41,0.26s-0.98-0.09-1.41-0.26c-0.44-0.17-0.82-0.42-1.13-0.73c-0.32-0.31-0.57-0.68-0.75-1.11
		c-0.18-0.43-0.27-0.9-0.27-1.41c0-0.51,0.09-0.98,0.27-1.41c0.18-0.42,0.43-0.79,0.75-1.1c0.32-0.31,0.69-0.55,1.13-0.72
		c0.44-0.17,0.91-0.26,1.41-0.26s0.97,0.09,1.41,0.26c0.44,0.17,0.82,0.41,1.14,0.72c0.32,0.31,0.57,0.67,0.76,1.1
		C364.77,112.25,364.86,112.72,364.86,113.23z M363.49,113.24c0-0.32-0.05-0.62-0.15-0.91c-0.1-0.29-0.24-0.54-0.43-0.76
		c-0.19-0.22-0.42-0.39-0.7-0.52c-0.28-0.13-0.59-0.2-0.95-0.2c-0.36,0-0.67,0.07-0.95,0.2c-0.28,0.13-0.51,0.3-0.7,0.52
		s-0.33,0.47-0.43,0.76c-0.1,0.29-0.15,0.59-0.15,0.91c0,0.32,0.05,0.62,0.15,0.91c0.1,0.29,0.24,0.54,0.43,0.77s0.42,0.4,0.7,0.53
		c0.28,0.13,0.59,0.2,0.95,0.2c0.36,0,0.67-0.06,0.95-0.2c0.28-0.13,0.51-0.31,0.7-0.53c0.19-0.22,0.33-0.48,0.43-0.77
		C363.44,113.86,363.49,113.56,363.49,113.24z"/>
	<path d="M369.93,111.01h-1.76v3.45c0,0.4,0.07,0.69,0.22,0.86s0.39,0.26,0.71,0.26c0.12,0,0.25-0.01,0.39-0.04
		c0.14-0.03,0.27-0.06,0.38-0.12l0.04,1.08c-0.16,0.06-0.33,0.1-0.53,0.13c-0.19,0.03-0.39,0.05-0.59,0.05
		c-0.63,0-1.1-0.17-1.44-0.52c-0.33-0.35-0.5-0.86-0.5-1.55v-3.6h-1.27v-1.08h1.27v-1.9h1.3v1.9h1.76V111.01z"/>
	<path d="M373.81,115.14h0.03l1.83-5.21h1.4l-3.22,8.2c-0.11,0.28-0.23,0.53-0.36,0.75c-0.13,0.22-0.28,0.41-0.46,0.56
		c-0.18,0.15-0.38,0.27-0.62,0.36s-0.52,0.13-0.85,0.13c-0.14,0-0.28-0.01-0.43-0.02c-0.15-0.01-0.29-0.04-0.44-0.08l0.13-1.16
		c0.22,0.07,0.44,0.11,0.66,0.11c0.34,0,0.6-0.1,0.77-0.29s0.32-0.46,0.46-0.82l0.42-1.11l-2.84-6.64h1.47L373.81,115.14z"/>
	<path d="M379.66,119.93h-1.32v-10h1.29v1.04h0.04c0.21-0.35,0.53-0.65,0.94-0.88s0.9-0.34,1.45-0.34c0.49,0,0.94,0.09,1.35,0.27
		c0.41,0.18,0.75,0.42,1.05,0.74c0.29,0.32,0.52,0.69,0.68,1.11c0.16,0.42,0.24,0.88,0.24,1.36s-0.08,0.94-0.24,1.37
		c-0.16,0.43-0.38,0.8-0.67,1.12c-0.29,0.32-0.64,0.57-1.05,0.75c-0.41,0.18-0.87,0.27-1.38,0.27c-0.47,0-0.92-0.1-1.34-0.31
		s-0.75-0.49-0.99-0.87h-0.04V119.93z M384.03,113.23c0-0.31-0.05-0.61-0.14-0.9c-0.09-0.29-0.23-0.55-0.42-0.77
		c-0.19-0.22-0.42-0.4-0.69-0.53c-0.28-0.13-0.59-0.2-0.96-0.2c-0.34,0-0.64,0.07-0.92,0.2c-0.28,0.13-0.51,0.31-0.71,0.53
		c-0.2,0.22-0.35,0.48-0.46,0.77s-0.16,0.59-0.16,0.91s0.05,0.62,0.16,0.91c0.11,0.29,0.26,0.54,0.46,0.76
		c0.2,0.22,0.43,0.39,0.71,0.52c0.28,0.13,0.58,0.2,0.92,0.2c0.36,0,0.68-0.07,0.96-0.2c0.28-0.13,0.51-0.31,0.69-0.54
		c0.19-0.22,0.33-0.48,0.42-0.77C383.98,113.84,384.03,113.54,384.03,113.23z"/>
	<path d="M388.76,107.54c0,0.24-0.08,0.44-0.26,0.6c-0.17,0.16-0.38,0.24-0.62,0.24c-0.24,0-0.44-0.08-0.61-0.25
		c-0.17-0.16-0.25-0.36-0.25-0.59c0-0.24,0.08-0.45,0.25-0.61c0.17-0.16,0.37-0.25,0.61-0.25c0.24,0,0.45,0.08,0.62,0.25
		C388.68,107.09,388.76,107.29,388.76,107.54z M388.55,116.57h-1.32v-6.64h1.32V116.57z"/>
	<path d="M392.04,109.93c0.02,0.17,0.03,0.36,0.04,0.57c0.01,0.21,0.01,0.38,0.01,0.52h0.04c0.08-0.18,0.2-0.34,0.34-0.5
		c0.14-0.15,0.31-0.29,0.5-0.41c0.19-0.12,0.39-0.21,0.62-0.27c0.22-0.07,0.46-0.1,0.7-0.1c0.43,0,0.8,0.07,1.11,0.22
		c0.31,0.14,0.56,0.34,0.77,0.58c0.21,0.24,0.36,0.53,0.46,0.85c0.1,0.33,0.15,0.68,0.15,1.05v4.12h-1.32v-3.68
		c0-0.27-0.02-0.53-0.06-0.77c-0.04-0.24-0.12-0.46-0.23-0.64s-0.27-0.34-0.46-0.45c-0.2-0.11-0.45-0.17-0.76-0.17
		c-0.52,0-0.95,0.2-1.28,0.59c-0.33,0.4-0.5,0.93-0.5,1.59v3.53h-1.32v-5.21c0-0.18,0-0.41-0.01-0.69s-0.02-0.53-0.04-0.74H392.04z"
		/>
	<path d="M399.51,117.7c0.29,0.33,0.65,0.59,1.08,0.78c0.43,0.2,0.88,0.29,1.34,0.29c0.44,0,0.81-0.06,1.11-0.19s0.54-0.3,0.72-0.52
		c0.18-0.22,0.31-0.48,0.39-0.78c0.08-0.3,0.12-0.62,0.12-0.97v-0.85h-0.03c-0.24,0.37-0.57,0.66-0.99,0.85
		c-0.42,0.2-0.87,0.29-1.34,0.29c-0.5,0-0.96-0.09-1.38-0.27c-0.42-0.18-0.77-0.42-1.06-0.73c-0.29-0.31-0.51-0.67-0.67-1.08
		c-0.16-0.42-0.24-0.86-0.24-1.34c0-0.48,0.08-0.92,0.24-1.34c0.16-0.42,0.38-0.79,0.67-1.1c0.29-0.31,0.64-0.56,1.05-0.74
		c0.41-0.18,0.87-0.27,1.37-0.27c0.48,0,0.93,0.1,1.37,0.31c0.43,0.21,0.78,0.52,1.03,0.94h0.03v-1.06h1.27v6.3
		c0,0.49-0.06,0.95-0.18,1.39c-0.12,0.44-0.33,0.83-0.62,1.18s-0.67,0.61-1.13,0.82c-0.47,0.21-1.05,0.31-1.74,0.31
		c-0.58,0-1.16-0.11-1.74-0.32c-0.58-0.21-1.08-0.51-1.5-0.89L399.51,117.7z M399.91,113.18c0,0.31,0.05,0.6,0.15,0.88
		c0.1,0.28,0.24,0.53,0.44,0.74c0.19,0.21,0.42,0.39,0.69,0.52c0.27,0.13,0.58,0.2,0.93,0.2c0.34,0,0.65-0.06,0.93-0.18
		s0.52-0.29,0.72-0.5c0.2-0.21,0.35-0.46,0.46-0.74c0.11-0.28,0.16-0.59,0.16-0.92c0-0.32-0.05-0.62-0.16-0.9
		c-0.11-0.28-0.26-0.53-0.46-0.74s-0.44-0.39-0.72-0.51s-0.58-0.19-0.92-0.19c-0.35,0-0.66,0.06-0.93,0.19s-0.5,0.29-0.69,0.5
		c-0.19,0.21-0.34,0.46-0.44,0.74C399.95,112.56,399.91,112.86,399.91,113.18z"/>
	<path d="M414.55,116.57h-1.39v-8.69h-3.18v-1.22h7.74v1.22h-3.18V116.57z"/>
	<path d="M423.83,113.19c0,0.08,0,0.15,0,0.22c0,0.07,0,0.15-0.01,0.22h-5.28c0.01,0.28,0.07,0.54,0.19,0.79
		c0.12,0.25,0.27,0.46,0.47,0.64s0.42,0.32,0.68,0.42c0.26,0.1,0.53,0.15,0.82,0.15c0.45,0,0.83-0.1,1.16-0.29
		c0.33-0.2,0.58-0.43,0.77-0.71l0.92,0.74c-0.35,0.47-0.77,0.82-1.25,1.04c-0.48,0.22-1.01,0.33-1.6,0.33c-0.5,0-0.97-0.08-1.4-0.25
		s-0.8-0.4-1.11-0.71c-0.31-0.3-0.55-0.67-0.73-1.1c-0.18-0.43-0.27-0.91-0.27-1.43c0-0.51,0.09-0.99,0.26-1.42
		c0.17-0.43,0.41-0.8,0.72-1.11c0.31-0.31,0.67-0.55,1.09-0.72s0.87-0.26,1.36-0.26c0.49,0,0.93,0.08,1.33,0.24
		c0.4,0.16,0.73,0.39,1.01,0.69c0.28,0.3,0.49,0.66,0.64,1.08S423.83,112.66,423.83,113.19z M422.49,112.66
		c-0.01-0.26-0.05-0.51-0.13-0.74c-0.08-0.23-0.2-0.43-0.35-0.59c-0.15-0.17-0.34-0.3-0.57-0.4c-0.23-0.1-0.5-0.15-0.8-0.15
		c-0.28,0-0.54,0.05-0.79,0.15s-0.46,0.23-0.64,0.4c-0.18,0.17-0.33,0.37-0.45,0.59c-0.12,0.23-0.18,0.47-0.2,0.74H422.49z"/>
	<path d="M429.24,111.61c-0.15-0.24-0.36-0.44-0.63-0.59s-0.57-0.23-0.91-0.23c-0.15,0-0.3,0.02-0.45,0.05
		c-0.15,0.03-0.28,0.08-0.4,0.15c-0.12,0.07-0.21,0.16-0.28,0.27c-0.07,0.11-0.1,0.24-0.1,0.4c0,0.28,0.13,0.49,0.38,0.62
		c0.25,0.14,0.63,0.26,1.13,0.37c0.32,0.08,0.61,0.16,0.88,0.27c0.27,0.1,0.51,0.23,0.71,0.38c0.2,0.15,0.36,0.34,0.47,0.55
		c0.11,0.21,0.17,0.47,0.17,0.76c0,0.39-0.07,0.72-0.22,0.99s-0.35,0.49-0.59,0.67c-0.25,0.17-0.53,0.3-0.85,0.37
		s-0.64,0.11-0.98,0.11c-0.5,0-1-0.1-1.48-0.29c-0.48-0.2-0.88-0.5-1.2-0.9l0.94-0.8c0.18,0.26,0.42,0.48,0.74,0.66
		c0.31,0.18,0.66,0.27,1.03,0.27c0.17,0,0.33-0.02,0.48-0.05c0.15-0.03,0.29-0.09,0.42-0.16c0.13-0.07,0.23-0.17,0.3-0.29
		c0.08-0.12,0.11-0.28,0.11-0.46c0-0.31-0.15-0.54-0.44-0.69c-0.29-0.15-0.73-0.29-1.29-0.42c-0.22-0.06-0.45-0.12-0.68-0.2
		c-0.23-0.08-0.44-0.19-0.62-0.33c-0.19-0.14-0.34-0.32-0.46-0.53c-0.12-0.21-0.17-0.47-0.17-0.78c0-0.35,0.07-0.66,0.22-0.92
		c0.14-0.26,0.33-0.47,0.57-0.63c0.23-0.16,0.5-0.28,0.8-0.36c0.3-0.08,0.61-0.12,0.92-0.12c0.48,0,0.94,0.09,1.38,0.28
		c0.44,0.19,0.79,0.46,1.03,0.81L429.24,111.61z"/>
	<path d="M435.12,111.01h-1.76v3.45c0,0.4,0.07,0.69,0.22,0.86s0.39,0.26,0.71,0.26c0.12,0,0.25-0.01,0.39-0.04
		c0.14-0.03,0.27-0.06,0.38-0.12l0.04,1.08c-0.16,0.06-0.33,0.1-0.53,0.13c-0.19,0.03-0.39,0.05-0.59,0.05
		c-0.62,0-1.1-0.17-1.43-0.52c-0.33-0.35-0.5-0.86-0.5-1.55v-3.6h-1.27v-1.08h1.27v-1.9h1.3v1.9h1.76V111.01z"/>
	<path d="M332.97,150.17h-1.54l4.3-9.91h1.26l4.26,9.91h-1.57l-1.01-2.44h-4.7L332.97,150.17z M334.46,146.51h3.71l-1.85-4.65
		L334.46,146.51z"/>
	<path d="M342.28,150.63l-0.99-0.34l4.3-10.51l0.99,0.36L342.28,150.63z"/>
	<path d="M347.84,140.25h3.42c0.37,0,0.75,0.04,1.12,0.13s0.71,0.22,1,0.42s0.53,0.45,0.71,0.77c0.18,0.32,0.27,0.71,0.27,1.19
		c0,0.55-0.16,1.01-0.48,1.39c-0.32,0.37-0.74,0.63-1.26,0.77v0.03c0.32,0.04,0.61,0.12,0.88,0.25s0.5,0.29,0.7,0.5
		c0.2,0.21,0.35,0.45,0.46,0.73c0.11,0.28,0.16,0.59,0.16,0.94c0,0.48-0.1,0.89-0.29,1.25c-0.2,0.35-0.46,0.65-0.8,0.88
		s-0.73,0.4-1.18,0.52c-0.45,0.12-0.94,0.17-1.45,0.17h-3.26V140.25z M349.23,144.44h1.81c0.26,0,0.51-0.03,0.75-0.09
		c0.24-0.06,0.45-0.15,0.62-0.28c0.18-0.13,0.32-0.28,0.42-0.48c0.1-0.19,0.15-0.42,0.15-0.69c0-0.53-0.2-0.91-0.59-1.14
		c-0.39-0.23-0.92-0.34-1.58-0.34h-1.58V144.44z M349.23,148.99h1.74c0.29,0,0.58-0.03,0.88-0.08c0.29-0.05,0.56-0.14,0.8-0.27
		c0.24-0.13,0.43-0.31,0.57-0.52c0.14-0.22,0.22-0.5,0.22-0.83c0-0.59-0.2-1.01-0.6-1.27c-0.4-0.26-0.98-0.39-1.74-0.39h-1.86
		V148.99z"/>
	<path d="M363.46,150.17h-1.39v-8.69h-3.18v-1.22h7.74v1.22h-3.18V150.17z"/>
	<path d="M372.75,146.79c0,0.07,0,0.15,0,0.22c0,0.08,0,0.15-0.01,0.22h-5.28c0.01,0.28,0.07,0.54,0.19,0.79
		c0.12,0.25,0.27,0.46,0.47,0.64c0.2,0.18,0.42,0.32,0.68,0.42s0.53,0.15,0.82,0.15c0.45,0,0.83-0.1,1.16-0.29
		c0.33-0.2,0.58-0.43,0.77-0.71l0.92,0.74c-0.35,0.47-0.77,0.82-1.25,1.04c-0.48,0.22-1.01,0.33-1.6,0.33c-0.5,0-0.97-0.08-1.4-0.25
		c-0.43-0.17-0.8-0.4-1.11-0.71c-0.31-0.3-0.55-0.67-0.73-1.1c-0.18-0.43-0.27-0.91-0.27-1.43c0-0.51,0.09-0.99,0.26-1.42
		c0.17-0.43,0.41-0.8,0.72-1.11c0.31-0.31,0.67-0.55,1.09-0.72c0.42-0.17,0.87-0.26,1.36-0.26s0.93,0.08,1.33,0.24
		c0.4,0.16,0.73,0.39,1.01,0.69c0.28,0.3,0.49,0.66,0.64,1.08C372.67,145.78,372.75,146.26,372.75,146.79z M371.4,146.26
		c-0.01-0.26-0.05-0.51-0.13-0.74c-0.08-0.23-0.2-0.43-0.35-0.59s-0.35-0.3-0.57-0.4c-0.23-0.1-0.5-0.15-0.8-0.15
		c-0.28,0-0.54,0.05-0.79,0.15c-0.25,0.1-0.46,0.23-0.64,0.4c-0.18,0.17-0.33,0.37-0.45,0.59c-0.12,0.23-0.18,0.47-0.2,0.74H371.4z"
		/>
	<path d="M378.15,145.21c-0.15-0.24-0.36-0.44-0.63-0.59c-0.27-0.15-0.57-0.23-0.91-0.23c-0.15,0-0.3,0.02-0.45,0.05
		c-0.15,0.03-0.28,0.08-0.4,0.15c-0.12,0.07-0.21,0.16-0.28,0.27c-0.07,0.11-0.1,0.24-0.1,0.4c0,0.28,0.13,0.49,0.38,0.62
		c0.25,0.13,0.63,0.26,1.13,0.37c0.32,0.07,0.61,0.16,0.88,0.27s0.51,0.23,0.71,0.38c0.2,0.15,0.36,0.34,0.47,0.55
		c0.11,0.21,0.17,0.47,0.17,0.76c0,0.39-0.08,0.72-0.22,0.99c-0.15,0.27-0.35,0.49-0.59,0.67c-0.25,0.17-0.53,0.3-0.85,0.37
		c-0.32,0.08-0.64,0.11-0.98,0.11c-0.5,0-1-0.1-1.48-0.29c-0.48-0.2-0.88-0.49-1.2-0.9l0.94-0.8c0.18,0.26,0.42,0.48,0.74,0.66
		c0.31,0.18,0.66,0.27,1.03,0.27c0.17,0,0.33-0.02,0.48-0.05c0.15-0.03,0.29-0.09,0.42-0.16c0.13-0.08,0.23-0.17,0.3-0.29
		c0.07-0.12,0.11-0.27,0.11-0.46c0-0.31-0.15-0.54-0.44-0.69s-0.73-0.29-1.29-0.42c-0.22-0.06-0.45-0.12-0.68-0.2
		c-0.23-0.08-0.44-0.19-0.62-0.33c-0.19-0.14-0.34-0.31-0.46-0.53c-0.12-0.21-0.18-0.47-0.18-0.78c0-0.35,0.07-0.66,0.22-0.92
		c0.14-0.26,0.33-0.47,0.57-0.63s0.5-0.29,0.8-0.36s0.61-0.12,0.92-0.12c0.48,0,0.94,0.09,1.38,0.28c0.44,0.19,0.79,0.46,1.03,0.81
		L378.15,145.21z"/>
	<path d="M384.03,144.61h-1.76v3.45c0,0.4,0.07,0.69,0.22,0.86c0.15,0.17,0.39,0.26,0.71,0.26c0.12,0,0.25-0.01,0.39-0.04
		c0.14-0.03,0.27-0.06,0.38-0.12l0.04,1.08c-0.16,0.06-0.33,0.1-0.53,0.13c-0.19,0.03-0.39,0.05-0.59,0.05
		c-0.62,0-1.1-0.17-1.43-0.52c-0.33-0.34-0.5-0.86-0.5-1.55v-3.6h-1.27v-1.08h1.27v-1.9h1.3v1.9h1.76V144.61z"/>
	<path d="M386.93,141.14c0,0.24-0.09,0.44-0.26,0.6c-0.17,0.16-0.38,0.24-0.62,0.24s-0.44-0.08-0.61-0.25
		c-0.17-0.16-0.25-0.36-0.25-0.59c0-0.24,0.08-0.45,0.25-0.61c0.17-0.16,0.37-0.24,0.61-0.24s0.45,0.08,0.62,0.24
		C386.84,140.69,386.93,140.89,386.93,141.14z M386.72,150.17h-1.32v-6.64h1.32V150.17z"/>
	<path d="M390.2,143.53c0.02,0.17,0.03,0.36,0.04,0.57c0.01,0.21,0.01,0.38,0.01,0.53h0.04c0.08-0.18,0.2-0.34,0.34-0.5
		c0.14-0.15,0.31-0.29,0.5-0.41c0.19-0.12,0.39-0.21,0.62-0.27c0.22-0.06,0.46-0.1,0.7-0.1c0.43,0,0.8,0.07,1.11,0.22
		c0.31,0.15,0.56,0.34,0.77,0.58c0.21,0.24,0.36,0.53,0.46,0.85c0.1,0.33,0.15,0.68,0.15,1.05v4.12h-1.32v-3.68
		c0-0.27-0.02-0.53-0.06-0.77s-0.12-0.46-0.23-0.64c-0.11-0.19-0.27-0.34-0.46-0.45c-0.2-0.11-0.45-0.17-0.76-0.17
		c-0.52,0-0.95,0.2-1.28,0.59c-0.33,0.4-0.5,0.93-0.5,1.59v3.53h-1.32v-5.21c0-0.18,0-0.41-0.01-0.69
		c-0.01-0.28-0.02-0.53-0.04-0.74H390.2z"/>
	<path d="M397.68,151.3c0.29,0.33,0.65,0.59,1.08,0.78c0.43,0.2,0.88,0.29,1.34,0.29c0.44,0,0.81-0.06,1.11-0.19s0.54-0.3,0.72-0.52
		c0.18-0.22,0.31-0.48,0.39-0.78c0.08-0.3,0.12-0.62,0.12-0.97v-0.85h-0.03c-0.24,0.37-0.57,0.66-0.99,0.85s-0.87,0.29-1.34,0.29
		c-0.5,0-0.96-0.09-1.38-0.27c-0.42-0.18-0.77-0.42-1.06-0.73c-0.29-0.31-0.51-0.67-0.67-1.08c-0.16-0.42-0.24-0.86-0.24-1.34
		c0-0.48,0.08-0.92,0.24-1.34c0.16-0.42,0.38-0.79,0.67-1.1c0.29-0.31,0.64-0.56,1.05-0.74c0.41-0.18,0.87-0.27,1.37-0.27
		c0.48,0,0.93,0.1,1.36,0.31c0.43,0.21,0.78,0.52,1.03,0.94h0.03v-1.06h1.27v6.3c0,0.49-0.06,0.95-0.18,1.39s-0.33,0.83-0.62,1.18
		c-0.29,0.34-0.67,0.61-1.13,0.82s-1.05,0.31-1.74,0.31c-0.58,0-1.16-0.1-1.74-0.31c-0.58-0.21-1.08-0.51-1.5-0.89L397.68,151.3z
		 M398.07,146.78c0,0.31,0.05,0.6,0.15,0.88c0.1,0.28,0.24,0.53,0.44,0.74c0.19,0.21,0.42,0.39,0.69,0.52s0.58,0.2,0.93,0.2
		c0.34,0,0.65-0.06,0.93-0.18c0.28-0.12,0.52-0.29,0.72-0.5s0.35-0.46,0.46-0.74c0.11-0.28,0.16-0.59,0.16-0.92
		c0-0.32-0.05-0.62-0.16-0.9c-0.11-0.28-0.26-0.53-0.46-0.74s-0.44-0.38-0.72-0.51c-0.28-0.13-0.58-0.19-0.92-0.19
		c-0.35,0-0.66,0.06-0.93,0.19s-0.5,0.29-0.69,0.5c-0.19,0.21-0.34,0.46-0.44,0.74C398.12,146.16,398.07,146.46,398.07,146.78z"/>
</g>
</svg>
