<?xml version="1.0" encoding="utf-8"?>
<!-- Generator: Adobe Illustrator 26.0.1, SVG Export Plug-In . SVG Version: 6.00 Build 0)  -->
<svg version="1.1" id="Layer_1" xmlns="http://www.w3.org/2000/svg" xmlns:xlink="http://www.w3.org/1999/xlink" x="0px" y="0px"
	 viewBox="0 0 1245.4 433.4" style="enable-background:new 0 0 1245.4 433.4;" xml:space="preserve">
<style type="text/css">
	.st0{display:none;}
	.st1{display:inline;}
	.st2{fill:#F47C69;}
	.st3{fill:#252D47;}
	.st4{font-family:'Poppins-SemiBold';}
	.st5{font-size:28px;}
	.st6{fill:none;stroke:#F47C69;stroke-width:2;stroke-linecap:round;stroke-miterlimit:10;}
	.st7{fill:none;stroke:#252D47;stroke-miterlimit:10;}
	.st8{font-family:'Poppins-Regular';}
	.st9{font-size:21px;}
	.st10{display:inline;fill:#252D47;}
</style>
<g class="st0">
	<g class="st1">
		<g>
			<circle class="st2" cx="120" cy="162.6" r="112.9"/>
		</g>
		<text transform="matrix(1 0 0 1 46.5833 176.2332)" class="st3 st4 st5">DISCOVER</text>
	</g>
	<g class="st1">
		<g>
			<circle class="st2" cx="373.1" cy="162.6" r="112.9"/>
		</g>
		<text transform="matrix(1 0 0 1 324.4512 176.2332)" class="st3 st4 st5">DEFINE</text>
	</g>
	<g class="st1">
		<g>
			<circle class="st2" cx="626.2" cy="162.6" r="112.9"/>
		</g>
		<text transform="matrix(1 0 0 1 577.1893 176.2332)" class="st3 st4 st5">IDEATE</text>
	</g>
	<g class="st1">
		<g>
			<circle class="st2" cx="879.3" cy="162.6" r="112.9"/>
		</g>
		<text transform="matrix(1 0 0 1 795.7126 176.2332)" class="st3 st4 st5">PROTOTYPE</text>
	</g>
	<g class="st1">
		<g>
			<circle class="st2" cx="1132.5" cy="162.6" r="112.9"/>
		</g>
		<text transform="matrix(1 0 0 1 1098.9478 176.2332)" class="st3 st4 st5">TEST</text>
	</g>
	<g class="st1">
		<path class="st6" d="M188.3,56.9c0-30.9,25-55.9,55.9-55.9s55.9,25,55.9,55.9"/>
		<path class="st2" d="M300.1,56.9h4.9c0.3,0,0.6,0.4,0.4,0.7l-2.4,4.2l-2.4,4.2c-0.2,0.3-0.6,0.3-0.8,0l-2.4-4.2l-2.4-4.2
			c-0.2-0.3,0-0.7,0.4-0.7H300.1z"/>
	</g>
	<g class="st1">
		<path class="st6" d="M441.4,56.9c0-30.9,25-55.9,55.9-55.9s55.9,25,55.9,55.9"/>
		<path class="st2" d="M553.2,56.9h4.9c0.3,0,0.6,0.4,0.4,0.7l-2.4,4.2l-2.4,4.2c-0.2,0.3-0.6,0.3-0.8,0l-2.4-4.2l-2.4-4.2
			c-0.2-0.3,0-0.7,0.4-0.7H553.2z"/>
	</g>
	<g class="st1">
		<path class="st6" d="M694.6,56.9c0-30.9,25-55.9,55.9-55.9s55.9,25,55.9,55.9"/>
		<path class="st2" d="M806.4,56.9h4.9c0.3,0,0.6,0.4,0.4,0.7l-2.4,4.2l-2.4,4.2c-0.2,0.3-0.6,0.3-0.8,0l-2.4-4.2l-2.4-4.2
			c-0.2-0.3,0-0.7,0.4-0.7H806.4z"/>
	</g>
	<g class="st1">
		<path class="st6" d="M947.7,56.9c0-30.9,25-55.9,55.9-55.9s55.9,25,55.9,55.9"/>
		<path class="st2" d="M1059.5,56.9h4.9c0.3,0,0.6,0.4,0.4,0.7l-2.4,4.2l-2.4,4.2c-0.2,0.3-0.6,0.3-0.8,0l-2.4-4.2l-2.4-4.2
			c-0.2-0.3,0-0.7,0.4-0.7H1059.5z"/>
	</g>
	<g class="st1">
		<path class="st6" d="M1064.8,276.6c0,30.9-25,55.9-55.9,55.9c-30.9,0-55.9-25-55.9-55.9"/>
		<path class="st2" d="M953,276.6h-4.9c-0.3,0-0.6-0.4-0.4-0.7l2.4-4.2l2.4-4.2c0.2-0.3,0.6-0.3,0.8,0l2.4,4.2l2.4,4.2
			c0.2,0.3,0,0.7-0.4,0.7H953z"/>
	</g>
	<g class="st1">
		<path class="st6" d="M811.7,281.3c0,30.9-25,55.9-55.9,55.9s-55.9-25-55.9-55.9"/>
		<path class="st2" d="M699.9,281.3H695c-0.3,0-0.6-0.4-0.4-0.7l2.4-4.2l2.4-4.2c0.2-0.3,0.6-0.3,0.8,0l2.4,4.2l2.4,4.2
			c0.2,0.3,0,0.7-0.4,0.7H699.9z"/>
	</g>
</g>
<g>
	<g>
		<circle class="st2" cx="120" cy="162.6" r="112.9"/>
	</g>
	<g>
		<path class="st3" d="M60.8,157.9c1.6,0.8,2.8,1.9,3.6,3.4c0.8,1.5,1.3,3.2,1.3,5.2s-0.4,3.7-1.3,5.1c-0.8,1.5-2.1,2.6-3.6,3.4
			c-1.6,0.8-3.4,1.2-5.4,1.2h-6.8v-19.5h6.8C57.4,156.7,59.2,157.1,60.8,157.9z M60,171.2c1.1-1.1,1.7-2.7,1.7-4.7
			c0-2-0.6-3.6-1.7-4.8c-1.1-1.1-2.7-1.7-4.8-1.7h-2.8v12.9h2.8C57.3,172.9,58.8,172.3,60,171.2z"/>
		<path class="st3" d="M73.2,156.7v19.5h-3.9v-19.5H73.2z"/>
		<path class="st3" d="M80.8,175.7c-1.1-0.5-2-1.1-2.6-2c-0.6-0.9-1-1.9-1-3.1h4.2c0.1,0.8,0.3,1.4,0.9,1.9c0.5,0.5,1.2,0.7,2.1,0.7
			c0.9,0,1.6-0.2,2.2-0.7c0.5-0.4,0.8-1,0.8-1.7c0-0.6-0.2-1.1-0.5-1.4c-0.4-0.4-0.8-0.7-1.3-0.9c-0.5-0.2-1.3-0.5-2.2-0.7
			c-1.3-0.4-2.3-0.7-3.1-1.1s-1.5-0.9-2-1.7s-0.9-1.7-0.9-3c0-1.2,0.3-2.2,0.9-3c0.6-0.9,1.4-1.5,2.4-2c1-0.5,2.2-0.7,3.6-0.7
			c2,0,3.7,0.5,4.9,1.5c1.3,1,2,2.3,2.1,4.1h-4.3c0-0.7-0.3-1.2-0.9-1.7c-0.5-0.4-1.2-0.7-2.1-0.7c-0.8,0-1.4,0.2-1.8,0.6
			c-0.5,0.4-0.7,1-0.7,1.7c0,0.5,0.2,1,0.5,1.3c0.3,0.3,0.8,0.6,1.3,0.8c0.5,0.2,1.2,0.5,2.2,0.7c1.3,0.4,2.3,0.7,3.1,1.1
			c0.8,0.4,1.5,0.9,2.1,1.7c0.6,0.7,0.9,1.7,0.9,2.9c0,1-0.3,2-0.8,2.9c-0.5,0.9-1.3,1.6-2.4,2.1c-1,0.5-2.3,0.8-3.7,0.8
			C83.2,176.4,81.9,176.2,80.8,175.7z"/>
		<path class="st3" d="M95.9,161.3c0.9-1.5,2.1-2.7,3.6-3.6c1.5-0.8,3.2-1.3,5.1-1.3c2.2,0,4.1,0.6,5.7,1.7s2.8,2.7,3.4,4.6h-4.5
			c-0.4-0.9-1.1-1.6-1.9-2.1c-0.8-0.5-1.8-0.7-2.8-0.7c-1.1,0-2.2,0.3-3,0.8c-0.9,0.5-1.6,1.3-2.1,2.3s-0.7,2.1-0.7,3.4
			c0,1.3,0.2,2.4,0.7,3.4c0.5,1,1.2,1.7,2.1,2.3c0.9,0.5,1.9,0.8,3,0.8c1.1,0,2-0.2,2.8-0.7c0.8-0.5,1.4-1.2,1.9-2.1h4.5
			c-0.7,2-1.8,3.6-3.4,4.7c-1.6,1.1-3.6,1.7-5.8,1.7c-1.9,0-3.6-0.4-5.1-1.3c-1.5-0.8-2.7-2-3.6-3.5c-0.9-1.5-1.3-3.2-1.3-5.2
			S95,162.8,95.9,161.3z"/>
		<path class="st3" d="M121.8,175.1c-1.5-0.9-2.7-2-3.6-3.6s-1.3-3.2-1.3-5.2c0-1.9,0.4-3.6,1.3-5.1s2.1-2.7,3.6-3.6
			c1.5-0.9,3.2-1.3,5-1.3c1.8,0,3.5,0.4,5.1,1.3c1.5,0.9,2.7,2,3.6,3.6c0.9,1.5,1.3,3.2,1.3,5.1c0,1.9-0.4,3.6-1.3,5.2
			c-0.9,1.5-2.1,2.7-3.6,3.6c-1.5,0.9-3.2,1.3-5,1.3C125,176.4,123.3,176,121.8,175.1z M129.9,172.1c0.9-0.5,1.6-1.3,2.1-2.3
			s0.8-2.1,0.8-3.4s-0.3-2.5-0.8-3.4c-0.5-1-1.2-1.7-2.1-2.3s-1.9-0.8-3.1-0.8c-1.2,0-2.2,0.3-3.1,0.8s-1.6,1.3-2.1,2.3
			c-0.5,1-0.8,2.1-0.8,3.4s0.3,2.5,0.8,3.4s1.2,1.8,2.1,2.3c0.9,0.5,1.9,0.8,3.1,0.8C128,172.9,129,172.7,129.9,172.1z"/>
		<path class="st3" d="M158,156.7l-7.2,19.5H146l-7.2-19.5h4.2l5.4,15.5l5.3-15.5H158z"/>
		<path class="st3" d="M164.9,159.9v4.9h6.6v3.1h-6.6v5.2h7.4v3.2H161v-19.6h11.3v3.2H164.9z"/>
		<path class="st3" d="M186.7,176.2l-4.3-7.6h-1.8v7.6h-3.9v-19.5h7.3c1.5,0,2.8,0.3,3.9,0.8s1.9,1.3,2.4,2.2c0.5,0.9,0.8,1.9,0.8,3
			c0,1.3-0.4,2.5-1.1,3.5c-0.7,1-1.9,1.8-3.3,2.1l4.7,7.9H186.7z M180.5,165.7h3.3c1.1,0,1.9-0.3,2.4-0.8c0.5-0.5,0.8-1.2,0.8-2.1
			c0-0.9-0.3-1.6-0.8-2.1c-0.5-0.5-1.3-0.7-2.4-0.7h-3.3V165.7z"/>
	</g>
</g>
<g>
	<g>
		<circle class="st2" cx="373.1" cy="162.6" r="112.9"/>
	</g>
	<g>
		<path class="st3" d="M338.6,157.9c1.6,0.8,2.8,1.9,3.6,3.4c0.8,1.5,1.3,3.2,1.3,5.2s-0.4,3.7-1.3,5.1c-0.8,1.5-2.1,2.6-3.6,3.4
			c-1.6,0.8-3.4,1.2-5.4,1.2h-6.8v-19.5h6.8C335.3,156.7,337.1,157.1,338.6,157.9z M337.8,171.2c1.1-1.1,1.7-2.7,1.7-4.7
			c0-2-0.6-3.6-1.7-4.8c-1.1-1.1-2.7-1.7-4.8-1.7h-2.8v12.9h2.8C335.1,172.9,336.7,172.3,337.8,171.2z"/>
		<path class="st3" d="M351.1,159.9v4.9h6.6v3.1h-6.6v5.2h7.4v3.2h-11.3v-19.6h11.3v3.2H351.1z"/>
		<path class="st3" d="M374.8,156.7v3.2h-8.1v5h6.2v3.1h-6.2v8.3h-3.9v-19.5H374.8z"/>
		<path class="st3" d="M382.2,156.7v19.5h-3.9v-19.5H382.2z"/>
		<path class="st3" d="M403.5,176.2h-3.9l-8.9-13.4v13.4h-3.9v-19.6h3.9l8.9,13.4v-13.4h3.9V176.2z"/>
		<path class="st3" d="M412,159.9v4.9h6.6v3.1H412v5.2h7.4v3.2h-11.3v-19.6h11.3v3.2H412z"/>
	</g>
</g>
<g>
	<g>
		<circle class="st2" cx="626.2" cy="162.6" r="112.9"/>
	</g>
	<g>
		<path class="st3" d="M583,156.7v19.5h-3.9v-19.5H583z"/>
		<path class="st3" d="M599.9,157.9c1.6,0.8,2.8,1.9,3.6,3.4c0.8,1.5,1.3,3.2,1.3,5.2s-0.4,3.7-1.3,5.1c-0.8,1.5-2.1,2.6-3.6,3.4
			c-1.6,0.8-3.4,1.2-5.4,1.2h-6.8v-19.5h6.8C596.5,156.7,598.3,157.1,599.9,157.9z M599.1,171.2c1.1-1.1,1.7-2.7,1.7-4.7
			c0-2-0.6-3.6-1.7-4.8c-1.1-1.1-2.7-1.7-4.8-1.7h-2.8v12.9h2.8C596.4,172.9,597.9,172.3,599.1,171.2z"/>
		<path class="st3" d="M612.3,159.9v4.9h6.6v3.1h-6.6v5.2h7.4v3.2h-11.3v-19.6h11.3v3.2H612.3z"/>
		<path class="st3" d="M636,172.5h-7.8l-1.3,3.7h-4.1l7-19.6h4.6l7,19.6h-4.1L636,172.5z M634.9,169.4l-2.8-8.2l-2.8,8.2H634.9z"/>
		<path class="st3" d="M658,156.7v3.2h-5.2v16.4h-3.9v-16.4h-5.2v-3.2H658z"/>
		<path class="st3" d="M665.5,159.9v4.9h6.6v3.1h-6.6v5.2h7.4v3.2h-11.3v-19.6h11.3v3.2H665.5z"/>
	</g>
</g>
<g>
	<g>
		<circle class="st2" cx="879.3" cy="162.6" r="112.9"/>
	</g>
	<g>
		<path class="st3" d="M811.2,165.7c-0.5,0.9-1.3,1.7-2.3,2.2c-1.1,0.6-2.4,0.8-4,0.8h-3.3v7.5h-3.9v-19.5h7.2
			c1.5,0,2.8,0.3,3.9,0.8s1.9,1.2,2.4,2.2c0.5,0.9,0.8,2,0.8,3.1C811.9,163.8,811.6,164.8,811.2,165.7z M807.1,164.8
			c0.5-0.5,0.8-1.2,0.8-2.1c0-1.9-1.1-2.9-3.2-2.9h-3.1v5.7h3.1C805.8,165.6,806.6,165.3,807.1,164.8z"/>
		<path class="st3" d="M825.4,176.2l-4.3-7.6h-1.8v7.6h-3.9v-19.5h7.3c1.5,0,2.8,0.3,3.9,0.8s1.9,1.3,2.4,2.2c0.5,0.9,0.8,1.9,0.8,3
			c0,1.3-0.4,2.5-1.1,3.5c-0.7,1-1.9,1.8-3.3,2.1l4.7,7.9H825.4z M819.3,165.7h3.3c1.1,0,1.9-0.3,2.4-0.8c0.5-0.5,0.8-1.2,0.8-2.1
			c0-0.9-0.3-1.6-0.8-2.1c-0.5-0.5-1.3-0.7-2.4-0.7h-3.3V165.7z"/>
		<path class="st3" d="M838,175.1c-1.5-0.9-2.7-2-3.6-3.6c-0.9-1.5-1.3-3.2-1.3-5.2c0-1.9,0.4-3.6,1.3-5.1c0.9-1.5,2.1-2.7,3.6-3.6
			c1.5-0.9,3.2-1.3,5-1.3c1.8,0,3.5,0.4,5.1,1.3c1.5,0.9,2.7,2,3.6,3.6c0.9,1.5,1.3,3.2,1.3,5.1c0,1.9-0.4,3.6-1.3,5.2
			c-0.9,1.5-2.1,2.7-3.6,3.6c-1.5,0.9-3.2,1.3-5,1.3C841.3,176.4,839.6,176,838,175.1z M846.2,172.1c0.9-0.5,1.6-1.3,2.1-2.3
			s0.8-2.1,0.8-3.4s-0.3-2.5-0.8-3.4c-0.5-1-1.2-1.7-2.1-2.3s-1.9-0.8-3.1-0.8s-2.2,0.3-3.1,0.8c-0.9,0.5-1.6,1.3-2.1,2.3
			c-0.5,1-0.8,2.1-0.8,3.4s0.3,2.5,0.8,3.4s1.2,1.8,2.1,2.3c0.9,0.5,1.9,0.8,3.1,0.8S845.3,172.7,846.2,172.1z"/>
		<path class="st3" d="M870,156.7v3.2h-5.2v16.4h-3.9v-16.4h-5.2v-3.2H870z"/>
		<path class="st3" d="M877.6,175.1c-1.5-0.9-2.7-2-3.6-3.6c-0.9-1.5-1.3-3.2-1.3-5.2c0-1.9,0.4-3.6,1.3-5.1
			c0.9-1.5,2.1-2.7,3.6-3.6c1.5-0.9,3.2-1.3,5-1.3c1.8,0,3.5,0.4,5.1,1.3c1.5,0.9,2.7,2,3.6,3.6c0.9,1.5,1.3,3.2,1.3,5.1
			c0,1.9-0.4,3.6-1.3,5.2c-0.9,1.5-2.1,2.7-3.6,3.6c-1.5,0.9-3.2,1.3-5,1.3C880.8,176.4,879.1,176,877.6,175.1z M885.7,172.1
			c0.9-0.5,1.6-1.3,2.1-2.3s0.8-2.1,0.8-3.4s-0.3-2.5-0.8-3.4c-0.5-1-1.2-1.7-2.1-2.3s-1.9-0.8-3.1-0.8s-2.2,0.3-3.1,0.8
			c-0.9,0.5-1.6,1.3-2.1,2.3c-0.5,1-0.8,2.1-0.8,3.4s0.3,2.5,0.8,3.4s1.2,1.8,2.1,2.3c0.9,0.5,1.9,0.8,3.1,0.8
			S884.8,172.7,885.7,172.1z"/>
		<path class="st3" d="M909.5,156.7v3.2h-5.2v16.4h-3.9v-16.4h-5.2v-3.2H909.5z"/>
		<path class="st3" d="M928.6,156.7l-6.6,12.7v6.8h-3.9v-6.8l-6.6-12.7h4.4l4.2,8.9l4.2-8.9H928.6z"/>
		<path class="st3" d="M945.1,165.7c-0.5,0.9-1.3,1.7-2.3,2.2c-1.1,0.6-2.4,0.8-4,0.8h-3.3v7.5h-3.9v-19.5h7.2
			c1.5,0,2.8,0.3,3.9,0.8s1.9,1.2,2.4,2.2c0.5,0.9,0.8,2,0.8,3.1C945.8,163.8,945.6,164.8,945.1,165.7z M941,164.8
			c0.5-0.5,0.8-1.2,0.8-2.1c0-1.9-1.1-2.9-3.2-2.9h-3.1v5.7h3.1C939.7,165.6,940.5,165.3,941,164.8z"/>
		<path class="st3" d="M953.2,159.9v4.9h6.6v3.1h-6.6v5.2h7.4v3.2h-11.3v-19.6h11.3v3.2H953.2z"/>
	</g>
</g>
<g>
	<g>
		<circle class="st2" cx="1132.5" cy="162.6" r="112.9"/>
	</g>
	<g>
		<path class="st3" d="M1114.2,156.7v3.2h-5.2v16.4h-3.9v-16.4h-5.2v-3.2H1114.2z"/>
		<path class="st3" d="M1121.7,159.9v4.9h6.6v3.1h-6.6v5.2h7.4v3.2h-11.3v-19.6h11.3v3.2H1121.7z"/>
		<path class="st3" d="M1136.4,175.7c-1.1-0.5-2-1.1-2.6-2c-0.6-0.9-1-1.9-1-3.1h4.2c0.1,0.8,0.3,1.4,0.9,1.9
			c0.5,0.5,1.2,0.7,2.1,0.7c0.9,0,1.6-0.2,2.2-0.7s0.8-1,0.8-1.7c0-0.6-0.2-1.1-0.5-1.4c-0.4-0.4-0.8-0.7-1.3-0.9
			c-0.5-0.2-1.3-0.5-2.2-0.7c-1.3-0.4-2.3-0.7-3.1-1.1c-0.8-0.4-1.5-0.9-2-1.7s-0.9-1.7-0.9-3c0-1.2,0.3-2.2,0.9-3
			c0.6-0.9,1.4-1.5,2.4-2c1-0.5,2.2-0.7,3.6-0.7c2,0,3.7,0.5,4.9,1.5c1.3,1,2,2.3,2.1,4.1h-4.3c0-0.7-0.3-1.2-0.9-1.7
			s-1.2-0.7-2.1-0.7c-0.8,0-1.4,0.2-1.8,0.6c-0.5,0.4-0.7,1-0.7,1.7c0,0.5,0.2,1,0.5,1.3c0.3,0.3,0.8,0.6,1.3,0.8s1.2,0.5,2.2,0.7
			c1.3,0.4,2.3,0.7,3.1,1.1c0.8,0.4,1.5,0.9,2.1,1.7c0.6,0.7,0.9,1.7,0.9,2.9c0,1-0.3,2-0.8,2.9c-0.5,0.9-1.3,1.6-2.4,2.1
			c-1,0.5-2.3,0.8-3.7,0.8C1138.7,176.4,1137.5,176.2,1136.4,175.7z"/>
		<path class="st3" d="M1164.4,156.7v3.2h-5.2v16.4h-3.9v-16.4h-5.2v-3.2H1164.4z"/>
	</g>
</g>
<g>
	<path class="st7" d="M201.9,58.5c0-23.7,19.2-43,43-43s43,19.2,43,43"/>
	<path class="st3" d="M287.8,58.5h3.7c0.3,0,0.4,0.3,0.3,0.5l-1.9,3.2l-1.9,3.2c-0.1,0.2-0.5,0.2-0.6,0l-1.9-3.2l-1.9-3.2
		c-0.1-0.2,0-0.5,0.3-0.5H287.8z"/>
</g>
<g>
	<path class="st7" d="M455,58.5c0-23.7,19.2-43,43-43s43,19.2,43,43"/>
	<path class="st3" d="M540.9,58.5h3.7c0.3,0,0.4,0.3,0.3,0.5l-1.9,3.2l-1.9,3.2c-0.1,0.2-0.5,0.2-0.6,0l-1.9-3.2l-1.9-3.2
		c-0.1-0.2,0-0.5,0.3-0.5H540.9z"/>
</g>
<g>
	<path class="st7" d="M708.1,58.5c0-23.7,19.2-43,43-43s43,19.2,43,43"/>
	<path class="st3" d="M794,58.5h3.7c0.3,0,0.4,0.3,0.3,0.5l-1.9,3.2l-1.9,3.2c-0.1,0.2-0.5,0.2-0.6,0l-1.9-3.2L790,59
		c-0.1-0.2,0-0.5,0.3-0.5H794z"/>
</g>
<g>
	<path class="st7" d="M961.3,58.5c0-23.7,19.2-43,43-43c23.7,0,43,19.2,43,43"/>
	<path class="st3" d="M1047.2,58.5h3.7c0.3,0,0.4,0.3,0.3,0.5l-1.9,3.2l-1.9,3.2c-0.1,0.2-0.5,0.2-0.6,0l-1.9-3.2l-1.9-3.2
		c-0.1-0.2,0-0.5,0.3-0.5H1047.2z"/>
</g>
<g>
	<path class="st7" d="M1051.3,264c0,23.7-19.2,43-43,43c-23.7,0-43-19.2-43-43"/>
	<path class="st3" d="M965.3,264h-3.7c-0.3,0-0.4-0.3-0.3-0.5l1.9-3.2l1.9-3.2c0.1-0.2,0.5-0.2,0.6,0l1.9,3.2l1.9,3.2
		c0.1,0.2,0,0.5-0.3,0.5H965.3z"/>
</g>
<g>
	<path class="st7" d="M798.1,268.7c0,23.7-19.2,43-43,43s-43-19.2-43-43"/>
	<path class="st3" d="M712.2,268.7h-3.7c-0.3,0-0.4-0.3-0.3-0.5l1.9-3.2l1.9-3.2c0.1-0.2,0.5-0.2,0.6,0l1.9,3.2l1.9,3.2
		c0.1,0.2,0,0.5-0.3,0.5H712.2z"/>
</g>
<g class="st0">
	<text transform="matrix(1 0 0 1 56.4218 358.4035)" class="st1"><tspan x="0" y="0" class="st3 st8 st9">User Survey</tspan><tspan x="-12.8" y="29" class="st3 st8 st9">User Interview</tspan><tspan x="-51.6" y="58" class="st3 st8 st9">Competitive Analysis</tspan></text>
	<text transform="matrix(1 0 0 1 303.613 358.4035)" class="st10 st8 st9">User Persona</text>
	<text transform="matrix(1 0 0 1 575.7436 358.404)" class="st1"><tspan x="0" y="0" class="st3 st8 st9">Sketching</tspan><tspan x="-7.3" y="29" class="st3 st8 st9">Storyboard</tspan><tspan x="2.4" y="58" class="st3 st8 st9">User Flow</tspan></text>
	<text transform="matrix(1 0 0 1 815.0428 358.4035)" class="st1"><tspan x="0" y="0" class="st3 st8 st9">Wireframing</tspan><tspan x="4.5" y="29" class="st3 st8 st9">Prototyping</tspan></text>
	<text transform="matrix(1 0 0 1 1061.2947 358.404)" class="st1"><tspan x="0" y="0" class="st3 st8 st9">Concept Test</tspan><tspan x="0.6" y="29" class="st3 st8 st9">Usability Test</tspan></text>
</g>
<g>
	<g>
		<path class="st3" d="M59.9,343.8v9.3c0,1.3,0.3,2.3,1,2.9c0.6,0.6,1.5,0.9,2.7,0.9c1.1,0,2-0.3,2.6-0.9c0.6-0.6,1-1.6,1-2.9v-9.3
			H69v9.2c0,1.2-0.2,2.2-0.7,3.1c-0.5,0.8-1.2,1.5-2,1.9s-1.8,0.6-2.8,0.6c-1,0-2-0.2-2.8-0.6s-1.5-1-2-1.9
			c-0.5-0.8-0.7-1.9-0.7-3.1v-9.2H59.9z"/>
		<path class="st3" d="M74.4,358.1c-0.7-0.3-1.3-0.7-1.7-1.3c-0.4-0.5-0.6-1.2-0.7-1.9h2c0.1,0.6,0.3,1,0.8,1.4s1.1,0.5,1.9,0.5
			c0.7,0,1.3-0.2,1.7-0.5c0.4-0.3,0.6-0.7,0.6-1.2c0-0.5-0.2-0.9-0.7-1.1c-0.4-0.2-1.1-0.5-2.1-0.7c-0.9-0.2-1.6-0.5-2.1-0.7
			c-0.5-0.2-1-0.6-1.4-1c-0.4-0.5-0.6-1.1-0.6-1.8c0-0.6,0.2-1.1,0.5-1.6c0.3-0.5,0.8-0.9,1.5-1.2s1.4-0.4,2.2-0.4
			c1.3,0,2.3,0.3,3.1,1c0.8,0.6,1.2,1.5,1.3,2.6H79c0-0.6-0.3-1.1-0.7-1.4c-0.4-0.4-1-0.5-1.8-0.5c-0.7,0-1.2,0.1-1.6,0.4
			s-0.6,0.7-0.6,1.2c0,0.4,0.1,0.7,0.4,0.9c0.2,0.2,0.6,0.4,0.9,0.6c0.4,0.1,0.9,0.3,1.5,0.5c0.8,0.2,1.5,0.4,2,0.7
			c0.5,0.2,1,0.5,1.3,1c0.4,0.4,0.6,1,0.6,1.7c0,0.6-0.2,1.2-0.5,1.7c-0.4,0.5-0.8,0.9-1.5,1.2c-0.6,0.3-1.4,0.4-2.2,0.4
			C75.9,358.6,75.1,358.4,74.4,358.1z"/>
		<path class="st3" d="M94.7,353.4h-9.2c0.1,1.1,0.5,2,1.2,2.7c0.7,0.6,1.6,1,2.6,1c0.8,0,1.5-0.2,2.1-0.6c0.6-0.4,0.9-0.9,1.2-1.5
			h2.1c-0.3,1.1-0.9,2-1.8,2.7c-0.9,0.7-2.1,1-3.4,1c-1.1,0-2.1-0.2-2.9-0.7s-1.5-1.2-2-2.1c-0.5-0.9-0.7-1.9-0.7-3.1
			c0-1.2,0.2-2.2,0.7-3.1c0.5-0.9,1.1-1.6,2-2.1c0.9-0.5,1.9-0.7,3-0.7c1.1,0,2.1,0.2,2.9,0.7c0.8,0.5,1.5,1.1,1.9,2
			c0.5,0.8,0.7,1.8,0.7,2.8C94.7,352.6,94.7,353,94.7,353.4z M92.3,349.9c-0.3-0.5-0.8-0.9-1.3-1.2c-0.6-0.3-1.2-0.4-1.8-0.4
			c-1,0-1.8,0.3-2.5,0.9c-0.7,0.6-1.1,1.5-1.2,2.6h7.3C92.8,351.1,92.6,350.5,92.3,349.9z"/>
		<path class="st3" d="M101.1,347.2c0.6-0.4,1.4-0.5,2.3-0.5v2h-0.5c-2.1,0-3.2,1.2-3.2,3.5v6.3h-1.9v-11.5h1.9v1.9
			C100,348.1,100.5,347.6,101.1,347.2z"/>
		<path class="st3" d="M114.3,358c-0.8-0.3-1.4-0.8-1.8-1.4c-0.4-0.6-0.7-1.3-0.7-2.1h2c0.1,0.7,0.4,1.3,0.9,1.7
			c0.5,0.5,1.2,0.7,2.2,0.7c0.9,0,1.6-0.2,2.2-0.7s0.8-1,0.8-1.8c0-0.6-0.2-1-0.5-1.4c-0.3-0.3-0.7-0.6-1.2-0.8
			c-0.5-0.2-1.1-0.4-1.9-0.6c-1-0.3-1.7-0.5-2.3-0.8c-0.6-0.3-1.1-0.6-1.5-1.2s-0.6-1.3-0.6-2.2c0-0.8,0.2-1.5,0.6-2.1
			c0.4-0.6,1-1.1,1.7-1.4s1.6-0.5,2.5-0.5c1.4,0,2.5,0.3,3.4,1s1.4,1.6,1.5,2.7h-2.1c-0.1-0.6-0.4-1.1-0.9-1.5
			c-0.5-0.4-1.2-0.6-2.1-0.6c-0.8,0-1.4,0.2-2,0.6c-0.5,0.4-0.8,1-0.8,1.7c0,0.5,0.2,1,0.5,1.3c0.3,0.3,0.7,0.6,1.1,0.8
			c0.4,0.2,1.1,0.4,1.9,0.6c1,0.3,1.7,0.5,2.3,0.8c0.6,0.3,1.1,0.7,1.5,1.2s0.6,1.3,0.6,2.2c0,0.7-0.2,1.4-0.6,2s-0.9,1.1-1.7,1.5
			c-0.7,0.4-1.6,0.6-2.6,0.6C115.9,358.6,115.1,358.4,114.3,358z"/>
		<path class="st3" d="M135.3,346.9v11.5h-1.9v-1.7c-0.4,0.6-0.9,1-1.5,1.4c-0.7,0.3-1.4,0.5-2.2,0.5c-0.9,0-1.7-0.2-2.4-0.6
			c-0.7-0.4-1.3-0.9-1.7-1.7s-0.6-1.6-0.6-2.7v-6.7h1.9v6.5c0,1.1,0.3,2,0.9,2.6c0.6,0.6,1.4,0.9,2.4,0.9c1,0,1.8-0.3,2.4-0.9
			c0.6-0.6,0.9-1.5,0.9-2.8v-6.3H135.3z"/>
		<path class="st3" d="M142.4,347.2c0.6-0.4,1.4-0.5,2.3-0.5v2h-0.5c-2.1,0-3.2,1.2-3.2,3.5v6.3h-1.9v-11.5h1.9v1.9
			C141.3,348.1,141.8,347.6,142.4,347.2z"/>
		<path class="st3" d="M151.7,356.6l3.6-9.7h2l-4.5,11.5h-2.2l-4.5-11.5h2.1L151.7,356.6z"/>
		<path class="st3" d="M170.2,353.4H161c0.1,1.1,0.5,2,1.2,2.7c0.7,0.6,1.6,1,2.6,1c0.8,0,1.5-0.2,2.1-0.6c0.6-0.4,0.9-0.9,1.2-1.5
			h2.1c-0.3,1.1-0.9,2-1.8,2.7c-0.9,0.7-2.1,1-3.4,1c-1.1,0-2.1-0.2-2.9-0.7s-1.5-1.2-2-2.1c-0.5-0.9-0.7-1.9-0.7-3.1
			c0-1.2,0.2-2.2,0.7-3.1c0.5-0.9,1.1-1.6,2-2.1c0.9-0.5,1.9-0.7,3-0.7c1.1,0,2.1,0.2,2.9,0.7c0.8,0.5,1.5,1.1,1.9,2
			c0.5,0.8,0.7,1.8,0.7,2.8C170.2,352.6,170.2,353,170.2,353.4z M167.8,349.9c-0.3-0.5-0.8-0.9-1.3-1.2c-0.6-0.3-1.2-0.4-1.8-0.4
			c-1,0-1.8,0.3-2.5,0.9c-0.7,0.6-1.1,1.5-1.2,2.6h7.3C168.3,351.1,168.1,350.5,167.8,349.9z"/>
		<path class="st3" d="M183.2,346.9l-6.9,16.9h-2l2.3-5.5l-4.6-11.4h2.1l3.6,9.3l3.6-9.3H183.2z"/>
		<path class="st3" d="M47.1,372.8v9.3c0,1.3,0.3,2.3,1,2.9c0.6,0.6,1.5,0.9,2.7,0.9c1.1,0,2-0.3,2.6-0.9c0.6-0.6,1-1.6,1-2.9v-9.3
			h1.9v9.2c0,1.2-0.2,2.2-0.7,3.1c-0.5,0.8-1.2,1.5-2,1.9s-1.8,0.6-2.8,0.6c-1,0-2-0.2-2.8-0.6s-1.5-1-2-1.9
			c-0.5-0.8-0.7-1.9-0.7-3.1v-9.2H47.1z"/>
		<path class="st3" d="M61.6,387.1c-0.7-0.3-1.3-0.7-1.7-1.3c-0.4-0.5-0.6-1.2-0.7-1.9h2c0.1,0.6,0.3,1,0.8,1.4s1.1,0.5,1.9,0.5
			c0.7,0,1.3-0.2,1.7-0.5c0.4-0.3,0.6-0.7,0.6-1.2c0-0.5-0.2-0.9-0.7-1.1c-0.4-0.2-1.1-0.5-2.1-0.7c-0.9-0.2-1.6-0.5-2.1-0.7
			c-0.5-0.2-1-0.6-1.4-1c-0.4-0.5-0.6-1.1-0.6-1.8c0-0.6,0.2-1.1,0.5-1.6c0.3-0.5,0.8-0.9,1.5-1.2s1.4-0.4,2.2-0.4
			c1.3,0,2.3,0.3,3.1,1c0.8,0.6,1.2,1.5,1.3,2.6h-1.9c0-0.6-0.3-1.1-0.7-1.4c-0.4-0.4-1-0.5-1.8-0.5c-0.7,0-1.2,0.1-1.6,0.4
			s-0.6,0.7-0.6,1.2c0,0.4,0.1,0.7,0.4,0.9c0.2,0.2,0.6,0.4,0.9,0.6c0.4,0.1,0.9,0.3,1.5,0.5c0.8,0.2,1.5,0.4,2,0.7
			c0.5,0.2,1,0.5,1.3,1c0.4,0.4,0.6,1,0.6,1.7c0,0.6-0.2,1.2-0.5,1.7c-0.4,0.5-0.8,0.9-1.5,1.2c-0.6,0.3-1.4,0.4-2.2,0.4
			C63.1,387.6,62.3,387.4,61.6,387.1z"/>
		<path class="st3" d="M81.8,382.4h-9.2c0.1,1.1,0.5,2,1.2,2.7c0.7,0.6,1.6,1,2.6,1c0.8,0,1.5-0.2,2.1-0.6c0.6-0.4,0.9-0.9,1.2-1.5
			h2.1c-0.3,1.1-0.9,2-1.8,2.7c-0.9,0.7-2.1,1-3.4,1c-1.1,0-2.1-0.2-2.9-0.7s-1.5-1.2-2-2.1c-0.5-0.9-0.7-1.9-0.7-3.1
			c0-1.2,0.2-2.2,0.7-3.1c0.5-0.9,1.1-1.6,2-2.1c0.9-0.5,1.9-0.7,3-0.7c1.1,0,2.1,0.2,2.9,0.7c0.8,0.5,1.5,1.1,1.9,2
			c0.5,0.8,0.7,1.8,0.7,2.8C81.9,381.6,81.9,382,81.8,382.4z M79.4,378.9c-0.3-0.5-0.8-0.9-1.3-1.2c-0.6-0.3-1.2-0.4-1.8-0.4
			c-1,0-1.8,0.3-2.5,0.9c-0.7,0.6-1.1,1.5-1.2,2.6h7.3C79.9,380.1,79.8,379.5,79.4,378.9z"/>
		<path class="st3" d="M88.3,376.2c0.6-0.4,1.4-0.5,2.3-0.5v2h-0.5c-2.1,0-3.2,1.2-3.2,3.5v6.3h-1.9v-11.5h1.9v1.9
			C87.2,377.1,87.7,376.6,88.3,376.2z"/>
		<path class="st3" d="M101.4,372.8v14.6h-1.9v-14.6H101.4z"/>
		<path class="st3" d="M114.1,377c0.9,0.8,1.3,2.1,1.3,3.7v6.8h-1.9v-6.5c0-1.1-0.3-2-0.9-2.6s-1.4-0.9-2.4-0.9
			c-1,0-1.8,0.3-2.4,0.9s-0.9,1.5-0.9,2.8v6.4h-1.9v-11.5h1.9v1.6c0.4-0.6,0.9-1,1.5-1.4c0.7-0.3,1.4-0.5,2.2-0.5
			C112.1,375.7,113.3,376.1,114.1,377z"/>
		<path class="st3" d="M121.4,377.5v6.8c0,0.6,0.1,1,0.4,1.2c0.2,0.2,0.7,0.3,1.2,0.3h1.4v1.6h-1.7c-1.1,0-1.9-0.2-2.4-0.7
			c-0.5-0.5-0.8-1.3-0.8-2.4v-6.8H118v-1.6h1.5V373h1.9v2.9h3v1.6H121.4z"/>
		<path class="st3" d="M137.7,382.4h-9.2c0.1,1.1,0.5,2,1.2,2.7c0.7,0.6,1.6,1,2.6,1c0.8,0,1.5-0.2,2.1-0.6c0.6-0.4,0.9-0.9,1.2-1.5
			h2.1c-0.3,1.1-0.9,2-1.8,2.7c-0.9,0.7-2.1,1-3.4,1c-1.1,0-2.1-0.2-2.9-0.7s-1.5-1.2-2-2.1c-0.5-0.9-0.7-1.9-0.7-3.1
			c0-1.2,0.2-2.2,0.7-3.1c0.5-0.9,1.1-1.6,2-2.1c0.9-0.5,1.9-0.7,3-0.7c1.1,0,2.1,0.2,2.9,0.7c0.8,0.5,1.5,1.1,1.9,2
			c0.5,0.8,0.7,1.8,0.7,2.8C137.8,381.6,137.7,382,137.7,382.4z M135.3,378.9c-0.3-0.5-0.8-0.9-1.3-1.2c-0.6-0.3-1.2-0.4-1.8-0.4
			c-1,0-1.8,0.3-2.5,0.9c-0.7,0.6-1.1,1.5-1.2,2.6h7.3C135.8,380.1,135.6,379.5,135.3,378.9z"/>
		<path class="st3" d="M144.2,376.2c0.6-0.4,1.4-0.5,2.3-0.5v2h-0.5c-2.1,0-3.2,1.2-3.2,3.5v6.3h-1.9v-11.5h1.9v1.9
			C143.1,377.1,143.5,376.6,144.2,376.2z"/>
		<path class="st3" d="M153.5,385.6l3.6-9.7h2l-4.5,11.5h-2.2l-4.5-11.5h2.1L153.5,385.6z"/>
		<path class="st3" d="M161.5,373.6c-0.3-0.3-0.4-0.6-0.4-0.9s0.1-0.7,0.4-0.9c0.3-0.3,0.6-0.4,0.9-0.4c0.3,0,0.6,0.1,0.9,0.4
			c0.2,0.3,0.4,0.6,0.4,0.9s-0.1,0.7-0.4,0.9c-0.2,0.3-0.5,0.4-0.9,0.4C162.1,374,161.8,373.9,161.5,373.6z M163.4,375.9v11.5h-1.9
			v-11.5H163.4z"/>
		<path class="st3" d="M177.6,382.4h-9.2c0.1,1.1,0.5,2,1.2,2.7c0.7,0.6,1.6,1,2.6,1c0.8,0,1.5-0.2,2.1-0.6c0.6-0.4,0.9-0.9,1.2-1.5
			h2.1c-0.3,1.1-0.9,2-1.8,2.7c-0.9,0.7-2.1,1-3.4,1c-1.1,0-2.1-0.2-2.9-0.7s-1.5-1.2-2-2.1c-0.5-0.9-0.7-1.9-0.7-3.1
			c0-1.2,0.2-2.2,0.7-3.1c0.5-0.9,1.1-1.6,2-2.1c0.9-0.5,1.9-0.7,3-0.7c1.1,0,2.1,0.2,2.9,0.7c0.8,0.5,1.5,1.1,1.9,2
			c0.5,0.8,0.7,1.8,0.7,2.8C177.7,381.6,177.6,382,177.6,382.4z M175.2,378.9c-0.3-0.5-0.8-0.9-1.3-1.2c-0.6-0.3-1.2-0.4-1.8-0.4
			c-1,0-1.8,0.3-2.5,0.9c-0.7,0.6-1.1,1.5-1.2,2.6h7.3C175.7,380.1,175.5,379.5,175.2,378.9z"/>
		<path class="st3" d="M196,375.9l-3.6,11.5h-2l-2.8-9.1l-2.8,9.1h-2l-3.6-11.5h2l2.6,9.7l2.9-9.7h2l2.8,9.7l2.6-9.7H196z"/>
		<path class="st3" d="M6.6,405.2c0.6-1.1,1.5-2,2.6-2.7c1.1-0.6,2.3-1,3.7-1c1.6,0,3,0.4,4.2,1.2c1.2,0.8,2.1,1.9,2.6,3.3h-2.3
			c-0.4-0.9-1-1.6-1.8-2c-0.8-0.5-1.7-0.7-2.7-0.7c-1,0-1.9,0.2-2.8,0.7c-0.8,0.5-1.4,1.2-1.9,2c-0.5,0.9-0.7,1.9-0.7,3.1
			c0,1.2,0.2,2.2,0.7,3.1c0.5,0.9,1.1,1.6,1.9,2c0.8,0.5,1.7,0.7,2.8,0.7c1.1,0,2-0.2,2.7-0.7c0.8-0.5,1.3-1.1,1.8-2h2.3
			c-0.5,1.4-1.4,2.5-2.6,3.2c-1.2,0.8-2.6,1.1-4.2,1.1c-1.4,0-2.6-0.3-3.7-1c-1.1-0.6-2-1.5-2.6-2.7c-0.6-1.1-1-2.4-1-3.8
			S6,406.4,6.6,405.2z"/>
		<path class="st3" d="M25.2,415.9c-0.9-0.5-1.6-1.2-2.1-2.1c-0.5-0.9-0.7-1.9-0.7-3.1c0-1.2,0.3-2.2,0.8-3.1
			c0.5-0.9,1.2-1.6,2.1-2.1c0.9-0.5,1.9-0.7,3-0.7c1.1,0,2.1,0.2,3,0.7c0.9,0.5,1.6,1.2,2.1,2.1c0.5,0.9,0.8,1.9,0.8,3.1
			c0,1.2-0.3,2.2-0.8,3.1c-0.5,0.9-1.2,1.6-2.1,2.1c-0.9,0.5-1.9,0.7-3,0.7C27.1,416.6,26.1,416.3,25.2,415.9z M30.1,414.4
			c0.6-0.3,1.1-0.8,1.5-1.4s0.6-1.4,0.6-2.4c0-0.9-0.2-1.7-0.5-2.4c-0.4-0.6-0.8-1.1-1.4-1.4c-0.6-0.3-1.2-0.5-1.9-0.5
			c-0.7,0-1.3,0.2-1.9,0.5c-0.6,0.3-1,0.8-1.4,1.4c-0.4,0.6-0.5,1.4-0.5,2.4c0,0.9,0.2,1.7,0.5,2.4c0.3,0.6,0.8,1.1,1.4,1.4
			c0.6,0.3,1.2,0.5,1.9,0.5C28.8,414.9,29.5,414.8,30.1,414.4z"/>
		<path class="st3" d="M53.3,405.2c0.7,0.4,1.3,0.9,1.7,1.7s0.6,1.6,0.6,2.7v6.8h-1.9v-6.5c0-1.1-0.3-2-0.9-2.6s-1.3-0.9-2.3-0.9
			c-1,0-1.8,0.3-2.4,1c-0.6,0.6-0.9,1.6-0.9,2.8v6.3h-1.9v-6.5c0-1.1-0.3-2-0.9-2.6s-1.3-0.9-2.3-0.9c-1,0-1.8,0.3-2.4,1
			c-0.6,0.6-0.9,1.6-0.9,2.8v6.3h-1.9v-11.5H39v1.7c0.4-0.6,0.9-1.1,1.5-1.4c0.6-0.3,1.3-0.5,2.1-0.5c1,0,1.8,0.2,2.6,0.7
			c0.7,0.4,1.3,1.1,1.7,1.9c0.3-0.8,0.9-1.4,1.6-1.9c0.7-0.4,1.6-0.7,2.5-0.7C51.8,404.7,52.6,404.9,53.3,405.2z"/>
		<path class="st3" d="M62.8,405.4c0.7-0.4,1.6-0.7,2.6-0.7c1,0,1.9,0.2,2.8,0.7c0.8,0.5,1.5,1.2,2,2.1c0.5,0.9,0.7,1.9,0.7,3.1
			c0,1.2-0.2,2.2-0.7,3.1c-0.5,0.9-1.1,1.6-2,2.1c-0.8,0.5-1.8,0.8-2.8,0.8c-1,0-1.8-0.2-2.6-0.7c-0.7-0.4-1.3-1-1.7-1.6v7.6h-1.9
			v-17h1.9v2.1C61.5,406.4,62.1,405.8,62.8,405.4z M68.4,408.3c-0.4-0.6-0.8-1.1-1.4-1.5c-0.6-0.3-1.2-0.5-2-0.5
			c-0.7,0-1.3,0.2-1.9,0.5c-0.6,0.3-1.1,0.8-1.4,1.5c-0.4,0.7-0.5,1.4-0.5,2.3c0,0.9,0.2,1.6,0.5,2.3c0.4,0.7,0.8,1.1,1.4,1.5
			c0.6,0.3,1.2,0.5,1.9,0.5c0.7,0,1.4-0.2,2-0.5c0.6-0.3,1.1-0.8,1.4-1.5c0.3-0.7,0.5-1.4,0.5-2.3C69,409.7,68.8,409,68.4,408.3z"/>
		<path class="st3" d="M84.4,411.4h-9.2c0.1,1.1,0.5,2,1.2,2.7c0.7,0.6,1.6,1,2.6,1c0.8,0,1.5-0.2,2.1-0.6c0.6-0.4,0.9-0.9,1.2-1.5
			h2.1c-0.3,1.1-0.9,2-1.8,2.7c-0.9,0.7-2.1,1-3.4,1c-1.1,0-2.1-0.2-2.9-0.7s-1.5-1.2-2-2.1c-0.5-0.9-0.7-1.9-0.7-3.1
			c0-1.2,0.2-2.2,0.7-3.1c0.5-0.9,1.1-1.6,2-2.1c0.9-0.5,1.9-0.7,3-0.7c1.1,0,2.1,0.2,2.9,0.7c0.8,0.5,1.5,1.1,1.9,2
			c0.5,0.8,0.7,1.8,0.7,2.8C84.5,410.6,84.4,411,84.4,411.4z M82,407.9c-0.3-0.5-0.8-0.9-1.3-1.2c-0.6-0.3-1.2-0.4-1.8-0.4
			c-1,0-1.8,0.3-2.5,0.9c-0.7,0.6-1.1,1.5-1.2,2.6h7.3C82.5,409.1,82.3,408.5,82,407.9z"/>
		<path class="st3" d="M89.8,406.5v6.8c0,0.6,0.1,1,0.4,1.2c0.2,0.2,0.7,0.3,1.2,0.3h1.4v1.6h-1.7c-1.1,0-1.9-0.2-2.4-0.7
			c-0.5-0.5-0.8-1.3-0.8-2.4v-6.8h-1.5v-1.6h1.5V402h1.9v2.9h3v1.6H89.8z"/>
		<path class="st3" d="M95.7,402.6c-0.3-0.3-0.4-0.6-0.4-0.9s0.1-0.7,0.4-0.9c0.3-0.3,0.6-0.4,0.9-0.4c0.3,0,0.6,0.1,0.9,0.4
			c0.2,0.3,0.4,0.6,0.4,0.9s-0.1,0.7-0.4,0.9c-0.2,0.3-0.5,0.4-0.9,0.4C96.3,403,96,402.9,95.7,402.6z M97.6,404.9v11.5h-1.9v-11.5
			H97.6z"/>
		<path class="st3" d="M103.7,406.5v6.8c0,0.6,0.1,1,0.4,1.2c0.2,0.2,0.7,0.3,1.2,0.3h1.4v1.6H105c-1.1,0-1.9-0.2-2.4-0.7
			c-0.5-0.5-0.8-1.3-0.8-2.4v-6.8h-1.5v-1.6h1.5V402h1.9v2.9h3v1.6H103.7z"/>
		<path class="st3" d="M109.6,402.6c-0.3-0.3-0.4-0.6-0.4-0.9s0.1-0.7,0.4-0.9c0.3-0.3,0.6-0.4,0.9-0.4c0.3,0,0.6,0.1,0.9,0.4
			c0.2,0.3,0.4,0.6,0.4,0.9s-0.1,0.7-0.4,0.9c-0.2,0.3-0.5,0.4-0.9,0.4C110.2,403,109.9,402.9,109.6,402.6z M111.5,404.9v11.5h-1.9
			v-11.5H111.5z"/>
		<path class="st3" d="M119.5,414.6l3.6-9.7h2l-4.5,11.5h-2.2l-4.5-11.5h2.1L119.5,414.6z"/>
		<path class="st3" d="M138,411.4h-9.2c0.1,1.1,0.5,2,1.2,2.7c0.7,0.6,1.6,1,2.6,1c0.8,0,1.5-0.2,2.1-0.6c0.6-0.4,0.9-0.9,1.2-1.5
			h2.1c-0.3,1.1-0.9,2-1.8,2.7c-0.9,0.7-2.1,1-3.4,1c-1.1,0-2.1-0.2-2.9-0.7s-1.5-1.2-2-2.1c-0.5-0.9-0.7-1.9-0.7-3.1
			c0-1.2,0.2-2.2,0.7-3.1c0.5-0.9,1.1-1.6,2-2.1c0.9-0.5,1.9-0.7,3-0.7c1.1,0,2.1,0.2,2.9,0.7c0.8,0.5,1.5,1.1,1.9,2
			c0.5,0.8,0.7,1.8,0.7,2.8C138,410.6,138,411,138,411.4z M135.6,407.9c-0.3-0.5-0.8-0.9-1.3-1.2c-0.6-0.3-1.2-0.4-1.8-0.4
			c-1,0-1.8,0.3-2.5,0.9c-0.7,0.6-1.1,1.5-1.2,2.6h7.3C136.1,409.1,135.9,408.5,135.6,407.9z"/>
		<path class="st3" d="M155.9,413.1h-6.4l-1.2,3.3h-2l5.3-14.6h2.2l5.3,14.6h-2L155.9,413.1z M155.3,411.6l-2.6-7.4l-2.6,7.4H155.3z
			"/>
		<path class="st3" d="M170.9,406c0.9,0.8,1.3,2.1,1.3,3.7v6.8h-1.9v-6.5c0-1.1-0.3-2-0.9-2.6s-1.4-0.9-2.4-0.9
			c-1,0-1.8,0.3-2.4,0.9s-0.9,1.5-0.9,2.8v6.4h-1.9v-11.5h1.9v1.6c0.4-0.6,0.9-1,1.5-1.4c0.7-0.3,1.4-0.5,2.2-0.5
			C168.9,404.7,170,405.1,170.9,406z"/>
		<path class="st3" d="M175.9,407.5c0.5-0.9,1.1-1.6,2-2.1c0.8-0.5,1.8-0.7,2.8-0.7c1,0,1.9,0.2,2.6,0.7s1.3,1,1.7,1.6v-2.1h1.9
			v11.5h-1.9v-2.1c-0.4,0.7-0.9,1.2-1.7,1.7c-0.7,0.4-1.6,0.7-2.6,0.7c-1,0-1.9-0.3-2.8-0.8s-1.5-1.2-2-2.1
			c-0.5-0.9-0.7-1.9-0.7-3.1C175.1,409.4,175.4,408.4,175.9,407.5z M184.4,408.4c-0.4-0.6-0.8-1.1-1.4-1.5c-0.6-0.3-1.2-0.5-2-0.5
			c-0.7,0-1.4,0.2-2,0.5s-1.1,0.8-1.4,1.5c-0.4,0.6-0.5,1.4-0.5,2.3c0,0.9,0.2,1.6,0.5,2.3c0.4,0.7,0.8,1.1,1.4,1.5
			c0.6,0.3,1.2,0.5,2,0.5c0.7,0,1.4-0.2,2-0.5c0.6-0.3,1.1-0.8,1.4-1.5c0.3-0.7,0.5-1.4,0.5-2.3C184.9,409.8,184.7,409,184.4,408.4z
			"/>
		<path class="st3" d="M192.5,400.9v15.5h-1.9v-15.5H192.5z"/>
		<path class="st3" d="M206.2,404.9l-6.9,16.9h-2l2.3-5.5l-4.6-11.4h2.1l3.6,9.3l3.6-9.3H206.2z"/>
		<path class="st3" d="M210.3,416.1c-0.7-0.3-1.3-0.7-1.7-1.3c-0.4-0.5-0.6-1.2-0.7-1.9h2c0.1,0.6,0.3,1,0.8,1.4s1.1,0.5,1.9,0.5
			c0.7,0,1.3-0.2,1.7-0.5c0.4-0.3,0.6-0.7,0.6-1.2c0-0.5-0.2-0.9-0.7-1.1c-0.4-0.2-1.1-0.5-2.1-0.7c-0.9-0.2-1.6-0.5-2.1-0.7
			c-0.5-0.2-1-0.6-1.4-1c-0.4-0.5-0.6-1.1-0.6-1.8c0-0.6,0.2-1.1,0.5-1.6c0.3-0.5,0.8-0.9,1.5-1.2s1.4-0.4,2.2-0.4
			c1.3,0,2.3,0.3,3.1,1c0.8,0.6,1.2,1.5,1.3,2.6h-1.9c0-0.6-0.3-1.1-0.7-1.4c-0.4-0.4-1-0.5-1.8-0.5c-0.7,0-1.2,0.1-1.6,0.4
			s-0.6,0.7-0.6,1.2c0,0.4,0.1,0.7,0.4,0.9c0.2,0.2,0.6,0.4,0.9,0.6c0.4,0.1,0.9,0.3,1.5,0.5c0.8,0.2,1.5,0.4,2,0.7
			c0.5,0.2,1,0.5,1.3,1c0.4,0.4,0.6,1,0.6,1.7c0,0.6-0.2,1.2-0.5,1.7c-0.4,0.5-0.8,0.9-1.5,1.2c-0.6,0.3-1.4,0.4-2.2,0.4
			C211.8,416.6,211,416.4,210.3,416.1z"/>
		<path class="st3" d="M220.2,402.6c-0.3-0.3-0.4-0.6-0.4-0.9s0.1-0.7,0.4-0.9c0.3-0.3,0.6-0.4,0.9-0.4c0.3,0,0.6,0.1,0.9,0.4
			c0.2,0.3,0.4,0.6,0.4,0.9s-0.1,0.7-0.4,0.9c-0.2,0.3-0.5,0.4-0.9,0.4C220.7,403,220.4,402.9,220.2,402.6z M222,404.9v11.5h-1.9
			v-11.5H222z"/>
		<path class="st3" d="M227.5,416.1c-0.7-0.3-1.3-0.7-1.7-1.3c-0.4-0.5-0.6-1.2-0.7-1.9h2c0.1,0.6,0.3,1,0.8,1.4s1.1,0.5,1.9,0.5
			c0.7,0,1.3-0.2,1.7-0.5c0.4-0.3,0.6-0.7,0.6-1.2c0-0.5-0.2-0.9-0.7-1.1c-0.4-0.2-1.1-0.5-2.1-0.7c-0.9-0.2-1.6-0.5-2.1-0.7
			c-0.5-0.2-1-0.6-1.4-1c-0.4-0.5-0.6-1.1-0.6-1.8c0-0.6,0.2-1.1,0.5-1.6c0.3-0.5,0.8-0.9,1.5-1.2s1.4-0.4,2.2-0.4
			c1.3,0,2.3,0.3,3.1,1c0.8,0.6,1.2,1.5,1.3,2.6h-1.9c0-0.6-0.3-1.1-0.7-1.4c-0.4-0.4-1-0.5-1.8-0.5c-0.7,0-1.2,0.1-1.6,0.4
			s-0.6,0.7-0.6,1.2c0,0.4,0.1,0.7,0.4,0.9c0.2,0.2,0.6,0.4,0.9,0.6c0.4,0.1,0.9,0.3,1.5,0.5c0.8,0.2,1.5,0.4,2,0.7
			c0.5,0.2,1,0.5,1.3,1c0.4,0.4,0.6,1,0.6,1.7c0,0.6-0.2,1.2-0.5,1.7c-0.4,0.5-0.8,0.9-1.5,1.2c-0.6,0.3-1.4,0.4-2.2,0.4
			C229,416.6,228.2,416.4,227.5,416.1z"/>
	</g>
	<g>
		<path class="st3" d="M307.1,343.8v9.3c0,1.3,0.3,2.3,1,2.9c0.6,0.6,1.5,0.9,2.7,0.9c1.1,0,2-0.3,2.6-0.9c0.6-0.6,1-1.6,1-2.9v-9.3
			h1.9v9.2c0,1.2-0.2,2.2-0.7,3.1c-0.5,0.8-1.2,1.5-2,1.9s-1.8,0.6-2.8,0.6c-1,0-2-0.2-2.8-0.6s-1.5-1-2-1.9
			c-0.5-0.8-0.7-1.9-0.7-3.1v-9.2H307.1z"/>
		<path class="st3" d="M321.6,358.1c-0.7-0.3-1.3-0.7-1.7-1.3c-0.4-0.5-0.6-1.2-0.7-1.9h2c0.1,0.6,0.3,1,0.8,1.4s1.1,0.5,1.9,0.5
			c0.7,0,1.3-0.2,1.7-0.5c0.4-0.3,0.6-0.7,0.6-1.2c0-0.5-0.2-0.9-0.7-1.1c-0.4-0.2-1.1-0.5-2.1-0.7c-0.9-0.2-1.6-0.5-2.1-0.7
			c-0.5-0.2-1-0.6-1.4-1c-0.4-0.5-0.6-1.1-0.6-1.8c0-0.6,0.2-1.1,0.5-1.6c0.3-0.5,0.8-0.9,1.5-1.2s1.4-0.4,2.2-0.4
			c1.3,0,2.3,0.3,3.1,1c0.8,0.6,1.2,1.5,1.3,2.6h-1.9c0-0.6-0.3-1.1-0.7-1.4c-0.4-0.4-1-0.5-1.8-0.5c-0.7,0-1.2,0.1-1.6,0.4
			s-0.6,0.7-0.6,1.2c0,0.4,0.1,0.7,0.4,0.9c0.2,0.2,0.6,0.4,0.9,0.6c0.4,0.1,0.9,0.3,1.5,0.5c0.8,0.2,1.5,0.4,2,0.7
			c0.5,0.2,1,0.5,1.3,1c0.4,0.4,0.6,1,0.6,1.7c0,0.6-0.2,1.2-0.5,1.7c-0.4,0.5-0.8,0.9-1.5,1.2c-0.6,0.3-1.4,0.4-2.2,0.4
			C323.1,358.6,322.3,358.4,321.6,358.1z"/>
		<path class="st3" d="M341.9,353.4h-9.2c0.1,1.1,0.5,2,1.2,2.7c0.7,0.6,1.6,1,2.6,1c0.8,0,1.5-0.2,2.1-0.6c0.6-0.4,0.9-0.9,1.2-1.5
			h2.1c-0.3,1.1-0.9,2-1.8,2.7c-0.9,0.7-2.1,1-3.4,1c-1.1,0-2.1-0.2-2.9-0.7s-1.5-1.2-2-2.1c-0.5-0.9-0.7-1.9-0.7-3.1
			c0-1.2,0.2-2.2,0.7-3.1c0.5-0.9,1.1-1.6,2-2.1c0.9-0.5,1.9-0.7,3-0.7c1.1,0,2.1,0.2,2.9,0.7c0.8,0.5,1.5,1.1,1.9,2
			c0.5,0.8,0.7,1.8,0.7,2.8C341.9,352.6,341.9,353,341.9,353.4z M339.5,349.9c-0.3-0.5-0.8-0.9-1.3-1.2c-0.6-0.3-1.2-0.4-1.8-0.4
			c-1,0-1.8,0.3-2.5,0.9c-0.7,0.6-1.1,1.5-1.2,2.6h7.3C339.9,351.1,339.8,350.5,339.5,349.9z"/>
		<path class="st3" d="M348.3,347.2c0.6-0.4,1.4-0.5,2.3-0.5v2h-0.5c-2.1,0-3.2,1.2-3.2,3.5v6.3H345v-11.5h1.9v1.9
			C347.2,348.1,347.7,347.6,348.3,347.2z"/>
		<path class="st3" d="M368,351.1c-0.8,0.8-2.1,1.2-3.8,1.2h-2.8v6.1h-1.9v-14.6h4.7c1.7,0,2.9,0.4,3.8,1.2c0.9,0.8,1.3,1.8,1.3,3.1
			C369.2,349.3,368.8,350.3,368,351.1z M366.5,350c0.5-0.5,0.8-1.1,0.8-2c0-1.8-1-2.7-3.1-2.7h-2.8v5.4h2.8
			C365.2,350.7,366,350.5,366.5,350z"/>
		<path class="st3" d="M382.6,353.4h-9.2c0.1,1.1,0.5,2,1.2,2.7c0.7,0.6,1.6,1,2.6,1c0.8,0,1.5-0.2,2.1-0.6c0.6-0.4,0.9-0.9,1.2-1.5
			h2.1c-0.3,1.1-0.9,2-1.8,2.7c-0.9,0.7-2.1,1-3.4,1c-1.1,0-2.1-0.2-2.9-0.7s-1.5-1.2-2-2.1c-0.5-0.9-0.7-1.9-0.7-3.1
			c0-1.2,0.2-2.2,0.7-3.1c0.5-0.9,1.1-1.6,2-2.1c0.9-0.5,1.9-0.7,3-0.7c1.1,0,2.1,0.2,2.9,0.7c0.8,0.5,1.5,1.1,1.9,2
			c0.5,0.8,0.7,1.8,0.7,2.8C382.6,352.6,382.6,353,382.6,353.4z M380.2,349.9c-0.3-0.5-0.8-0.9-1.3-1.2c-0.6-0.3-1.2-0.4-1.8-0.4
			c-1,0-1.8,0.3-2.5,0.9c-0.7,0.6-1.1,1.5-1.2,2.6h7.3C380.7,351.1,380.5,350.5,380.2,349.9z"/>
		<path class="st3" d="M389,347.2c0.6-0.4,1.4-0.5,2.3-0.5v2h-0.5c-2.1,0-3.2,1.2-3.2,3.5v6.3h-1.9v-11.5h1.9v1.9
			C387.9,348.1,388.4,347.6,389,347.2z"/>
		<path class="st3" d="M395.7,358.1c-0.7-0.3-1.3-0.7-1.7-1.3c-0.4-0.5-0.6-1.2-0.7-1.9h2c0.1,0.6,0.3,1,0.8,1.4s1.1,0.5,1.9,0.5
			c0.7,0,1.3-0.2,1.7-0.5c0.4-0.3,0.6-0.7,0.6-1.2c0-0.5-0.2-0.9-0.7-1.1c-0.4-0.2-1.1-0.5-2.1-0.7c-0.9-0.2-1.6-0.5-2.1-0.7
			c-0.5-0.2-1-0.6-1.4-1c-0.4-0.5-0.6-1.1-0.6-1.8c0-0.6,0.2-1.1,0.5-1.6c0.3-0.5,0.8-0.9,1.5-1.2s1.4-0.4,2.2-0.4
			c1.3,0,2.3,0.3,3.1,1c0.8,0.6,1.2,1.5,1.3,2.6h-1.9c0-0.6-0.3-1.1-0.7-1.4c-0.4-0.4-1-0.5-1.8-0.5c-0.7,0-1.2,0.1-1.6,0.4
			s-0.6,0.7-0.6,1.2c0,0.4,0.1,0.7,0.4,0.9c0.2,0.2,0.6,0.4,0.9,0.6c0.4,0.1,0.9,0.3,1.5,0.5c0.8,0.2,1.5,0.4,2,0.7
			c0.5,0.2,1,0.5,1.3,1c0.4,0.4,0.6,1,0.6,1.7c0,0.6-0.2,1.2-0.5,1.7c-0.4,0.5-0.8,0.9-1.5,1.2c-0.6,0.3-1.4,0.4-2.2,0.4
			C397.2,358.6,396.4,358.4,395.7,358.1z"/>
		<path class="st3" d="M407.6,357.9c-0.9-0.5-1.6-1.2-2.1-2.1c-0.5-0.9-0.7-1.9-0.7-3.1c0-1.2,0.3-2.2,0.8-3.1
			c0.5-0.9,1.2-1.6,2.1-2.1c0.9-0.5,1.9-0.7,3-0.7c1.1,0,2.1,0.2,3,0.7c0.9,0.5,1.6,1.2,2.1,2.1c0.5,0.9,0.8,1.9,0.8,3.1
			c0,1.2-0.3,2.2-0.8,3.1c-0.5,0.9-1.2,1.6-2.1,2.1c-0.9,0.5-1.9,0.7-3,0.7C409.5,358.6,408.5,358.3,407.6,357.9z M412.5,356.4
			c0.6-0.3,1.1-0.8,1.5-1.4s0.6-1.4,0.6-2.4c0-0.9-0.2-1.7-0.5-2.4c-0.4-0.6-0.8-1.1-1.4-1.4c-0.6-0.3-1.2-0.5-1.9-0.5
			c-0.7,0-1.3,0.2-1.9,0.5c-0.6,0.3-1,0.8-1.4,1.4c-0.4,0.6-0.5,1.4-0.5,2.4c0,0.9,0.2,1.7,0.5,2.4c0.3,0.6,0.8,1.1,1.4,1.4
			c0.6,0.3,1.2,0.5,1.9,0.5C411.2,356.9,411.9,356.8,412.5,356.4z"/>
		<path class="st3" d="M428.5,348c0.9,0.8,1.3,2.1,1.3,3.7v6.8h-1.9v-6.5c0-1.1-0.3-2-0.9-2.6s-1.4-0.9-2.4-0.9
			c-1,0-1.8,0.3-2.4,0.9s-0.9,1.5-0.9,2.8v6.4h-1.9v-11.5h1.9v1.6c0.4-0.6,0.9-1,1.5-1.4c0.7-0.3,1.4-0.5,2.2-0.5
			C426.5,346.7,427.6,347.1,428.5,348z"/>
		<path class="st3" d="M433.5,349.5c0.5-0.9,1.1-1.6,2-2.1c0.8-0.5,1.8-0.7,2.8-0.7c1,0,1.9,0.2,2.6,0.7s1.3,1,1.7,1.6v-2.1h1.9
			v11.5h-1.9v-2.1c-0.4,0.7-0.9,1.2-1.7,1.7c-0.7,0.4-1.6,0.7-2.6,0.7c-1,0-1.9-0.3-2.8-0.8s-1.5-1.2-2-2.1
			c-0.5-0.9-0.7-1.9-0.7-3.1C432.7,351.4,433,350.4,433.5,349.5z M442,350.4c-0.4-0.6-0.8-1.1-1.4-1.5c-0.6-0.3-1.2-0.5-2-0.5
			c-0.7,0-1.4,0.2-2,0.5s-1.1,0.8-1.4,1.5c-0.4,0.6-0.5,1.4-0.5,2.3c0,0.9,0.2,1.6,0.5,2.3c0.4,0.7,0.8,1.1,1.4,1.5
			c0.6,0.3,1.2,0.5,2,0.5c0.7,0,1.4-0.2,2-0.5c0.6-0.3,1.1-0.8,1.4-1.5c0.3-0.7,0.5-1.4,0.5-2.3C442.5,351.8,442.3,351,442,350.4z"
			/>
	</g>
	<g>
		<path class="st3" d="M579.4,358c-0.8-0.3-1.4-0.8-1.8-1.4c-0.4-0.6-0.7-1.3-0.7-2.1h2c0.1,0.7,0.4,1.3,0.9,1.7
			c0.5,0.5,1.2,0.7,2.2,0.7c0.9,0,1.6-0.2,2.2-0.7c0.5-0.5,0.8-1,0.8-1.8c0-0.6-0.2-1-0.5-1.4c-0.3-0.3-0.7-0.6-1.2-0.8
			c-0.5-0.2-1.1-0.4-1.9-0.6c-1-0.3-1.7-0.5-2.3-0.8c-0.6-0.3-1.1-0.6-1.5-1.2s-0.6-1.3-0.6-2.2c0-0.8,0.2-1.5,0.6-2.1
			s1-1.1,1.7-1.4c0.7-0.3,1.6-0.5,2.5-0.5c1.4,0,2.5,0.3,3.4,1s1.4,1.6,1.5,2.7h-2.1c-0.1-0.6-0.4-1.1-0.9-1.5
			c-0.5-0.4-1.2-0.6-2.1-0.6c-0.8,0-1.4,0.2-2,0.6c-0.5,0.4-0.8,1-0.8,1.7c0,0.5,0.2,1,0.5,1.3c0.3,0.3,0.7,0.6,1.1,0.8
			c0.4,0.2,1.1,0.4,1.9,0.6c1,0.3,1.7,0.5,2.3,0.8c0.6,0.3,1.1,0.7,1.5,1.2s0.6,1.3,0.6,2.2c0,0.7-0.2,1.4-0.6,2s-0.9,1.1-1.7,1.5
			c-0.7,0.4-1.6,0.6-2.6,0.6C581,358.6,580.2,358.4,579.4,358z"/>
		<path class="st3" d="M596.6,358.4l-4.5-5.1v5.1h-1.9v-15.5h1.9v9.1l4.4-5.1h2.7l-5.4,5.7l5.4,5.8H596.6z"/>
		<path class="st3" d="M612,353.4h-9.2c0.1,1.1,0.5,2,1.2,2.7c0.7,0.6,1.6,1,2.6,1c0.8,0,1.5-0.2,2.1-0.6c0.6-0.4,0.9-0.9,1.2-1.5
			h2.1c-0.3,1.1-0.9,2-1.8,2.7s-2.1,1-3.4,1c-1.1,0-2.1-0.2-2.9-0.7c-0.9-0.5-1.5-1.2-2-2.1c-0.5-0.9-0.7-1.9-0.7-3.1
			c0-1.2,0.2-2.2,0.7-3.1c0.5-0.9,1.1-1.6,2-2.1c0.9-0.5,1.9-0.7,3-0.7c1.1,0,2.1,0.2,2.9,0.7c0.8,0.5,1.5,1.1,1.9,2
			s0.7,1.8,0.7,2.8C612.1,352.6,612,353,612,353.4z M609.6,349.9c-0.3-0.5-0.8-0.9-1.3-1.2c-0.6-0.3-1.2-0.4-1.8-0.4
			c-1,0-1.8,0.3-2.5,0.9c-0.7,0.6-1.1,1.5-1.2,2.6h7.3C610.1,351.1,609.9,350.5,609.6,349.9z"/>
		<path class="st3" d="M617.4,348.5v6.8c0,0.6,0.1,1,0.4,1.2c0.2,0.2,0.7,0.3,1.2,0.3h1.4v1.6h-1.7c-1.1,0-1.9-0.2-2.4-0.7
			c-0.5-0.5-0.8-1.3-0.8-2.4v-6.8H614v-1.6h1.5V344h1.9v2.9h3v1.6H617.4z"/>
		<path class="st3" d="M623.3,349.5c0.5-0.9,1.1-1.6,2-2.1s1.8-0.7,2.9-0.7c1.4,0,2.6,0.3,3.5,1c0.9,0.7,1.5,1.6,1.8,2.9h-2.1
			c-0.2-0.7-0.6-1.3-1.1-1.7c-0.6-0.4-1.3-0.6-2.1-0.6c-1.1,0-2,0.4-2.6,1.1s-1,1.8-1,3.2c0,1.4,0.3,2.5,1,3.2
			c0.7,0.8,1.6,1.1,2.6,1.1c0.8,0,1.5-0.2,2.1-0.6c0.6-0.4,0.9-1,1.2-1.7h2.1c-0.3,1.2-0.9,2.1-1.8,2.8c-0.9,0.7-2.1,1.1-3.5,1.1
			c-1.1,0-2.1-0.2-2.9-0.7s-1.5-1.2-2-2.1c-0.5-0.9-0.7-1.9-0.7-3.2C622.6,351.4,622.8,350.4,623.3,349.5z"/>
		<path class="st3" d="M644.6,347.2c0.7,0.4,1.2,0.9,1.6,1.7c0.4,0.7,0.6,1.6,0.6,2.7v6.8H645v-6.5c0-1.1-0.3-2-0.9-2.6
			s-1.4-0.9-2.4-0.9c-1,0-1.8,0.3-2.4,0.9c-0.6,0.6-0.9,1.5-0.9,2.8v6.4h-1.9v-15.5h1.9v5.7c0.4-0.6,0.9-1,1.6-1.4
			c0.7-0.3,1.4-0.5,2.2-0.5C643.1,346.7,643.9,346.9,644.6,347.2z"/>
		<path class="st3" d="M650.6,344.6c-0.3-0.3-0.4-0.6-0.4-0.9s0.1-0.7,0.4-0.9c0.3-0.3,0.6-0.4,0.9-0.4c0.3,0,0.6,0.1,0.9,0.4
			c0.2,0.3,0.4,0.6,0.4,0.9s-0.1,0.7-0.4,0.9s-0.5,0.4-0.9,0.4C651.1,345,650.8,344.9,650.6,344.6z M652.4,346.9v11.5h-1.9v-11.5
			H652.4z"/>
		<path class="st3" d="M665.2,348c0.9,0.8,1.3,2.1,1.3,3.7v6.8h-1.9v-6.5c0-1.1-0.3-2-0.9-2.6s-1.4-0.9-2.4-0.9
			c-1,0-1.8,0.3-2.4,0.9c-0.6,0.6-0.9,1.5-0.9,2.8v6.4h-1.9v-11.5h1.9v1.6c0.4-0.6,0.9-1,1.5-1.4c0.7-0.3,1.4-0.5,2.2-0.5
			C663.2,346.7,664.3,347.1,665.2,348z"/>
		<path class="st3" d="M677.5,347.4c0.7,0.4,1.3,1,1.7,1.6v-2.1h1.9v11.8c0,1-0.2,2-0.7,2.8c-0.4,0.8-1.1,1.5-1.9,1.9
			c-0.8,0.5-1.8,0.7-2.9,0.7c-1.5,0-2.8-0.4-3.8-1.1c-1-0.7-1.6-1.7-1.8-2.9h1.9c0.2,0.7,0.6,1.3,1.3,1.7c0.7,0.4,1.4,0.6,2.4,0.6
			c1,0,1.9-0.3,2.6-1c0.7-0.7,1-1.6,1-2.8v-2.4c-0.4,0.7-0.9,1.2-1.7,1.7c-0.7,0.4-1.6,0.7-2.6,0.7c-1,0-2-0.3-2.8-0.8
			c-0.8-0.5-1.5-1.2-2-2.1c-0.5-0.9-0.7-1.9-0.7-3.1c0-1.2,0.2-2.2,0.7-3.1c0.5-0.9,1.1-1.6,2-2.1c0.8-0.5,1.8-0.7,2.8-0.7
			C675.9,346.7,676.8,346.9,677.5,347.4z M678.7,350.4c-0.3-0.6-0.8-1.1-1.4-1.5c-0.6-0.3-1.2-0.5-2-0.5s-1.4,0.2-2,0.5
			s-1.1,0.8-1.4,1.5c-0.3,0.6-0.5,1.4-0.5,2.3c0,0.9,0.2,1.6,0.5,2.3c0.4,0.7,0.8,1.1,1.4,1.5c0.6,0.3,1.2,0.5,2,0.5s1.4-0.2,2-0.5
			c0.6-0.3,1.1-0.8,1.4-1.5c0.3-0.7,0.5-1.4,0.5-2.3C679.2,351.8,679,351,678.7,350.4z"/>
		<path class="st3" d="M572.1,387c-0.8-0.3-1.4-0.8-1.8-1.4c-0.4-0.6-0.7-1.3-0.7-2.1h2c0.1,0.7,0.4,1.3,0.9,1.7
			c0.5,0.5,1.2,0.7,2.2,0.7c0.9,0,1.6-0.2,2.2-0.7c0.5-0.5,0.8-1,0.8-1.8c0-0.6-0.2-1-0.5-1.4c-0.3-0.3-0.7-0.6-1.2-0.8
			c-0.5-0.2-1.1-0.4-1.9-0.6c-1-0.3-1.7-0.5-2.3-0.8s-1.1-0.6-1.5-1.2s-0.6-1.3-0.6-2.2c0-0.8,0.2-1.5,0.6-2.1
			c0.4-0.6,1-1.1,1.7-1.4c0.7-0.3,1.6-0.5,2.5-0.5c1.4,0,2.5,0.3,3.4,1s1.4,1.6,1.5,2.7h-2.1c-0.1-0.6-0.4-1.1-0.9-1.5
			c-0.5-0.4-1.2-0.6-2.1-0.6c-0.8,0-1.4,0.2-2,0.6s-0.8,1-0.8,1.7c0,0.5,0.2,1,0.5,1.3s0.7,0.6,1.1,0.8c0.4,0.2,1.1,0.4,1.9,0.6
			c1,0.3,1.7,0.5,2.3,0.8c0.6,0.3,1.1,0.7,1.5,1.2s0.6,1.3,0.6,2.2c0,0.7-0.2,1.4-0.6,2s-0.9,1.1-1.7,1.5c-0.7,0.4-1.6,0.6-2.6,0.6
			C573.7,387.6,572.8,387.4,572.1,387z"/>
		<path class="st3" d="M585.2,377.5v6.8c0,0.6,0.1,1,0.4,1.2c0.2,0.2,0.7,0.3,1.2,0.3h1.4v1.6h-1.7c-1.1,0-1.9-0.2-2.4-0.7
			c-0.5-0.5-0.8-1.3-0.8-2.4v-6.8h-1.5v-1.6h1.5V373h1.9v2.9h3v1.6H585.2z"/>
		<path class="st3" d="M593.1,386.9c-0.9-0.5-1.6-1.2-2.1-2.1c-0.5-0.9-0.7-1.9-0.7-3.1c0-1.2,0.3-2.2,0.8-3.1s1.2-1.6,2.1-2.1
			c0.9-0.5,1.9-0.7,3-0.7s2.1,0.2,3,0.7c0.9,0.5,1.6,1.2,2.1,2.1c0.5,0.9,0.8,1.9,0.8,3.1c0,1.2-0.3,2.2-0.8,3.1
			c-0.5,0.9-1.2,1.6-2.1,2.1c-0.9,0.5-1.9,0.7-3,0.7C595,387.6,594,387.3,593.1,386.9z M598,385.4c0.6-0.3,1.1-0.8,1.5-1.4
			s0.6-1.4,0.6-2.4c0-0.9-0.2-1.7-0.5-2.4c-0.4-0.6-0.8-1.1-1.4-1.4c-0.6-0.3-1.2-0.5-1.9-0.5c-0.7,0-1.3,0.2-1.9,0.5
			c-0.6,0.3-1,0.8-1.4,1.4c-0.4,0.6-0.5,1.4-0.5,2.4c0,0.9,0.2,1.7,0.5,2.4c0.3,0.6,0.8,1.1,1.4,1.4c0.6,0.3,1.2,0.5,1.9,0.5
			C596.8,385.9,597.4,385.8,598,385.4z"/>
		<path class="st3" d="M608.4,376.2c0.6-0.4,1.4-0.5,2.3-0.5v2h-0.5c-2.1,0-3.2,1.2-3.2,3.5v6.3H605v-11.5h1.9v1.9
			C607.3,377.1,607.7,376.6,608.4,376.2z"/>
		<path class="st3" d="M623.3,375.9l-6.9,16.9h-2l2.3-5.5l-4.6-11.4h2.1l3.6,9.3l3.6-9.3H623.3z"/>
		<path class="st3" d="M629.4,376.4c0.8-0.4,1.6-0.7,2.6-0.7c1,0,2,0.2,2.8,0.7s1.5,1.2,2,2.1c0.5,0.9,0.7,1.9,0.7,3.1
			c0,1.2-0.2,2.2-0.7,3.1c-0.5,0.9-1.1,1.6-2,2.1c-0.8,0.5-1.8,0.8-2.8,0.8c-1,0-1.9-0.2-2.6-0.7s-1.3-1-1.7-1.7v2.1h-1.9v-15.5h1.9
			v6.2C628,377.4,628.6,376.8,629.4,376.4z M634.9,379.3c-0.4-0.6-0.8-1.1-1.4-1.5s-1.2-0.5-2-0.5c-0.7,0-1.3,0.2-1.9,0.5
			c-0.6,0.3-1.1,0.8-1.4,1.5c-0.4,0.7-0.5,1.4-0.5,2.3c0,0.9,0.2,1.6,0.5,2.3c0.4,0.7,0.8,1.1,1.4,1.5c0.6,0.3,1.2,0.5,1.9,0.5
			c0.7,0,1.4-0.2,2-0.5c0.6-0.3,1.1-0.8,1.4-1.5c0.3-0.7,0.5-1.4,0.5-2.3C635.4,380.7,635.3,380,634.9,379.3z"/>
		<path class="st3" d="M642.5,386.9c-0.9-0.5-1.6-1.2-2.1-2.1c-0.5-0.9-0.7-1.9-0.7-3.1c0-1.2,0.3-2.2,0.8-3.1
			c0.5-0.9,1.2-1.6,2.1-2.1c0.9-0.5,1.9-0.7,3-0.7c1.1,0,2.1,0.2,3,0.7c0.9,0.5,1.6,1.2,2.1,2.1c0.5,0.9,0.8,1.9,0.8,3.1
			c0,1.2-0.3,2.2-0.8,3.1c-0.5,0.9-1.2,1.6-2.1,2.1c-0.9,0.5-1.9,0.7-3,0.7C644.4,387.6,643.4,387.3,642.5,386.9z M647.4,385.4
			c0.6-0.3,1.1-0.8,1.5-1.4s0.6-1.4,0.6-2.4c0-0.9-0.2-1.7-0.5-2.4c-0.4-0.6-0.8-1.1-1.4-1.4c-0.6-0.3-1.2-0.5-1.9-0.5
			c-0.7,0-1.3,0.2-1.9,0.5c-0.6,0.3-1,0.8-1.4,1.4c-0.3,0.6-0.5,1.4-0.5,2.4c0,0.9,0.2,1.7,0.5,2.4c0.3,0.6,0.8,1.1,1.4,1.4
			c0.6,0.3,1.2,0.5,1.9,0.5C646.1,385.9,646.8,385.8,647.4,385.4z"/>
		<path class="st3" d="M654.4,378.5c0.5-0.9,1.1-1.6,2-2.1c0.8-0.5,1.8-0.7,2.8-0.7c1,0,1.9,0.2,2.6,0.7s1.3,1,1.7,1.6v-2.1h1.9
			v11.5h-1.9v-2.1c-0.4,0.7-0.9,1.2-1.7,1.7c-0.7,0.4-1.6,0.7-2.6,0.7c-1,0-1.9-0.3-2.8-0.8s-1.5-1.2-2-2.1
			c-0.5-0.9-0.7-1.9-0.7-3.1C653.7,380.4,653.9,379.4,654.4,378.5z M662.9,379.4c-0.3-0.6-0.8-1.1-1.4-1.5c-0.6-0.3-1.2-0.5-2-0.5
			s-1.4,0.2-2,0.5s-1.1,0.8-1.4,1.5c-0.3,0.6-0.5,1.4-0.5,2.3c0,0.9,0.2,1.6,0.5,2.3c0.4,0.7,0.8,1.1,1.4,1.5c0.6,0.3,1.2,0.5,2,0.5
			s1.4-0.2,2-0.5c0.6-0.3,1.1-0.8,1.4-1.5c0.3-0.7,0.5-1.4,0.5-2.3C663.4,380.8,663.3,380,662.9,379.4z"/>
		<path class="st3" d="M672.5,376.2c0.6-0.4,1.4-0.5,2.3-0.5v2h-0.5c-2.1,0-3.2,1.2-3.2,3.5v6.3h-1.9v-11.5h1.9v1.9
			C671.4,377.1,671.9,376.6,672.5,376.2z"/>
		<path class="st3" d="M677.5,378.5c0.5-0.9,1.1-1.6,2-2.1s1.8-0.7,2.8-0.7c0.9,0,1.7,0.2,2.5,0.6c0.8,0.4,1.4,1,1.8,1.6v-6.1h1.9
			v15.5h-1.9v-2.2c-0.4,0.7-0.9,1.2-1.7,1.7c-0.7,0.4-1.6,0.7-2.6,0.7c-1,0-1.9-0.3-2.8-0.8s-1.5-1.2-2-2.1
			c-0.5-0.9-0.7-1.9-0.7-3.1C676.8,380.4,677,379.4,677.5,378.5z M686,379.4c-0.4-0.6-0.8-1.1-1.4-1.5s-1.2-0.5-2-0.5
			c-0.7,0-1.4,0.2-2,0.5s-1.1,0.8-1.4,1.5c-0.4,0.6-0.5,1.4-0.5,2.3c0,0.9,0.2,1.6,0.5,2.3c0.3,0.7,0.8,1.1,1.4,1.5
			c0.6,0.3,1.2,0.5,2,0.5c0.7,0,1.4-0.2,2-0.5c0.6-0.3,1.1-0.8,1.4-1.5c0.3-0.7,0.5-1.4,0.5-2.3C686.5,380.8,686.3,380,686,379.4z"
			/>
		<path class="st3" d="M581.6,401.8v9.3c0,1.3,0.3,2.3,1,2.9c0.6,0.6,1.5,0.9,2.7,0.9c1.1,0,2-0.3,2.6-0.9c0.6-0.6,1-1.6,1-2.9v-9.3
			h1.9v9.2c0,1.2-0.2,2.2-0.7,3.1c-0.5,0.8-1.2,1.5-2,1.9s-1.8,0.6-2.8,0.6c-1,0-2-0.2-2.8-0.6s-1.5-1-2-1.9
			c-0.5-0.8-0.7-1.9-0.7-3.1v-9.2H581.6z"/>
		<path class="st3" d="M596.2,416.1c-0.7-0.3-1.3-0.7-1.7-1.3s-0.6-1.2-0.7-1.9h2c0.1,0.6,0.3,1,0.8,1.4c0.5,0.4,1.1,0.5,1.9,0.5
			c0.7,0,1.3-0.2,1.7-0.5c0.4-0.3,0.6-0.7,0.6-1.2c0-0.5-0.2-0.9-0.7-1.1c-0.4-0.2-1.1-0.5-2.1-0.7c-0.9-0.2-1.6-0.5-2.1-0.7
			c-0.5-0.2-1-0.6-1.4-1c-0.4-0.5-0.6-1.1-0.6-1.8c0-0.6,0.2-1.1,0.5-1.6s0.8-0.9,1.5-1.2c0.6-0.3,1.4-0.4,2.2-0.4
			c1.3,0,2.3,0.3,3.1,1c0.8,0.6,1.2,1.5,1.3,2.6h-1.9c0-0.6-0.3-1.1-0.7-1.4c-0.4-0.4-1-0.5-1.8-0.5c-0.7,0-1.2,0.1-1.6,0.4
			s-0.6,0.7-0.6,1.2c0,0.4,0.1,0.7,0.4,0.9c0.2,0.2,0.6,0.4,0.9,0.6c0.4,0.1,0.9,0.3,1.5,0.5c0.8,0.2,1.5,0.4,2,0.7
			c0.5,0.2,1,0.5,1.3,1c0.4,0.4,0.6,1,0.6,1.7c0,0.6-0.2,1.2-0.5,1.7s-0.8,0.9-1.5,1.2c-0.6,0.3-1.4,0.4-2.2,0.4
			C597.6,416.6,596.9,416.4,596.2,416.1z"/>
		<path class="st3" d="M616.4,411.4h-9.2c0.1,1.1,0.5,2,1.2,2.7c0.7,0.6,1.6,1,2.6,1c0.8,0,1.5-0.2,2.1-0.6c0.6-0.4,0.9-0.9,1.2-1.5
			h2.1c-0.3,1.1-0.9,2-1.8,2.7c-0.9,0.7-2.1,1-3.4,1c-1.1,0-2.1-0.2-2.9-0.7c-0.9-0.5-1.5-1.2-2-2.1c-0.5-0.9-0.7-1.9-0.7-3.1
			c0-1.2,0.2-2.2,0.7-3.1c0.5-0.9,1.1-1.6,2-2.1c0.9-0.5,1.9-0.7,3-0.7c1.1,0,2.1,0.2,2.9,0.7c0.8,0.5,1.5,1.1,1.9,2
			c0.5,0.8,0.7,1.8,0.7,2.8C616.4,410.6,616.4,411,616.4,411.4z M614,407.9c-0.3-0.5-0.8-0.9-1.3-1.2c-0.6-0.3-1.2-0.4-1.8-0.4
			c-1,0-1.8,0.3-2.5,0.9c-0.7,0.6-1.1,1.5-1.2,2.6h7.3C614.5,409.1,614.3,408.5,614,407.9z"/>
		<path class="st3" d="M622.8,405.2c0.6-0.4,1.4-0.5,2.3-0.5v2h-0.5c-2.1,0-3.2,1.2-3.2,3.5v6.3h-1.9v-11.5h1.9v1.9
			C621.7,406.1,622.2,405.6,622.8,405.2z"/>
		<path class="st3" d="M642.3,401.8v1.6h-6.4v4.9h5.2v1.6h-5.2v6.6H634v-14.6H642.3z"/>
		<path class="st3" d="M647,400.9v15.5h-1.9v-15.5H647z"/>
		<path class="st3" d="M652.9,415.9c-0.9-0.5-1.6-1.2-2.1-2.1c-0.5-0.9-0.7-1.9-0.7-3.1c0-1.2,0.3-2.2,0.8-3.1s1.2-1.6,2.1-2.1
			c0.9-0.5,1.9-0.7,3-0.7s2.1,0.2,3,0.7c0.9,0.5,1.6,1.2,2.1,2.1c0.5,0.9,0.8,1.9,0.8,3.1c0,1.2-0.3,2.2-0.8,3.1
			c-0.5,0.9-1.2,1.6-2.1,2.1c-0.9,0.5-1.9,0.7-3,0.7C654.7,416.6,653.7,416.3,652.9,415.9z M657.7,414.4c0.6-0.3,1.1-0.8,1.5-1.4
			s0.6-1.4,0.6-2.4c0-0.9-0.2-1.7-0.5-2.4c-0.4-0.6-0.8-1.1-1.4-1.4c-0.6-0.3-1.2-0.5-1.9-0.5c-0.7,0-1.3,0.2-1.9,0.5
			c-0.6,0.3-1,0.8-1.4,1.4c-0.4,0.6-0.5,1.4-0.5,2.4c0,0.9,0.2,1.7,0.5,2.4c0.3,0.6,0.8,1.1,1.4,1.4c0.6,0.3,1.2,0.5,1.9,0.5
			C656.5,414.9,657.1,414.8,657.7,414.4z"/>
		<path class="st3" d="M680.1,404.9l-3.6,11.5h-2l-2.8-9.1l-2.8,9.1h-2l-3.6-11.5h2l2.6,9.7l2.9-9.7h2l2.8,9.7l2.6-9.7H680.1z"/>
	</g>
	<g>
		<path class="st3" d="M835.1,343.8l-4.2,14.6h-2.1l-3.4-11.8l-3.5,11.8l-2.1,0l-4.1-14.7h2l3.2,12.4l3.5-12.4h2.1l3.4,12.4
			l3.2-12.4H835.1z"/>
		<path class="st3" d="M837.7,344.6c-0.3-0.3-0.4-0.6-0.4-0.9s0.1-0.7,0.4-0.9c0.3-0.3,0.6-0.4,0.9-0.4c0.3,0,0.6,0.1,0.9,0.4
			c0.2,0.3,0.4,0.6,0.4,0.9s-0.1,0.7-0.4,0.9s-0.5,0.4-0.9,0.4C838.3,345,838,344.9,837.7,344.6z M839.6,346.9v11.5h-1.9v-11.5
			H839.6z"/>
		<path class="st3" d="M846.7,347.2c0.6-0.4,1.4-0.5,2.3-0.5v2h-0.5c-2.1,0-3.2,1.2-3.2,3.5v6.3h-1.9v-11.5h1.9v1.9
			C845.6,348.1,846.1,347.6,846.7,347.2z"/>
		<path class="st3" d="M862.2,353.4H853c0.1,1.1,0.5,2,1.2,2.7c0.7,0.6,1.6,1,2.6,1c0.8,0,1.5-0.2,2.1-0.6c0.6-0.4,0.9-0.9,1.2-1.5
			h2.1c-0.3,1.1-0.9,2-1.8,2.7s-2.1,1-3.4,1c-1.1,0-2.1-0.2-2.9-0.7c-0.9-0.5-1.5-1.2-2-2.1c-0.5-0.9-0.7-1.9-0.7-3.1
			c0-1.2,0.2-2.2,0.7-3.1c0.5-0.9,1.1-1.6,2-2.1c0.9-0.5,1.9-0.7,3-0.7c1.1,0,2.1,0.2,2.9,0.7c0.8,0.5,1.5,1.1,1.9,2
			s0.7,1.8,0.7,2.8C862.2,352.6,862.2,353,862.2,353.4z M859.8,349.9c-0.3-0.5-0.8-0.9-1.3-1.2c-0.6-0.3-1.2-0.4-1.8-0.4
			c-1,0-1.8,0.3-2.5,0.9c-0.7,0.6-1.1,1.5-1.2,2.6h7.3C860.3,351.1,860.1,350.5,859.8,349.9z"/>
		<path class="st3" d="M870,348.5h-2.4v9.9h-1.9v-9.9h-1.5v-1.6h1.5v-0.8c0-1.3,0.3-2.2,1-2.8s1.7-0.9,3.2-0.9v1.6
			c-0.8,0-1.4,0.2-1.8,0.5s-0.5,0.9-0.5,1.6v0.8h2.4V348.5z"/>
		<path class="st3" d="M876.1,347.2c0.6-0.4,1.4-0.5,2.3-0.5v2h-0.5c-2.1,0-3.2,1.2-3.2,3.5v6.3h-1.9v-11.5h1.9v1.9
			C875,348.1,875.4,347.6,876.1,347.2z"/>
		<path class="st3" d="M881.1,349.5c0.5-0.9,1.1-1.6,2-2.1s1.8-0.7,2.8-0.7c1,0,1.9,0.2,2.6,0.7s1.3,1,1.7,1.6v-2.1h1.9v11.5h-1.9
			v-2.1c-0.4,0.7-0.9,1.2-1.7,1.7c-0.7,0.4-1.6,0.7-2.6,0.7c-1,0-1.9-0.3-2.8-0.8s-1.5-1.2-2-2.1c-0.5-0.9-0.7-1.9-0.7-3.1
			C880.4,351.4,880.6,350.4,881.1,349.5z M889.6,350.4c-0.4-0.6-0.8-1.1-1.4-1.5s-1.2-0.5-2-0.5c-0.7,0-1.4,0.2-2,0.5
			s-1.1,0.8-1.4,1.5c-0.4,0.6-0.5,1.4-0.5,2.3c0,0.9,0.2,1.6,0.5,2.3c0.3,0.7,0.8,1.1,1.4,1.5c0.6,0.3,1.2,0.5,2,0.5
			c0.7,0,1.4-0.2,2-0.5c0.6-0.3,1.1-0.8,1.4-1.5c0.3-0.7,0.5-1.4,0.5-2.3C890.1,351.8,889.9,351,889.6,350.4z"/>
		<path class="st3" d="M912,347.2c0.7,0.4,1.3,0.9,1.7,1.7s0.6,1.6,0.6,2.7v6.8h-1.9v-6.5c0-1.1-0.3-2-0.9-2.6
			c-0.6-0.6-1.3-0.9-2.3-0.9c-1,0-1.8,0.3-2.4,1c-0.6,0.6-0.9,1.6-0.9,2.8v6.3h-1.9v-6.5c0-1.1-0.3-2-0.9-2.6
			c-0.6-0.6-1.3-0.9-2.3-0.9c-1,0-1.8,0.3-2.4,1c-0.6,0.6-0.9,1.6-0.9,2.8v6.3h-1.9v-11.5h1.9v1.7c0.4-0.6,0.9-1.1,1.5-1.4
			c0.6-0.3,1.3-0.5,2.1-0.5c1,0,1.8,0.2,2.6,0.7c0.7,0.4,1.3,1.1,1.7,1.9c0.3-0.8,0.9-1.4,1.6-1.9c0.7-0.4,1.6-0.7,2.5-0.7
			C910.5,346.7,911.3,346.9,912,347.2z"/>
		<path class="st3" d="M918,344.6c-0.3-0.3-0.4-0.6-0.4-0.9s0.1-0.7,0.4-0.9c0.3-0.3,0.6-0.4,0.9-0.4c0.3,0,0.6,0.1,0.9,0.4
			c0.2,0.3,0.4,0.6,0.4,0.9s-0.1,0.7-0.4,0.9s-0.5,0.4-0.9,0.4C918.6,345,918.3,344.9,918,344.6z M919.9,346.9v11.5h-1.9v-11.5
			H919.9z"/>
		<path class="st3" d="M932.6,348c0.9,0.8,1.3,2.1,1.3,3.7v6.8h-1.9v-6.5c0-1.1-0.3-2-0.9-2.6s-1.4-0.9-2.4-0.9
			c-1,0-1.8,0.3-2.4,0.9c-0.6,0.6-0.9,1.5-0.9,2.8v6.4h-1.9v-11.5h1.9v1.6c0.4-0.6,0.9-1,1.5-1.4c0.7-0.3,1.4-0.5,2.2-0.5
			C930.6,346.7,931.8,347.1,932.6,348z"/>
		<path class="st3" d="M945,347.4c0.7,0.4,1.3,1,1.7,1.6v-2.1h1.9v11.8c0,1-0.2,2-0.7,2.8c-0.4,0.8-1.1,1.5-1.9,1.9
			c-0.8,0.5-1.8,0.7-2.9,0.7c-1.5,0-2.8-0.4-3.8-1.1c-1-0.7-1.6-1.7-1.8-2.9h1.9c0.2,0.7,0.6,1.3,1.3,1.7c0.7,0.4,1.4,0.6,2.4,0.6
			c1,0,1.9-0.3,2.6-1c0.7-0.7,1-1.6,1-2.8v-2.4c-0.4,0.7-0.9,1.2-1.7,1.7c-0.7,0.4-1.6,0.7-2.6,0.7c-1,0-2-0.3-2.8-0.8
			c-0.8-0.5-1.5-1.2-2-2.1c-0.5-0.9-0.7-1.9-0.7-3.1c0-1.2,0.2-2.2,0.7-3.1c0.5-0.9,1.1-1.6,2-2.1c0.8-0.5,1.8-0.7,2.8-0.7
			C943.3,346.7,944.2,346.9,945,347.4z M946.1,350.4c-0.3-0.6-0.8-1.1-1.4-1.5c-0.6-0.3-1.2-0.5-2-0.5s-1.4,0.2-2,0.5
			s-1.1,0.8-1.4,1.5c-0.3,0.6-0.5,1.4-0.5,2.3c0,0.9,0.2,1.6,0.5,2.3c0.4,0.7,0.8,1.1,1.4,1.5c0.6,0.3,1.2,0.5,2,0.5s1.4-0.2,2-0.5
			c0.6-0.3,1.1-0.8,1.4-1.5c0.3-0.7,0.5-1.4,0.5-2.3C946.6,351.8,946.5,351,946.1,350.4z"/>
		<path class="st3" d="M829.6,380.1c-0.8,0.8-2.1,1.2-3.8,1.2H823v6.1h-1.9v-14.6h4.7c1.7,0,2.9,0.4,3.8,1.2
			c0.9,0.8,1.3,1.8,1.3,3.1C830.9,378.3,830.5,379.3,829.6,380.1z M828.2,379c0.5-0.5,0.8-1.1,0.8-2c0-1.8-1-2.7-3.1-2.7H823v5.4
			h2.8C826.9,379.7,827.7,379.5,828.2,379z"/>
		<path class="st3" d="M837.1,376.2c0.6-0.4,1.4-0.5,2.3-0.5v2h-0.5c-2.1,0-3.2,1.2-3.2,3.5v6.3h-1.9v-11.5h1.9v1.9
			C836,377.1,836.5,376.6,837.1,376.2z"/>
		<path class="st3" d="M844.2,386.9c-0.9-0.5-1.6-1.2-2.1-2.1c-0.5-0.9-0.7-1.9-0.7-3.1c0-1.2,0.3-2.2,0.8-3.1s1.2-1.6,2.1-2.1
			c0.9-0.5,1.9-0.7,3-0.7s2.1,0.2,3,0.7c0.9,0.5,1.6,1.2,2.1,2.1c0.5,0.9,0.8,1.9,0.8,3.1c0,1.2-0.3,2.2-0.8,3.1
			c-0.5,0.9-1.2,1.6-2.1,2.1c-0.9,0.5-1.9,0.7-3,0.7C846.1,387.6,845.1,387.3,844.2,386.9z M849.1,385.4c0.6-0.3,1.1-0.8,1.5-1.4
			s0.6-1.4,0.6-2.4c0-0.9-0.2-1.7-0.5-2.4c-0.4-0.6-0.8-1.1-1.4-1.4c-0.6-0.3-1.2-0.5-1.9-0.5c-0.7,0-1.3,0.2-1.9,0.5
			c-0.6,0.3-1,0.8-1.4,1.4c-0.4,0.6-0.5,1.4-0.5,2.4c0,0.9,0.2,1.7,0.5,2.4c0.3,0.6,0.8,1.1,1.4,1.4c0.6,0.3,1.2,0.5,1.9,0.5
			C847.9,385.9,848.5,385.8,849.1,385.4z"/>
		<path class="st3" d="M858.4,377.5v6.8c0,0.6,0.1,1,0.4,1.2c0.2,0.2,0.7,0.3,1.2,0.3h1.4v1.6h-1.7c-1.1,0-1.9-0.2-2.4-0.7
			c-0.5-0.5-0.8-1.3-0.8-2.4v-6.8H855v-1.6h1.5V373h1.9v2.9h3v1.6H858.4z"/>
		<path class="st3" d="M866.4,386.9c-0.9-0.5-1.6-1.2-2.1-2.1c-0.5-0.9-0.7-1.9-0.7-3.1c0-1.2,0.3-2.2,0.8-3.1
			c0.5-0.9,1.2-1.6,2.1-2.1c0.9-0.5,1.9-0.7,3-0.7c1.1,0,2.1,0.2,3,0.7c0.9,0.5,1.6,1.2,2.1,2.1c0.5,0.9,0.8,1.9,0.8,3.1
			c0,1.2-0.3,2.2-0.8,3.1c-0.5,0.9-1.2,1.6-2.1,2.1c-0.9,0.5-1.9,0.7-3,0.7C868.2,387.6,867.3,387.3,866.4,386.9z M871.2,385.4
			c0.6-0.3,1.1-0.8,1.5-1.4s0.6-1.4,0.6-2.4c0-0.9-0.2-1.7-0.5-2.4c-0.4-0.6-0.8-1.1-1.4-1.4c-0.6-0.3-1.2-0.5-1.9-0.5
			c-0.7,0-1.3,0.2-1.9,0.5c-0.6,0.3-1,0.8-1.4,1.4c-0.3,0.6-0.5,1.4-0.5,2.4c0,0.9,0.2,1.7,0.5,2.4c0.3,0.6,0.8,1.1,1.4,1.4
			c0.6,0.3,1.2,0.5,1.9,0.5C870,385.9,870.6,385.8,871.2,385.4z"/>
		<path class="st3" d="M880.6,377.5v6.8c0,0.6,0.1,1,0.4,1.2c0.2,0.2,0.7,0.3,1.2,0.3h1.4v1.6h-1.7c-1.1,0-1.9-0.2-2.4-0.7
			c-0.5-0.5-0.8-1.3-0.8-2.4v-6.8h-1.5v-1.6h1.5V373h1.9v2.9h3v1.6H880.6z"/>
		<path class="st3" d="M896.3,375.9l-6.9,16.9h-2l2.3-5.5l-4.6-11.4h2.1l3.6,9.3l3.6-9.3H896.3z"/>
		<path class="st3" d="M902.4,376.4c0.7-0.4,1.6-0.7,2.6-0.7c1,0,1.9,0.2,2.8,0.7c0.8,0.5,1.5,1.2,2,2.1c0.5,0.9,0.7,1.9,0.7,3.1
			c0,1.2-0.2,2.2-0.7,3.1c-0.5,0.9-1.1,1.6-2,2.1c-0.8,0.5-1.8,0.8-2.8,0.8c-1,0-1.8-0.2-2.6-0.7c-0.7-0.4-1.3-1-1.7-1.6v7.6h-1.9
			v-17h1.9v2.1C901.1,377.4,901.6,376.8,902.4,376.4z M908,379.3c-0.4-0.6-0.8-1.1-1.4-1.5s-1.2-0.5-2-0.5c-0.7,0-1.3,0.2-1.9,0.5
			c-0.6,0.3-1.1,0.8-1.4,1.5c-0.4,0.7-0.5,1.4-0.5,2.3c0,0.9,0.2,1.6,0.5,2.3c0.4,0.7,0.8,1.1,1.4,1.5c0.6,0.3,1.2,0.5,1.9,0.5
			c0.7,0,1.4-0.2,2-0.5c0.6-0.3,1.1-0.8,1.4-1.5c0.3-0.7,0.5-1.4,0.5-2.3C908.5,380.7,908.3,380,908,379.3z"/>
		<path class="st3" d="M913.6,373.6c-0.3-0.3-0.4-0.6-0.4-0.9s0.1-0.7,0.4-0.9c0.3-0.3,0.6-0.4,0.9-0.4c0.3,0,0.6,0.1,0.9,0.4
			c0.2,0.3,0.4,0.6,0.4,0.9s-0.1,0.7-0.4,0.9c-0.2,0.3-0.5,0.4-0.9,0.4C914.1,374,913.8,373.9,913.6,373.6z M915.4,375.9v11.5h-1.9
			v-11.5H915.4z"/>
		<path class="st3" d="M928.2,377c0.9,0.8,1.3,2.1,1.3,3.7v6.8h-1.9v-6.5c0-1.1-0.3-2-0.9-2.6s-1.4-0.9-2.4-0.9
			c-1,0-1.8,0.3-2.4,0.9c-0.6,0.6-0.9,1.5-0.9,2.8v6.4h-1.9v-11.5h1.9v1.6c0.4-0.6,0.9-1,1.5-1.4c0.7-0.3,1.4-0.5,2.2-0.5
			C926.2,375.7,927.3,376.1,928.2,377z"/>
		<path class="st3" d="M940.5,376.4c0.7,0.4,1.3,1,1.7,1.6v-2.1h1.9v11.8c0,1-0.2,2-0.7,2.8c-0.4,0.8-1.1,1.5-1.9,1.9
			c-0.8,0.5-1.8,0.7-2.9,0.7c-1.5,0-2.8-0.4-3.8-1.1c-1-0.7-1.6-1.7-1.8-2.9h1.9c0.2,0.7,0.6,1.3,1.3,1.7c0.7,0.4,1.4,0.6,2.4,0.6
			c1,0,1.9-0.3,2.6-1c0.7-0.7,1-1.6,1-2.8v-2.4c-0.4,0.7-0.9,1.2-1.7,1.7c-0.7,0.4-1.6,0.7-2.6,0.7c-1,0-1.9-0.3-2.8-0.8
			s-1.5-1.2-2-2.1c-0.5-0.9-0.7-1.9-0.7-3.1c0-1.2,0.2-2.2,0.7-3.1c0.5-0.9,1.1-1.6,2-2.1s1.8-0.7,2.8-0.7
			C938.9,375.7,939.8,375.9,940.5,376.4z M941.7,379.4c-0.4-0.6-0.8-1.1-1.4-1.5s-1.2-0.5-2-0.5c-0.7,0-1.4,0.2-2,0.5
			s-1.1,0.8-1.4,1.5c-0.4,0.6-0.5,1.4-0.5,2.3c0,0.9,0.2,1.6,0.5,2.3c0.3,0.7,0.8,1.1,1.4,1.5c0.6,0.3,1.2,0.5,2,0.5
			c0.7,0,1.4-0.2,2-0.5c0.6-0.3,1.1-0.8,1.4-1.5c0.3-0.7,0.5-1.4,0.5-2.3C942.2,380.8,942,380,941.7,379.4z"/>
	</g>
	<g>
		<path class="st3" d="M1063.2,347.2c0.6-1.1,1.5-2,2.6-2.7c1.1-0.6,2.3-1,3.7-1c1.6,0,3,0.4,4.2,1.2s2.1,1.9,2.6,3.3h-2.3
			c-0.4-0.9-1-1.6-1.8-2c-0.8-0.5-1.7-0.7-2.7-0.7c-1,0-1.9,0.2-2.8,0.7c-0.8,0.5-1.4,1.2-1.9,2s-0.7,1.9-0.7,3.1
			c0,1.2,0.2,2.2,0.7,3.1s1.1,1.6,1.9,2c0.8,0.5,1.7,0.7,2.8,0.7c1.1,0,2-0.2,2.7-0.7c0.8-0.5,1.3-1.1,1.8-2h2.3
			c-0.5,1.4-1.4,2.5-2.6,3.2c-1.2,0.8-2.6,1.1-4.2,1.1c-1.4,0-2.6-0.3-3.7-1c-1.1-0.6-2-1.5-2.6-2.7c-0.6-1.1-1-2.4-1-3.8
			S1062.5,348.4,1063.2,347.2z"/>
		<path class="st3" d="M1081.7,357.9c-0.9-0.5-1.6-1.2-2.1-2.1c-0.5-0.9-0.7-1.9-0.7-3.1c0-1.2,0.3-2.2,0.8-3.1s1.2-1.6,2.1-2.1
			c0.9-0.5,1.9-0.7,3-0.7c1.1,0,2.1,0.2,3,0.7c0.9,0.5,1.6,1.2,2.1,2.1c0.5,0.9,0.8,1.9,0.8,3.1c0,1.2-0.3,2.2-0.8,3.1
			c-0.5,0.9-1.2,1.6-2.1,2.1s-1.9,0.7-3,0.7C1083.6,358.6,1082.6,358.3,1081.7,357.9z M1086.6,356.4c0.6-0.3,1.1-0.8,1.5-1.4
			s0.6-1.4,0.6-2.4c0-0.9-0.2-1.7-0.5-2.4c-0.4-0.6-0.8-1.1-1.4-1.4c-0.6-0.3-1.2-0.5-1.9-0.5c-0.7,0-1.3,0.2-1.9,0.5
			c-0.6,0.3-1,0.8-1.4,1.4c-0.4,0.6-0.5,1.4-0.5,2.4c0,0.9,0.2,1.7,0.5,2.4c0.3,0.6,0.8,1.1,1.4,1.4c0.6,0.3,1.2,0.5,1.9,0.5
			C1085.4,356.9,1086,356.8,1086.6,356.4z"/>
		<path class="st3" d="M1102.6,348c0.9,0.8,1.3,2.1,1.3,3.7v6.8h-1.9v-6.5c0-1.1-0.3-2-0.9-2.6s-1.4-0.9-2.4-0.9
			c-1,0-1.8,0.3-2.4,0.9s-0.9,1.5-0.9,2.8v6.4h-1.9v-11.5h1.9v1.6c0.4-0.6,0.9-1,1.5-1.4c0.7-0.3,1.4-0.5,2.2-0.5
			C1100.6,346.7,1101.8,347.1,1102.6,348z"/>
		<path class="st3" d="M1107.6,349.5c0.5-0.9,1.1-1.6,2-2.1c0.8-0.5,1.8-0.7,2.9-0.7c1.4,0,2.6,0.3,3.5,1c0.9,0.7,1.5,1.6,1.8,2.9
			h-2.1c-0.2-0.7-0.6-1.3-1.1-1.7s-1.3-0.6-2.1-0.6c-1.1,0-2,0.4-2.6,1.1s-1,1.8-1,3.2c0,1.4,0.3,2.5,1,3.2c0.7,0.8,1.6,1.1,2.6,1.1
			c0.8,0,1.5-0.2,2.1-0.6c0.6-0.4,0.9-1,1.2-1.7h2.1c-0.3,1.2-0.9,2.1-1.8,2.8s-2.1,1.1-3.5,1.1c-1.1,0-2.1-0.2-2.9-0.7
			c-0.8-0.5-1.5-1.2-2-2.1c-0.5-0.9-0.7-1.9-0.7-3.2C1106.9,351.4,1107.1,350.4,1107.6,349.5z"/>
		<path class="st3" d="M1131.3,353.4h-9.2c0.1,1.1,0.5,2,1.2,2.7c0.7,0.6,1.6,1,2.6,1c0.8,0,1.5-0.2,2.1-0.6
			c0.6-0.4,0.9-0.9,1.2-1.5h2.1c-0.3,1.1-0.9,2-1.8,2.7c-0.9,0.7-2.1,1-3.4,1c-1.1,0-2.1-0.2-2.9-0.7c-0.9-0.5-1.5-1.2-2-2.1
			c-0.5-0.9-0.7-1.9-0.7-3.1c0-1.2,0.2-2.2,0.7-3.1c0.5-0.9,1.1-1.6,2-2.1c0.9-0.5,1.9-0.7,3-0.7c1.1,0,2.1,0.2,2.9,0.7
			c0.8,0.5,1.5,1.1,1.9,2c0.5,0.8,0.7,1.8,0.7,2.8C1131.4,352.6,1131.3,353,1131.3,353.4z M1128.9,349.9c-0.3-0.5-0.8-0.9-1.3-1.2
			c-0.6-0.3-1.2-0.4-1.8-0.4c-1,0-1.8,0.3-2.5,0.9c-0.7,0.6-1.1,1.5-1.2,2.6h7.3C1129.4,351.1,1129.2,350.5,1128.9,349.9z"/>
		<path class="st3" d="M1138,347.4c0.7-0.4,1.6-0.7,2.6-0.7c1,0,1.9,0.2,2.8,0.7s1.5,1.2,2,2.1c0.5,0.9,0.7,1.9,0.7,3.1
			c0,1.2-0.2,2.2-0.7,3.1c-0.5,0.9-1.1,1.6-2,2.1s-1.8,0.8-2.8,0.8c-1,0-1.8-0.2-2.6-0.7c-0.7-0.4-1.3-1-1.7-1.6v7.6h-1.9v-17h1.9
			v2.1C1136.7,348.4,1137.2,347.8,1138,347.4z M1143.6,350.3c-0.3-0.6-0.8-1.1-1.4-1.5s-1.2-0.5-2-0.5c-0.7,0-1.3,0.2-1.9,0.5
			c-0.6,0.3-1.1,0.8-1.4,1.5c-0.4,0.7-0.5,1.4-0.5,2.3c0,0.9,0.2,1.6,0.5,2.3c0.4,0.7,0.8,1.1,1.4,1.5c0.6,0.3,1.2,0.5,1.9,0.5
			c0.7,0,1.4-0.2,2-0.5c0.6-0.3,1.1-0.8,1.4-1.5c0.3-0.7,0.5-1.4,0.5-2.3C1144.1,351.7,1143.9,351,1143.6,350.3z"/>
		<path class="st3" d="M1151.4,348.5v6.8c0,0.6,0.1,1,0.4,1.2c0.2,0.2,0.7,0.3,1.2,0.3h1.4v1.6h-1.7c-1.1,0-1.9-0.2-2.4-0.7
			c-0.5-0.5-0.8-1.3-0.8-2.4v-6.8h-1.5v-1.6h1.5V344h1.9v2.9h3v1.6H1151.4z"/>
		<path class="st3" d="M1172.4,343.8v1.6h-4v13.1h-1.9v-13.1h-4v-1.6H1172.4z"/>
		<path class="st3" d="M1185.7,353.4h-9.2c0.1,1.1,0.5,2,1.2,2.7c0.7,0.6,1.6,1,2.6,1c0.8,0,1.5-0.2,2.1-0.6
			c0.6-0.4,0.9-0.9,1.2-1.5h2.1c-0.3,1.1-0.9,2-1.8,2.7s-2.1,1-3.4,1c-1.1,0-2.1-0.2-2.9-0.7s-1.5-1.2-2-2.1
			c-0.5-0.9-0.7-1.9-0.7-3.1c0-1.2,0.2-2.2,0.7-3.1c0.5-0.9,1.1-1.6,2-2.1c0.9-0.5,1.9-0.7,3-0.7c1.1,0,2.1,0.2,2.9,0.7
			c0.8,0.5,1.5,1.1,1.9,2s0.7,1.8,0.7,2.8C1185.8,352.6,1185.8,353,1185.7,353.4z M1183.3,349.9c-0.3-0.5-0.8-0.9-1.3-1.2
			c-0.6-0.3-1.2-0.4-1.8-0.4c-1,0-1.8,0.3-2.5,0.9c-0.7,0.6-1.1,1.5-1.2,2.6h7.3C1183.8,351.1,1183.7,350.5,1183.3,349.9z"/>
		<path class="st3" d="M1190.5,358.1c-0.7-0.3-1.3-0.7-1.7-1.3s-0.6-1.2-0.7-1.9h2c0.1,0.6,0.3,1,0.8,1.4c0.5,0.4,1.1,0.5,1.9,0.5
			c0.7,0,1.3-0.2,1.7-0.5c0.4-0.3,0.6-0.7,0.6-1.2c0-0.5-0.2-0.9-0.7-1.1c-0.4-0.2-1.1-0.5-2.1-0.7c-0.9-0.2-1.6-0.5-2.1-0.7
			c-0.5-0.2-1-0.6-1.4-1s-0.6-1.1-0.6-1.8c0-0.6,0.2-1.1,0.5-1.6s0.8-0.9,1.5-1.2s1.4-0.4,2.2-0.4c1.3,0,2.3,0.3,3.1,1
			c0.8,0.6,1.2,1.5,1.3,2.6h-1.9c0-0.6-0.3-1.1-0.7-1.4c-0.4-0.4-1-0.5-1.8-0.5c-0.7,0-1.2,0.1-1.6,0.4s-0.6,0.7-0.6,1.2
			c0,0.4,0.1,0.7,0.4,0.9c0.2,0.2,0.6,0.4,0.9,0.6c0.4,0.1,0.9,0.3,1.5,0.5c0.8,0.2,1.5,0.4,2,0.7c0.5,0.2,1,0.5,1.3,1
			c0.4,0.4,0.6,1,0.6,1.7c0,0.6-0.2,1.2-0.5,1.7s-0.8,0.9-1.5,1.2c-0.6,0.3-1.4,0.4-2.2,0.4C1192,358.6,1191.2,358.4,1190.5,358.1z"
			/>
		<path class="st3" d="M1202.7,348.5v6.8c0,0.6,0.1,1,0.4,1.2c0.2,0.2,0.7,0.3,1.2,0.3h1.4v1.6h-1.7c-1.1,0-1.9-0.2-2.4-0.7
			c-0.5-0.5-0.8-1.3-0.8-2.4v-6.8h-1.5v-1.6h1.5V344h1.9v2.9h3v1.6H1202.7z"/>
		<path class="st3" d="M1065.4,372.8v9.3c0,1.3,0.3,2.3,1,2.9c0.6,0.6,1.5,0.9,2.7,0.9c1.1,0,2-0.3,2.6-0.9c0.6-0.6,1-1.6,1-2.9
			v-9.3h1.9v9.2c0,1.2-0.2,2.2-0.7,3.1c-0.5,0.8-1.2,1.5-2,1.9c-0.8,0.4-1.8,0.6-2.8,0.6c-1,0-2-0.2-2.8-0.6s-1.5-1-2-1.9
			c-0.5-0.8-0.7-1.9-0.7-3.1v-9.2H1065.4z"/>
		<path class="st3" d="M1079.9,387.1c-0.7-0.3-1.3-0.7-1.7-1.3s-0.6-1.2-0.7-1.9h2c0.1,0.6,0.3,1,0.8,1.4c0.5,0.4,1.1,0.5,1.9,0.5
			c0.7,0,1.3-0.2,1.7-0.5c0.4-0.3,0.6-0.7,0.6-1.2c0-0.5-0.2-0.9-0.7-1.1c-0.4-0.2-1.1-0.5-2.1-0.7c-0.9-0.2-1.6-0.5-2.1-0.7
			c-0.5-0.2-1-0.6-1.4-1s-0.6-1.1-0.6-1.8c0-0.6,0.2-1.1,0.5-1.6s0.8-0.9,1.5-1.2s1.4-0.4,2.2-0.4c1.3,0,2.3,0.3,3.1,1
			c0.8,0.6,1.2,1.5,1.3,2.6h-1.9c0-0.6-0.3-1.1-0.7-1.4c-0.4-0.4-1-0.5-1.8-0.5c-0.7,0-1.2,0.1-1.6,0.4s-0.6,0.7-0.6,1.2
			c0,0.4,0.1,0.7,0.4,0.9c0.2,0.2,0.6,0.4,0.9,0.6c0.4,0.1,0.9,0.3,1.5,0.5c0.8,0.2,1.5,0.4,2,0.7c0.5,0.2,1,0.5,1.3,1
			c0.4,0.4,0.6,1,0.6,1.7c0,0.6-0.2,1.2-0.5,1.7s-0.8,0.9-1.5,1.2c-0.6,0.3-1.4,0.4-2.2,0.4C1081.4,387.6,1080.6,387.4,1079.9,387.1
			z"/>
		<path class="st3" d="M1089.7,378.5c0.5-0.9,1.1-1.6,2-2.1c0.8-0.5,1.8-0.7,2.8-0.7c1,0,1.9,0.2,2.6,0.7s1.3,1,1.7,1.6v-2.1h1.9
			v11.5h-1.9v-2.1c-0.4,0.7-0.9,1.2-1.7,1.7c-0.8,0.4-1.6,0.7-2.6,0.7c-1,0-1.9-0.3-2.8-0.8s-1.5-1.2-2-2.1
			c-0.5-0.9-0.7-1.9-0.7-3.1C1089,380.4,1089.2,379.4,1089.7,378.5z M1098.2,379.4c-0.4-0.6-0.8-1.1-1.4-1.5c-0.6-0.3-1.2-0.5-2-0.5
			s-1.4,0.2-2,0.5s-1.1,0.8-1.4,1.5c-0.3,0.6-0.5,1.4-0.5,2.3c0,0.9,0.2,1.6,0.5,2.3c0.3,0.7,0.8,1.1,1.4,1.5c0.6,0.3,1.2,0.5,2,0.5
			s1.4-0.2,2-0.5c0.6-0.3,1.1-0.8,1.4-1.5c0.3-0.7,0.5-1.4,0.5-2.3C1098.7,380.8,1098.5,380,1098.2,379.4z"/>
		<path class="st3" d="M1108,376.4c0.8-0.4,1.6-0.7,2.6-0.7c1,0,2,0.2,2.8,0.7c0.8,0.5,1.5,1.2,2,2.1c0.5,0.9,0.7,1.9,0.7,3.1
			c0,1.2-0.2,2.2-0.7,3.1c-0.5,0.9-1.1,1.6-2,2.1s-1.8,0.8-2.8,0.8c-1,0-1.9-0.2-2.6-0.7c-0.8-0.4-1.3-1-1.7-1.7v2.1h-1.9v-15.5h1.9
			v6.2C1106.7,377.4,1107.3,376.8,1108,376.4z M1113.6,379.3c-0.3-0.6-0.8-1.1-1.4-1.5s-1.2-0.5-2-0.5c-0.7,0-1.3,0.2-1.9,0.5
			c-0.6,0.3-1.1,0.8-1.4,1.5c-0.4,0.7-0.5,1.4-0.5,2.3c0,0.9,0.2,1.6,0.5,2.3c0.4,0.7,0.8,1.1,1.4,1.5c0.6,0.3,1.2,0.5,1.9,0.5
			c0.7,0,1.4-0.2,2-0.5c0.6-0.3,1.1-0.8,1.4-1.5c0.3-0.7,0.5-1.4,0.5-2.3C1114.1,380.7,1113.9,380,1113.6,379.3z"/>
		<path class="st3" d="M1119.2,373.6c-0.3-0.3-0.4-0.6-0.4-0.9s0.1-0.7,0.4-0.9c0.3-0.3,0.6-0.4,0.9-0.4c0.3,0,0.6,0.1,0.9,0.4
			c0.2,0.3,0.4,0.6,0.4,0.9s-0.1,0.7-0.4,0.9s-0.5,0.4-0.9,0.4C1119.7,374,1119.4,373.9,1119.2,373.6z M1121,375.9v11.5h-1.9v-11.5
			H1121z"/>
		<path class="st3" d="M1126.7,371.9v15.5h-1.9v-15.5H1126.7z"/>
		<path class="st3" d="M1130.6,373.6c-0.3-0.3-0.4-0.6-0.4-0.9s0.1-0.7,0.4-0.9c0.3-0.3,0.6-0.4,0.9-0.4c0.3,0,0.6,0.1,0.9,0.4
			c0.2,0.3,0.4,0.6,0.4,0.9s-0.1,0.7-0.4,0.9c-0.2,0.3-0.5,0.4-0.9,0.4C1131.1,374,1130.8,373.9,1130.6,373.6z M1132.4,375.9v11.5
			h-1.9v-11.5H1132.4z"/>
		<path class="st3" d="M1138.5,377.5v6.8c0,0.6,0.1,1,0.4,1.2c0.2,0.2,0.7,0.3,1.2,0.3h1.4v1.6h-1.7c-1.1,0-1.9-0.2-2.4-0.7
			c-0.5-0.5-0.8-1.3-0.8-2.4v-6.8h-1.5v-1.6h1.5V373h1.9v2.9h3v1.6H1138.5z"/>
		<path class="st3" d="M1154.3,375.9l-6.9,16.9h-2l2.3-5.5l-4.6-11.4h2.1l3.6,9.3l3.6-9.3H1154.3z"/>
		<path class="st3" d="M1171.8,372.8v1.6h-4v13.1h-1.9v-13.1h-4v-1.6H1171.8z"/>
		<path class="st3" d="M1185.2,382.4h-9.2c0.1,1.1,0.5,2,1.2,2.7c0.7,0.6,1.6,1,2.6,1c0.8,0,1.5-0.2,2.1-0.6
			c0.6-0.4,0.9-0.9,1.2-1.5h2.1c-0.3,1.1-0.9,2-1.8,2.7s-2.1,1-3.4,1c-1.1,0-2.1-0.2-2.9-0.7s-1.5-1.2-2-2.1
			c-0.5-0.9-0.7-1.9-0.7-3.1c0-1.2,0.2-2.2,0.7-3.1c0.5-0.9,1.1-1.6,2-2.1c0.9-0.5,1.9-0.7,3-0.7c1.1,0,2.1,0.2,2.9,0.7
			c0.8,0.5,1.5,1.1,1.9,2s0.7,1.8,0.7,2.8C1185.2,381.6,1185.2,382,1185.2,382.4z M1182.8,378.9c-0.3-0.5-0.8-0.9-1.3-1.2
			c-0.6-0.3-1.2-0.4-1.8-0.4c-1,0-1.8,0.3-2.5,0.9c-0.7,0.6-1.1,1.5-1.2,2.6h7.3C1183.3,380.1,1183.1,379.5,1182.8,378.9z"/>
		<path class="st3" d="M1190,387.1c-0.7-0.3-1.3-0.7-1.7-1.3s-0.6-1.2-0.7-1.9h2c0.1,0.6,0.3,1,0.8,1.4c0.5,0.4,1.1,0.5,1.9,0.5
			c0.7,0,1.3-0.2,1.7-0.5c0.4-0.3,0.6-0.7,0.6-1.2c0-0.5-0.2-0.9-0.7-1.1c-0.4-0.2-1.1-0.5-2.1-0.7c-0.9-0.2-1.6-0.5-2.1-0.7
			c-0.5-0.2-1-0.6-1.4-1s-0.6-1.1-0.6-1.8c0-0.6,0.2-1.1,0.5-1.6s0.8-0.9,1.5-1.2s1.4-0.4,2.2-0.4c1.3,0,2.3,0.3,3.1,1
			c0.8,0.6,1.2,1.5,1.3,2.6h-1.9c0-0.6-0.3-1.1-0.7-1.4c-0.4-0.4-1-0.5-1.8-0.5c-0.7,0-1.2,0.1-1.6,0.4s-0.6,0.7-0.6,1.2
			c0,0.4,0.1,0.7,0.4,0.9c0.2,0.2,0.6,0.4,0.9,0.6c0.4,0.1,0.9,0.3,1.5,0.5c0.8,0.2,1.5,0.4,2,0.7c0.5,0.2,1,0.5,1.3,1
			c0.4,0.4,0.6,1,0.6,1.7c0,0.6-0.2,1.2-0.5,1.7s-0.8,0.9-1.5,1.2c-0.6,0.3-1.4,0.4-2.2,0.4C1191.5,387.6,1190.7,387.4,1190,387.1z"
			/>
		<path class="st3" d="M1202.1,377.5v6.8c0,0.6,0.1,1,0.4,1.2c0.2,0.2,0.7,0.3,1.2,0.3h1.4v1.6h-1.7c-1.1,0-1.9-0.2-2.4-0.7
			c-0.5-0.5-0.8-1.3-0.8-2.4v-6.8h-1.5v-1.6h1.5V373h1.9v2.9h3v1.6H1202.1z"/>
	</g>
</g>
<g>
	<line class="st6" x1="120" y1="267" x2="120.2" y2="318.4"/>
	<circle class="st2" cx="120.2" cy="318.4" r="6.6"/>
</g>
<g>
	<line class="st6" x1="378" y1="267" x2="378.3" y2="318.4"/>
	<circle class="st2" cx="378.3" cy="318.4" r="6.6"/>
</g>
<g>
	<line class="st6" x1="629" y1="267" x2="629.3" y2="318.4"/>
	<circle class="st2" cx="629.3" cy="318.4" r="6.6"/>
</g>
<g>
	<line class="st6" x1="882.4" y1="267" x2="882.6" y2="318.4"/>
	<circle class="st2" cx="882.6" cy="318.4" r="6.6"/>
</g>
<g>
	<line class="st6" x1="1135.5" y1="267" x2="1135.7" y2="318.4"/>
	<circle class="st2" cx="1135.7" cy="318.4" r="6.6"/>
</g>
</svg>
