<?xml version="1.0" encoding="utf-8"?>
<!-- Generator: Adobe Illustrator 24.3.0, SVG Export Plug-In . SVG Version: 6.00 Build 0)  -->
<svg version="1.1" id="Layer_1" xmlns="http://www.w3.org/2000/svg" xmlns:xlink="http://www.w3.org/1999/xlink" x="0px" y="0px"
	 viewBox="0 0 721 135.23" style="enable-background:new 0 0 721 135.23;" xml:space="preserve">
<style type="text/css">
	.st0{fill:#0993D8;}
	.st1{fill:#0972DB;}
	.st2{fill:#1157BC;}
	.st3{fill:#0C2BC6;}
	.st4{fill:#0B1FAF;}
	.st5{fill:#FFFFFF;}
</style>
<g>
	<path d="M11.9,75.96c-0.9,1.42-2.47,2.35-4.24,2.35c-2.75,0-4.93-2.28-4.93-5.07c0-2.8,2.19-5.06,4.93-5.06
		c1.68,0,3.17,0.81,4.09,2.12l-1.11,0.77c-0.7-0.98-1.65-1.6-2.98-1.6c-1.93,0-3.54,1.72-3.54,3.77c0,2.03,1.61,3.77,3.54,3.77
		c1.29,0,2.33-0.66,2.97-1.6L11.9,75.96z"/>
	<path d="M20.15,74.62c0,2.02-1.65,3.66-3.67,3.66s-3.61-1.64-3.61-3.66c0-2.02,1.6-3.64,3.61-3.64S20.15,72.61,20.15,74.62z
		 M18.8,74.62c0-1.34-0.97-2.38-2.33-2.38c-1.33,0-2.34,1.04-2.34,2.38c0,1.36,1.01,2.4,2.34,2.4C17.84,77.02,18.8,75.98,18.8,74.62
		z"/>
	<path d="M23,78.16h-1.43v-7.03H23v0.41v0.48c0.1-0.13,0.22-0.27,0.32-0.34c0.53-0.41,1.2-0.6,1.92-0.6c1.26,0,1.95,0.35,2.66,1.29
		c0.06,0.06,0.13,0.18,0.15,0.27c0.07-0.08,0.13-0.18,0.18-0.27c0.67-0.85,1.57-1.29,2.75-1.29c2,0,3.53,1.62,3.53,3.56v3.53h-1.43
		v-0.83v-2.7c0-1.23-0.84-2.21-2.1-2.21c-1.23,0-2.19,0.95-2.21,2.17c0,0.01,0,0.04,0,0.04v3.53h-0.04h-1.37v-3.53
		c0,0,0-0.03,0-0.04c-0.03-1.22-0.9-2.17-2.11-2.17c-1.23,0-2.23,0.98-2.24,2.21V78.16z"/>
	<path d="M40.01,78.23c-0.78,0-1.77-0.14-2.35-0.81v3.66h-1.44v-9.93h1.44v0.55c0.69-0.49,1.39-0.64,2.35-0.64
		c1.99,0,3.6,1.4,3.6,3.57C43.61,76.6,42.23,78.23,40.01,78.23z M40.01,72.31c-1.29,0-2.34,1.01-2.34,2.3
		c0,1.27,1.05,2.27,2.34,2.27c1.25,0,2.23-1,2.23-2.27C42.24,73.32,41.26,72.31,40.01,72.31z"/>
	<path d="M51.84,75.82c-0.67,1.64-2.04,2.45-3.47,2.45c-1.99,0-3.59-1.64-3.59-3.61c0-1.99,1.6-3.63,3.59-3.63
		c1.98,0,3.57,1.64,3.57,3.63c0,0.13,0,0.28-0.01,0.39h-1.29h-0.71h-3.77c0.18,1.08,1.08,1.92,2.21,1.92c0.87,0,1.62-0.42,1.99-1.15
		C50.64,75.82,51.46,75.82,51.84,75.82z M46.2,74h0.24h3.7h0.42c-0.04-0.11-0.11-0.22-0.15-0.34c-0.36-0.77-1.12-1.34-2.03-1.34
		c-0.95,0-1.72,0.6-2.07,1.41C46.25,73.83,46.21,73.91,46.2,74z"/>
	<path d="M57.67,72.47H55.9v5.7h-1.42v-5.7h-1.86v-1.3h1.86v-2.82h1.42v2.82h1.76V72.47z"/>
	<path d="M60.25,71.24v6.91h-1.41v-6.91H60.25z M60.21,69.68h-1.33v-1.32h1.33V69.68z"/>
	<path d="M66.32,72.47h-1.76v5.7h-1.42v-5.7h-1.86v-1.3h1.86v-2.82h1.42v2.82h1.76V72.47z"/>
	<path d="M68.91,71.24v6.91h-1.41v-6.91H68.91z M68.86,69.68h-1.33v-1.32h1.33V69.68z"/>
	<path d="M76.16,71.18l-3.28,7.23l-3.07-7.23h1.53l1.08,2.73l0.46,1.29l0.5-1.26l1.18-2.76H76.16z"/>
	<path d="M83.83,75.82c-0.67,1.64-2.04,2.45-3.47,2.45c-1.99,0-3.59-1.64-3.59-3.61c0-1.99,1.6-3.63,3.59-3.63
		c1.97,0,3.57,1.64,3.57,3.63c0,0.13,0,0.28-0.01,0.39h-1.29h-0.71h-3.77c0.18,1.08,1.08,1.92,2.21,1.92c0.87,0,1.62-0.42,1.99-1.15
		C82.63,75.82,83.45,75.82,83.83,75.82z M78.19,74h0.24h3.7h0.42c-0.04-0.11-0.11-0.22-0.15-0.34c-0.36-0.77-1.12-1.34-2.03-1.34
		c-0.95,0-1.72,0.6-2.07,1.41C78.24,73.83,78.2,73.91,78.19,74z"/>
	<path d="M95.49,76.57h-4.23c-0.34,0.87-0.62,1.57-0.62,1.57h-1.57l4.3-10.03l4.33,10.03h-1.57C96.14,78.14,95.86,77.44,95.49,76.57
		z M95,75.3c0,0-0.25-0.55-0.35-0.8c-0.21-0.59-0.42-1.06-0.52-1.34c-0.48-1.19-0.73-1.99-0.73-1.99s-0.31,0.81-0.78,1.99
		c-0.11,0.31-0.29,0.8-0.52,1.34c-0.1,0.25-0.34,0.8-0.34,0.8s0.2-0.03,1.64-0.03C94.84,75.27,95,75.3,95,75.3z"/>
	<path d="M100.2,78.16h-1.44v-7h1.44v0.52l-0.03,0.39c0.1-0.1,0.21-0.27,0.31-0.35c0.52-0.42,1.13-0.62,1.83-0.62
		c2.48,0,3.67,1.61,3.67,3.54v3.52h-1.44v-0.83v-2.69c0-1.25-0.73-2.17-2.14-2.17c-1.23,0-2.2,0.92-2.2,2.17V78.16z"/>
	<path d="M114.7,71.14v6.96h-1.39v-0.5v-0.35c-0.07,0.07-0.15,0.17-0.25,0.24c-0.6,0.49-1.37,0.79-2.23,0.79c-2,0-3.6-1.62-3.6-3.6
		c0-1.97,1.6-3.6,3.6-3.6c0.83,0,1.6,0.29,2.23,0.77c0.08,0.08,0.17,0.2,0.25,0.28V71.8v-0.66H114.7z M113.33,74.7
		c0-1.27-1.23-2.31-2.49-2.31c-1.28,0-2.28,1.04-2.28,2.31c0,1.26,1.01,2.28,2.28,2.28C112.1,76.98,113.33,75.98,113.33,74.7z"/>
	<path d="M118.09,78.16h-1.39v-9.83h1.39V78.16z"/>
	<path d="M126.48,71.18l-4.01,8.89h-1.5l0.77-1.65l0.28-0.64l-0.27-0.6l-2.44-6h1.36l1.74,4.4l0.29,0.81l0.35-0.8l2-4.41H126.48z"/>
	<path d="M132.35,76.31c-0.07,1.37-1.44,1.99-2.62,1.93c-1.25-0.08-1.99-0.62-2.41-1.58l1.25-0.43c0.21,0.45,0.6,0.71,1.22,0.73
		c0.67,0.04,1.23-0.25,1.25-0.73c0.04-0.59-0.25-0.97-1.15-1.02c-0.04,0-0.06,0-0.1-0.03c-1.3-0.1-2.24-1.08-2.17-2.27
		c0.06-1.13,1.23-1.95,2.51-1.88c0.97,0.07,1.64,0.46,2.06,1.09l-0.97,0.67c-0.24-0.36-0.66-0.62-1.13-0.63
		c-0.73-0.04-1.13,0.29-1.18,0.83c-0.03,0.48,0.34,1.01,1.04,1.05C131.47,74.11,132.44,74.98,132.35,76.31z"/>
	<path d="M135.04,71.24v6.91h-1.41v-6.91H135.04z M135,69.68h-1.33v-1.32H135V69.68z"/>
	<path d="M141.13,76.31c-0.07,1.37-1.44,1.99-2.62,1.93c-1.25-0.08-1.99-0.62-2.41-1.58l1.25-0.43c0.21,0.45,0.6,0.71,1.22,0.73
		c0.67,0.04,1.23-0.25,1.25-0.73c0.04-0.59-0.25-0.97-1.15-1.02c-0.04,0-0.06,0-0.1-0.03c-1.3-0.1-2.24-1.08-2.17-2.27
		c0.06-1.13,1.23-1.95,2.51-1.88c0.97,0.07,1.64,0.46,2.06,1.09L140,72.79c-0.24-0.36-0.66-0.62-1.13-0.63
		c-0.73-0.04-1.13,0.29-1.18,0.83c-0.03,0.48,0.34,1.01,1.04,1.05C140.25,74.11,141.22,74.98,141.13,76.31z"/>
</g>
<g>
	<path d="M169.04,68.1h0.18v6.43c0,1.93-1.57,3.5-3.49,3.5c-1.93,0-3.5-1.57-3.5-3.5V68.1h0.18h1.09h0.1v6.28
		c0,1.19,0.95,2.28,2.13,2.28c1.16,0,2.11-1.09,2.11-2.28V68.1h0.1H169.04z"/>
	<path d="M175.39,76.04c-0.07,1.37-1.44,1.99-2.62,1.93c-1.25-0.08-1.99-0.62-2.41-1.58l1.25-0.43c0.21,0.45,0.6,0.71,1.22,0.73
		c0.67,0.04,1.23-0.25,1.25-0.73c0.04-0.59-0.25-0.97-1.15-1.02c-0.04,0-0.06,0-0.1-0.03c-1.3-0.1-2.24-1.08-2.17-2.27
		c0.06-1.13,1.23-1.95,2.51-1.88c0.97,0.07,1.64,0.46,2.06,1.09l-0.97,0.67c-0.24-0.36-0.66-0.62-1.13-0.63
		c-0.73-0.04-1.13,0.29-1.18,0.83c-0.03,0.48,0.34,1.01,1.04,1.05C174.51,73.84,175.48,74.71,175.39,76.04z"/>
	<path d="M183.39,75.55c-0.67,1.64-2.04,2.45-3.47,2.45c-1.99,0-3.59-1.64-3.59-3.61c0-1.99,1.6-3.63,3.59-3.63
		c1.97,0,3.57,1.64,3.57,3.63c0,0.13,0,0.28-0.01,0.39h-1.29h-0.71h-3.77c0.18,1.08,1.08,1.92,2.21,1.92c0.87,0,1.62-0.42,1.99-1.15
		C182.18,75.55,183.01,75.55,183.39,75.55z M177.74,73.73h0.24h3.7h0.42c-0.04-0.11-0.11-0.22-0.15-0.34
		c-0.36-0.77-1.12-1.34-2.03-1.34c-0.95,0-1.72,0.6-2.07,1.41C177.8,73.56,177.76,73.65,177.74,73.73z"/>
	<path d="M188.33,70.86c0,0.69,0,1.28,0,1.28c0.01,0-1.98-0.14-2.23,1.53v4.23h-1.47v-7h1.47v0.64
		C186.68,71.07,186.89,70.86,188.33,70.86z"/>
	<path d="M201.1,75.37c-0.07,1.58-1.76,2.77-3.77,2.68c-1.65-0.1-2.97-1.04-3.36-2.21l1.71-0.46c0.27,0.7,0.83,1.08,1.74,1.12
		c1.04,0.06,1.92-0.38,1.95-1.22c0.07-0.81-0.74-1.47-1.79-1.53c-0.04,0-0.07,0-0.11-0.03c-1.95-0.15-3.26-1.56-3.19-3.08
		c0.1-1.6,1.62-2.82,3.61-2.69c1.37,0.07,2.49,0.73,3.07,1.61l-1.51,0.63c-0.31-0.48-0.92-0.74-1.64-0.78
		c-1.01-0.07-1.98,0.48-2,1.3c-0.04,0.81,0.81,1.53,1.85,1.58C199.64,72.4,201.2,73.8,201.1,75.37z"/>
	<path d="M202.2,74.54V70.9h1.44v1.01v2.63c0,1.23,0.8,2.13,2.14,2.13c1.01,0,2.1-0.9,2.12-2.12v-0.08v-2.55V70.9h1.4v6.95h-1.42
		v-0.88c-0.55,0.6-1.26,1.02-2.1,1.02C203.67,77.99,202.2,76.45,202.2,74.54z"/>
	<path d="M214.86,70.86c0,0.69,0,1.28,0,1.28c0.01,0-1.97-0.14-2.23,1.53v4.23h-1.47v-7h1.47v0.64
		C213.21,71.07,213.42,70.86,214.86,70.86z"/>
	<path d="M221.97,70.92l-3.28,7.23l-3.07-7.23h1.53l1.08,2.73l0.46,1.29l0.5-1.26l1.18-2.76H221.97z"/>
	<path d="M229.64,75.55c-0.67,1.64-2.04,2.45-3.47,2.45c-1.99,0-3.59-1.64-3.59-3.61c0-1.99,1.6-3.63,3.59-3.63
		c1.97,0,3.57,1.64,3.57,3.63c0,0.13,0,0.28-0.01,0.39h-1.29h-0.71h-3.77c0.18,1.08,1.08,1.92,2.21,1.92c0.87,0,1.62-0.42,1.99-1.15
		C228.44,75.55,229.27,75.55,229.64,75.55z M224,73.73h0.24h3.7h0.42c-0.04-0.11-0.11-0.22-0.15-0.34
		c-0.36-0.77-1.12-1.34-2.03-1.34c-0.95,0-1.72,0.6-2.07,1.41C224.06,73.56,224.01,73.65,224,73.73z"/>
	<path d="M237.6,70.92l-4.01,8.89h-1.5l0.77-1.65l0.28-0.64l-0.27-0.6l-2.44-6h1.36l1.74,4.4l0.29,0.81l0.35-0.8l2-4.41H237.6z"/>
	<path d="M171.27,100.69c-0.9,1.42-2.46,2.35-4.24,2.35c-2.75,0-4.93-2.28-4.93-5.07c0-2.8,2.19-5.06,4.93-5.06
		c1.68,0,3.17,0.81,4.09,2.12l-1.11,0.77c-0.7-0.98-1.65-1.6-2.98-1.6c-1.93,0-3.54,1.72-3.54,3.77c0,2.03,1.61,3.77,3.54,3.77
		c1.29,0,2.33-0.66,2.97-1.6L171.27,100.69z"/>
	<path d="M179.51,99.36c0,2.02-1.65,3.66-3.67,3.66c-2.02,0-3.61-1.64-3.61-3.66c0-2.02,1.6-3.64,3.61-3.64
		C177.86,95.72,179.51,97.34,179.51,99.36z M178.17,99.36c0-1.34-0.97-2.38-2.33-2.38c-1.33,0-2.34,1.04-2.34,2.38
		c0,1.36,1.01,2.4,2.34,2.4C177.2,101.76,178.17,100.72,178.17,99.36z"/>
	<path d="M182.34,102.89h-1.44v-7h1.44v0.52l-0.03,0.39c0.1-0.1,0.21-0.27,0.31-0.35c0.52-0.42,1.13-0.62,1.83-0.62
		c2.48,0,3.67,1.61,3.67,3.54v3.52h-1.44v-0.83v-2.69c0-1.25-0.73-2.17-2.14-2.17c-1.23,0-2.2,0.92-2.2,2.17V102.89z"/>
	<path d="M194.36,97.2h-1.76v5.7h-1.42v-5.7h-1.86v-1.3h1.86v-2.82h1.42v2.82h1.76V97.2z"/>
	<path d="M202.26,100.55c-0.67,1.64-2.04,2.45-3.47,2.45c-1.99,0-3.59-1.64-3.59-3.61c0-1.99,1.6-3.63,3.59-3.63
		c1.97,0,3.57,1.64,3.57,3.63c0,0.13,0,0.28-0.01,0.39h-1.29h-0.71h-3.77c0.18,1.08,1.08,1.92,2.21,1.92c0.87,0,1.62-0.42,1.99-1.15
		C201.06,100.55,201.88,100.55,202.26,100.55z M196.62,98.73h0.24h3.7h0.42c-0.04-0.11-0.11-0.22-0.15-0.34
		c-0.36-0.77-1.12-1.34-2.03-1.34c-0.95,0-1.72,0.6-2.07,1.41C196.67,98.56,196.63,98.65,196.62,98.73z"/>
	<path d="M207.09,99.82l1.83,3.07h-1.54l-1.15-1.97l-0.32-0.62l-0.34,0.59l-1.16,2h-1.47l1.79-3.05l0.36-0.56l-0.34-0.59l-1.62-2.79
		h1.49l0.98,1.78l0.34,0.59l0.34-0.58l1.11-1.79h1.49l-1.81,2.79l-0.34,0.52L207.09,99.82z"/>
	<path d="M214.62,97.2h-1.76v5.7h-1.42v-5.7h-1.86v-1.3h1.86v-2.82h1.42v2.82h1.76V97.2z"/>
	<path d="M215.8,99.54V95.9h1.44v1.01v2.63c0,1.23,0.8,2.13,2.14,2.13c1.01,0,2.1-0.9,2.12-2.12v-0.08v-2.55V95.9h1.4v6.95h-1.42
		v-0.88c-0.55,0.6-1.26,1.02-2.1,1.02C217.27,102.99,215.8,101.45,215.8,99.54z"/>
	<path d="M231.82,95.87v6.96h-1.39v-0.5v-0.35c-0.07,0.07-0.15,0.17-0.25,0.24c-0.6,0.49-1.37,0.79-2.23,0.79c-2,0-3.6-1.62-3.6-3.6
		c0-1.97,1.6-3.6,3.6-3.6c0.83,0,1.6,0.29,2.23,0.77c0.08,0.08,0.17,0.2,0.25,0.28v-0.32v-0.66H231.82z M230.44,99.43
		c0-1.27-1.23-2.31-2.49-2.31c-1.27,0-2.28,1.04-2.28,2.31c0,1.26,1.01,2.28,2.28,2.28C229.21,101.71,230.44,100.72,230.44,99.43z"
		/>
	<path d="M235.2,102.89h-1.39v-9.83h1.39V102.89z"/>
	<path d="M243.03,102.89h-1.53v-9.81h1.53V102.89z"/>
	<path d="M246.09,102.89h-1.44v-7h1.44v0.52l-0.03,0.39c0.1-0.1,0.21-0.27,0.31-0.35c0.52-0.42,1.13-0.62,1.83-0.62
		c2.48,0,3.67,1.61,3.67,3.54v3.52h-1.44v-0.83v-2.69c0-1.25-0.73-2.17-2.14-2.17c-1.23,0-2.2,0.92-2.2,2.17V102.89z"/>
	<path d="M258.12,97.2h-1.76v5.7h-1.42v-5.7h-1.86v-1.3h1.86v-2.82h1.42v2.82h1.76V97.2z"/>
	<path d="M266.02,100.55c-0.67,1.64-2.04,2.45-3.47,2.45c-1.99,0-3.59-1.64-3.59-3.61c0-1.99,1.6-3.63,3.59-3.63
		c1.98,0,3.57,1.64,3.57,3.63c0,0.13,0,0.28-0.01,0.39h-1.29h-0.71h-3.77c0.18,1.08,1.08,1.92,2.21,1.92c0.87,0,1.62-0.42,1.99-1.15
		C264.81,100.55,265.64,100.55,266.02,100.55z M260.37,98.73h0.24h3.7h0.42c-0.04-0.11-0.11-0.22-0.15-0.34
		c-0.36-0.77-1.12-1.34-2.03-1.34c-0.95,0-1.72,0.6-2.07,1.41C260.43,98.56,260.39,98.65,260.37,98.73z"/>
	<path d="M270.96,95.86c0,0.69,0,1.28,0,1.28c0.01,0-1.97-0.14-2.23,1.53v4.23h-1.47v-7h1.47v0.64
		C269.3,96.07,269.51,95.86,270.96,95.86z"/>
	<path d="M278.07,95.92l-3.28,7.23l-3.07-7.23h1.53l1.08,2.73l0.46,1.29l0.5-1.26l1.18-2.76H278.07z"/>
	<path d="M280.43,95.97v6.91h-1.42v-6.91H280.43z M280.39,94.42h-1.33V93.1h1.33V94.42z"/>
	<path d="M288.49,100.55c-0.67,1.64-2.05,2.45-3.47,2.45c-1.99,0-3.59-1.64-3.59-3.61c0-1.99,1.6-3.63,3.59-3.63
		c1.98,0,3.57,1.64,3.57,3.63c0,0.13,0,0.28-0.01,0.39h-1.29h-0.71h-3.77c0.18,1.08,1.08,1.92,2.21,1.92c0.87,0,1.62-0.42,1.99-1.15
		C287.28,100.55,288.11,100.55,288.49,100.55z M282.84,98.73h0.24h3.7h0.42c-0.04-0.11-0.11-0.22-0.15-0.34
		c-0.36-0.77-1.12-1.34-2.03-1.34c-0.95,0-1.72,0.6-2.07,1.41C282.9,98.56,282.86,98.65,282.84,98.73z"/>
	<path d="M299.95,95.89l-2.77,7.19l-2.21-4.12l-0.38-0.81l-0.36,0.83l-2.07,4.1l-3-7.19h1.57l1.4,3.54l0.25,0.69l0.29-0.66
		l1.89-3.74l2.03,3.75l0.32,0.66l0.22-0.64l1.34-3.6H299.95z"/>
	<path d="M169.94,124.84c0,1.68-1.26,3.05-2.72,3.05h-4.54v-9.83h4.41c1.3,0.04,2.31,0.99,2.31,2.41c0,0.76-0.56,1.53-1.09,1.83
		c-0.06,0.04-0.15,0.06-0.15,0.06s0.1,0.01,0.18,0.04C169.15,122.72,169.94,123.73,169.94,124.84z M164.12,119.15v2.75
		c0.78,0,2.45,0,2.45,0c0.97,0,1.4-0.76,1.4-1.44c0-0.64-0.27-1.3-1.25-1.3H164.12z M168.48,124.84c0-0.94-0.22-1.65-1.85-1.65
		c0,0-1.65,0-2.51,0v3.39h3.1C168.03,126.57,168.48,125.76,168.48,124.84z"/>
	<path d="M178.38,120.87v6.96h-1.39v-0.5v-0.35c-0.07,0.07-0.15,0.17-0.25,0.24c-0.6,0.49-1.37,0.79-2.23,0.79
		c-2,0-3.6-1.62-3.6-3.6c0-1.97,1.6-3.6,3.6-3.6c0.83,0,1.6,0.29,2.23,0.77c0.08,0.08,0.17,0.2,0.25,0.28v-0.32v-0.66H178.38z
		 M177,124.43c0-1.27-1.23-2.31-2.49-2.31c-1.27,0-2.28,1.04-2.28,2.31c0,1.26,1.01,2.28,2.28,2.28
		C175.77,126.71,177,125.72,177,124.43z"/>
	<path d="M185,126.04c-0.07,1.37-1.44,1.99-2.62,1.93c-1.25-0.08-1.99-0.62-2.41-1.58l1.25-0.43c0.21,0.45,0.6,0.71,1.22,0.73
		c0.67,0.04,1.23-0.25,1.25-0.73c0.04-0.59-0.25-0.97-1.15-1.02c-0.04,0-0.06,0-0.1-0.03c-1.3-0.1-2.24-1.08-2.17-2.27
		c0.06-1.13,1.23-1.95,2.51-1.88c0.97,0.07,1.64,0.46,2.06,1.09l-0.97,0.67c-0.24-0.36-0.66-0.62-1.13-0.63
		c-0.73-0.04-1.13,0.29-1.18,0.83c-0.03,0.48,0.34,1.01,1.04,1.05C184.12,123.84,185.08,124.71,185,126.04z"/>
	<path d="M192.99,125.55c-0.67,1.64-2.04,2.45-3.47,2.45c-1.99,0-3.59-1.64-3.59-3.61c0-1.99,1.6-3.63,3.59-3.63
		c1.97,0,3.57,1.64,3.57,3.63c0,0.13,0,0.28-0.01,0.39h-1.29h-0.71h-3.77c0.18,1.08,1.08,1.92,2.21,1.92c0.87,0,1.62-0.42,1.99-1.15
		C191.79,125.55,192.62,125.55,192.99,125.55z M187.35,123.73h0.24h3.7h0.42c-0.04-0.11-0.11-0.22-0.15-0.34
		c-0.36-0.77-1.12-1.34-2.03-1.34c-0.95,0-1.72,0.6-2.07,1.41C187.4,123.56,187.36,123.65,187.35,123.73z"/>
	<path d="M195.61,127.89h-1.39v-9.83h1.39V127.89z"/>
	<path d="M198.55,120.97v6.91h-1.41v-6.91H198.55z M198.51,119.42h-1.33v-1.32h1.33V119.42z"/>
	<path d="M201.53,127.89h-1.44v-7h1.44v0.52l-0.03,0.39c0.1-0.1,0.21-0.27,0.31-0.35c0.52-0.42,1.13-0.62,1.83-0.62
		c2.48,0,3.67,1.61,3.67,3.54v3.52h-1.44v-0.83v-2.69c0-1.25-0.73-2.17-2.14-2.17c-1.23,0-2.2,0.92-2.2,2.17V127.89z"/>
	<path d="M215.55,125.55c-0.67,1.64-2.04,2.45-3.47,2.45c-1.99,0-3.59-1.64-3.59-3.61c0-1.99,1.6-3.63,3.59-3.63
		c1.97,0,3.57,1.64,3.57,3.63c0,0.13,0,0.28-0.01,0.39h-1.29h-0.71h-3.77c0.18,1.08,1.08,1.92,2.21,1.92c0.87,0,1.62-0.42,1.99-1.15
		C214.34,125.55,215.17,125.55,215.55,125.55z M209.9,123.73h0.24h3.7h0.42c-0.04-0.11-0.11-0.22-0.15-0.34
		c-0.36-0.77-1.12-1.34-2.03-1.34c-0.95,0-1.72,0.6-2.07,1.41C209.96,123.56,209.92,123.65,209.9,123.73z"/>
	<path d="M228.32,118.11v1.4h-2.94v8.36h-1.65v-8.36h-2.86v-1.4H228.32z"/>
	<path d="M235.86,125.55c-0.67,1.64-2.04,2.45-3.47,2.45c-1.99,0-3.59-1.64-3.59-3.61c0-1.99,1.6-3.63,3.59-3.63
		c1.97,0,3.57,1.64,3.57,3.63c0,0.13,0,0.28-0.01,0.39h-1.29h-0.71h-3.77c0.18,1.08,1.08,1.92,2.21,1.92c0.87,0,1.62-0.42,1.99-1.15
		C234.66,125.55,235.48,125.55,235.86,125.55z M230.22,123.73h0.24h3.7h0.42c-0.04-0.11-0.11-0.22-0.15-0.34
		c-0.36-0.77-1.12-1.34-2.03-1.34c-0.95,0-1.72,0.6-2.07,1.41C230.27,123.56,230.23,123.65,230.22,123.73z"/>
	<path d="M241.71,126.04c-0.07,1.37-1.44,1.99-2.62,1.93c-1.25-0.08-1.99-0.62-2.41-1.58l1.25-0.43c0.21,0.45,0.6,0.71,1.22,0.73
		c0.67,0.04,1.23-0.25,1.25-0.73c0.04-0.59-0.25-0.97-1.15-1.02c-0.04,0-0.06,0-0.1-0.03c-1.3-0.1-2.24-1.08-2.17-2.27
		c0.06-1.13,1.23-1.95,2.51-1.88c0.97,0.07,1.64,0.46,2.06,1.09l-0.97,0.67c-0.24-0.36-0.66-0.62-1.13-0.63
		c-0.73-0.04-1.13,0.29-1.18,0.83c-0.03,0.48,0.34,1.01,1.04,1.05C240.83,123.84,241.8,124.71,241.71,126.04z"/>
	<path d="M247.72,122.2h-1.76v5.7h-1.42v-5.7h-1.86v-1.3h1.86v-2.82h1.42v2.82h1.76V122.2z"/>
	<path d="M250.31,120.97v6.91h-1.41v-6.91H250.31z M250.26,119.42h-1.33v-1.32h1.33V119.42z"/>
	<path d="M253.29,127.89h-1.44v-7h1.44v0.52l-0.03,0.39c0.1-0.1,0.21-0.27,0.31-0.35c0.52-0.42,1.13-0.62,1.83-0.62
		c2.48,0,3.67,1.61,3.67,3.54v3.52h-1.44v-0.83v-2.69c0-1.25-0.73-2.17-2.14-2.17c-1.23,0-2.2,0.92-2.2,2.17V127.89z"/>
	<path d="M266.34,127.08c-0.62,0.57-1.46,0.94-2.41,0.94c-1.96,0-3.56-1.61-3.56-3.57c0-1.95,1.6-3.57,3.56-3.57
		c0.85,0,1.61,0.35,2.21,0.84c0.08,0.06,0.15,0.14,0.22,0.24v-0.32v-0.76h1.46v7.02c0,2.09-1.79,3.67-3.75,3.67
		c-1.68,0-2.82-0.95-3.38-2.48l1.22-0.52c0.27,0.87,1.19,1.6,2.16,1.6c1.26,0,2.27-1,2.27-2.26V127.08z M266.32,124.47
		c0-1.3-1.06-2.24-2.34-2.24s-2.23,0.94-2.23,2.24c0,1.26,0.95,2.14,2.23,2.14S266.32,125.73,266.32,124.47z"/>
</g>
<g>
	<path d="M323.66,76.31h-4.23c-0.34,0.87-0.62,1.57-0.62,1.57h-1.57l4.3-10.03l4.33,10.03h-1.57
		C324.3,77.88,324.02,77.18,323.66,76.31z M323.17,75.03c0,0-0.25-0.55-0.35-0.8c-0.21-0.59-0.42-1.06-0.52-1.34
		c-0.48-1.19-0.73-1.99-0.73-1.99s-0.31,0.81-0.78,1.99c-0.11,0.31-0.29,0.8-0.52,1.34c-0.1,0.25-0.34,0.8-0.34,0.8
		s0.2-0.03,1.64-0.03C323,75.01,323.17,75.03,323.17,75.03z"/>
	<path d="M330.59,71.98H329v5.91h-1.43v-5.91h-0.98V70.9h0.98v-1.4h0.01c-0.01-0.03-0.01-0.04-0.01-0.06c0-0.95,0.94-1.61,1.91-1.65
		c1.06-0.03,1.42,0.46,1.67,0.7l-0.79,0.95c-0.32-0.36-0.7-0.32-0.88-0.28c-0.27,0.07-0.48,0.31-0.48,0.71v1.02h1.58V71.98z"/>
	<path d="M335.92,71.98h-1.58v5.91h-1.43v-5.91h-0.98V70.9h0.98v-1.4h0.01c-0.01-0.03-0.01-0.04-0.01-0.06
		c0-0.95,0.94-1.61,1.9-1.65c1.06-0.03,1.42,0.46,1.67,0.7l-0.78,0.95c-0.32-0.36-0.7-0.32-0.88-0.28
		c-0.27,0.07-0.48,0.31-0.48,0.71v1.02h1.58V71.98z"/>
	<path d="M338.79,70.97v6.91h-1.42v-6.91H338.79z M338.75,69.42h-1.33V68.1h1.33V69.42z"/>
	<path d="M341.77,77.89h-1.44v-7h1.44v0.52l-0.03,0.39c0.1-0.1,0.21-0.27,0.31-0.35c0.52-0.42,1.13-0.62,1.83-0.62
		c2.48,0,3.67,1.61,3.67,3.54v3.52h-1.44v-0.83v-2.69c0-1.25-0.73-2.17-2.14-2.17c-1.23,0-2.2,0.92-2.2,2.17V77.89z"/>
	<path d="M350.48,70.97v6.91h-1.41v-6.91H350.48z M350.44,69.42h-1.33V68.1h1.33V69.42z"/>
	<path d="M356.54,72.2h-1.76v5.7h-1.42v-5.7h-1.86v-1.3h1.86v-2.82h1.42v2.82h1.76V72.2z"/>
	<path d="M364.58,70.92l-4.01,8.89h-1.5l0.77-1.65l0.28-0.64l-0.27-0.6l-2.44-5.99h1.36l1.74,4.4l0.29,0.81l0.35-0.8l2-4.41H364.58z
		"/>
	<path d="M377.84,73.02c0,2.68-2.07,4.87-4.72,4.87h-0.97h-1.47v-9.78h1.47h0.97C375.77,68.11,377.84,70.33,377.84,73.02z
		 M376.41,73.02c0-1.92-1.47-3.6-3.29-3.6h-1.01v7.16h1.01C374.94,76.57,376.41,74.91,376.41,73.02z"/>
	<path d="M380.4,70.97v6.91h-1.41v-6.91H380.4z M380.36,69.42h-1.33V68.1h1.33V69.42z"/>
	<path d="M388.94,70.87v6.96h-1.39v-0.5v-0.35c-0.07,0.07-0.15,0.17-0.25,0.24c-0.6,0.49-1.37,0.79-2.23,0.79c-2,0-3.6-1.62-3.6-3.6
		c0-1.97,1.6-3.6,3.6-3.6c0.83,0,1.6,0.29,2.23,0.77c0.08,0.08,0.17,0.2,0.25,0.28v-0.32v-0.66H388.94z M387.57,74.43
		c0-1.27-1.23-2.31-2.49-2.31c-1.27,0-2.28,1.04-2.28,2.31c0,1.26,1.01,2.28,2.28,2.28C386.33,76.71,387.57,75.72,387.57,74.43z"/>
	<path d="M396.56,77.08c-0.62,0.57-1.46,0.94-2.41,0.94c-1.96,0-3.56-1.61-3.56-3.57c0-1.95,1.6-3.57,3.56-3.57
		c0.85,0,1.61,0.35,2.21,0.84c0.08,0.06,0.15,0.14,0.22,0.24v-0.32v-0.76h1.46v7.02c0,2.09-1.79,3.67-3.75,3.67
		c-1.68,0-2.82-0.95-3.38-2.48l1.22-0.52c0.27,0.87,1.19,1.6,2.16,1.6c1.26,0,2.27-1,2.27-2.26V77.08z M396.54,74.47
		c0-1.3-1.06-2.24-2.34-2.24s-2.23,0.94-2.23,2.24c0,1.26,0.95,2.14,2.23,2.14S396.54,75.73,396.54,74.47z"/>
	<path d="M403.42,70.86c0,0.69,0,1.28,0,1.28c0.01,0-1.98-0.14-2.23,1.53v4.23h-1.47v-7h1.47v0.64
		C401.76,71.07,401.97,70.86,403.42,70.86z"/>
	<path d="M411.82,70.87v6.96h-1.39v-0.5v-0.35c-0.07,0.07-0.15,0.17-0.25,0.24c-0.6,0.49-1.37,0.79-2.23,0.79c-2,0-3.6-1.62-3.6-3.6
		c0-1.97,1.6-3.6,3.6-3.6c0.83,0,1.6,0.29,2.23,0.77c0.08,0.08,0.17,0.2,0.25,0.28v-0.32v-0.66H411.82z M410.44,74.43
		c0-1.27-1.23-2.31-2.49-2.31c-1.27,0-2.28,1.04-2.28,2.31c0,1.26,1.01,2.28,2.28,2.28C409.21,76.71,410.44,75.72,410.44,74.43z"/>
	<path d="M415.36,77.89h-1.43v-7.03h1.43v0.41v0.48c0.1-0.13,0.22-0.27,0.32-0.34c0.53-0.41,1.2-0.6,1.92-0.6
		c1.26,0,1.95,0.35,2.66,1.29c0.06,0.06,0.13,0.18,0.15,0.27c0.07-0.08,0.13-0.18,0.18-0.27c0.67-0.85,1.57-1.29,2.75-1.29
		c2,0,3.53,1.62,3.53,3.56v3.53h-1.43v-0.83v-2.7c0-1.23-0.84-2.21-2.1-2.21c-1.23,0-2.18,0.95-2.21,2.17c0,0.01,0,0.04,0,0.04v3.53
		h-0.04h-1.37v-3.53c0,0,0-0.03,0-0.04c-0.03-1.22-0.9-2.17-2.12-2.17c-1.23,0-2.23,0.98-2.24,2.21V77.89z"/>
	<path d="M321.04,100.45c-0.84,0-1.53,0-1.53,0v2.44h-1.47v-9.81h1.25h0.22h2c1.76,0.08,3.18,1.7,3.18,3.67
		c0,1.51-0.81,2.83-1.99,3.39C322.71,100.15,322.16,100.45,321.04,100.45z M319.51,99.14h1.86c1.08-0.06,1.97-1.08,1.97-2.38
		c0-1.2-0.81-2.21-1.83-2.35h-2V99.14z"/>
	<path d="M329.89,95.86c0,0.69,0,1.28,0,1.28c0.01,0-1.98-0.14-2.23,1.53v4.23h-1.47v-7h1.47v0.64
		C328.23,96.07,328.44,95.86,329.89,95.86z"/>
	<path d="M338.15,99.36c0,2.02-1.65,3.66-3.67,3.66c-2.02,0-3.61-1.64-3.61-3.66c0-2.02,1.6-3.64,3.61-3.64
		C336.5,95.72,338.15,97.34,338.15,99.36z M336.8,99.36c0-1.34-0.97-2.38-2.33-2.38c-1.33,0-2.34,1.04-2.34,2.38
		c0,1.36,1.01,2.4,2.34,2.4C335.84,101.76,336.8,100.72,336.8,99.36z"/>
	<path d="M344.06,97.2h-1.76v5.7h-1.42v-5.7h-1.86v-1.3h1.86v-2.82h1.42v2.82h1.76V97.2z"/>
	<path d="M352.3,99.36c0,2.02-1.65,3.66-3.67,3.66c-2.02,0-3.61-1.64-3.61-3.66c0-2.02,1.6-3.64,3.61-3.64
		C350.65,95.72,352.3,97.34,352.3,99.36z M350.96,99.36c0-1.34-0.97-2.38-2.33-2.38c-1.33,0-2.34,1.04-2.34,2.38
		c0,1.36,1.01,2.4,2.34,2.4C349.99,101.76,350.96,100.72,350.96,99.36z"/>
	<path d="M358.21,97.2h-1.76v5.7h-1.42v-5.7h-1.86v-1.3h1.86v-2.82h1.42v2.82h1.76V97.2z"/>
	<path d="M366.25,95.92l-4.01,8.89h-1.5l0.77-1.65l0.28-0.64l-0.27-0.6l-2.44-6h1.36l1.74,4.4l0.29,0.81l0.35-0.8l2-4.41H366.25z"/>
	<path d="M371.35,102.96c-0.78,0-1.76-0.14-2.35-0.81v3.66h-1.44v-9.93H369v0.55c0.69-0.49,1.39-0.64,2.35-0.64
		c1.99,0,3.6,1.4,3.6,3.57C374.96,101.34,373.57,102.96,371.35,102.96z M371.35,97.05c-1.29,0-2.34,1.01-2.34,2.3
		c0,1.27,1.05,2.27,2.34,2.27c1.25,0,2.23-1,2.23-2.27C373.58,98.06,372.6,97.05,371.35,97.05z"/>
	<path d="M377.88,95.97v6.91h-1.41v-6.91H377.88z M377.83,94.42h-1.33V93.1h1.33V94.42z"/>
	<path d="M380.86,102.89h-1.44v-7h1.44v0.52l-0.03,0.39c0.1-0.1,0.21-0.27,0.31-0.35c0.52-0.42,1.13-0.62,1.83-0.62
		c2.48,0,3.67,1.61,3.67,3.54v3.52h-1.44v-0.83v-2.69c0-1.25-0.73-2.17-2.14-2.17c-1.23,0-2.2,0.92-2.2,2.17V102.89z"/>
	<path d="M393.91,102.08c-0.62,0.57-1.46,0.94-2.41,0.94c-1.96,0-3.56-1.61-3.56-3.57c0-1.95,1.6-3.57,3.56-3.57
		c0.85,0,1.61,0.35,2.21,0.84c0.08,0.06,0.15,0.14,0.22,0.24v-0.32v-0.76h1.46v7.02c0,2.09-1.79,3.67-3.75,3.67
		c-1.68,0-2.82-0.95-3.38-2.48l1.22-0.52c0.27,0.87,1.19,1.6,2.16,1.6c1.26,0,2.27-1,2.27-2.26V102.08z M393.9,99.47
		c0-1.3-1.06-2.24-2.34-2.24s-2.23,0.94-2.23,2.24c0,1.26,0.95,2.14,2.23,2.14S393.9,100.73,393.9,99.47z"/>
	<path d="M408.6,93.11v1.4h-2.94v8.36H404v-8.36h-2.86v-1.4H408.6z"/>
	<path d="M416.14,100.55c-0.67,1.64-2.04,2.45-3.47,2.45c-1.99,0-3.59-1.64-3.59-3.61c0-1.99,1.6-3.63,3.59-3.63
		c1.97,0,3.57,1.64,3.57,3.63c0,0.13,0,0.28-0.01,0.39h-1.29h-0.71h-3.77c0.18,1.08,1.08,1.92,2.21,1.92c0.87,0,1.62-0.42,1.99-1.15
		C414.94,100.55,415.76,100.55,416.14,100.55z M410.5,98.73h0.24h3.7h0.42c-0.04-0.11-0.11-0.22-0.15-0.34
		c-0.36-0.77-1.12-1.34-2.03-1.34c-0.95,0-1.72,0.6-2.07,1.41C410.55,98.56,410.51,98.65,410.5,98.73z"/>
	<path d="M421.99,101.04c-0.07,1.37-1.44,1.99-2.62,1.93c-1.25-0.08-1.99-0.62-2.41-1.58l1.25-0.43c0.21,0.45,0.6,0.71,1.22,0.73
		c0.67,0.04,1.23-0.25,1.25-0.73c0.04-0.59-0.25-0.97-1.15-1.02c-0.04,0-0.06,0-0.1-0.03c-1.3-0.1-2.24-1.08-2.17-2.27
		c0.06-1.13,1.23-1.95,2.51-1.88c0.97,0.07,1.64,0.46,2.06,1.09l-0.97,0.67c-0.24-0.36-0.66-0.62-1.13-0.63
		c-0.73-0.04-1.13,0.29-1.18,0.83c-0.03,0.48,0.34,1.01,1.04,1.05C421.11,98.84,422.08,99.71,421.99,101.04z"/>
	<path d="M428,97.2h-1.77v5.7h-1.41v-5.7h-1.86v-1.3h1.86v-2.82h1.41v2.82H428V97.2z"/>
	<path d="M323.66,126.31h-4.23c-0.34,0.87-0.62,1.57-0.62,1.57h-1.57l4.3-10.03l4.33,10.03h-1.57
		C324.3,127.88,324.02,127.18,323.66,126.31z M323.17,125.03c0,0-0.25-0.55-0.35-0.8c-0.21-0.59-0.42-1.06-0.52-1.34
		c-0.48-1.19-0.73-1.99-0.73-1.99s-0.31,0.81-0.78,1.99c-0.11,0.31-0.29,0.8-0.52,1.34c-0.1,0.25-0.34,0.8-0.34,0.8
		s0.2-0.03,1.64-0.03C323,125,323.17,125.03,323.17,125.03z"/>
	<path d="M332.33,118.1l-4.89,9.79h-1.29l4.89-9.79H332.33z"/>
	<path d="M340.94,124.84c0,1.68-1.26,3.05-2.72,3.05h-4.54v-9.83h4.41c1.3,0.04,2.31,0.99,2.31,2.41c0,0.76-0.56,1.53-1.09,1.83
		c-0.06,0.04-0.15,0.06-0.15,0.06s0.1,0.01,0.18,0.04C340.15,122.72,340.94,123.73,340.94,124.84z M335.12,119.15v2.75
		c0.78,0,2.45,0,2.45,0c0.97,0,1.4-0.76,1.4-1.44c0-0.64-0.27-1.3-1.25-1.3H335.12z M339.48,124.84c0-0.94-0.22-1.65-1.85-1.65
		c0,0-1.65,0-2.51,0v3.39h3.09C339.03,126.57,339.48,125.76,339.48,124.84z"/>
	<path d="M353.84,118.11v1.4h-2.94v8.36h-1.65v-8.36h-2.86v-1.4H353.84z"/>
	<path d="M361.39,125.55c-0.67,1.64-2.04,2.45-3.47,2.45c-1.99,0-3.59-1.64-3.59-3.61c0-1.99,1.6-3.63,3.59-3.63
		c1.97,0,3.57,1.64,3.57,3.63c0,0.13,0,0.28-0.01,0.39h-1.29h-0.71h-3.77c0.18,1.08,1.08,1.92,2.21,1.92c0.87,0,1.62-0.42,1.99-1.15
		C360.18,125.55,361.01,125.55,361.39,125.55z M355.74,123.73h0.24h3.7h0.42c-0.04-0.11-0.11-0.22-0.15-0.34
		c-0.36-0.77-1.12-1.34-2.03-1.34c-0.95,0-1.72,0.6-2.07,1.41C355.8,123.56,355.76,123.65,355.74,123.73z"/>
	<path d="M367.24,126.04c-0.07,1.37-1.44,1.99-2.62,1.93c-1.25-0.08-1.99-0.62-2.41-1.58l1.25-0.43c0.21,0.45,0.6,0.71,1.22,0.73
		c0.67,0.04,1.23-0.25,1.25-0.73c0.04-0.59-0.25-0.97-1.15-1.02c-0.04,0-0.06,0-0.1-0.03c-1.3-0.1-2.24-1.08-2.17-2.27
		c0.06-1.13,1.23-1.95,2.51-1.88c0.97,0.07,1.64,0.46,2.06,1.09l-0.97,0.67c-0.24-0.36-0.66-0.62-1.13-0.63
		c-0.73-0.04-1.13,0.29-1.18,0.83c-0.03,0.48,0.34,1.01,1.04,1.05C366.36,123.84,367.32,124.71,367.24,126.04z"/>
	<path d="M373.25,122.2h-1.76v5.7h-1.42v-5.7h-1.86v-1.3h1.86v-2.82h1.42v2.82h1.76V122.2z"/>
	<path d="M375.83,120.97v6.91h-1.42v-6.91H375.83z M375.79,119.42h-1.33v-1.32h1.33V119.42z"/>
	<path d="M378.82,127.89h-1.44v-7h1.44v0.52l-0.03,0.39c0.1-0.1,0.21-0.27,0.31-0.35c0.52-0.42,1.13-0.62,1.83-0.62
		c2.48,0,3.67,1.61,3.67,3.54v3.52h-1.44v-0.83v-2.69c0-1.25-0.73-2.17-2.14-2.17c-1.23,0-2.2,0.92-2.2,2.17V127.89z"/>
	<path d="M391.87,127.08c-0.62,0.57-1.46,0.94-2.41,0.94c-1.96,0-3.56-1.61-3.56-3.57c0-1.95,1.6-3.57,3.56-3.57
		c0.85,0,1.61,0.35,2.21,0.84c0.08,0.06,0.15,0.14,0.22,0.24v-0.32v-0.76h1.46v7.02c0,2.09-1.79,3.67-3.75,3.67
		c-1.68,0-2.82-0.95-3.38-2.48l1.22-0.52c0.27,0.87,1.19,1.6,2.16,1.6c1.26,0,2.27-1,2.27-2.26V127.08z M391.85,124.47
		c0-1.3-1.06-2.24-2.34-2.24c-1.27,0-2.23,0.94-2.23,2.24c0,1.26,0.95,2.14,2.23,2.14C390.79,126.62,391.85,125.73,391.85,124.47z"
		/>
</g>
<g>
	<polygon class="st0" points="685.09,50 547.45,50 547.45,0 685.09,0 721,25 	"/>
	<polygon class="st1" points="547.96,50 410.32,50 410.32,0 547.96,0 583.87,25 	"/>
	<polygon class="st2" points="410.83,50 273.19,50 273.19,0 410.83,0 446.74,25 	"/>
	<polygon class="st3" points="273.09,50 129,50 129,0 273.09,0 310.68,25 	"/>
	<polygon class="st4" points="130.07,50 0,50 0,0 130.07,0 164,25 	"/>
	<g>
		<g>
			<path class="st5" d="M49.61,23.17c0,1.2-0.38,2.09-1.12,2.66c-0.75,0.57-1.92,0.85-3.5,0.85h-1.16v2.15h1.55v1.88h-5.82v-1.88
				h1.39v-7.29h-1.39v-1.88h5.37c1.58,0,2.75,0.29,3.52,0.86S49.61,21.98,49.61,23.17z M46.58,23.17c0-0.46-0.09-0.81-0.28-1.05
				c-0.19-0.24-0.45-0.4-0.8-0.47c-0.35-0.07-0.75-0.11-1.21-0.11h-0.45v3.31h0.45c0.61,0,1.08-0.06,1.42-0.19
				c0.33-0.12,0.56-0.31,0.69-0.55C46.51,23.87,46.58,23.56,46.58,23.17z"/>
			<path class="st5" d="M56.03,21.53v7.29h3.26v-3.41h2.16v5.28h-9.87v-1.88h1.57v-7.29h-1.57v-1.88h6.07v1.88H56.03z"/>
			<path class="st5" d="M70.87,21.53l2.31,7.29h1.32v1.88h-5.43v-1.88h1.41l-0.53-1.88h-2.86l-0.59,1.88h1.47v1.88H63.1v-1.88h1.36
				l2.15-7.29h-1.47v-1.88h7.22v1.88H70.87z M68.57,21.98l-0.99,3.33h1.92L68.57,21.98z"/>
			<path class="st5" d="M85.11,21.53h-1.42v-1.88h4.93v1.88h-1.54v9.24h-2.45l-4.78-8.19v6.24h1.38v1.88h-4.83v-1.88h1.49v-7.29
				h-1.49v-1.88h4.64l4.06,6.9V21.53z"/>
		</g>
	</g>
	<g>
		<path class="st5" d="M188.78,21.67c0,0.67-0.16,1.24-0.47,1.7c-0.31,0.46-0.79,0.83-1.43,1.12l1.78,3.33h1.43v1.88h-3.36
			l-2.49-4.83h-1.26v2.95h1.38v1.88h-5.78v-1.88h1.52v-7.29h-1.52v-1.88h6.3c1.22,0,2.18,0.26,2.87,0.77
			C188.43,19.95,188.78,20.69,188.78,21.67z M185.77,21.79c0-0.42-0.13-0.73-0.4-0.94s-0.63-0.31-1.1-0.31h-1.3v2.56h1.05
			C185.19,23.1,185.77,22.66,185.77,21.79z"/>
		<path class="st5" d="M199.71,22.15v-1.62h-3.42v2.53h2.76v1.86h-2.76v2.89h3.42v-1.63h2.12v3.51h-9.73v-1.88h1.33v-7.29h-1.33
			v-1.88h9.73v3.49H199.71z"/>
		<path class="st5" d="M209.51,19.57v-0.92h1.88V22h-1.88c-0.08-0.54-0.25-0.94-0.52-1.21c-0.27-0.27-0.62-0.41-1.05-0.41
			c-0.3,0-0.56,0.09-0.78,0.26s-0.32,0.39-0.32,0.64c0,0.23,0.07,0.43,0.21,0.59s0.31,0.31,0.53,0.42c0.21,0.12,0.54,0.27,0.97,0.46
			l0.45,0.19c0.97,0.42,1.71,0.91,2.2,1.48c0.5,0.57,0.74,1.27,0.74,2.12c0,1.01-0.29,1.81-0.87,2.4c-0.58,0.59-1.36,0.88-2.34,0.88
			c-0.96,0-1.7-0.36-2.23-1.08v0.94h-1.88v-3.75h1.88c0.04,0.65,0.21,1.14,0.5,1.48c0.29,0.34,0.69,0.51,1.2,0.51
			c0.34,0,0.62-0.11,0.85-0.34c0.23-0.23,0.35-0.51,0.35-0.83c0-0.33-0.13-0.64-0.4-0.91c-0.27-0.28-0.72-0.55-1.36-0.83
			c-1.09-0.48-1.88-0.99-2.37-1.55c-0.49-0.55-0.74-1.19-0.74-1.9c0-0.56,0.13-1.07,0.39-1.54s0.62-0.83,1.07-1.09
			c0.46-0.27,0.95-0.4,1.49-0.4c0.43,0,0.82,0.09,1.17,0.26S209.28,19.23,209.51,19.57z"/>
		<path class="st5" d="M221.9,22.15v-1.62h-3.42v2.53h2.76v1.86h-2.76v2.89h3.42v-1.63h2.12v3.51h-9.73v-1.88h1.33v-7.29h-1.33
			v-1.88h9.73v3.49H221.9z"/>
		<path class="st5" d="M233.83,20.53l2.31,7.29h1.32v1.88h-5.43v-1.88h1.41l-0.53-1.88h-2.86l-0.59,1.88h1.47v1.88h-4.88v-1.88h1.36
			l2.15-7.29h-1.47v-1.88h7.22v1.88H233.83z M231.53,20.98l-0.99,3.33h1.92L231.53,20.98z"/>
		<path class="st5" d="M249.52,21.67c0,0.67-0.16,1.24-0.47,1.7c-0.31,0.46-0.79,0.83-1.43,1.12l1.78,3.33h1.43v1.88h-3.36
			l-2.49-4.83h-1.26v2.95h1.38v1.88h-5.78v-1.88h1.52v-7.29h-1.52v-1.88h6.3c1.22,0,2.18,0.26,2.87,0.77
			C249.17,19.95,249.52,20.69,249.52,21.67z M246.51,21.79c0-0.42-0.13-0.73-0.4-0.94s-0.63-0.31-1.1-0.31h-1.3v2.56h1.05
			C245.93,23.1,246.51,22.66,246.51,21.79z"/>
		<path class="st5" d="M261.58,19.51v-0.85h1.88v3.88h-1.88c-0.55-1.4-1.47-2.1-2.76-2.1c-0.64,0-1.21,0.17-1.7,0.5
			c-0.5,0.33-0.88,0.79-1.16,1.36c-0.28,0.57-0.41,1.21-0.41,1.91c0,0.65,0.13,1.25,0.39,1.8c0.26,0.54,0.63,0.98,1.09,1.3
			c0.47,0.33,1.01,0.49,1.62,0.49c0.75,0,1.41-0.26,1.96-0.78c0.55-0.52,0.93-1.2,1.12-2.05l2.18,1.03
			c-0.82,2.56-2.64,3.84-5.46,3.84c-1.21,0-2.27-0.23-3.17-0.7c-0.91-0.46-1.6-1.12-2.09-1.98c-0.49-0.85-0.73-1.85-0.73-3
			c0-1.08,0.25-2.05,0.75-2.92s1.2-1.54,2.08-2.03c0.89-0.49,1.88-0.74,2.98-0.74C259.59,18.48,260.7,18.82,261.58,19.51z"/>
		<path class="st5" d="M270.53,20.53v2.4h3.02v-2.4h-1.13v-1.88h5.29v1.88h-1.38v7.29h1.38v1.88h-5.29v-1.88h1.13v-3h-3.02v3h1.16
			v1.88h-5.33v-1.88h1.38v-7.29h-1.38v-1.88h5.33v1.88H270.53z"/>
	</g>
	<g>
		<g>
			<path class="st5" d="M334.01,25.31c0,1.16-0.25,2.14-0.74,2.94c-0.49,0.81-1.17,1.41-2.03,1.82s-1.86,0.62-3,0.62h-6.09v-1.88
				h1.68v-7.29h-1.68v-1.88h5.95c1.14,0,2.15,0.19,3.03,0.58c0.88,0.39,1.58,1.01,2.09,1.85C333.75,22.94,334.01,24.01,334.01,25.31
				z M331.01,25.22c0-1.22-0.28-2.13-0.85-2.75c-0.56-0.62-1.39-0.93-2.49-0.93h-0.97v7.29h0.67c0.99,0,1.75-0.17,2.29-0.5
				c0.54-0.33,0.89-0.76,1.07-1.27C330.92,26.53,331.01,25.92,331.01,25.22z"/>
			<path class="st5" d="M343.83,23.15v-1.62h-3.42v2.53h2.76v1.86h-2.76v2.89h3.42v-1.63h2.12v3.51h-9.73v-1.88h1.33v-7.29h-1.33
				v-1.88h9.73v3.49H343.83z"/>
			<path class="st5" d="M353.63,20.57v-0.92h1.88V23h-1.88c-0.08-0.54-0.25-0.94-0.52-1.21c-0.27-0.27-0.62-0.41-1.05-0.41
				c-0.3,0-0.56,0.09-0.78,0.26s-0.32,0.39-0.32,0.64c0,0.23,0.07,0.43,0.21,0.59s0.31,0.31,0.53,0.42
				c0.21,0.12,0.54,0.27,0.97,0.46l0.45,0.19c0.97,0.42,1.71,0.91,2.2,1.48c0.5,0.57,0.74,1.27,0.74,2.12c0,1.01-0.29,1.81-0.87,2.4
				c-0.58,0.59-1.36,0.88-2.34,0.88c-0.96,0-1.7-0.36-2.23-1.08v0.94h-1.88v-3.75h1.88c0.04,0.65,0.21,1.14,0.5,1.48
				c0.29,0.34,0.69,0.51,1.2,0.51c0.34,0,0.62-0.11,0.85-0.34c0.23-0.23,0.35-0.51,0.35-0.83c0-0.33-0.13-0.64-0.4-0.91
				c-0.27-0.28-0.72-0.55-1.36-0.83c-1.09-0.48-1.88-0.99-2.37-1.55c-0.49-0.55-0.74-1.19-0.74-1.9c0-0.56,0.13-1.07,0.39-1.54
				s0.62-0.83,1.07-1.09c0.46-0.27,0.95-0.4,1.49-0.4c0.43,0,0.82,0.09,1.17,0.26S353.4,20.23,353.63,20.57z"/>
			<path class="st5" d="M362.63,21.53v7.29h1.7v1.88h-6.24v-1.88h1.66v-7.29h-1.66v-1.88h6.24v1.88H362.63z"/>
			<path class="st5" d="M375.75,20.56v-0.9h1.88v3.91h-1.88c-0.23-0.65-0.62-1.17-1.18-1.55c-0.55-0.39-1.17-0.58-1.85-0.58
				c-0.63,0-1.19,0.15-1.67,0.44c-0.49,0.29-0.86,0.7-1.12,1.23c-0.26,0.53-0.4,1.15-0.4,1.85c0,1.2,0.29,2.14,0.87,2.83
				c0.58,0.69,1.37,1.04,2.38,1.04c0.67,0,1.22-0.16,1.65-0.47c0.43-0.31,0.73-0.77,0.92-1.36h-1.95v-1.88h5.19
				c0,1.2-0.24,2.23-0.71,3.08c-0.48,0.85-1.16,1.51-2.05,1.96c-0.89,0.45-1.96,0.67-3.2,0.67c-1.25,0-2.34-0.23-3.28-0.68
				c-0.94-0.45-1.65-1.11-2.16-1.96s-0.75-1.87-0.75-3.04c0-1.1,0.25-2.08,0.77-2.94c0.51-0.86,1.21-1.53,2.1-2.01
				s1.89-0.72,3.01-0.72C373.79,19.48,374.94,19.84,375.75,20.56z"/>
			<path class="st5" d="M389.64,21.53h-1.42v-1.88h4.93v1.88h-1.54v9.24h-2.45l-4.78-8.19v6.24h1.38v1.88h-4.83v-1.88h1.49v-7.29
				h-1.49v-1.88h4.64l4.07,6.9V21.53z"/>
		</g>
	</g>
	<g>
		<g>
			<path class="st5" d="M469.72,25.31c0,1.16-0.25,2.14-0.74,2.94c-0.49,0.81-1.17,1.41-2.03,1.82s-1.86,0.62-3,0.62h-6.09v-1.88
				h1.68v-7.29h-1.68v-1.88h5.95c1.14,0,2.15,0.19,3.03,0.58c0.88,0.39,1.58,1.01,2.09,1.85C469.46,22.94,469.72,24.01,469.72,25.31
				z M466.72,25.22c0-1.22-0.28-2.13-0.85-2.75c-0.56-0.62-1.39-0.93-2.49-0.93h-0.97v7.29h0.67c0.99,0,1.75-0.17,2.29-0.5
				c0.54-0.33,0.89-0.76,1.07-1.27C466.63,26.53,466.72,25.92,466.72,25.22z"/>
			<path class="st5" d="M479.54,23.15v-1.62h-3.42v2.53h2.76v1.86h-2.76v2.89h3.42v-1.63h2.12v3.51h-9.73v-1.88h1.33v-7.29h-1.33
				v-1.88h9.73v3.49H479.54z"/>
			<path class="st5" d="M487.91,21.53l1.86,5.52l1.86-5.52h-1.39v-1.88h4.87v1.88h-1.33l-3.18,9.22h-2.28l-3.29-9.22h-1.32v-1.88
				h5.62v1.88H487.91z"/>
			<path class="st5" d="M504.74,23.15v-1.62h-3.42v2.53h2.76v1.86h-2.76v2.89h3.42v-1.63h2.12v3.51h-9.73v-1.88h1.33v-7.29h-1.33
				v-1.88h9.73v3.49H504.74z"/>
			<path class="st5" d="M513.7,21.53v7.29h3.26v-3.41h2.16v5.28h-9.87v-1.88h1.58v-7.29h-1.58v-1.88h6.07v1.88H513.7z"/>
			<path class="st5" d="M521.59,25.14c0-1.12,0.26-2.1,0.77-2.96s1.23-1.52,2.16-2c0.93-0.48,2-0.71,3.21-0.71s2.28,0.24,3.2,0.71
				c0.93,0.48,1.64,1.14,2.15,2c0.51,0.86,0.77,1.84,0.77,2.95c0,1.12-0.25,2.11-0.77,2.97c-0.51,0.86-1.23,1.53-2.16,2
				c-0.93,0.47-2,0.71-3.2,0.71c-1.18,0-2.23-0.24-3.17-0.71c-0.93-0.47-1.67-1.14-2.19-2C521.85,27.26,521.59,26.27,521.59,25.14z
				 M530.78,25.13c0-0.67-0.12-1.28-0.37-1.83c-0.24-0.55-0.6-0.99-1.06-1.31c-0.46-0.32-1-0.49-1.62-0.49s-1.16,0.16-1.62,0.49
				c-0.46,0.33-0.81,0.76-1.06,1.31c-0.25,0.55-0.37,1.16-0.37,1.83c0,0.7,0.13,1.33,0.38,1.89c0.25,0.56,0.61,1,1.07,1.32
				s0.99,0.48,1.59,0.48c0.62,0,1.16-0.16,1.63-0.48c0.47-0.32,0.82-0.76,1.07-1.32S530.78,25.83,530.78,25.13z"/>
			<path class="st5" d="M546.32,23.17c0,1.2-0.38,2.09-1.12,2.66c-0.75,0.57-1.92,0.85-3.5,0.85h-1.16v2.15h1.55v1.88h-5.82v-1.88
				h1.39v-7.29h-1.39v-1.88h5.37c1.58,0,2.75,0.29,3.52,0.86S546.32,21.98,546.32,23.17z M543.29,23.17c0-0.46-0.09-0.81-0.28-1.05
				c-0.19-0.24-0.45-0.4-0.8-0.47c-0.35-0.07-0.75-0.11-1.21-0.11h-0.45v3.31H541c0.61,0,1.08-0.06,1.42-0.19
				c0.33-0.12,0.56-0.31,0.69-0.55C543.23,23.87,543.29,23.56,543.29,23.17z"/>
		</g>
	</g>
	<g>
		<g>
			<path class="st5" d="M601.52,21.53v7.29h3.26v-3.41h2.16v5.28h-9.87v-1.88h1.58v-7.29h-1.58v-1.88h6.07v1.88H601.52z"/>
			<path class="st5" d="M616.35,21.53l2.31,7.29h1.32v1.88h-5.43v-1.88h1.41l-0.53-1.88h-2.86l-0.59,1.88h1.47v1.88h-4.88v-1.88
				h1.36l2.15-7.29h-1.47v-1.88h7.22v1.88H616.35z M614.05,21.98l-0.99,3.33h1.92L614.05,21.98z"/>
			<path class="st5" d="M625.03,21.53v5.16c0,0.61,0.06,1.08,0.17,1.41c0.12,0.33,0.28,0.56,0.48,0.68
				c0.21,0.12,0.47,0.19,0.81,0.19c0.51,0,0.88-0.17,1.13-0.52c0.25-0.35,0.37-0.96,0.37-1.84v-5.07h-1.07v-1.88h4.41v1.88h-1.35
				v5.6c0,1.29-0.29,2.23-0.88,2.82c-0.58,0.59-1.56,0.88-2.92,0.88c-0.97,0-1.75-0.13-2.33-0.39s-1.01-0.69-1.28-1.3
				c-0.28-0.61-0.41-1.45-0.41-2.5v-5.1h-1.3v-1.88h5.27v1.88H625.03z"/>
			<path class="st5" d="M642.21,21.53h-1.42v-1.88h4.93v1.88h-1.54v9.24h-2.45l-4.78-8.19v6.24h1.38v1.88h-4.83v-1.88h1.49v-7.29
				h-1.49v-1.88h4.64l4.06,6.9V21.53z"/>
			<path class="st5" d="M656.88,20.51v-0.85h1.88v3.88h-1.88c-0.55-1.4-1.47-2.1-2.76-2.1c-0.64,0-1.21,0.17-1.7,0.5
				s-0.88,0.79-1.16,1.36c-0.28,0.57-0.41,1.21-0.41,1.91c0,0.65,0.13,1.25,0.39,1.8c0.26,0.54,0.63,0.98,1.1,1.3
				c0.47,0.33,1.01,0.49,1.62,0.49c0.75,0,1.4-0.26,1.96-0.78c0.55-0.52,0.93-1.2,1.12-2.05l2.17,1.03
				c-0.82,2.56-2.64,3.84-5.46,3.84c-1.21,0-2.27-0.23-3.18-0.7s-1.6-1.12-2.09-1.98s-0.73-1.85-0.73-3c0-1.08,0.25-2.05,0.75-2.92
				c0.5-0.86,1.2-1.54,2.08-2.03c0.88-0.49,1.88-0.74,2.98-0.74C654.89,19.48,656,19.82,656.88,20.51z"/>
			<path class="st5" d="M665.83,21.53v2.4h3.02v-2.4h-1.13v-1.88h5.29v1.88h-1.38v7.29h1.38v1.88h-5.29v-1.88h1.13v-3h-3.02v3h1.16
				v1.88h-5.33v-1.88h1.38v-7.29h-1.38v-1.88h5.33v1.88H665.83z"/>
		</g>
	</g>
</g>
</svg>
