<?xml version="1.0" encoding="utf-8"?>
<!-- Generator: Adobe Illustrator 22.0.0, SVG Export Plug-In . SVG Version: 6.00 Build 0)  -->
<svg version="1.1" id="Layer_1" xmlns="http://www.w3.org/2000/svg" xmlns:xlink="http://www.w3.org/1999/xlink" x="0px" y="0px"
	 viewBox="0 0 1994 1222" style="enable-background:new 0 0 1994 1222;" xml:space="preserve">
<style type="text/css">
	.st0{fill:#A2C66C;}
	.st1{fill:none;stroke:#000000;stroke-width:2;stroke-miterlimit:10;}
	.st2{fill:#FFFFFF;stroke:#000000;stroke-width:2;stroke-miterlimit:10;}
</style>
<g id="Main_Nav">
	<g id="Home">
		<rect x="562" class="st0" width="194" height="117"/>
		<g>
			<path d="M619.3,43.2H612V50h8.2v2h-10.6V33.2h10.2v2H612v6h7.3V43.2z"/>
			<path d="M630.7,52.1l-0.2-1.7h-0.1c-0.8,1.1-2.2,2-4.1,2c-2.7,0-4.1-1.9-4.1-3.9c0-3.3,2.9-5.1,8.1-5v-0.3c0-1.1-0.3-3.1-3.1-3.1
				c-1.3,0-2.6,0.4-3.5,1l-0.6-1.6c1.1-0.7,2.7-1.2,4.5-1.2c4.1,0,5.2,2.8,5.2,5.5v5.1c0,1.2,0.1,2.3,0.2,3.2H630.7z M630.4,45.1
				c-2.7-0.1-5.7,0.4-5.7,3.1c0,1.6,1.1,2.4,2.3,2.4c1.8,0,2.9-1.1,3.3-2.3c0.1-0.3,0.1-0.5,0.1-0.8V45.1z"/>
			<path d="M639.6,34.6v3.9h3.5v1.9h-3.5v7.3c0,1.7,0.5,2.6,1.8,2.6c0.6,0,1.1-0.1,1.4-0.2L643,52c-0.5,0.2-1.2,0.3-2.2,0.3
				c-1.1,0-2.1-0.4-2.7-1c-0.7-0.7-1-1.9-1-3.5v-7.4h-2.1v-1.9h2.1v-3.2L639.6,34.6z"/>
			<path d="M651.9,33.2h2.4V50h8.1v2h-10.5V33.2z"/>
			<path d="M676.9,45.2c0,5-3.5,7.2-6.7,7.2c-3.7,0-6.5-2.7-6.5-7c0-4.5,3-7.2,6.7-7.2C674.3,38.2,676.9,41,676.9,45.2z M666.1,45.3
				c0,3,1.7,5.2,4.1,5.2c2.4,0,4.1-2.2,4.1-5.3c0-2.3-1.1-5.2-4.1-5.2S666.1,42.7,666.1,45.3z"/>
			<path d="M689.7,51.6c-0.6,0.3-2.1,0.8-3.9,0.8c-4.1,0-6.7-2.8-6.7-6.9c0-4.2,2.9-7.2,7.3-7.2c1.5,0,2.7,0.4,3.4,0.7l-0.6,1.9
				c-0.6-0.3-1.5-0.6-2.9-0.6c-3.1,0-4.8,2.3-4.8,5.1c0,3.1,2,5.1,4.7,5.1c1.4,0,2.3-0.4,3-0.7L689.7,51.6z"/>
			<path d="M700,52.1l-0.2-1.7h-0.1c-0.8,1.1-2.2,2-4.1,2c-2.7,0-4.1-1.9-4.1-3.9c0-3.3,2.9-5.1,8.1-5v-0.3c0-1.1-0.3-3.1-3.1-3.1
				c-1.3,0-2.6,0.4-3.5,1l-0.6-1.6c1.1-0.7,2.7-1.2,4.5-1.2c4.1,0,5.2,2.8,5.2,5.5v5.1c0,1.2,0.1,2.3,0.2,3.2H700z M699.7,45.1
				c-2.7-0.1-5.7,0.4-5.7,3.1c0,1.6,1.1,2.4,2.3,2.4c1.8,0,2.9-1.1,3.3-2.3c0.1-0.3,0.1-0.5,0.1-0.8V45.1z"/>
			<path d="M706,32.2h2.5v19.9H706V32.2z"/>
			<path d="M628.1,66.8v7.9h9.1v-7.9h2.5v18.9h-2.5v-8.8h-9.1v8.8h-2.4V66.8H628.1z"/>
			<path d="M656.1,78.8c0,5-3.5,7.2-6.7,7.2c-3.7,0-6.5-2.7-6.5-7c0-4.5,3-7.2,6.7-7.2C653.4,71.8,656.1,74.6,656.1,78.8z
				 M645.3,78.9c0,3,1.7,5.2,4.1,5.2c2.4,0,4.1-2.2,4.1-5.3c0-2.3-1.1-5.2-4.1-5.2S645.3,76.3,645.3,78.9z"/>
			<path d="M659.2,75.8c0-1.4,0-2.5-0.1-3.7h2.2l0.1,2.2h0.1c0.8-1.3,2-2.5,4.3-2.5c1.8,0,3.2,1.1,3.8,2.7h0.1
				c0.4-0.8,1-1.3,1.5-1.8c0.8-0.6,1.7-1,3-1c1.8,0,4.5,1.2,4.5,5.9v8h-2.4V78c0-2.6-1-4.2-2.9-4.2c-1.4,0-2.5,1-2.9,2.2
				c-0.1,0.3-0.2,0.8-0.2,1.2v8.4h-2.4v-8.1c0-2.2-1-3.7-2.8-3.7c-1.5,0-2.7,1.2-3.1,2.5c-0.1,0.4-0.2,0.8-0.2,1.2v8.2h-2.4V75.8z"
				/>
			<path d="M683.9,79.3c0.1,3.3,2.2,4.7,4.6,4.7c1.8,0,2.8-0.3,3.8-0.7l0.4,1.8c-0.9,0.4-2.4,0.8-4.5,0.8c-4.2,0-6.7-2.7-6.7-6.8
				c0-4.1,2.4-7.3,6.4-7.3c4.4,0,5.6,3.9,5.6,6.4c0,0.5-0.1,0.9-0.1,1.1H683.9z M691.1,77.6c0-1.6-0.6-4-3.4-4c-2.5,0-3.6,2.3-3.8,4
				H691.1z"/>
		</g>
	</g>
	<g id="New_items">
		<rect y="205" class="st0" width="192" height="115"/>
		<g>
			<path d="M36.3,274v-18.9h2.7l6,9.5c1.4,2.2,2.5,4.2,3.4,6.1l0.1,0c-0.2-2.5-0.3-4.8-0.3-7.8v-7.9h2.3V274H48l-6-9.6
				c-1.3-2.1-2.6-4.3-3.5-6.3l-0.1,0c0.1,2.4,0.2,4.6,0.2,7.8v8.1H36.3z"/>
			<path d="M56,267.7c0.1,3.3,2.2,4.7,4.6,4.7c1.8,0,2.8-0.3,3.8-0.7l0.4,1.8c-0.9,0.4-2.4,0.8-4.5,0.8c-4.2,0-6.7-2.7-6.7-6.8
				c0-4.1,2.4-7.3,6.4-7.3c4.4,0,5.6,3.9,5.6,6.4c0,0.5-0.1,0.9-0.1,1.1H56z M63.2,265.9c0-1.6-0.6-4-3.4-4c-2.5,0-3.6,2.3-3.8,4
				H63.2z"/>
			<path d="M69.6,260.5l1.8,6.9c0.4,1.5,0.8,2.9,1,4.3h0.1c0.3-1.4,0.8-2.8,1.2-4.3l2.2-6.9H78l2.1,6.8c0.5,1.6,0.9,3.1,1.2,4.4h0.1
				c0.2-1.4,0.6-2.8,1-4.4l1.9-6.8h2.4L82.4,274h-2.2l-2.1-6.5c-0.5-1.5-0.9-2.9-1.2-4.5h-0.1c-0.3,1.6-0.8,3-1.2,4.5l-2.2,6.4h-2.2
				l-4.1-13.6H69.6z"/>
			<path d="M97.7,255.2V274h-2.4v-18.9H97.7z"/>
			<path d="M105.3,256.6v3.9h3.5v1.9h-3.5v7.3c0,1.7,0.5,2.6,1.8,2.6c0.6,0,1.1-0.1,1.4-0.2l0.1,1.8c-0.5,0.2-1.2,0.3-2.2,0.3
				c-1.1,0-2.1-0.4-2.7-1c-0.7-0.7-1-1.9-1-3.5v-7.4h-2.1v-1.9h2.1v-3.2L105.3,256.6z"/>
			<path d="M112.8,267.7c0.1,3.3,2.2,4.7,4.6,4.7c1.8,0,2.8-0.3,3.8-0.7l0.4,1.8c-0.9,0.4-2.4,0.8-4.5,0.8c-4.2,0-6.7-2.7-6.7-6.8
				c0-4.1,2.4-7.3,6.4-7.3c4.4,0,5.6,3.9,5.6,6.4c0,0.5-0.1,0.9-0.1,1.1H112.8z M120,265.9c0-1.6-0.6-4-3.4-4c-2.5,0-3.6,2.3-3.8,4
				H120z"/>
			<path d="M125.4,264.1c0-1.4,0-2.5-0.1-3.7h2.2l0.1,2.2h0.1c0.8-1.3,2-2.5,4.3-2.5c1.8,0,3.2,1.1,3.8,2.7h0.1
				c0.4-0.8,1-1.3,1.5-1.8c0.8-0.6,1.7-1,3-1c1.8,0,4.5,1.2,4.5,5.9v8h-2.4v-7.7c0-2.6-1-4.2-2.9-4.2c-1.4,0-2.5,1-2.9,2.2
				c-0.1,0.3-0.2,0.8-0.2,1.2v8.4h-2.4v-8.1c0-2.2-1-3.7-2.8-3.7c-1.5,0-2.7,1.2-3.1,2.5c-0.1,0.4-0.2,0.8-0.2,1.2v8.2h-2.4V264.1z"
				/>
			<path d="M148.5,271.5c0.7,0.5,2,1,3.2,1c1.8,0,2.6-0.9,2.6-2c0-1.2-0.7-1.8-2.5-2.5c-2.4-0.9-3.6-2.2-3.6-3.8c0-2.2,1.8-4,4.7-4
				c1.4,0,2.6,0.4,3.3,0.8l-0.6,1.8c-0.5-0.3-1.5-0.8-2.8-0.8c-1.5,0-2.3,0.8-2.3,1.8c0,1.1,0.8,1.6,2.6,2.3
				c2.4,0.9,3.6,2.1,3.6,4.1c0,2.4-1.8,4.1-5.1,4.1c-1.5,0-2.9-0.4-3.8-0.9L148.5,271.5z"/>
		</g>
	</g>
	<g id="Entree">
		<rect x="284" y="207" class="st0" width="190" height="113"/>
		<g>
			<path d="M343.7,262.2h-7.3v6.8h8.2v2h-10.6v-18.9h10.2v2h-7.8v6h7.3V262.2z"/>
			<path d="M347.6,261.1c0-1.4,0-2.5-0.1-3.7h2.2l0.1,2.2h0.1c0.7-1.3,2.2-2.5,4.5-2.5c1.9,0,4.8,1.1,4.8,5.8v8.1h-2.5v-7.8
				c0-2.2-0.8-4-3.1-4c-1.6,0-2.9,1.1-3.3,2.5c-0.1,0.3-0.2,0.7-0.2,1.1v8.1h-2.5V261.1z"/>
			<path d="M366,253.6v3.9h3.5v1.9H366v7.3c0,1.7,0.5,2.6,1.8,2.6c0.6,0,1.1-0.1,1.4-0.2l0.1,1.8c-0.5,0.2-1.2,0.3-2.2,0.3
				c-1.1,0-2.1-0.4-2.7-1c-0.7-0.7-1-1.9-1-3.5v-7.4h-2.1v-1.9h2.1v-3.2L366,253.6z"/>
			<path d="M372.3,261.7c0-1.6,0-3-0.1-4.2h2.2l0.1,2.7h0.1c0.6-1.8,2.1-3,3.8-3c0.3,0,0.5,0,0.7,0.1v2.3c-0.3-0.1-0.5-0.1-0.8-0.1
				c-1.7,0-3,1.3-3.3,3.2c-0.1,0.3-0.1,0.7-0.1,1.1v7.2h-2.4V261.7z"/>
			<path d="M382.5,264.7c0.1,3.3,2.2,4.7,4.6,4.7c1.8,0,2.8-0.3,3.8-0.7l0.4,1.8c-0.9,0.4-2.4,0.8-4.5,0.8c-4.2,0-6.7-2.7-6.7-6.8
				c0-4.1,2.4-7.3,6.4-7.3c4.4,0,5.6,3.9,5.6,6.4c0,0.5-0.1,0.9-0.1,1.1H382.5z M389.8,262.9c0-1.6-0.6-4-3.4-4
				c-2.5,0-3.6,2.3-3.8,4H389.8z"/>
			<path d="M396.6,264.7c0.1,3.3,2.2,4.7,4.6,4.7c1.8,0,2.8-0.3,3.8-0.7l0.4,1.8c-0.9,0.4-2.4,0.8-4.5,0.8c-4.2,0-6.7-2.7-6.7-6.8
				c0-4.1,2.4-7.3,6.4-7.3c4.4,0,5.6,3.9,5.6,6.4c0,0.5-0.1,0.9-0.1,1.1H396.6z M403.8,262.9c0-1.6-0.6-4-3.4-4
				c-2.5,0-3.6,2.3-3.8,4H403.8z"/>
			<path d="M408.9,268.5c0.7,0.5,2,1,3.2,1c1.8,0,2.6-0.9,2.6-2c0-1.2-0.7-1.8-2.5-2.5c-2.4-0.9-3.6-2.2-3.6-3.8c0-2.2,1.8-4,4.7-4
				c1.4,0,2.6,0.4,3.3,0.8l-0.6,1.8c-0.5-0.3-1.5-0.8-2.8-0.8c-1.5,0-2.3,0.8-2.3,1.8c0,1.1,0.8,1.6,2.6,2.3
				c2.4,0.9,3.6,2.1,3.6,4.1c0,2.4-1.8,4.1-5.1,4.1c-1.5,0-2.9-0.4-3.8-0.9L408.9,268.5z"/>
		</g>
	</g>
	<g id="Side">
		<rect x="565" y="207" class="st0" width="192" height="115"/>
		<g>
			<path d="M632.5,271.1c1.1,0.7,2.7,1.2,4.4,1.2c2.5,0,3.9-1.3,3.9-3.2c0-1.8-1-2.8-3.6-3.8c-3.1-1.1-5-2.7-5-5.3
				c0-2.9,2.4-5.1,6.1-5.1c1.9,0,3.3,0.4,4.2,0.9l-0.7,2c-0.6-0.3-1.9-0.9-3.6-0.9c-2.6,0-3.6,1.5-3.6,2.8c0,1.8,1.1,2.6,3.8,3.6
				c3.2,1.2,4.8,2.8,4.8,5.5c0,2.9-2.2,5.4-6.6,5.4c-1.8,0-3.8-0.5-4.8-1.2L632.5,271.1z"/>
			<path d="M649.3,256.8c0,0.8-0.6,1.5-1.6,1.5c-0.9,0-1.5-0.7-1.5-1.5c0-0.9,0.6-1.5,1.5-1.5C648.7,255.2,649.3,255.9,649.3,256.8z
				 M646.5,274.1v-13.6h2.5v13.6H646.5z"/>
			<path d="M664.8,254.2v16.4c0,1.2,0,2.6,0.1,3.5h-2.2l-0.1-2.4h-0.1c-0.8,1.5-2.4,2.7-4.6,2.7c-3.3,0-5.8-2.8-5.8-6.9
				c0-4.5,2.8-7.3,6.1-7.3c2.1,0,3.5,1,4.1,2.1h0.1v-8.1H664.8z M662.3,266.1c0-0.3,0-0.7-0.1-1c-0.4-1.6-1.7-2.9-3.6-2.9
				c-2.5,0-4.1,2.2-4.1,5.2c0,2.7,1.3,5,4,5c1.7,0,3.2-1.1,3.6-2.9c0.1-0.3,0.1-0.7,0.1-1.1V266.1z"/>
			<path d="M670.2,267.8c0.1,3.3,2.2,4.7,4.6,4.7c1.8,0,2.8-0.3,3.8-0.7l0.4,1.8c-0.9,0.4-2.4,0.8-4.5,0.8c-4.2,0-6.7-2.7-6.7-6.8
				c0-4.1,2.4-7.3,6.4-7.3c4.4,0,5.6,3.9,5.6,6.4c0,0.5-0.1,0.9-0.1,1.1H670.2z M677.5,266c0-1.6-0.6-4-3.4-4c-2.5,0-3.6,2.3-3.8,4
				H677.5z"/>
			<path d="M682.6,271.6c0.7,0.5,2,1,3.2,1c1.8,0,2.6-0.9,2.6-2c0-1.2-0.7-1.8-2.5-2.5c-2.4-0.9-3.6-2.2-3.6-3.8c0-2.2,1.8-4,4.7-4
				c1.4,0,2.6,0.4,3.3,0.8l-0.6,1.8c-0.5-0.3-1.5-0.8-2.8-0.8c-1.5,0-2.3,0.8-2.3,1.8c0,1.1,0.8,1.6,2.6,2.3
				c2.4,0.9,3.6,2.1,3.6,4.1c0,2.4-1.8,4.1-5.1,4.1c-1.5,0-2.9-0.4-3.8-0.9L682.6,271.6z"/>
		</g>
	</g>
	<g id="Drink">
		<rect x="844" y="207" class="st0" width="191" height="114"/>
		<g>
			<path d="M906,252.6c1.5-0.2,3.2-0.4,5.2-0.4c3.5,0,6,0.8,7.6,2.4c1.7,1.5,2.7,3.7,2.7,6.8c0,3.1-1,5.6-2.7,7.3
				c-1.8,1.8-4.7,2.7-8.3,2.7c-1.7,0-3.2-0.1-4.4-0.2V252.6z M908.4,269.3c0.6,0.1,1.5,0.1,2.5,0.1c5.2,0,8-2.9,8-8
				c0-4.5-2.5-7.3-7.6-7.3c-1.3,0-2.2,0.1-2.9,0.3V269.3z"/>
			<path d="M924.6,261.9c0-1.6,0-3-0.1-4.2h2.2l0.1,2.7h0.1c0.6-1.8,2.1-3,3.8-3c0.3,0,0.5,0,0.7,0.1v2.3c-0.3-0.1-0.5-0.1-0.8-0.1
				c-1.7,0-3,1.3-3.3,3.2c-0.1,0.3-0.1,0.7-0.1,1.1v7.2h-2.4V261.9z"/>
			<path d="M936.6,253.8c0,0.8-0.6,1.5-1.6,1.5c-0.9,0-1.5-0.7-1.5-1.5c0-0.9,0.6-1.5,1.5-1.5C936,252.3,936.6,253,936.6,253.8z
				 M933.8,271.2v-13.6h2.5v13.6H933.8z"/>
			<path d="M940.4,261.3c0-1.4,0-2.5-0.1-3.7h2.2l0.1,2.2h0.1c0.7-1.3,2.2-2.5,4.5-2.5c1.9,0,4.8,1.1,4.8,5.8v8.1h-2.5v-7.8
				c0-2.2-0.8-4-3.1-4c-1.6,0-2.9,1.1-3.3,2.5c-0.1,0.3-0.2,0.7-0.2,1.1v8.1h-2.5V261.3z"/>
			<path d="M958.3,263.9L958.3,263.9c0.4-0.5,0.9-1.1,1.3-1.5l4-4.7h3l-5.2,5.6l6,8h-3l-4.7-6.5l-1.3,1.4v5.1h-2.4v-19.9h2.4V263.9z
				"/>
			<path d="M968.7,268.7c0.7,0.5,2,1,3.2,1c1.8,0,2.6-0.9,2.6-2c0-1.2-0.7-1.8-2.5-2.5c-2.4-0.9-3.6-2.2-3.6-3.8c0-2.2,1.8-4,4.7-4
				c1.4,0,2.6,0.4,3.3,0.8l-0.6,1.8c-0.5-0.3-1.5-0.8-2.8-0.8c-1.5,0-2.3,0.8-2.3,1.8c0,1.1,0.8,1.6,2.6,2.3
				c2.4,0.9,3.6,2.1,3.6,4.1c0,2.4-1.8,4.1-5.1,4.1c-1.5,0-2.9-0.4-3.8-0.9L968.7,268.7z"/>
		</g>
	</g>
	<g id="Store_Goods">
		<rect x="1122" y="204" class="st0" width="194" height="117"/>
		<g>
			<path d="M1149.2,271c1.1,0.7,2.7,1.2,4.4,1.2c2.5,0,3.9-1.3,3.9-3.2c0-1.8-1-2.8-3.6-3.8c-3.1-1.1-5-2.7-5-5.3
				c0-2.9,2.4-5.1,6.1-5.1c1.9,0,3.3,0.4,4.2,0.9l-0.7,2c-0.6-0.3-1.9-0.9-3.6-0.9c-2.6,0-3.6,1.5-3.6,2.8c0,1.8,1.1,2.6,3.8,3.6
				c3.2,1.2,4.8,2.8,4.8,5.5c0,2.9-2.2,5.4-6.6,5.4c-1.8,0-3.8-0.5-4.8-1.2L1149.2,271z"/>
			<path d="M1166.1,256.5v3.9h3.5v1.9h-3.5v7.3c0,1.7,0.5,2.6,1.8,2.6c0.6,0,1.1-0.1,1.4-0.2l0.1,1.8c-0.5,0.2-1.2,0.3-2.2,0.3
				c-1.1,0-2.1-0.4-2.7-1c-0.7-0.7-1-1.9-1-3.5v-7.4h-2.1v-1.9h2.1v-3.2L1166.1,256.5z"/>
			<path d="M1184.5,267c0,5-3.5,7.2-6.7,7.2c-3.7,0-6.5-2.7-6.5-7c0-4.5,3-7.2,6.7-7.2C1181.9,260.1,1184.5,262.9,1184.5,267z
				 M1173.8,267.2c0,3,1.7,5.2,4.1,5.2c2.4,0,4.1-2.2,4.1-5.3c0-2.3-1.1-5.2-4.1-5.2C1175,261.9,1173.8,264.6,1173.8,267.2z"/>
			<path d="M1187.6,264.6c0-1.6,0-3-0.1-4.2h2.2l0.1,2.7h0.1c0.6-1.8,2.1-3,3.8-3c0.3,0,0.5,0,0.7,0.1v2.3c-0.3-0.1-0.5-0.1-0.8-0.1
				c-1.7,0-3,1.3-3.3,3.2c-0.1,0.3-0.1,0.7-0.1,1.1v7.2h-2.4V264.6z"/>
			<path d="M1197.9,267.6c0.1,3.3,2.2,4.7,4.6,4.7c1.8,0,2.8-0.3,3.8-0.7l0.4,1.8c-0.9,0.4-2.4,0.8-4.5,0.8c-4.2,0-6.7-2.7-6.7-6.8
				c0-4.1,2.4-7.3,6.4-7.3c4.4,0,5.6,3.9,5.6,6.4c0,0.5-0.1,0.9-0.1,1.1H1197.9z M1205.1,265.8c0-1.6-0.6-4-3.4-4
				c-2.5,0-3.6,2.3-3.8,4H1205.1z"/>
			<path d="M1230.9,273.1c-1.1,0.4-3.2,1-5.8,1c-2.9,0-5.2-0.7-7.1-2.5c-1.6-1.6-2.6-4.1-2.6-7c0-5.6,3.9-9.7,10.2-9.7
				c2.2,0,3.9,0.5,4.7,0.9l-0.6,2c-1-0.4-2.3-0.8-4.2-0.8c-4.6,0-7.6,2.9-7.6,7.6c0,4.8,2.9,7.6,7.3,7.6c1.6,0,2.7-0.2,3.2-0.5V266
				h-3.8v-2h6.2V273.1z"/>
			<path d="M1247,267c0,5-3.5,7.2-6.7,7.2c-3.7,0-6.5-2.7-6.5-7c0-4.5,3-7.2,6.7-7.2C1244.3,260.1,1247,262.9,1247,267z
				 M1236.2,267.2c0,3,1.7,5.2,4.1,5.2c2.4,0,4.1-2.2,4.1-5.3c0-2.3-1.1-5.2-4.1-5.2C1237.5,261.9,1236.2,264.6,1236.2,267.2z"/>
			<path d="M1262.3,267c0,5-3.5,7.2-6.7,7.2c-3.7,0-6.5-2.7-6.5-7c0-4.5,3-7.2,6.7-7.2C1259.7,260.1,1262.3,262.9,1262.3,267z
				 M1251.6,267.2c0,3,1.7,5.2,4.1,5.2c2.4,0,4.1-2.2,4.1-5.3c0-2.3-1.1-5.2-4.1-5.2C1252.8,261.9,1251.6,264.6,1251.6,267.2z"/>
			<path d="M1277.1,254.1v16.4c0,1.2,0,2.6,0.1,3.5h-2.2l-0.1-2.4h-0.1c-0.8,1.5-2.4,2.7-4.6,2.7c-3.3,0-5.8-2.8-5.8-6.9
				c0-4.5,2.8-7.3,6.1-7.3c2.1,0,3.5,1,4.1,2.1h0.1v-8.1H1277.1z M1274.7,265.9c0-0.3,0-0.7-0.1-1c-0.4-1.6-1.7-2.9-3.6-2.9
				c-2.5,0-4.1,2.2-4.1,5.2c0,2.7,1.3,5,4,5c1.7,0,3.2-1.1,3.6-2.9c0.1-0.3,0.1-0.7,0.1-1.1V265.9z"/>
			<path d="M1280.9,271.4c0.7,0.5,2,1,3.2,1c1.8,0,2.6-0.9,2.6-2c0-1.2-0.7-1.8-2.5-2.5c-2.4-0.9-3.6-2.2-3.6-3.8c0-2.2,1.8-4,4.7-4
				c1.4,0,2.6,0.4,3.3,0.8l-0.6,1.8c-0.5-0.3-1.5-0.8-2.8-0.8c-1.5,0-2.3,0.8-2.3,1.8c0,1.1,0.8,1.6,2.6,2.3
				c2.4,0.9,3.6,2.1,3.6,4.1c0,2.4-1.8,4.1-5.1,4.1c-1.5,0-2.9-0.4-3.8-0.9L1280.9,271.4z"/>
		</g>
	</g>
	<g id="line">
		<line class="st1" x1="659.5" y1="117.6" x2="660.5" y2="204.6"/>
		<line class="st1" x1="97" y1="161.1" x2="1219" y2="161.1"/>
		<line class="st1" x1="380" y1="161.1" x2="380" y2="205.1"/>
		<line class="st1" x1="940" y1="161.1" x2="940" y2="205.1"/>
		<line class="st1" x1="1219" y1="161" x2="1219" y2="205"/>
		<line class="st1" x1="97" y1="161" x2="97" y2="205"/>
	</g>
</g>
<g id="Sub_Nav">
	<g id="line2">
		<line class="st1" x1="757" y1="59.1" x2="866" y2="59.1"/>
		<line class="st1" x1="1037" y1="59" x2="1106" y2="59"/>
		<line class="st1" x1="1276" y1="59" x2="1345" y2="59"/>
		<line class="st1" x1="1515" y1="59" x2="1584" y2="59"/>
		<line class="st1" x1="1754" y1="59" x2="1823" y2="59"/>
	</g>
	<g id="About">
		<rect x="867" y="8.9" class="st2" width="170" height="101.1"/>
		<g>
			<path d="M910.3,62.2l-1.7,5.1h-2.2l5.5-16.2h2.5l5.5,16.2h-2.2l-1.7-5.1H910.3z M915.6,60.5l-1.6-4.7c-0.4-1.1-0.6-2-0.8-3h0
				c-0.2,1-0.5,1.9-0.8,2.9l-1.6,4.7H915.6z"/>
			<path d="M922.1,67.2c0-0.8,0.1-2,0.1-3v-14h2.1v7.3h0c0.7-1.3,2.1-2.1,4-2.1c2.9,0,4.9,2.4,4.9,5.9c0,4.2-2.6,6.2-5.2,6.2
				c-1.7,0-3-0.6-3.9-2.2H924l-0.1,1.9H922.1z M924.3,62.6c0,0.3,0,0.5,0.1,0.8c0.4,1.5,1.6,2.5,3.2,2.5c2.2,0,3.5-1.8,3.5-4.5
				c0-2.3-1.2-4.3-3.5-4.3c-1.4,0-2.8,1-3.2,2.6c0,0.2-0.1,0.5-0.1,0.9V62.6z"/>
			<path d="M946.4,61.3c0,4.3-3,6.2-5.8,6.2c-3.1,0-5.6-2.3-5.6-6c0-3.9,2.5-6.2,5.8-6.2C944.1,55.4,946.4,57.8,946.4,61.3z
				 M937.2,61.5c0,2.5,1.5,4.5,3.5,4.5c2,0,3.5-1.9,3.5-4.5c0-2-1-4.5-3.5-4.5C938.3,56.9,937.2,59.2,937.2,61.5z"/>
			<path d="M958.8,64.1c0,1.2,0,2.3,0.1,3.2H957l-0.1-1.9h0c-0.6,0.9-1.8,2.2-3.8,2.2c-1.8,0-4-1-4-5.1v-6.8h2.1v6.4
				c0,2.2,0.7,3.7,2.6,3.7c1.4,0,2.4-1,2.8-1.9c0.1-0.3,0.2-0.7,0.2-1.1v-7.1h2.1V64.1z"/>
			<path d="M964.8,52.3v3.3h3v1.6h-3v6.3c0,1.4,0.4,2.3,1.6,2.3c0.6,0,1-0.1,1.2-0.1l0.1,1.6c-0.4,0.2-1.1,0.3-1.9,0.3
				c-1,0-1.8-0.3-2.3-0.9c-0.6-0.6-0.8-1.7-0.8-3v-6.3H961v-1.6h1.8v-2.8L964.8,52.3z"/>
			<path d="M977.5,51.1v9.6c0,3.6,1.6,5.2,3.8,5.2c2.4,0,3.9-1.6,3.9-5.2v-9.6h2.1v9.4c0,5-2.6,7-6.1,7c-3.3,0-5.8-1.9-5.8-6.9v-9.5
				H977.5z"/>
			<path d="M990.4,65.1c0.6,0.4,1.7,0.8,2.8,0.8c1.5,0,2.3-0.8,2.3-1.7c0-1-0.6-1.6-2.2-2.1c-2.1-0.7-3.1-1.9-3.1-3.3
				c0-1.9,1.5-3.4,4-3.4c1.2,0,2.2,0.3,2.9,0.7l-0.5,1.5c-0.5-0.3-1.3-0.7-2.4-0.7c-1.2,0-1.9,0.7-1.9,1.6c0,1,0.7,1.4,2.2,2
				c2,0.8,3,1.8,3,3.5c0,2-1.6,3.5-4.3,3.5c-1.3,0-2.4-0.3-3.3-0.8L990.4,65.1z"/>
		</g>
	</g>
	<g id="FAQ">
		<rect x="1106" y="8.9" class="st2" width="170" height="101.1"/>
		<g>
			<path d="M1174.7,51.3h8.7V53h-6.6v5.4h6.1v1.7h-6.1v7.3h-2.1V51.3z"/>
			<path d="M1187.1,62.4l-1.7,5.1h-2.2l5.5-16.2h2.5l5.5,16.2h-2.2l-1.7-5.1H1187.1z M1192.4,60.8l-1.6-4.7c-0.4-1.1-0.6-2-0.8-3h0
				c-0.2,1-0.5,1.9-0.8,2.9l-1.6,4.7H1192.4z"/>
			<path d="M1212.2,69.8c-2.2-0.6-4.3-1.2-6.2-1.9c-0.3-0.1-0.7-0.2-1-0.2c-3.8-0.1-7.1-3-7.1-8.2c0-5.2,3.2-8.5,7.5-8.5
				c4.4,0,7.2,3.4,7.2,8.2c0,4.2-1.9,6.8-4.6,7.8v0.1c1.6,0.4,3.4,0.8,4.7,1L1212.2,69.8z M1210.5,59.3c0-3.2-1.7-6.6-5.1-6.6
				c-3.5,0-5.3,3.3-5.2,6.8c0,3.4,1.9,6.5,5.1,6.5C1208.6,66,1210.5,63,1210.5,59.3z"/>
		</g>
	</g>
	<g id="Contact">
		<rect x="1345" y="8.9" class="st2" width="170" height="101.1"/>
		<g>
			<path d="M1404.1,66.7c-0.8,0.4-2.3,0.8-4.3,0.8c-4.6,0-8-2.9-8-8.2c0-5.1,3.4-8.5,8.4-8.5c2,0,3.3,0.4,3.8,0.7l-0.5,1.7
				c-0.8-0.4-1.9-0.7-3.3-0.7c-3.8,0-6.3,2.4-6.3,6.7c0,4,2.3,6.5,6.2,6.5c1.3,0,2.6-0.3,3.4-0.7L1404.1,66.7z"/>
			<path d="M1416.9,61.3c0,4.3-3,6.2-5.8,6.2c-3.1,0-5.6-2.3-5.6-6c0-3.9,2.5-6.2,5.8-6.2C1414.6,55.4,1416.9,57.8,1416.9,61.3z
				 M1407.7,61.5c0,2.5,1.5,4.5,3.5,4.5c2,0,3.5-1.9,3.5-4.5c0-2-1-4.5-3.5-4.5C1408.7,56.9,1407.7,59.2,1407.7,61.5z"/>
			<path d="M1419.5,58.8c0-1.2,0-2.2-0.1-3.1h1.9l0.1,1.9h0c0.6-1.1,1.9-2.2,3.8-2.2c1.6,0,4.1,1,4.1,4.9v6.9h-2.1v-6.7
				c0-1.9-0.7-3.4-2.7-3.4c-1.4,0-2.5,1-2.8,2.2c-0.1,0.3-0.1,0.6-0.1,1v7h-2.1V58.8z"/>
			<path d="M1435.3,52.3v3.3h3v1.6h-3v6.3c0,1.4,0.4,2.3,1.6,2.3c0.6,0,1-0.1,1.2-0.1l0.1,1.6c-0.4,0.2-1.1,0.3-1.9,0.3
				c-1,0-1.8-0.3-2.3-0.9c-0.6-0.6-0.8-1.7-0.8-3v-6.3h-1.8v-1.6h1.8v-2.8L1435.3,52.3z"/>
			<path d="M1447.1,67.2l-0.2-1.5h-0.1c-0.6,0.9-1.9,1.7-3.6,1.7c-2.4,0-3.6-1.7-3.6-3.3c0-2.8,2.5-4.3,7-4.3v-0.2
				c0-1-0.3-2.7-2.6-2.7c-1.1,0-2.2,0.3-3,0.9l-0.5-1.4c1-0.6,2.4-1,3.8-1c3.6,0,4.4,2.4,4.4,4.8v4.3c0,1,0,2,0.2,2.8H1447.1z
				 M1446.8,61.3c-2.3,0-4.9,0.4-4.9,2.6c0,1.4,0.9,2,2,2c1.5,0,2.5-1,2.8-1.9c0.1-0.2,0.1-0.5,0.1-0.7V61.3z"/>
			<path d="M1460.5,66.8c-0.6,0.3-1.8,0.7-3.3,0.7c-3.5,0-5.8-2.4-5.8-5.9c0-3.6,2.4-6.2,6.2-6.2c1.2,0,2.4,0.3,2.9,0.6l-0.5,1.6
				c-0.5-0.3-1.3-0.6-2.4-0.6c-2.7,0-4.1,2-4.1,4.4c0,2.7,1.7,4.3,4,4.3c1.2,0,2-0.3,2.6-0.6L1460.5,66.8z"/>
			<path d="M1465.9,52.3v3.3h3v1.6h-3v6.3c0,1.4,0.4,2.3,1.6,2.3c0.6,0,1-0.1,1.2-0.1l0.1,1.6c-0.4,0.2-1.1,0.3-1.9,0.3
				c-1,0-1.8-0.3-2.3-0.9c-0.6-0.6-0.8-1.7-0.8-3v-6.3h-1.8v-1.6h1.8v-2.8L1465.9,52.3z"/>
		</g>
	</g>
	<g id="My_Account">
		<rect x="1584" y="8.9" class="st2" width="170" height="101.1"/>
		<g>
			<path d="M1625,60.3c-0.1-2.3-0.3-5-0.2-7h-0.1c-0.6,1.9-1.2,3.9-2,6.1l-2.9,7.8h-1.6l-2.6-7.7c-0.8-2.3-1.4-4.4-1.9-6.3h0
				c0,2-0.2,4.7-0.3,7.2l-0.4,6.9h-2l1.1-16.2h2.7l2.8,7.8c0.7,2,1.2,3.8,1.6,5.4h0.1c0.4-1.6,1-3.4,1.7-5.4l2.9-7.8h2.7l1,16.2h-2
				L1625,60.3z"/>
			<path d="M1631.5,55.8l2.5,6.9c0.3,0.8,0.6,1.7,0.7,2.4h0c0.2-0.7,0.5-1.6,0.7-2.4l2.3-6.8h2.2l-3.2,8.3c-1.5,4-2.5,6-4,7.3
				c-1,0.9-2.1,1.3-2.6,1.4l-0.5-1.8c0.5-0.2,1.2-0.5,1.8-1c0.6-0.5,1.3-1.3,1.8-2.4c0.1-0.2,0.2-0.4,0.2-0.5c0-0.1,0-0.3-0.1-0.6
				l-4.3-10.7H1631.5z"/>
			<path d="M1649.8,62.3l-1.7,5.1h-2.2l5.5-16.2h2.5l5.5,16.2h-2.2l-1.7-5.1H1649.8z M1655.1,60.7l-1.6-4.7c-0.4-1.1-0.6-2-0.8-3h0
				c-0.2,1-0.5,1.9-0.8,2.9l-1.6,4.7H1655.1z"/>
			<path d="M1669.8,67c-0.6,0.3-1.8,0.7-3.3,0.7c-3.5,0-5.8-2.4-5.8-5.9c0-3.6,2.4-6.2,6.2-6.2c1.2,0,2.4,0.3,2.9,0.6l-0.5,1.6
				c-0.5-0.3-1.3-0.6-2.4-0.6c-2.7,0-4.1,2-4.1,4.4c0,2.7,1.7,4.3,4,4.3c1.2,0,2-0.3,2.6-0.6L1669.8,67z"/>
			<path d="M1680.4,67c-0.6,0.3-1.8,0.7-3.3,0.7c-3.5,0-5.8-2.4-5.8-5.9c0-3.6,2.4-6.2,6.2-6.2c1.2,0,2.4,0.3,2.9,0.6l-0.5,1.6
				c-0.5-0.3-1.3-0.6-2.4-0.6c-2.7,0-4.1,2-4.1,4.4c0,2.7,1.7,4.3,4,4.3c1.2,0,2-0.3,2.6-0.6L1680.4,67z"/>
			<path d="M1693.3,61.5c0,4.3-3,6.2-5.8,6.2c-3.1,0-5.6-2.3-5.6-6c0-3.9,2.5-6.2,5.8-6.2C1691,55.5,1693.3,58,1693.3,61.5z
				 M1684.1,61.6c0,2.5,1.5,4.5,3.5,4.5c2,0,3.5-1.9,3.5-4.5c0-2-1-4.5-3.5-4.5C1685.1,57.1,1684.1,59.4,1684.1,61.6z"/>
			<path d="M1705.7,64.3c0,1.2,0,2.3,0.1,3.2h-1.9l-0.1-1.9h0c-0.6,0.9-1.8,2.2-3.8,2.2c-1.8,0-4-1-4-5.1v-6.8h2.1v6.4
				c0,2.2,0.7,3.7,2.6,3.7c1.4,0,2.4-1,2.8-1.9c0.1-0.3,0.2-0.7,0.2-1.1v-7.1h2.1V64.3z"/>
			<path d="M1709.2,59c0-1.2,0-2.2-0.1-3.1h1.9l0.1,1.9h0c0.6-1.1,1.9-2.2,3.8-2.2c1.6,0,4.1,1,4.1,4.9v6.9h-2.1v-6.7
				c0-1.9-0.7-3.4-2.7-3.4c-1.4,0-2.5,1-2.8,2.2c-0.1,0.3-0.1,0.6-0.1,1v7h-2.1V59z"/>
			<path d="M1724.9,52.5v3.3h3v1.6h-3v6.3c0,1.4,0.4,2.3,1.6,2.3c0.6,0,1-0.1,1.2-0.1l0.1,1.6c-0.4,0.2-1.1,0.3-1.9,0.3
				c-1,0-1.8-0.3-2.3-0.9c-0.6-0.6-0.8-1.7-0.8-3v-6.3h-1.8v-1.6h1.8V53L1724.9,52.5z"/>
		</g>
	</g>
	<g id="Cart">
		<rect x="1823" y="8.9" class="st2" width="170" height="101.1"/>
		<g>
			<path d="M1900.3,66.9c-0.8,0.4-2.3,0.8-4.3,0.8c-4.6,0-8-2.9-8-8.2c0-5.1,3.4-8.5,8.4-8.5c2,0,3.3,0.4,3.8,0.7l-0.5,1.7
				c-0.8-0.4-1.9-0.7-3.3-0.7c-3.8,0-6.3,2.4-6.3,6.7c0,4,2.3,6.5,6.2,6.5c1.3,0,2.6-0.3,3.4-0.7L1900.3,66.9z"/>
			<path d="M1909.1,67.4l-0.2-1.5h-0.1c-0.6,0.9-1.9,1.7-3.6,1.7c-2.4,0-3.6-1.7-3.6-3.3c0-2.8,2.5-4.3,7-4.3v-0.2
				c0-1-0.3-2.7-2.6-2.7c-1.1,0-2.2,0.3-3,0.9l-0.5-1.4c1-0.6,2.4-1,3.8-1c3.6,0,4.4,2.4,4.4,4.8v4.3c0,1,0,2,0.2,2.8H1909.1z
				 M1908.8,61.5c-2.3,0-4.9,0.4-4.9,2.6c0,1.4,0.9,2,2,2c1.5,0,2.5-1,2.8-1.9c0.1-0.2,0.1-0.5,0.1-0.7V61.5z"/>
			<path d="M1914.2,59.4c0-1.4,0-2.5-0.1-3.6h1.8l0.1,2.3h0.1c0.5-1.6,1.8-2.5,3.2-2.5c0.2,0,0.4,0,0.6,0.1v2
				c-0.2,0-0.4-0.1-0.7-0.1c-1.5,0-2.5,1.1-2.8,2.7c0,0.3-0.1,0.6-0.1,1v6.2h-2.1V59.4z"/>
			<path d="M1925.2,52.5v3.3h3v1.6h-3v6.3c0,1.4,0.4,2.3,1.6,2.3c0.6,0,1-0.1,1.2-0.1l0.1,1.6c-0.4,0.2-1.1,0.3-1.9,0.3
				c-1,0-1.8-0.3-2.3-0.9c-0.6-0.6-0.8-1.7-0.8-3v-6.3h-1.8v-1.6h1.8V53L1925.2,52.5z"/>
		</g>
	</g>
</g>
<g id="Nav_details">
	<g id="Entree_Details">
		<g>
			<rect x="284" y="369" class="st2" width="190" height="104"/>
			<g>
				<path d="M351.3,413.8c1.1-0.2,2.7-0.4,4.5-0.4c2.4,0,4,0.4,5.2,1.4c1,0.7,1.6,1.8,1.6,3.3c0,1.8-1.2,3.4-3.2,4.1v0.1
					c1.8,0.4,3.9,1.9,3.9,4.7c0,1.6-0.6,2.9-1.6,3.8c-1.3,1.2-3.4,1.8-6.5,1.8c-1.7,0-3-0.1-3.8-0.2V413.8z M353.8,421.6h2.2
					c2.6,0,4.1-1.3,4.1-3.2c0-2.2-1.7-3.1-4.1-3.1c-1.1,0-1.8,0.1-2.2,0.2V421.6z M353.8,430.6c0.5,0.1,1.2,0.1,2,0.1
					c2.5,0,4.8-0.9,4.8-3.7c0-2.6-2.2-3.6-4.9-3.6h-2V430.6z"/>
				<path d="M367.9,426.1c0.1,3.3,2.2,4.7,4.6,4.7c1.8,0,2.8-0.3,3.8-0.7l0.4,1.8c-0.9,0.4-2.4,0.8-4.5,0.8c-4.2,0-6.7-2.7-6.7-6.8
					c0-4.1,2.4-7.3,6.4-7.3c4.4,0,5.6,3.9,5.6,6.4c0,0.5-0.1,0.9-0.1,1.1H367.9z M375.1,424.4c0-1.6-0.6-4-3.4-4
					c-2.5,0-3.6,2.3-3.8,4H375.1z"/>
				<path d="M381.9,426.1c0.1,3.3,2.2,4.7,4.6,4.7c1.8,0,2.8-0.3,3.8-0.7l0.4,1.8c-0.9,0.4-2.4,0.8-4.5,0.8c-4.2,0-6.7-2.7-6.7-6.8
					c0-4.1,2.4-7.3,6.4-7.3c4.4,0,5.6,3.9,5.6,6.4c0,0.5-0.1,0.9-0.1,1.1H381.9z M389.2,424.4c0-1.6-0.6-4-3.4-4
					c-2.5,0-3.6,2.3-3.8,4H389.2z"/>
				<path d="M394.8,432.5v-11.7h-1.9v-1.9h1.9v-0.6c0-1.9,0.4-3.6,1.6-4.7c0.9-0.9,2.2-1.3,3.3-1.3c0.9,0,1.6,0.2,2.1,0.4l-0.3,1.9
					c-0.4-0.2-0.9-0.3-1.6-0.3c-2.1,0-2.6,1.8-2.6,3.9v0.7h3.3v1.9h-3.3v11.7H394.8z"/>
			</g>
		</g>
		<g>
			<rect x="284" y="520" class="st2" width="190" height="104"/>
			<g>
				<path d="M347.5,579.6c-0.9,0.4-2.7,0.9-5,0.9c-5.3,0-9.3-3.4-9.3-9.5c0-5.9,4-9.9,9.9-9.9c2.4,0,3.8,0.5,4.5,0.8l-0.6,2
					c-0.9-0.4-2.2-0.8-3.8-0.8c-4.4,0-7.4,2.8-7.4,7.8c0,4.6,2.7,7.6,7.3,7.6c1.5,0,3-0.3,4-0.8L347.5,579.6z"/>
				<path d="M350.5,560.3h2.5v8.5h0.1c0.4-0.7,1-1.3,1.8-1.7c0.7-0.4,1.6-0.7,2.5-0.7c1.8,0,4.7,1.1,4.7,5.8v8.1h-2.5v-7.8
					c0-2.2-0.8-4-3.1-4c-1.6,0-2.9,1.1-3.3,2.5c-0.1,0.3-0.2,0.7-0.2,1.2v8.2h-2.5V560.3z"/>
				<path d="M368.8,562.9c0,0.8-0.6,1.5-1.6,1.5c-0.9,0-1.5-0.7-1.5-1.5c0-0.9,0.6-1.5,1.5-1.5C368.2,561.3,368.8,562,368.8,562.9z
					 M366,580.2v-13.6h2.5v13.6H366z"/>
				<path d="M382.2,579.7c-0.6,0.3-2.1,0.8-3.9,0.8c-4.1,0-6.7-2.8-6.7-6.9c0-4.2,2.9-7.2,7.3-7.2c1.5,0,2.7,0.4,3.4,0.7l-0.6,1.9
					c-0.6-0.3-1.5-0.6-2.9-0.6c-3.1,0-4.8,2.3-4.8,5.1c0,3.1,2,5.1,4.7,5.1c1.4,0,2.3-0.4,3-0.7L382.2,579.7z"/>
				<path d="M387.6,572.9L387.6,572.9c0.4-0.5,0.9-1.1,1.3-1.5l4-4.7h3l-5.2,5.6l6,8h-3l-4.7-6.5l-1.3,1.4v5.1h-2.4v-19.9h2.4V572.9
					z"/>
				<path d="M399.6,573.9c0.1,3.3,2.2,4.7,4.6,4.7c1.8,0,2.8-0.3,3.8-0.7l0.4,1.8c-0.9,0.4-2.4,0.8-4.5,0.8c-4.2,0-6.7-2.7-6.7-6.8
					s2.4-7.3,6.4-7.3c4.4,0,5.6,3.9,5.6,6.4c0,0.5-0.1,0.9-0.1,1.1H399.6z M406.9,572.1c0-1.6-0.6-4-3.4-4c-2.5,0-3.6,2.3-3.8,4
					H406.9z"/>
				<path d="M412.3,570.3c0-1.4,0-2.5-0.1-3.7h2.2l0.1,2.2h0.1c0.7-1.3,2.2-2.5,4.5-2.5c1.9,0,4.8,1.1,4.8,5.8v8.1h-2.5v-7.8
					c0-2.2-0.8-4-3.1-4c-1.6,0-2.9,1.1-3.3,2.5c-0.1,0.3-0.2,0.7-0.2,1.1v8.1h-2.5V570.3z"/>
			</g>
		</g>
		<g>
			<rect x="285" y="671" class="st2" width="190" height="104"/>
			<g>
				<path d="M356,712.6c1.2-0.2,2.7-0.4,4.7-0.4c2.4,0,4.2,0.6,5.3,1.6c1,0.9,1.7,2.3,1.7,3.9c0,1.7-0.5,3.1-1.5,4
					c-1.3,1.4-3.4,2.1-5.8,2.1c-0.7,0-1.4,0-2-0.2v7.6H356V712.6z M358.4,721.7c0.5,0.1,1.2,0.2,2,0.2c2.9,0,4.7-1.4,4.7-4
					c0-2.5-1.8-3.7-4.5-3.7c-1.1,0-1.9,0.1-2.3,0.2V721.7z"/>
				<path d="M382.4,724.3c0,5-3.5,7.2-6.7,7.2c-3.7,0-6.5-2.7-6.5-7c0-4.5,3-7.2,6.7-7.2C379.7,717.4,382.4,720.2,382.4,724.3z
					 M371.6,724.5c0,3,1.7,5.2,4.1,5.2c2.4,0,4.1-2.2,4.1-5.3c0-2.3-1.1-5.2-4.1-5.2S371.6,721.9,371.6,724.5z"/>
				<path d="M385.5,721.9c0-1.6,0-3-0.1-4.2h2.2l0.1,2.7h0.1c0.6-1.8,2.1-3,3.8-3c0.3,0,0.5,0,0.7,0.1v2.3c-0.3-0.1-0.5-0.1-0.8-0.1
					c-1.7,0-3,1.3-3.3,3.2c-0.1,0.3-0.1,0.7-0.1,1.1v7.2h-2.4V721.9z"/>
				<path d="M397.2,723.9L397.2,723.9c0.4-0.5,0.9-1.1,1.3-1.5l4-4.7h3l-5.2,5.6l6,8h-3l-4.7-6.5l-1.3,1.4v5.1h-2.4v-19.9h2.4V723.9
					z"/>
			</g>
		</g>
		<g>
			<rect x="284.9" y="822.5" class="st2" width="190" height="104"/>
			<g>
				<path d="M333.8,879.7c1.1,0.7,2.7,1.2,4.4,1.2c2.5,0,3.9-1.3,3.9-3.2c0-1.8-1-2.8-3.6-3.8c-3.1-1.1-5-2.7-5-5.3
					c0-2.9,2.4-5.1,6.1-5.1c1.9,0,3.3,0.4,4.2,0.9l-0.7,2c-0.6-0.3-1.9-0.9-3.6-0.9c-2.6,0-3.6,1.5-3.6,2.8c0,1.8,1.1,2.6,3.8,3.6
					c3.2,1.2,4.8,2.8,4.8,5.5c0,2.9-2.2,5.4-6.6,5.4c-1.8,0-3.8-0.5-4.8-1.2L333.8,879.7z"/>
				<path d="M349.4,876.4c0.1,3.3,2.2,4.7,4.6,4.7c1.8,0,2.8-0.3,3.8-0.7l0.4,1.8c-0.9,0.4-2.4,0.8-4.5,0.8c-4.2,0-6.7-2.7-6.7-6.8
					s2.4-7.3,6.4-7.3c4.4,0,5.6,3.9,5.6,6.4c0,0.5-0.1,0.9-0.1,1.1H349.4z M356.6,874.6c0-1.6-0.6-4-3.4-4c-2.5,0-3.6,2.3-3.8,4
					H356.6z"/>
				<path d="M369.5,882.7l-0.2-1.7h-0.1c-0.8,1.1-2.2,2-4.1,2c-2.7,0-4.1-1.9-4.1-3.9c0-3.3,2.9-5.1,8.1-5v-0.3
					c0-1.1-0.3-3.1-3.1-3.1c-1.3,0-2.6,0.4-3.5,1l-0.6-1.6c1.1-0.7,2.7-1.2,4.5-1.2c4.1,0,5.2,2.8,5.2,5.5v5.1
					c0,1.2,0.1,2.3,0.2,3.2H369.5z M369.2,875.8c-2.7-0.1-5.7,0.4-5.7,3.1c0,1.6,1.1,2.4,2.3,2.4c1.8,0,2.9-1.1,3.3-2.3
					c0.1-0.3,0.1-0.5,0.1-0.8V875.8z"/>
				<path d="M375.8,882.7V871h-1.9v-1.9h1.9v-0.6c0-1.9,0.4-3.6,1.6-4.7c0.9-0.9,2.2-1.3,3.3-1.3c0.9,0,1.6,0.2,2.1,0.4l-0.3,1.9
					c-0.4-0.2-0.9-0.3-1.6-0.3c-2.1,0-2.6,1.8-2.6,3.9v0.7h3.3v1.9h-3.3v11.7H375.8z"/>
				<path d="M395.6,875.8c0,5-3.5,7.2-6.7,7.2c-3.7,0-6.5-2.7-6.5-7c0-4.5,3-7.2,6.7-7.2C393,868.9,395.6,871.7,395.6,875.8z
					 M384.8,876c0,3,1.7,5.2,4.1,5.2c2.4,0,4.1-2.2,4.1-5.3c0-2.3-1.1-5.2-4.1-5.2S384.8,873.4,384.8,876z"/>
				<path d="M411,875.8c0,5-3.5,7.2-6.7,7.2c-3.7,0-6.5-2.7-6.5-7c0-4.5,3-7.2,6.7-7.2C408.3,868.9,411,871.7,411,875.8z M400.2,876
					c0,3,1.7,5.2,4.1,5.2c2.4,0,4.1-2.2,4.1-5.3c0-2.3-1.1-5.2-4.1-5.2S400.2,873.4,400.2,876z"/>
				<path d="M425.8,862.8v16.4c0,1.2,0,2.6,0.1,3.5h-2.2l-0.1-2.4h-0.1c-0.8,1.5-2.4,2.7-4.6,2.7c-3.3,0-5.8-2.8-5.8-6.9
					c0-4.5,2.8-7.3,6.1-7.3c2.1,0,3.5,1,4.1,2.1h0.1v-8.1H425.8z M423.3,874.7c0-0.3,0-0.7-0.1-1c-0.4-1.6-1.7-2.9-3.6-2.9
					c-2.5,0-4.1,2.2-4.1,5.2c0,2.7,1.3,5,4,5c1.7,0,3.2-1.1,3.6-2.9c0.1-0.3,0.1-0.7,0.1-1.1V874.7z"/>
			</g>
		</g>
		<g>
			<rect x="285" y="974" class="st2" width="190" height="104"/>
			<g>
				<path d="M293.4,1015.6c1.2-0.3,3-0.4,4.7-0.4c2.6,0,4.3,0.5,5.5,1.5c1,0.8,1.5,2.1,1.5,3.6c0,2.5-1.6,4.1-3.6,4.8v0.1
					c1.5,0.5,2.3,1.8,2.8,3.8c0.6,2.6,1.1,4.5,1.5,5.2h-2.5c-0.3-0.5-0.7-2.2-1.3-4.5c-0.6-2.6-1.6-3.6-3.8-3.7h-2.3v8.2h-2.4
					V1015.6z M295.8,1024.2h2.5c2.6,0,4.3-1.4,4.3-3.6c0-2.4-1.8-3.5-4.3-3.5c-1.2,0-2,0.1-2.4,0.2V1024.2z"/>
				<path d="M309.8,1027.9c0.1,3.3,2.2,4.7,4.6,4.7c1.8,0,2.8-0.3,3.8-0.7l0.4,1.8c-0.9,0.4-2.4,0.8-4.5,0.8c-4.2,0-6.7-2.7-6.7-6.8
					s2.4-7.3,6.4-7.3c4.4,0,5.6,3.9,5.6,6.4c0,0.5-0.1,0.9-0.1,1.1H309.8z M317.1,1026.1c0-1.6-0.6-4-3.4-4c-2.5,0-3.6,2.3-3.8,4
					H317.1z"/>
				<path d="M322.2,1031.7c0.7,0.5,2,1,3.2,1c1.8,0,2.6-0.9,2.6-2c0-1.2-0.7-1.8-2.5-2.5c-2.4-0.9-3.6-2.2-3.6-3.8
					c0-2.2,1.8-4,4.7-4c1.4,0,2.6,0.4,3.3,0.8l-0.6,1.8c-0.5-0.3-1.5-0.8-2.8-0.8c-1.5,0-2.3,0.8-2.3,1.8c0,1.1,0.8,1.6,2.6,2.3
					c2.4,0.9,3.6,2.1,3.6,4.1c0,2.4-1.8,4.1-5.1,4.1c-1.5,0-2.9-0.4-3.8-0.9L322.2,1031.7z"/>
				<path d="M336.6,1016.8v3.9h3.5v1.9h-3.5v7.3c0,1.7,0.5,2.6,1.8,2.6c0.6,0,1.1-0.1,1.4-0.2l0.1,1.8c-0.5,0.2-1.2,0.3-2.2,0.3
					c-1.1,0-2.1-0.4-2.7-1c-0.7-0.7-1-1.9-1-3.5v-7.4h-2.1v-1.9h2.1v-3.2L336.6,1016.8z"/>
				<path d="M342.9,1024.9c0-1.6,0-3-0.1-4.2h2.2l0.1,2.7h0.1c0.6-1.8,2.1-3,3.8-3c0.3,0,0.5,0,0.7,0.1v2.3
					c-0.3-0.1-0.5-0.1-0.8-0.1c-1.7,0-3,1.3-3.3,3.2c-0.1,0.3-0.1,0.7-0.1,1.1v7.2h-2.4V1024.9z"/>
				<path d="M354.9,1016.9c0,0.8-0.6,1.5-1.6,1.5c-0.9,0-1.5-0.7-1.5-1.5c0-0.9,0.6-1.5,1.5-1.5
					C354.3,1015.3,354.9,1016,354.9,1016.9z M352.1,1034.2v-13.6h2.5v13.6H352.1z"/>
				<path d="M368.3,1033.7c-0.6,0.3-2.1,0.8-3.9,0.8c-4.1,0-6.7-2.8-6.7-6.9c0-4.2,2.9-7.2,7.3-7.2c1.5,0,2.7,0.4,3.4,0.7l-0.6,1.9
					c-0.6-0.3-1.5-0.6-2.9-0.6c-3.1,0-4.8,2.3-4.8,5.1c0,3.1,2,5.1,4.7,5.1c1.4,0,2.3-0.4,3-0.7L368.3,1033.7z"/>
				<path d="M374.6,1016.8v3.9h3.5v1.9h-3.5v7.3c0,1.7,0.5,2.6,1.8,2.6c0.6,0,1.1-0.1,1.4-0.2l0.1,1.8c-0.5,0.2-1.2,0.3-2.2,0.3
					c-1.1,0-2.1-0.4-2.7-1c-0.7-0.7-1-1.9-1-3.5v-7.4H370v-1.9h2.1v-3.2L374.6,1016.8z"/>
				<path d="M382.1,1027.9c0.1,3.3,2.2,4.7,4.6,4.7c1.8,0,2.8-0.3,3.8-0.7l0.4,1.8c-0.9,0.4-2.4,0.8-4.5,0.8c-4.2,0-6.7-2.7-6.7-6.8
					s2.4-7.3,6.4-7.3c4.4,0,5.6,3.9,5.6,6.4c0,0.5-0.1,0.9-0.1,1.1H382.1z M389.3,1026.1c0-1.6-0.6-4-3.4-4c-2.5,0-3.6,2.3-3.8,4
					H389.3z"/>
				<path d="M406.4,1014.3v16.4c0,1.2,0,2.6,0.1,3.5h-2.2l-0.1-2.4h-0.1c-0.8,1.5-2.4,2.7-4.6,2.7c-3.3,0-5.8-2.8-5.8-6.9
					c0-4.5,2.8-7.3,6.1-7.3c2.1,0,3.5,1,4.1,2.1h0.1v-8.1H406.4z M404,1026.2c0-0.3,0-0.7-0.1-1c-0.4-1.6-1.7-2.9-3.6-2.9
					c-2.5,0-4.1,2.2-4.1,5.2c0,2.7,1.3,5,4,5c1.7,0,3.2-1.1,3.6-2.9c0.1-0.3,0.1-0.7,0.1-1.1V1026.2z"/>
				<path d="M416.7,1034.2v-11.7h-1.9v-1.9h1.9v-0.6c0-1.9,0.4-3.6,1.6-4.7c0.9-0.9,2.2-1.3,3.3-1.3c0.9,0,1.6,0.2,2.1,0.4l-0.3,1.9
					c-0.4-0.2-0.9-0.3-1.6-0.3c-2.1,0-2.6,1.8-2.6,3.9v0.7h3.3v1.9h-3.3v11.7H416.7z"/>
				<path d="M436.5,1027.3c0,5-3.5,7.2-6.7,7.2c-3.7,0-6.5-2.7-6.5-7c0-4.5,3-7.2,6.7-7.2C433.9,1020.4,436.5,1023.2,436.5,1027.3z
					 M425.8,1027.5c0,3,1.7,5.2,4.1,5.2c2.4,0,4.1-2.2,4.1-5.3c0-2.3-1.1-5.2-4.1-5.2S425.8,1024.9,425.8,1027.5z"/>
				<path d="M451.9,1027.3c0,5-3.5,7.2-6.7,7.2c-3.7,0-6.5-2.7-6.5-7c0-4.5,3-7.2,6.7-7.2C449.3,1020.4,451.9,1023.2,451.9,1027.3z
					 M441.1,1027.5c0,3,1.7,5.2,4.1,5.2c2.4,0,4.1-2.2,4.1-5.3c0-2.3-1.1-5.2-4.1-5.2S441.1,1024.9,441.1,1027.5z"/>
				<path d="M466.7,1014.3v16.4c0,1.2,0,2.6,0.1,3.5h-2.2l-0.1-2.4h-0.1c-0.8,1.5-2.4,2.7-4.6,2.7c-3.3,0-5.8-2.8-5.8-6.9
					c0-4.5,2.8-7.3,6.1-7.3c2.1,0,3.5,1,4.1,2.1h0.1v-8.1H466.7z M464.2,1026.2c0-0.3,0-0.7-0.1-1c-0.4-1.6-1.7-2.9-3.6-2.9
					c-2.5,0-4.1,2.2-4.1,5.2c0,2.7,1.3,5,4,5c1.7,0,3.2-1.1,3.6-2.9c0.1-0.3,0.1-0.7,0.1-1.1V1026.2z"/>
			</g>
		</g>
	</g>
	<g id="Side_Details">
		<g>
			<rect x="563" y="369" class="st2" width="190" height="104"/>
			<g>
				<path d="M606.3,423.3l-2,5.9h-2.5l6.4-18.9h2.9l6.4,18.9H615l-2-5.9H606.3z M612.5,421.4l-1.8-5.4c-0.4-1.2-0.7-2.4-1-3.4h-0.1
					c-0.3,1.1-0.6,2.3-1,3.4l-1.8,5.5H612.5z"/>
				<path d="M620.2,420.1c0-1.7-0.1-3.1-0.1-4.4h2.2l0.1,2.3h0.1c1-1.7,2.6-2.6,4.8-2.6c3.3,0,5.7,2.8,5.7,6.9c0,4.9-3,7.3-6.2,7.3
					c-1.8,0-3.4-0.8-4.2-2.1h-0.1v7.4h-2.4V420.1z M622.7,423.7c0,0.4,0.1,0.7,0.1,1c0.4,1.7,1.9,2.9,3.7,2.9c2.6,0,4.1-2.1,4.1-5.2
					c0-2.7-1.4-5-4-5c-1.7,0-3.2,1.2-3.7,3.1c-0.1,0.3-0.2,0.7-0.2,1V423.7z"/>
				<path d="M636.2,420.1c0-1.7-0.1-3.1-0.1-4.4h2.2l0.1,2.3h0.1c1-1.7,2.6-2.6,4.8-2.6c3.3,0,5.7,2.8,5.7,6.9c0,4.9-3,7.3-6.2,7.3
					c-1.8,0-3.4-0.8-4.2-2.1h-0.1v7.4h-2.4V420.1z M638.6,423.7c0,0.4,0.1,0.7,0.1,1c0.4,1.7,1.9,2.9,3.7,2.9c2.6,0,4.1-2.1,4.1-5.2
					c0-2.7-1.4-5-4-5c-1.7,0-3.2,1.2-3.7,3.1c-0.1,0.3-0.2,0.7-0.2,1V423.7z"/>
				<path d="M653.5,422.9c0.1,3.3,2.2,4.7,4.6,4.7c1.8,0,2.8-0.3,3.8-0.7l0.4,1.8c-0.9,0.4-2.4,0.8-4.5,0.8c-4.2,0-6.7-2.7-6.7-6.8
					s2.4-7.3,6.4-7.3c4.4,0,5.6,3.9,5.6,6.4c0,0.5-0.1,0.9-0.1,1.1H653.5z M660.7,421.1c0-1.6-0.6-4-3.4-4c-2.5,0-3.6,2.3-3.8,4
					H660.7z"/>
				<path d="M669.1,411.8v3.9h3.5v1.9h-3.5v7.3c0,1.7,0.5,2.6,1.8,2.6c0.6,0,1.1-0.1,1.4-0.2l0.1,1.8c-0.5,0.2-1.2,0.3-2.2,0.3
					c-1.1,0-2.1-0.4-2.7-1c-0.7-0.7-1-1.9-1-3.5v-7.4h-2.1v-1.9h2.1v-3.2L669.1,411.8z"/>
				<path d="M678.1,411.9c0,0.8-0.6,1.5-1.6,1.5c-0.9,0-1.5-0.7-1.5-1.5c0-0.9,0.6-1.5,1.5-1.5C677.5,410.3,678.1,411,678.1,411.9z
					 M675.4,429.2v-13.6h2.5v13.6H675.4z"/>
				<path d="M680.4,427.8l6.1-8c0.6-0.7,1.1-1.4,1.8-2.1v-0.1H681v-2h10.3l0,1.5l-6,7.9c-0.6,0.8-1.1,1.4-1.7,2.1v0.1h7.9v2h-11
					V427.8z"/>
				<path d="M695.1,422.9c0.1,3.3,2.2,4.7,4.6,4.7c1.8,0,2.8-0.3,3.8-0.7l0.4,1.8c-0.9,0.4-2.4,0.8-4.5,0.8c-4.2,0-6.7-2.7-6.7-6.8
					s2.4-7.3,6.4-7.3c4.4,0,5.6,3.9,5.6,6.4c0,0.5-0.1,0.9-0.1,1.1H695.1z M702.3,421.1c0-1.6-0.6-4-3.4-4c-2.5,0-3.6,2.3-3.8,4
					H702.3z"/>
				<path d="M707.8,419.9c0-1.6,0-3-0.1-4.2h2.2l0.1,2.7h0.1c0.6-1.8,2.1-3,3.8-3c0.3,0,0.5,0,0.7,0.1v2.3c-0.3-0.1-0.5-0.1-0.8-0.1
					c-1.7,0-3,1.3-3.3,3.2c-0.1,0.3-0.1,0.7-0.1,1.1v7.2h-2.4V419.9z"/>
			</g>
		</g>
		<g>
			<rect x="563" y="526" class="st2" width="190" height="104"/>
			<g>
				<path d="M628.2,583.2c1.1,0.7,2.7,1.2,4.4,1.2c2.5,0,3.9-1.3,3.9-3.2c0-1.8-1-2.8-3.6-3.8c-3.1-1.1-5-2.7-5-5.3
					c0-2.9,2.4-5.1,6.1-5.1c1.9,0,3.3,0.4,4.2,0.9l-0.7,2c-0.6-0.3-1.9-0.9-3.6-0.9c-2.6,0-3.6,1.5-3.6,2.8c0,1.8,1.1,2.6,3.8,3.6
					c3.2,1.2,4.8,2.8,4.8,5.5c0,2.9-2.2,5.4-6.6,5.4c-1.8,0-3.8-0.5-4.8-1.2L628.2,583.2z"/>
				<path d="M649.8,586.2l-0.2-1.7h-0.1c-0.8,1.1-2.2,2-4.1,2c-2.7,0-4.1-1.9-4.1-3.9c0-3.3,2.9-5.1,8.1-5v-0.3
					c0-1.1-0.3-3.1-3.1-3.1c-1.3,0-2.6,0.4-3.5,1l-0.6-1.6c1.1-0.7,2.7-1.2,4.5-1.2c4.1,0,5.2,2.8,5.2,5.5v5.1
					c0,1.2,0.1,2.3,0.2,3.2H649.8z M649.4,579.3c-2.7-0.1-5.7,0.4-5.7,3.1c0,1.6,1.1,2.4,2.3,2.4c1.8,0,2.9-1.1,3.3-2.3
					c0.1-0.3,0.1-0.5,0.1-0.8V579.3z"/>
				<path d="M655.8,566.3h2.5v19.9h-2.5V566.3z"/>
				<path d="M669.9,586.2l-0.2-1.7h-0.1c-0.8,1.1-2.2,2-4.1,2c-2.7,0-4.1-1.9-4.1-3.9c0-3.3,2.9-5.1,8.1-5v-0.3
					c0-1.1-0.3-3.1-3.1-3.1c-1.3,0-2.6,0.4-3.5,1l-0.6-1.6c1.1-0.7,2.7-1.2,4.5-1.2c4.1,0,5.2,2.8,5.2,5.5v5.1
					c0,1.2,0.1,2.3,0.2,3.2H669.9z M669.5,579.3c-2.7-0.1-5.7,0.4-5.7,3.1c0,1.6,1.1,2.4,2.3,2.4c1.8,0,2.9-1.1,3.3-2.3
					c0.1-0.3,0.1-0.5,0.1-0.8V579.3z"/>
				<path d="M687.6,566.3v16.4c0,1.2,0,2.6,0.1,3.5h-2.2l-0.1-2.4h-0.1c-0.8,1.5-2.4,2.7-4.6,2.7c-3.3,0-5.8-2.8-5.8-6.9
					c0-4.5,2.8-7.3,6.1-7.3c2.1,0,3.5,1,4.1,2.1h0.1v-8.1H687.6z M685.1,578.2c0-0.3,0-0.7-0.1-1c-0.4-1.6-1.7-2.9-3.6-2.9
					c-2.5,0-4.1,2.2-4.1,5.2c0,2.7,1.3,5,4,5c1.7,0,3.2-1.1,3.6-2.9c0.1-0.3,0.1-0.7,0.1-1.1V578.2z"/>
			</g>
		</g>
		<g>
			<rect x="564" y="674" class="st2" width="190" height="104"/>
			<g>
				<path d="M630.4,731.2c1.1,0.7,2.7,1.2,4.4,1.2c2.5,0,3.9-1.3,3.9-3.2c0-1.8-1-2.8-3.6-3.8c-3.1-1.1-5-2.7-5-5.3
					c0-2.9,2.4-5.1,6.1-5.1c1.9,0,3.3,0.4,4.2,0.9l-0.7,2c-0.6-0.3-1.9-0.9-3.6-0.9c-2.6,0-3.6,1.5-3.6,2.8c0,1.8,1.1,2.6,3.8,3.6
					c3.2,1.2,4.8,2.8,4.8,5.5c0,2.9-2.2,5.4-6.6,5.4c-1.8,0-3.8-0.5-4.8-1.2L630.4,731.2z"/>
				<path d="M656.9,727.3c0,5-3.5,7.2-6.7,7.2c-3.7,0-6.5-2.7-6.5-7c0-4.5,3-7.2,6.7-7.2C654.3,720.4,656.9,723.2,656.9,727.3z
					 M646.2,727.5c0,3,1.7,5.2,4.1,5.2c2.4,0,4.1-2.2,4.1-5.3c0-2.3-1.1-5.2-4.1-5.2S646.2,724.9,646.2,727.5z"/>
				<path d="M671.4,730.5c0,1.4,0,2.6,0.1,3.7h-2.2l-0.1-2.2h-0.1c-0.6,1.1-2.1,2.5-4.5,2.5c-2.1,0-4.7-1.2-4.7-5.9v-7.9h2.5v7.5
					c0,2.6,0.8,4.3,3,4.3c1.7,0,2.8-1.1,3.2-2.2c0.1-0.4,0.2-0.8,0.2-1.3v-8.3h2.5V730.5z"/>
				<path d="M675.5,725.1c0-1.7-0.1-3.1-0.1-4.4h2.2l0.1,2.3h0.1c1-1.7,2.6-2.6,4.8-2.6c3.3,0,5.7,2.8,5.7,6.9c0,4.9-3,7.3-6.2,7.3
					c-1.8,0-3.4-0.8-4.2-2.1h-0.1v7.4h-2.4V725.1z M677.9,728.7c0,0.4,0.1,0.7,0.1,1c0.4,1.7,1.9,2.9,3.7,2.9c2.6,0,4.1-2.1,4.1-5.2
					c0-2.7-1.4-5-4-5c-1.7,0-3.2,1.2-3.7,3.1c-0.1,0.3-0.2,0.7-0.2,1V728.7z"/>
			</g>
		</g>
		<g>
			<rect x="566" y="822" class="st2" width="190" height="104"/>
			<g>
				<path d="M619.1,863.6c1.5-0.2,3.2-0.4,5.2-0.4c3.5,0,6,0.8,7.6,2.4c1.7,1.5,2.7,3.7,2.7,6.8c0,3.1-1,5.6-2.7,7.3
					c-1.8,1.8-4.7,2.7-8.3,2.7c-1.7,0-3.2-0.1-4.4-0.2V863.6z M621.5,880.3c0.6,0.1,1.5,0.1,2.5,0.1c5.2,0,8-2.9,8-8
					c0-4.5-2.5-7.3-7.6-7.3c-1.3,0-2.2,0.1-2.9,0.3V880.3z"/>
				<path d="M639.1,875.9c0.1,3.3,2.2,4.7,4.6,4.7c1.8,0,2.8-0.3,3.8-0.7l0.4,1.8c-0.9,0.4-2.4,0.8-4.5,0.8c-4.2,0-6.7-2.7-6.7-6.8
					s2.4-7.3,6.4-7.3c4.4,0,5.6,3.9,5.6,6.4c0,0.5-0.1,0.9-0.1,1.1H639.1z M646.4,874.1c0-1.6-0.6-4-3.4-4c-2.5,0-3.6,2.3-3.8,4
					H646.4z"/>
				<path d="M651.5,879.7c0.7,0.5,2,1,3.2,1c1.8,0,2.6-0.9,2.6-2c0-1.2-0.7-1.8-2.5-2.5c-2.4-0.9-3.6-2.2-3.6-3.8c0-2.2,1.8-4,4.7-4
					c1.4,0,2.6,0.4,3.3,0.8l-0.6,1.8c-0.5-0.3-1.5-0.8-2.8-0.8c-1.5,0-2.3,0.8-2.3,1.8c0,1.1,0.8,1.6,2.6,2.3
					c2.4,0.9,3.6,2.1,3.6,4.1c0,2.4-1.8,4.1-5.1,4.1c-1.5,0-2.9-0.4-3.8-0.9L651.5,879.7z"/>
				<path d="M662.5,879.7c0.7,0.5,2,1,3.2,1c1.8,0,2.6-0.9,2.6-2c0-1.2-0.7-1.8-2.5-2.5c-2.4-0.9-3.6-2.2-3.6-3.8c0-2.2,1.8-4,4.7-4
					c1.4,0,2.6,0.4,3.3,0.8l-0.6,1.8c-0.5-0.3-1.5-0.8-2.8-0.8c-1.5,0-2.3,0.8-2.3,1.8c0,1.1,0.8,1.6,2.6,2.3
					c2.4,0.9,3.6,2.1,3.6,4.1c0,2.4-1.8,4.1-5.1,4.1c-1.5,0-2.9-0.4-3.8-0.9L662.5,879.7z"/>
				<path d="M675.3,875.9c0.1,3.3,2.2,4.7,4.6,4.7c1.8,0,2.8-0.3,3.8-0.7l0.4,1.8c-0.9,0.4-2.4,0.8-4.5,0.8c-4.2,0-6.7-2.7-6.7-6.8
					s2.4-7.3,6.4-7.3c4.4,0,5.6,3.9,5.6,6.4c0,0.5-0.1,0.9-0.1,1.1H675.3z M682.6,874.1c0-1.6-0.6-4-3.4-4c-2.5,0-3.6,2.3-3.8,4
					H682.6z"/>
				<path d="M688,872.9c0-1.6,0-3-0.1-4.2h2.2l0.1,2.7h0.1c0.6-1.8,2.1-3,3.8-3c0.3,0,0.5,0,0.7,0.1v2.3c-0.3-0.1-0.5-0.1-0.8-0.1
					c-1.7,0-3,1.3-3.3,3.2c-0.1,0.3-0.1,0.7-0.1,1.1v7.2H688V872.9z"/>
				<path d="M700.8,864.8v3.9h3.5v1.9h-3.5v7.3c0,1.7,0.5,2.6,1.8,2.6c0.6,0,1.1-0.1,1.4-0.2l0.1,1.8c-0.5,0.2-1.2,0.3-2.2,0.3
					c-1.1,0-2.1-0.4-2.7-1c-0.7-0.7-1-1.9-1-3.5v-7.4h-2.1v-1.9h2.1v-3.2L700.8,864.8z"/>
			</g>
		</g>
	</g>
	<g id="Restricted_Food">
		<g>
			<rect x="846" y="831" class="st1" width="186" height="104"/>
			<g>
				<path d="M884.4,892.9l-6.2-18.9h2.6l2.9,9.3c0.8,2.5,1.5,4.8,2,7.1h0.1c0.5-2.2,1.3-4.6,2.2-7l3.2-9.3h2.6l-6.7,18.9H884.4z"/>
				<path d="M896.3,886.6c0.1,3.3,2.2,4.7,4.6,4.7c1.8,0,2.8-0.3,3.8-0.7l0.4,1.8c-0.9,0.4-2.4,0.8-4.5,0.8c-4.2,0-6.7-2.7-6.7-6.8
					s2.4-7.3,6.4-7.3c4.4,0,5.6,3.9,5.6,6.4c0,0.5-0.1,0.9-0.1,1.1H896.3z M903.5,884.8c0-1.6-0.6-4-3.4-4c-2.5,0-3.6,2.3-3.8,4
					H903.5z"/>
				<path d="M920.6,879.3c-0.1,1-0.1,2.1-0.1,3.7v7.9c0,3.1-0.6,5-1.9,6.2c-1.3,1.2-3.2,1.6-4.9,1.6c-1.6,0-3.4-0.4-4.5-1.1l0.6-1.9
					c0.9,0.6,2.3,1.1,4,1.1c2.5,0,4.4-1.3,4.4-4.7v-1.5H918c-0.8,1.3-2.2,2.3-4.3,2.3c-3.4,0-5.8-2.9-5.8-6.6c0-4.6,3-7.2,6.1-7.2
					c2.4,0,3.6,1.2,4.2,2.4h0.1l0.1-2H920.6z M918,884.7c0-0.4,0-0.8-0.1-1.1c-0.4-1.4-1.7-2.6-3.4-2.6c-2.4,0-4,2-4,5.1
					c0,2.7,1.3,4.9,4,4.9c1.5,0,2.9-1,3.4-2.5c0.1-0.4,0.2-0.9,0.2-1.3V884.7z"/>
				<path d="M925.9,886.6c0.1,3.3,2.2,4.7,4.6,4.7c1.8,0,2.8-0.3,3.8-0.7l0.4,1.8c-0.9,0.4-2.4,0.8-4.5,0.8c-4.2,0-6.7-2.7-6.7-6.8
					s2.4-7.3,6.4-7.3c4.4,0,5.6,3.9,5.6,6.4c0,0.5-0.1,0.9-0.1,1.1H925.9z M933.2,884.8c0-1.6-0.6-4-3.4-4c-2.5,0-3.6,2.3-3.8,4
					H933.2z"/>
				<path d="M941.6,875.4v3.9h3.5v1.9h-3.5v7.3c0,1.7,0.5,2.6,1.8,2.6c0.6,0,1.1-0.1,1.4-0.2l0.1,1.8c-0.5,0.2-1.2,0.3-2.2,0.3
					c-1.1,0-2.1-0.4-2.7-1c-0.7-0.7-1-1.9-1-3.5v-7.4H937v-1.9h2.1v-3.2L941.6,875.4z"/>
				<path d="M955.4,892.9l-0.2-1.7h-0.1c-0.8,1.1-2.2,2-4.1,2c-2.7,0-4.1-1.9-4.1-3.9c0-3.3,2.9-5.1,8.1-5V884
					c0-1.1-0.3-3.1-3.1-3.1c-1.3,0-2.6,0.4-3.5,1l-0.6-1.6c1.1-0.7,2.7-1.2,4.5-1.2c4.1,0,5.2,2.8,5.2,5.5v5.1
					c0,1.2,0.1,2.3,0.2,3.2H955.4z M955,886c-2.7-0.1-5.7,0.4-5.7,3.1c0,1.6,1.1,2.4,2.3,2.4c1.8,0,2.9-1.1,3.3-2.3
					c0.1-0.3,0.1-0.5,0.1-0.8V886z"/>
				<path d="M961.4,883.6c0-1.6,0-3-0.1-4.2h2.2l0.1,2.7h0.1c0.6-1.8,2.1-3,3.8-3c0.3,0,0.5,0,0.7,0.1v2.3c-0.3-0.1-0.5-0.1-0.8-0.1
					c-1.7,0-3,1.3-3.3,3.2c-0.1,0.3-0.1,0.7-0.1,1.1v7.2h-2.4V883.6z"/>
				<path d="M973.4,875.5c0,0.8-0.6,1.5-1.6,1.5c-0.9,0-1.5-0.7-1.5-1.5c0-0.9,0.6-1.5,1.5-1.5C972.8,874,973.4,874.7,973.4,875.5z
					 M970.6,892.9v-13.6h2.5v13.6H970.6z"/>
				<path d="M984.7,892.9l-0.2-1.7h-0.1c-0.8,1.1-2.2,2-4.1,2c-2.7,0-4.1-1.9-4.1-3.9c0-3.3,2.9-5.1,8.1-5V884
					c0-1.1-0.3-3.1-3.1-3.1c-1.3,0-2.6,0.4-3.5,1l-0.6-1.6c1.1-0.7,2.7-1.2,4.5-1.2c4.1,0,5.2,2.8,5.2,5.5v5.1
					c0,1.2,0.1,2.3,0.2,3.2H984.7z M984.3,886c-2.7-0.1-5.7,0.4-5.7,3.1c0,1.6,1.1,2.4,2.3,2.4c1.8,0,2.9-1.1,3.3-2.3
					c0.1-0.3,0.1-0.5,0.1-0.8V886z"/>
				<path d="M990.7,883c0-1.4,0-2.5-0.1-3.7h2.2l0.1,2.2h0.1c0.7-1.3,2.2-2.5,4.5-2.5c1.9,0,4.8,1.1,4.8,5.8v8.1h-2.5v-7.8
					c0-2.2-0.8-4-3.1-4c-1.6,0-2.9,1.1-3.3,2.5c-0.1,0.3-0.2,0.7-0.2,1.1v8.1h-2.5V883z"/>
			</g>
		</g>
		<g>
			<rect x="847" y="974" class="st1" width="186" height="104"/>
			<g>
				<path d="M912.5,1034.5l-6.2-18.9h2.6l2.9,9.3c0.8,2.5,1.5,4.8,2,7.1h0.1c0.5-2.2,1.3-4.6,2.2-7l3.2-9.3h2.6l-6.7,18.9H912.5z"/>
				<path d="M924.3,1028.2c0.1,3.3,2.2,4.7,4.6,4.7c1.8,0,2.8-0.3,3.8-0.7l0.4,1.8c-0.9,0.4-2.4,0.8-4.5,0.8c-4.2,0-6.7-2.7-6.7-6.8
					s2.4-7.3,6.4-7.3c4.4,0,5.6,3.9,5.6,6.4c0,0.5-0.1,0.9-0.1,1.1H924.3z M931.5,1026.4c0-1.6-0.6-4-3.4-4c-2.5,0-3.6,2.3-3.8,4
					H931.5z"/>
				<path d="M948.6,1021c-0.1,1-0.1,2.1-0.1,3.7v7.9c0,3.1-0.6,5-1.9,6.2c-1.3,1.2-3.2,1.6-4.9,1.6c-1.6,0-3.4-0.4-4.5-1.1l0.6-1.9
					c0.9,0.6,2.3,1.1,4,1.1c2.5,0,4.4-1.3,4.4-4.7v-1.5h-0.1c-0.8,1.3-2.2,2.3-4.3,2.3c-3.4,0-5.8-2.9-5.8-6.6c0-4.6,3-7.2,6.1-7.2
					c2.4,0,3.6,1.2,4.2,2.4h0.1l0.1-2H948.6z M946.1,1026.3c0-0.4,0-0.8-0.1-1.1c-0.4-1.4-1.7-2.6-3.4-2.6c-2.4,0-4,2-4,5.1
					c0,2.7,1.3,4.9,4,4.9c1.5,0,2.9-1,3.4-2.5c0.1-0.4,0.2-0.9,0.2-1.3V1026.3z"/>
				<path d="M960.1,1034.5l-0.2-1.7h-0.1c-0.8,1.1-2.2,2-4.1,2c-2.7,0-4.1-1.9-4.1-3.9c0-3.3,2.9-5.1,8.1-5v-0.3
					c0-1.1-0.3-3.1-3.1-3.1c-1.3,0-2.6,0.4-3.5,1l-0.6-1.6c1.1-0.7,2.7-1.2,4.5-1.2c4.1,0,5.2,2.8,5.2,5.5v5.1
					c0,1.2,0.1,2.3,0.2,3.2H960.1z M959.7,1027.6c-2.7-0.1-5.7,0.4-5.7,3.1c0,1.6,1.1,2.4,2.3,2.4c1.8,0,2.9-1.1,3.3-2.3
					c0.1-0.3,0.1-0.5,0.1-0.8V1027.6z"/>
				<path d="M966.1,1024.6c0-1.4,0-2.5-0.1-3.7h2.2l0.1,2.2h0.1c0.7-1.3,2.2-2.5,4.5-2.5c1.9,0,4.8,1.1,4.8,5.8v8.1h-2.5v-7.8
					c0-2.2-0.8-4-3.1-4c-1.6,0-2.9,1.1-3.3,2.5c-0.1,0.3-0.2,0.7-0.2,1.1v8.1h-2.5V1024.6z"/>
			</g>
		</g>
		<g>
			<rect x="848" y="1117" class="st1" width="186" height="104"/>
			<g>
				<path d="M890.5,1176.5c-1.1,0.4-3.2,1-5.8,1c-2.9,0-5.2-0.7-7.1-2.5c-1.6-1.6-2.6-4.1-2.6-7c0-5.6,3.9-9.7,10.2-9.7
					c2.2,0,3.9,0.5,4.7,0.9l-0.6,2c-1-0.4-2.3-0.8-4.2-0.8c-4.6,0-7.6,2.9-7.6,7.6c0,4.8,2.9,7.6,7.3,7.6c1.6,0,2.7-0.2,3.2-0.5
					v-5.6h-3.8v-2h6.2V1176.5z"/>
				<path d="M894.2,1157.4h2.5v19.9h-2.5V1157.4z"/>
				<path d="M912.1,1173.6c0,1.4,0,2.6,0.1,3.7h-2.2l-0.1-2.2h-0.1c-0.6,1.1-2.1,2.5-4.5,2.5c-2.1,0-4.7-1.2-4.7-5.9v-7.9h2.5v7.5
					c0,2.6,0.8,4.3,3,4.3c1.7,0,2.8-1.1,3.2-2.2c0.1-0.4,0.2-0.8,0.2-1.3v-8.3h2.5V1173.6z"/>
				<path d="M919.2,1159.9v3.9h3.5v1.9h-3.5v7.3c0,1.7,0.5,2.6,1.8,2.6c0.6,0,1.1-0.1,1.4-0.2l0.1,1.8c-0.5,0.2-1.2,0.3-2.2,0.3
					c-1.1,0-2.1-0.4-2.7-1c-0.7-0.7-1-1.9-1-3.5v-7.4h-2.1v-1.9h2.1v-3.2L919.2,1159.9z"/>
				<path d="M926.7,1171c0.1,3.3,2.2,4.7,4.6,4.7c1.8,0,2.8-0.3,3.8-0.7l0.4,1.8c-0.9,0.4-2.4,0.8-4.5,0.8c-4.2,0-6.7-2.7-6.7-6.8
					s2.4-7.3,6.4-7.3c4.4,0,5.6,3.9,5.6,6.4c0,0.5-0.1,0.9-0.1,1.1H926.7z M933.9,1169.2c0-1.6-0.6-4-3.4-4c-2.5,0-3.6,2.3-3.8,4
					H933.9z"/>
				<path d="M939.3,1167.4c0-1.4,0-2.5-0.1-3.7h2.2l0.1,2.2h0.1c0.7-1.3,2.2-2.5,4.5-2.5c1.9,0,4.8,1.1,4.8,5.8v8.1h-2.5v-7.8
					c0-2.2-0.8-4-3.1-4c-1.6,0-2.9,1.1-3.3,2.5c-0.1,0.3-0.2,0.7-0.2,1.1v8.1h-2.5V1167.4z"/>
				<path d="M960.9,1158.4h10.2v2h-7.7v6.3h7.1v2h-7.1v8.5h-2.4V1158.4z"/>
				<path d="M973.7,1168c0-1.6,0-3-0.1-4.2h2.2l0.1,2.7h0.1c0.6-1.8,2.1-3,3.8-3c0.3,0,0.5,0,0.7,0.1v2.3c-0.3-0.1-0.5-0.1-0.8-0.1
					c-1.7,0-3,1.3-3.3,3.2c-0.1,0.3-0.1,0.7-0.1,1.1v7.2h-2.4V1168z"/>
				<path d="M984,1171c0.1,3.3,2.2,4.7,4.6,4.7c1.8,0,2.8-0.3,3.8-0.7l0.4,1.8c-0.9,0.4-2.4,0.8-4.5,0.8c-4.2,0-6.7-2.7-6.7-6.8
					s2.4-7.3,6.4-7.3c4.4,0,5.6,3.9,5.6,6.4c0,0.5-0.1,0.9-0.1,1.1H984z M991.2,1169.2c0-1.6-0.6-4-3.4-4c-2.5,0-3.6,2.3-3.8,4
					H991.2z"/>
				<path d="M998,1171c0.1,3.3,2.2,4.7,4.6,4.7c1.8,0,2.8-0.3,3.8-0.7l0.4,1.8c-0.9,0.4-2.4,0.8-4.5,0.8c-4.2,0-6.7-2.7-6.7-6.8
					s2.4-7.3,6.4-7.3c4.4,0,5.6,3.9,5.6,6.4c0,0.5-0.1,0.9-0.1,1.1H998z M1005.2,1169.2c0-1.6-0.6-4-3.4-4c-2.5,0-3.6,2.3-3.8,4
					H1005.2z"/>
			</g>
		</g>
	</g>
	<g id="line_3">
		<line class="st1" x1="375" y1="320" x2="375" y2="369"/>
		<line class="st1" x1="375" y1="473" x2="375" y2="520"/>
		<line class="st1" x1="375" y1="624" x2="375" y2="671"/>
		<line class="st1" x1="375" y1="775" x2="375" y2="822"/>
		<line class="st1" x1="375" y1="926" x2="375" y2="974"/>
		<line class="st1" x1="658" y1="320" x2="658" y2="369"/>
		<line class="st1" x1="658" y1="630" x2="658" y2="671"/>
		<line class="st1" x1="658" y1="775" x2="658" y2="822"/>
		<line class="st1" x1="658" y1="473" x2="658" y2="526"/>
		<g>
			<line class="st1" x1="474" y1="1026" x2="844" y2="1026"/>
			<line class="st1" x1="811" y1="883" x2="811" y2="1169"/>
			<line class="st1" x1="811" y1="883" x2="846" y2="883"/>
			<line class="st1" x1="811" y1="1169" x2="847" y2="1169"/>
		</g>
	</g>
</g>
</svg>
