<?xml version="1.0" encoding="utf-8"?>
<!-- Generator: Adobe Illustrator 22.0.0, SVG Export Plug-In . SVG Version: 6.00 Build 0)  -->
<svg version="1.1" id="Layer_1" xmlns="http://www.w3.org/2000/svg" xmlns:xlink="http://www.w3.org/1999/xlink" x="0px" y="0px"
	 viewBox="0 0 510.4 193.1" style="enable-background:new 0 0 510.4 193.1;" xml:space="preserve">
<style type="text/css">
	.st0{fill:#303030;}
	.st1{fill:#5B5B5A;}
	.st2{fill:#F8F7CC;}
	.st3{fill:#8C8C89;}
	.st4{fill:#848383;}
	.st5{fill:#72C47B;}
	.st6{fill:#E9AF57;}
	.st7{fill:#979797;}
	.st8{fill:#DBDBDB;}
	.st9{fill:#C0EDC3;}
	.st10{fill:#EDCCA4;}
</style>
<g>
	<g>
		<path class="st0" d="M32.1,17.1V19c-0.9-0.8-1.9-1.2-2.9-1.2c-1.1,0-2,0.4-2.7,1.2c-0.7,0.8-1.1,1.7-1.1,2.8c0,1.1,0.4,2,1.1,2.8
			s1.7,1.1,2.7,1.1c0.6,0,1-0.1,1.4-0.3c0.2-0.1,0.4-0.2,0.7-0.4s0.5-0.3,0.7-0.6v1.9c-0.9,0.5-1.9,0.8-2.9,0.8
			c-1.5,0-2.8-0.5-3.9-1.6c-1.1-1.1-1.6-2.3-1.6-3.8c0-1.3,0.4-2.5,1.3-3.6c1.1-1.3,2.5-1.9,4.2-1.9C30.3,16.3,31.2,16.6,32.1,17.1z
			"/>
		<path class="st0" d="M33.5,21.8c0-1.5,0.5-2.8,1.6-3.8c1.1-1.1,2.4-1.6,3.9-1.6c1.5,0,2.8,0.5,3.9,1.6c1.1,1.1,1.6,2.4,1.6,3.9
			c0,1.5-0.5,2.8-1.6,3.9c-1.1,1.1-2.4,1.6-3.9,1.6c-1.4,0-2.6-0.5-3.7-1.4C34.1,24.8,33.5,23.4,33.5,21.8z M35.1,21.8
			c0,1.2,0.4,2.1,1.2,2.9c0.8,0.8,1.7,1.1,2.7,1.1c1.1,0,2-0.4,2.8-1.1c0.8-0.8,1.1-1.7,1.1-2.8c0-1.1-0.4-2.1-1.1-2.8
			c-0.7-0.8-1.7-1.1-2.8-1.1c-1.1,0-2,0.4-2.8,1.1C35.5,19.7,35.1,20.7,35.1,21.8z"/>
		<path class="st0" d="M48.2,16.5v9.1h3.1v1.5h-4.7V16.5H48.2z"/>
		<path class="st0" d="M51.8,21.8c0-1.5,0.5-2.8,1.6-3.8c1.1-1.1,2.4-1.6,3.9-1.6c1.5,0,2.8,0.5,3.9,1.6c1.1,1.1,1.6,2.4,1.6,3.9
			c0,1.5-0.5,2.8-1.6,3.9c-1.1,1.1-2.4,1.6-3.9,1.6c-1.4,0-2.6-0.5-3.7-1.4C52.4,24.8,51.8,23.4,51.8,21.8z M53.4,21.8
			c0,1.2,0.4,2.1,1.2,2.9c0.8,0.8,1.7,1.1,2.7,1.1c1.1,0,2-0.4,2.8-1.1c0.8-0.8,1.1-1.7,1.1-2.8c0-1.1-0.4-2.1-1.1-2.8
			c-0.7-0.8-1.7-1.1-2.8-1.1c-1.1,0-2,0.4-2.8,1.1C53.8,19.7,53.4,20.7,53.4,21.8z"/>
		<path class="st0" d="M68.4,22.6l3.3,4.5h-1.9l-3-4.3h-0.3v4.3h-1.6V16.5h1.9c1.4,0,2.4,0.3,3,0.8c0.7,0.6,1,1.4,1,2.3
			c0,0.7-0.2,1.4-0.6,1.9S69.1,22.4,68.4,22.6z M66.4,21.4h0.5c1.5,0,2.3-0.6,2.3-1.7c0-1.1-0.7-1.6-2.2-1.6h-0.6V21.4z"/>
		<path class="st0" d="M83.6,18.1l-1.3,0.8c-0.2-0.4-0.5-0.7-0.7-0.8c-0.2-0.1-0.5-0.2-0.9-0.2c-0.4,0-0.8,0.1-1.1,0.4
			c-0.3,0.2-0.4,0.6-0.4,0.9c0,0.5,0.4,0.9,1.1,1.2l1.1,0.4c0.9,0.3,1.5,0.8,1.9,1.3s0.6,1.1,0.6,1.8c0,1-0.3,1.8-1,2.4
			c-0.7,0.6-1.5,1-2.4,1c-0.9,0-1.7-0.3-2.3-0.8c-0.6-0.5-1-1.3-1.1-2.3l1.6-0.4c0.1,0.6,0.2,1,0.4,1.3c0.3,0.5,0.8,0.7,1.4,0.7
			c0.5,0,0.9-0.2,1.2-0.5s0.5-0.8,0.5-1.3c0-0.2,0-0.4-0.1-0.6S82,23.1,81.9,23s-0.3-0.3-0.5-0.4s-0.4-0.2-0.7-0.4l-1-0.4
			c-1.4-0.6-2.2-1.5-2.2-2.7c0-0.8,0.3-1.5,0.9-2c0.6-0.5,1.4-0.8,2.3-0.8C81.9,16.3,82.9,16.9,83.6,18.1z"/>
		<path class="st0" d="M93.6,17.1V19c-0.9-0.8-1.9-1.2-2.9-1.2c-1.1,0-2,0.4-2.7,1.2c-0.7,0.8-1.1,1.7-1.1,2.8c0,1.1,0.4,2,1.1,2.8
			s1.7,1.1,2.7,1.1c0.6,0,1-0.1,1.4-0.3c0.2-0.1,0.4-0.2,0.7-0.4s0.5-0.3,0.7-0.6v1.9c-0.9,0.5-1.9,0.8-2.9,0.8
			c-1.5,0-2.8-0.5-3.9-1.6c-1.1-1.1-1.6-2.3-1.6-3.8c0-1.3,0.4-2.5,1.3-3.6c1.1-1.3,2.5-1.9,4.2-1.9C91.8,16.3,92.7,16.6,93.6,17.1z
			"/>
		<path class="st0" d="M97.5,20.7h4.6v-4.1h1.6v10.6H102v-4.9h-4.6v4.9h-1.6V16.5h1.6V20.7z"/>
		<path class="st0" d="M111.9,18h-4.2v2.5h4.1v1.5h-4.1v3.5h4.2v1.5h-5.8V16.5h5.8V18z"/>
		<path class="st0" d="M113.7,27.1l2.2-11.3l3.6,8.2l3.8-8.2l2,11.3h-1.6l-1-6.4l-3.1,6.9l-3-6.9l-1.1,6.4H113.7z"/>
		<path class="st0" d="M133.3,18h-4.2v2.5h4.1v1.5h-4.1v3.5h4.2v1.5h-5.8V16.5h5.8V18z"/>
	</g>
	<g>
		<path class="st1" d="M25.5,54.4v3.7h-1.4v-9h1.5c0.8,0,1.3,0.1,1.7,0.2c0.4,0.1,0.7,0.3,1,0.6c0.5,0.5,0.8,1.1,0.8,1.9
			c0,0.8-0.3,1.5-0.8,2s-1.3,0.7-2.2,0.7H25.5z M25.5,53.1H26c1.3,0,1.9-0.5,1.9-1.4c0-0.9-0.6-1.4-1.9-1.4h-0.5V53.1z"/>
		<path class="st1" d="M30.4,52.4h1.3v0.5c0.2-0.3,0.5-0.4,0.6-0.5c0.2-0.1,0.4-0.1,0.7-0.1c0.3,0,0.7,0.1,1.1,0.3l-0.6,1.2
			c-0.2-0.2-0.5-0.3-0.7-0.3c-0.7,0-1.1,0.5-1.1,1.6v3h-1.3V52.4z"/>
		<path class="st1" d="M34.8,50c0-0.2,0.1-0.4,0.3-0.6s0.4-0.3,0.6-0.3c0.2,0,0.4,0.1,0.6,0.3c0.2,0.2,0.3,0.4,0.3,0.6
			s-0.1,0.4-0.3,0.6c-0.2,0.2-0.4,0.3-0.6,0.3s-0.4-0.1-0.6-0.3S34.8,50.2,34.8,50z M36.3,52.4v5.7H35v-5.7H36.3z"/>
		<path class="st1" d="M38,52.4h1.3v0.5c0.3-0.3,0.5-0.4,0.7-0.5c0.2-0.1,0.4-0.1,0.7-0.1c0.6,0,1.2,0.3,1.5,0.8
			c0.4-0.6,1-0.8,1.7-0.8c1.3,0,1.9,0.8,1.9,2.3v3.5h-1.3v-3.2c0-0.5-0.1-0.9-0.2-1.2c-0.1-0.2-0.4-0.3-0.7-0.3
			c-0.4,0-0.6,0.1-0.8,0.4s-0.2,0.7-0.2,1.3v2.9h-1.3v-3.2c0-1-0.3-1.5-0.9-1.5c-0.4,0-0.6,0.1-0.8,0.4s-0.3,0.7-0.3,1.3v2.9H38
			V52.4z"/>
		<path class="st1" d="M51.7,52.4H53v5.7h-1.3v-0.6c-0.5,0.5-1.1,0.8-1.8,0.8c-0.8,0-1.4-0.3-2-0.9c-0.5-0.6-0.8-1.3-0.8-2.2
			c0-0.9,0.3-1.6,0.8-2.1s1.2-0.9,1.9-0.9c0.7,0,1.3,0.3,1.8,0.8V52.4z M48.6,55.2c0,0.5,0.1,1,0.4,1.3c0.3,0.3,0.7,0.5,1.1,0.5
			c0.5,0,0.9-0.2,1.2-0.5c0.3-0.3,0.5-0.8,0.5-1.3s-0.2-1-0.5-1.3c-0.3-0.3-0.7-0.5-1.2-0.5c-0.5,0-0.8,0.2-1.1,0.5
			C48.7,54.3,48.6,54.7,48.6,55.2z"/>
		<path class="st1" d="M54.7,52.4H56v0.5c0.2-0.3,0.5-0.4,0.6-0.5c0.2-0.1,0.4-0.1,0.7-0.1c0.3,0,0.7,0.1,1.1,0.3l-0.6,1.2
			c-0.2-0.2-0.5-0.3-0.7-0.3c-0.7,0-1.1,0.5-1.1,1.6v3h-1.3V52.4z"/>
		<path class="st1" d="M61.5,57l-2.6-4.6h1.5l1.7,3.3l1.6-3.3h1.5l-4.5,8.8h-1.5L61.5,57z"/>
		<path class="st1" d="M76.9,49.5v1.6c-0.8-0.7-1.6-1-2.4-1c-0.9,0-1.7,0.3-2.3,1c-0.6,0.7-1,1.5-1,2.4c0,0.9,0.3,1.8,1,2.4
			s1.4,1,2.4,1c0.5,0,0.9-0.1,1.2-0.2c0.2-0.1,0.4-0.2,0.6-0.3s0.4-0.3,0.6-0.5v1.6c-0.8,0.4-1.6,0.7-2.5,0.7
			c-1.3,0-2.4-0.5-3.3-1.4c-0.9-0.9-1.4-2-1.4-3.3c0-1.2,0.4-2.2,1.1-3.1c0.9-1.1,2.2-1.7,3.6-1.7C75.3,48.9,76.1,49.1,76.9,49.5z"
			/>
		<path class="st1" d="M78.1,55.2c0-0.8,0.3-1.5,0.9-2.1s1.3-0.9,2.2-0.9c0.9,0,1.6,0.3,2.2,0.9c0.6,0.6,0.9,1.3,0.9,2.1
			c0,0.9-0.3,1.6-0.9,2.2c-0.6,0.6-1.3,0.9-2.2,0.9c-0.9,0-1.6-0.3-2.2-0.9C78.4,56.8,78.1,56.1,78.1,55.2z M79.4,55.2
			c0,0.6,0.2,1,0.5,1.4c0.3,0.3,0.7,0.5,1.2,0.5c0.5,0,0.9-0.2,1.2-0.5s0.5-0.8,0.5-1.3s-0.2-1-0.5-1.3c-0.3-0.3-0.7-0.5-1.2-0.5
			c-0.5,0-0.9,0.2-1.2,0.5S79.4,54.7,79.4,55.2z"/>
		<path class="st1" d="M86.9,48.2v9.9h-1.3v-9.9H86.9z"/>
		<path class="st1" d="M88.3,55.2c0-0.8,0.3-1.5,0.9-2.1s1.3-0.9,2.2-0.9c0.9,0,1.6,0.3,2.2,0.9c0.6,0.6,0.9,1.3,0.9,2.1
			c0,0.9-0.3,1.6-0.9,2.2c-0.6,0.6-1.3,0.9-2.2,0.9c-0.9,0-1.6-0.3-2.2-0.9C88.6,56.8,88.3,56.1,88.3,55.2z M89.6,55.2
			c0,0.6,0.2,1,0.5,1.4c0.3,0.3,0.7,0.5,1.2,0.5c0.5,0,0.9-0.2,1.2-0.5s0.5-0.8,0.5-1.3s-0.2-1-0.5-1.3c-0.3-0.3-0.7-0.5-1.2-0.5
			c-0.5,0-0.9,0.2-1.2,0.5S89.6,54.7,89.6,55.2z"/>
		<path class="st1" d="M95.8,52.4h1.3v0.5c0.2-0.3,0.5-0.4,0.6-0.5c0.2-0.1,0.4-0.1,0.7-0.1c0.3,0,0.7,0.1,1.1,0.3l-0.6,1.2
			c-0.2-0.2-0.5-0.3-0.7-0.3c-0.7,0-1.1,0.5-1.1,1.6v3h-1.3V52.4z"/>
	</g>
	<g>
		<path class="st1" d="M348.2,50.4l-1.1,0.7c-0.2-0.4-0.4-0.6-0.6-0.7c-0.2-0.1-0.4-0.2-0.8-0.2c-0.4,0-0.7,0.1-0.9,0.3
			c-0.2,0.2-0.4,0.5-0.4,0.8c0,0.4,0.3,0.8,1,1.1l0.9,0.4c0.7,0.3,1.3,0.7,1.6,1.1s0.5,1,0.5,1.6c0,0.8-0.3,1.5-0.8,2.1
			c-0.6,0.5-1.3,0.8-2.1,0.8c-0.8,0-1.4-0.2-1.9-0.7c-0.5-0.5-0.8-1.1-0.9-2l1.4-0.3c0.1,0.5,0.2,0.9,0.3,1.1
			c0.3,0.4,0.7,0.6,1.2,0.6c0.4,0,0.8-0.1,1.1-0.4s0.4-0.6,0.4-1.1c0-0.2,0-0.3-0.1-0.5s-0.1-0.3-0.2-0.4s-0.2-0.2-0.4-0.3
			s-0.4-0.2-0.6-0.3l-0.9-0.4c-1.2-0.5-1.9-1.3-1.9-2.3c0-0.7,0.3-1.2,0.8-1.7c0.5-0.5,1.2-0.7,1.9-0.7
			C346.8,48.9,347.7,49.4,348.2,50.4z"/>
		<path class="st1" d="M355.1,55.5H351c0,0.5,0.2,0.8,0.5,1.1c0.3,0.3,0.6,0.4,1,0.4c0.3,0,0.6-0.1,0.8-0.2c0.2-0.2,0.5-0.4,0.7-0.9
			l1.1,0.6c-0.2,0.3-0.4,0.5-0.5,0.8s-0.4,0.4-0.6,0.5s-0.5,0.2-0.7,0.3s-0.5,0.1-0.8,0.1c-0.9,0-1.5-0.3-2.1-0.8
			c-0.5-0.6-0.8-1.3-0.8-2.2c0-0.9,0.2-1.6,0.8-2.2c0.5-0.6,1.2-0.8,2-0.8c0.8,0,1.5,0.3,2,0.8c0.5,0.5,0.7,1.3,0.7,2.2L355.1,55.5z
			 M353.7,54.5c-0.2-0.7-0.6-1.1-1.3-1.1c-0.2,0-0.3,0-0.5,0.1s-0.3,0.1-0.4,0.2s-0.2,0.2-0.3,0.3s-0.1,0.3-0.2,0.4H353.7z"/>
		<path class="st1" d="M360.9,52.6v1.8c-0.3-0.4-0.6-0.6-0.8-0.8c-0.2-0.1-0.5-0.2-0.8-0.2c-0.5,0-0.9,0.2-1.2,0.5s-0.5,0.8-0.5,1.3
			c0,0.5,0.2,1,0.5,1.3c0.3,0.3,0.7,0.5,1.2,0.5c0.3,0,0.6-0.1,0.8-0.2c0.2-0.1,0.5-0.4,0.8-0.8v1.7c-0.5,0.3-1.1,0.4-1.6,0.4
			c-0.9,0-1.6-0.3-2.2-0.9c-0.6-0.6-0.9-1.3-0.9-2.1s0.3-1.6,0.9-2.2s1.3-0.9,2.2-0.9C359.9,52.2,360.4,52.3,360.9,52.6z"/>
		<path class="st1" d="M362,55.2c0-0.8,0.3-1.5,0.9-2.1s1.3-0.9,2.2-0.9c0.9,0,1.6,0.3,2.2,0.9c0.6,0.6,0.9,1.3,0.9,2.1
			c0,0.9-0.3,1.6-0.9,2.2c-0.6,0.6-1.3,0.9-2.2,0.9c-0.9,0-1.6-0.3-2.2-0.9C362.2,56.8,362,56.1,362,55.2z M363.3,55.2
			c0,0.6,0.2,1,0.5,1.4c0.3,0.3,0.7,0.5,1.2,0.5c0.5,0,0.9-0.2,1.2-0.5s0.5-0.8,0.5-1.3s-0.2-1-0.5-1.3c-0.3-0.3-0.7-0.5-1.2-0.5
			c-0.5,0-0.9,0.2-1.2,0.5S363.3,54.7,363.3,55.2z"/>
		<path class="st1" d="M369.4,52.4h1.3v0.5c0.5-0.5,1-0.7,1.6-0.7c0.7,0,1.2,0.2,1.6,0.6c0.3,0.4,0.5,0.9,0.5,1.7v3.5H373v-3.2
			c0-0.6-0.1-1-0.2-1.2c-0.2-0.2-0.4-0.3-0.8-0.3c-0.4,0-0.7,0.1-0.9,0.4c-0.2,0.3-0.3,0.8-0.3,1.5v2.8h-1.3V52.4z"/>
		<path class="st1" d="M380.2,48.2h1.3v9.9h-1.3v-0.6c-0.5,0.5-1.1,0.8-1.8,0.8c-0.8,0-1.4-0.3-1.9-0.9c-0.5-0.6-0.8-1.3-0.8-2.2
			c0-0.9,0.3-1.6,0.8-2.1c0.5-0.6,1.1-0.9,1.9-0.9c0.7,0,1.3,0.3,1.8,0.8V48.2z M377.1,55.2c0,0.5,0.1,1,0.4,1.3
			c0.3,0.3,0.7,0.5,1.1,0.5c0.5,0,0.9-0.2,1.2-0.5c0.3-0.3,0.5-0.8,0.5-1.3s-0.2-1-0.5-1.3c-0.3-0.3-0.7-0.5-1.2-0.5
			c-0.5,0-0.8,0.2-1.1,0.5C377.2,54.3,377.1,54.7,377.1,55.2z"/>
		<path class="st1" d="M382.9,55.2c0-0.8,0.3-1.5,0.9-2.1s1.3-0.9,2.2-0.9c0.9,0,1.6,0.3,2.2,0.9c0.6,0.6,0.9,1.3,0.9,2.1
			c0,0.9-0.3,1.6-0.9,2.2c-0.6,0.6-1.3,0.9-2.2,0.9c-0.9,0-1.6-0.3-2.2-0.9C383.2,56.8,382.9,56.1,382.9,55.2z M384.3,55.2
			c0,0.6,0.2,1,0.5,1.4c0.3,0.3,0.7,0.5,1.2,0.5c0.5,0,0.9-0.2,1.2-0.5s0.5-0.8,0.5-1.3s-0.2-1-0.5-1.3c-0.3-0.3-0.7-0.5-1.2-0.5
			c-0.5,0-0.9,0.2-1.2,0.5S384.3,54.7,384.3,55.2z"/>
		<path class="st1" d="M390.4,52.4h1.3v0.5c0.2-0.3,0.5-0.4,0.6-0.5c0.2-0.1,0.4-0.1,0.7-0.1c0.3,0,0.7,0.1,1.1,0.3l-0.6,1.2
			c-0.2-0.2-0.5-0.3-0.7-0.3c-0.7,0-1.1,0.5-1.1,1.6v3h-1.3V52.4z"/>
		<path class="st1" d="M397.2,57l-2.6-4.6h1.5l1.7,3.3l1.6-3.3h1.5l-4.5,8.8H395L397.2,57z"/>
		<path class="st1" d="M412.6,49.5v1.6c-0.8-0.7-1.6-1-2.4-1c-0.9,0-1.7,0.3-2.3,1c-0.6,0.7-1,1.5-1,2.4c0,0.9,0.3,1.8,1,2.4
			s1.4,1,2.4,1c0.5,0,0.9-0.1,1.2-0.2c0.2-0.1,0.4-0.2,0.6-0.3s0.4-0.3,0.6-0.5v1.6c-0.8,0.4-1.6,0.7-2.5,0.7
			c-1.3,0-2.4-0.5-3.3-1.4c-0.9-0.9-1.4-2-1.4-3.3c0-1.2,0.4-2.2,1.1-3.1c0.9-1.1,2.2-1.7,3.6-1.7C411.1,48.9,411.8,49.1,412.6,49.5
			z"/>
		<path class="st1" d="M413.8,55.2c0-0.8,0.3-1.5,0.9-2.1s1.3-0.9,2.2-0.9c0.9,0,1.6,0.3,2.2,0.9c0.6,0.6,0.9,1.3,0.9,2.1
			c0,0.9-0.3,1.6-0.9,2.2c-0.6,0.6-1.3,0.9-2.2,0.9c-0.9,0-1.6-0.3-2.2-0.9C414.1,56.8,413.8,56.1,413.8,55.2z M415.2,55.2
			c0,0.6,0.2,1,0.5,1.4c0.3,0.3,0.7,0.5,1.2,0.5c0.5,0,0.9-0.2,1.2-0.5s0.5-0.8,0.5-1.3s-0.2-1-0.5-1.3c-0.3-0.3-0.7-0.5-1.2-0.5
			c-0.5,0-0.9,0.2-1.2,0.5S415.2,54.7,415.2,55.2z"/>
		<path class="st1" d="M422.6,48.2v9.9h-1.3v-9.9H422.6z"/>
		<path class="st1" d="M424,55.2c0-0.8,0.3-1.5,0.9-2.1s1.3-0.9,2.2-0.9c0.9,0,1.6,0.3,2.2,0.9c0.6,0.6,0.9,1.3,0.9,2.1
			c0,0.9-0.3,1.6-0.9,2.2c-0.6,0.6-1.3,0.9-2.2,0.9c-0.9,0-1.6-0.3-2.2-0.9C424.3,56.8,424,56.1,424,55.2z M425.4,55.2
			c0,0.6,0.2,1,0.5,1.4c0.3,0.3,0.7,0.5,1.2,0.5c0.5,0,0.9-0.2,1.2-0.5s0.5-0.8,0.5-1.3s-0.2-1-0.5-1.3c-0.3-0.3-0.7-0.5-1.2-0.5
			c-0.5,0-0.9,0.2-1.2,0.5S425.4,54.7,425.4,55.2z"/>
		<path class="st1" d="M431.5,52.4h1.3v0.5c0.2-0.3,0.5-0.4,0.6-0.5c0.2-0.1,0.4-0.1,0.7-0.1c0.3,0,0.7,0.1,1.1,0.3l-0.6,1.2
			c-0.2-0.2-0.5-0.3-0.7-0.3c-0.7,0-1.1,0.5-1.1,1.6v3h-1.3V52.4z"/>
	</g>
</g>
<g>
	<g>
		<rect x="22.7" y="67.9" class="st2" width="71" height="71"/>
		<g>
			<path class="st3" d="M42.4,106.9v-5h-0.8v-0.8h0.8v-0.3c0-0.8,0.2-1.6,0.7-2c0.4-0.4,0.9-0.5,1.4-0.5c0.4,0,0.7,0.1,0.9,0.2
				l-0.1,0.8c-0.2-0.1-0.4-0.1-0.7-0.1c-0.9,0-1.1,0.8-1.1,1.7v0.3h1.4v0.8h-1.4v5H42.4z"/>
			<path class="st3" d="M46,104.9c0-1,0.6-1.7,1.5-2.1l0,0c-0.9-0.4-1.2-1.1-1.2-1.8c0-1.2,1-2.1,2.4-2.1c1.5,0,2.3,0.9,2.3,1.9
				c0,0.7-0.3,1.4-1.3,1.8v0c1,0.4,1.6,1.1,1.6,2c0,1.4-1.2,2.3-2.7,2.3C46.9,107.1,46,106.1,46,104.9z M50.2,104.9
				c0-0.9-0.7-1.4-1.7-1.7c-0.9,0.3-1.4,0.9-1.4,1.6c0,0.8,0.6,1.5,1.6,1.5C49.6,106.3,50.2,105.7,50.2,104.9z M47.3,101
				c0,0.8,0.6,1.2,1.5,1.4c0.7-0.2,1.2-0.7,1.2-1.4c0-0.6-0.4-1.3-1.3-1.3C47.7,99.8,47.3,100.3,47.3,101z"/>
			<path class="st3" d="M53.3,106.9v-5h-0.8v-0.8h0.8v-0.3c0-0.8,0.2-1.6,0.7-2c0.4-0.4,0.9-0.5,1.4-0.5c0.4,0,0.7,0.1,0.9,0.2
				l-0.1,0.8c-0.2-0.1-0.4-0.1-0.7-0.1c-0.9,0-1.1,0.8-1.1,1.7v0.3h1.4v0.8h-1.4v5H53.3z"/>
			<path class="st3" d="M62,99.1v0.7l-3.4,7.1h-1.1l3.4-6.9v0h-3.8v-0.9H62z"/>
			<path class="st3" d="M68.2,106.7c-0.3,0.1-0.9,0.3-1.7,0.3c-1.8,0-2.9-1.2-2.9-3c0-1.8,1.2-3.1,3.1-3.1c0.6,0,1.2,0.2,1.5,0.3
				l-0.2,0.8c-0.3-0.1-0.6-0.3-1.2-0.3c-1.3,0-2.1,1-2.1,2.2c0,1.3,0.9,2.2,2,2.2c0.6,0,1-0.2,1.3-0.3L68.2,106.7z"/>
			<path class="st3" d="M74.1,106.7c-0.3,0.1-0.9,0.3-1.7,0.3c-1.8,0-2.9-1.2-2.9-3c0-1.8,1.2-3.1,3.1-3.1c0.6,0,1.2,0.2,1.5,0.3
				l-0.2,0.8c-0.3-0.1-0.6-0.3-1.2-0.3c-1.3,0-2.1,1-2.1,2.2c0,1.3,0.9,2.2,2,2.2c0.6,0,1-0.2,1.3-0.3L74.1,106.7z"/>
		</g>
		<g>
			<path class="st4" d="M34.8,145.1c0.4-0.1,1-0.1,1.6-0.1c0.9,0,1.4,0.1,1.8,0.5c0.3,0.3,0.6,0.7,0.6,1.2c0,0.6-0.4,1.2-1.1,1.5v0
				c0.6,0.2,1.4,0.7,1.4,1.7c0,0.6-0.2,1-0.6,1.3c-0.5,0.4-1.2,0.6-2.3,0.6c-0.6,0-1.1,0-1.3-0.1V145.1z M35.6,147.8h0.8
				c0.9,0,1.5-0.5,1.5-1.1c0-0.8-0.6-1.1-1.5-1.1c-0.4,0-0.6,0-0.8,0.1V147.8z M35.6,151.1c0.2,0,0.4,0,0.7,0c0.9,0,1.7-0.3,1.7-1.3
				c0-0.9-0.8-1.3-1.7-1.3h-0.7V151.1z"/>
			<path class="st4" d="M42.8,151.7l-0.1-0.6h0c-0.3,0.4-0.8,0.7-1.5,0.7c-1,0-1.5-0.7-1.5-1.4c0-1.2,1-1.8,2.9-1.8v-0.1
				c0-0.4-0.1-1.1-1.1-1.1c-0.4,0-0.9,0.1-1.3,0.4l-0.2-0.6c0.4-0.3,1-0.4,1.6-0.4c1.5,0,1.8,1,1.8,2v1.8c0,0.4,0,0.8,0.1,1.2H42.8z
				 M42.7,149.3c-1,0-2,0.1-2,1.1c0,0.6,0.4,0.8,0.8,0.8c0.6,0,1-0.4,1.2-0.8c0-0.1,0.1-0.2,0.1-0.3V149.3z"/>
			<path class="st4" d="M48.4,151.5c-0.2,0.1-0.7,0.3-1.4,0.3c-1.5,0-2.4-1-2.4-2.5c0-1.5,1-2.6,2.6-2.6c0.5,0,1,0.1,1.2,0.2
				l-0.2,0.7c-0.2-0.1-0.5-0.2-1-0.2c-1.1,0-1.7,0.8-1.7,1.8c0,1.1,0.7,1.8,1.7,1.8c0.5,0,0.8-0.1,1.1-0.2L48.4,151.5z"/>
			<path class="st4" d="M50.3,149.1L50.3,149.1c0.1-0.2,0.3-0.4,0.4-0.5l1.4-1.7h1.1l-1.9,2l2.1,2.8h-1.1l-1.7-2.3l-0.4,0.5v1.8
				h-0.9v-7.1h0.9V149.1z"/>
			<path class="st4" d="M58.3,146.9c0,0.4,0,0.7,0,1.3v2.8c0,1.1-0.2,1.8-0.7,2.2c-0.5,0.4-1.1,0.6-1.8,0.6c-0.6,0-1.2-0.1-1.6-0.4
				l0.2-0.7c0.3,0.2,0.8,0.4,1.4,0.4c0.9,0,1.6-0.5,1.6-1.7v-0.5h0c-0.3,0.4-0.8,0.8-1.5,0.8c-1.2,0-2.1-1-2.1-2.4
				c0-1.6,1.1-2.6,2.2-2.6c0.8,0,1.3,0.4,1.5,0.8h0l0-0.7H58.3z M57.4,148.8c0-0.1,0-0.3,0-0.4c-0.2-0.5-0.6-0.9-1.2-0.9
				c-0.8,0-1.4,0.7-1.4,1.8c0,0.9,0.5,1.7,1.4,1.7c0.5,0,1-0.3,1.2-0.9c0-0.1,0.1-0.3,0.1-0.5V148.8z"/>
			<path class="st4" d="M59.7,148.4c0-0.6,0-1.1,0-1.5h0.8l0,0.9h0c0.2-0.6,0.7-1.1,1.3-1.1c0.1,0,0.2,0,0.2,0v0.8
				c-0.1,0-0.2,0-0.3,0c-0.6,0-1.1,0.5-1.2,1.1c0,0.1,0,0.3,0,0.4v2.6h-0.9V148.4z"/>
			<path class="st4" d="M67.2,149.3c0,1.8-1.2,2.6-2.4,2.6c-1.3,0-2.3-1-2.3-2.5c0-1.6,1.1-2.6,2.4-2.6
				C66.3,146.8,67.2,147.8,67.2,149.3z M63.4,149.3c0,1.1,0.6,1.9,1.5,1.9c0.8,0,1.5-0.8,1.5-1.9c0-0.8-0.4-1.9-1.4-1.9
				C63.8,147.4,63.4,148.4,63.4,149.3z"/>
			<path class="st4" d="M72.4,150.4c0,0.5,0,0.9,0,1.3h-0.8l0-0.8h0c-0.2,0.4-0.7,0.9-1.6,0.9c-0.8,0-1.7-0.4-1.7-2.1v-2.8h0.9v2.7
				c0,0.9,0.3,1.5,1.1,1.5c0.6,0,1-0.4,1.2-0.8c0-0.1,0.1-0.3,0.1-0.4v-3h0.9V150.4z"/>
			<path class="st4" d="M73.8,148.2c0-0.5,0-0.9,0-1.3h0.8l0,0.8h0c0.2-0.5,0.8-0.9,1.6-0.9c0.7,0,1.7,0.4,1.7,2.1v2.9h-0.9v-2.8
				c0-0.8-0.3-1.4-1.1-1.4c-0.6,0-1,0.4-1.2,0.9c0,0.1-0.1,0.3-0.1,0.4v2.9h-0.9V148.2z"/>
			<path class="st4" d="M83.6,144.6v5.8c0,0.4,0,0.9,0,1.2h-0.8l0-0.8h0c-0.3,0.5-0.9,0.9-1.6,0.9c-1.2,0-2.1-1-2.1-2.5
				c0-1.6,1-2.6,2.2-2.6c0.7,0,1.2,0.3,1.5,0.7h0v-2.9H83.6z M82.7,148.9c0-0.1,0-0.3,0-0.4c-0.1-0.6-0.6-1-1.3-1
				c-0.9,0-1.4,0.8-1.4,1.9c0,1,0.5,1.8,1.4,1.8c0.6,0,1.1-0.4,1.3-1c0-0.1,0-0.2,0-0.4V148.9z"/>
		</g>
	</g>
	<g>
		<rect x="94.1" y="68.3" class="st5" width="71" height="71"/>
		<g>
			<path class="st3" d="M115.8,100.5v0.7l-3.4,7.1h-1.1l3.4-6.9v0h-3.8v-0.9H115.8z"/>
			<path class="st3" d="M117.5,108.3v-0.6l0.8-0.8c2-1.9,2.9-2.9,2.9-4.1c0-0.8-0.4-1.5-1.5-1.5c-0.7,0-1.3,0.4-1.7,0.7l-0.3-0.7
				c0.5-0.5,1.3-0.8,2.2-0.8c1.7,0,2.4,1.2,2.4,2.3c0,1.4-1,2.6-2.7,4.2l-0.6,0.6v0h3.5v0.9H117.5z"/>
			<path class="st3" d="M128.7,108.1c-0.3,0.1-0.9,0.3-1.7,0.3c-1.8,0-2.9-1.2-2.9-3c0-1.8,1.2-3.1,3.1-3.1c0.6,0,1.2,0.2,1.5,0.3
				l-0.2,0.8c-0.3-0.1-0.6-0.3-1.2-0.3c-1.3,0-2.1,1-2.1,2.2c0,1.3,0.9,2.2,2,2.2c0.6,0,1-0.2,1.3-0.3L128.7,108.1z"/>
			<path class="st3" d="M133.5,108.3v-2.1h-3.6v-0.7l3.5-5h1.1v4.8h1.1v0.8h-1.1v2.1H133.5z M133.5,105.3v-2.6c0-0.4,0-0.8,0-1.2h0
				c-0.2,0.5-0.4,0.8-0.6,1.2l-1.9,2.7v0H133.5z"/>
			<path class="st3" d="M142,100.5v0.7l-3.4,7.1h-1.1l3.4-6.9v0h-3.8v-0.9H142z"/>
			<path class="st3" d="M144,108.3c0-0.4,0-1,0-1.5v-7h1v3.6h0c0.4-0.6,1-1.1,2-1.1c1.4,0,2.5,1.2,2.4,3c0,2.1-1.3,3.1-2.6,3.1
				c-0.8,0-1.5-0.3-1.9-1.1h0l0,1H144z M145.1,105.9c0,0.1,0,0.3,0,0.4c0.2,0.7,0.8,1.2,1.6,1.2c1.1,0,1.8-0.9,1.8-2.2
				c0-1.2-0.6-2.2-1.7-2.2c-0.7,0-1.4,0.5-1.6,1.3c0,0.1-0.1,0.3-0.1,0.4V105.9z"/>
		</g>
		<g>
			<path class="st4" d="M98.8,145.1c0.4-0.1,1-0.1,1.7-0.1c0.9,0,1.5,0.2,1.9,0.6c0.4,0.3,0.6,0.8,0.6,1.4c0,0.6-0.2,1.1-0.5,1.4
				c-0.5,0.5-1.2,0.7-2.1,0.7c-0.3,0-0.5,0-0.7-0.1v2.7h-0.9V145.1z M99.6,148.3c0.2,0,0.4,0.1,0.7,0.1c1,0,1.7-0.5,1.7-1.4
				c0-0.9-0.6-1.3-1.6-1.3c-0.4,0-0.7,0-0.8,0.1V148.3z"/>
			<path class="st4" d="M103.9,148.4c0-0.6,0-1.1,0-1.5h0.8l0,0.9h0c0.2-0.6,0.7-1.1,1.3-1.1c0.1,0,0.2,0,0.2,0v0.8
				c-0.1,0-0.2,0-0.3,0c-0.6,0-1.1,0.5-1.2,1.1c0,0.1,0,0.3,0,0.4v2.6h-0.9V148.4z"/>
			<path class="st4" d="M108.2,145.5c0,0.3-0.2,0.5-0.6,0.5c-0.3,0-0.5-0.2-0.5-0.5c0-0.3,0.2-0.5,0.5-0.5
				C108,145,108.2,145.2,108.2,145.5z M107.2,151.7v-4.8h0.9v4.8H107.2z"/>
			<path class="st4" d="M109.5,148.2c0-0.5,0-0.9,0-1.3h0.8l0,0.8h0c0.3-0.5,0.7-0.9,1.5-0.9c0.7,0,1.2,0.4,1.4,1h0
				c0.1-0.3,0.3-0.5,0.5-0.6c0.3-0.2,0.6-0.3,1.1-0.3c0.6,0,1.6,0.4,1.6,2.1v2.8h-0.9V149c0-0.9-0.3-1.5-1-1.5c-0.5,0-0.9,0.4-1,0.8
				c0,0.1-0.1,0.3-0.1,0.4v3h-0.9v-2.9c0-0.8-0.3-1.3-1-1.3c-0.5,0-0.9,0.4-1.1,0.9c-0.1,0.1-0.1,0.3-0.1,0.4v2.9h-0.9V148.2z"/>
			<path class="st4" d="M120.6,151.7l-0.1-0.6h0c-0.3,0.4-0.8,0.7-1.5,0.7c-1,0-1.5-0.7-1.5-1.4c0-1.2,1-1.8,2.9-1.8v-0.1
				c0-0.4-0.1-1.1-1.1-1.1c-0.4,0-0.9,0.1-1.3,0.4l-0.2-0.6c0.4-0.3,1-0.4,1.6-0.4c1.5,0,1.8,1,1.8,2v1.8c0,0.4,0,0.8,0.1,1.2H120.6
				z M120.4,149.3c-1,0-2,0.1-2,1.1c0,0.6,0.4,0.8,0.8,0.8c0.6,0,1-0.4,1.2-0.8c0-0.1,0.1-0.2,0.1-0.3V149.3z"/>
			<path class="st4" d="M122.7,148.4c0-0.6,0-1.1,0-1.5h0.8l0,0.9h0c0.2-0.6,0.7-1.1,1.3-1.1c0.1,0,0.2,0,0.2,0v0.8
				c-0.1,0-0.2,0-0.3,0c-0.6,0-1.1,0.5-1.2,1.1c0,0.1,0,0.3,0,0.4v2.6h-0.9V148.4z"/>
			<path class="st4" d="M126.5,146.9l1.1,2.9c0.1,0.3,0.2,0.7,0.3,1h0c0.1-0.3,0.2-0.7,0.3-1l1-2.8h0.9l-1.3,3.4
				c-0.6,1.7-1.1,2.5-1.7,3c-0.4,0.4-0.9,0.5-1.1,0.6l-0.2-0.7c0.2-0.1,0.5-0.2,0.8-0.4c0.2-0.2,0.5-0.5,0.7-1
				c0-0.1,0.1-0.2,0.1-0.2s0-0.1-0.1-0.2l-1.8-4.5H126.5z"/>
			<path class="st4" d="M133.1,145.1c0.4-0.1,1-0.1,1.6-0.1c0.9,0,1.4,0.1,1.8,0.5c0.3,0.3,0.6,0.7,0.6,1.2c0,0.6-0.4,1.2-1.1,1.5v0
				c0.6,0.2,1.4,0.7,1.4,1.7c0,0.6-0.2,1-0.6,1.3c-0.5,0.4-1.2,0.6-2.3,0.6c-0.6,0-1.1,0-1.3-0.1V145.1z M133.9,147.8h0.8
				c0.9,0,1.5-0.5,1.5-1.1c0-0.8-0.6-1.1-1.5-1.1c-0.4,0-0.6,0-0.8,0.1V147.8z M133.9,151.1c0.2,0,0.4,0,0.7,0
				c0.9,0,1.7-0.3,1.7-1.3c0-0.9-0.8-1.3-1.7-1.3h-0.7V151.1z"/>
			<path class="st4" d="M142.5,150.4c0,0.5,0,0.9,0,1.3h-0.8l0-0.8h0c-0.2,0.4-0.7,0.9-1.6,0.9c-0.8,0-1.7-0.4-1.7-2.1v-2.8h0.9v2.7
				c0,0.9,0.3,1.5,1.1,1.5c0.6,0,1-0.4,1.2-0.8c0-0.1,0.1-0.3,0.1-0.4v-3h0.9V150.4z"/>
			<path class="st4" d="M145,145.5v1.4h1.3v0.7H145v2.6c0,0.6,0.2,0.9,0.7,0.9c0.2,0,0.4,0,0.5-0.1l0,0.7c-0.2,0.1-0.4,0.1-0.8,0.1
				c-0.4,0-0.7-0.1-0.9-0.4c-0.2-0.3-0.3-0.7-0.3-1.3v-2.6h-0.8v-0.7h0.8v-1.2L145,145.5z"/>
			<path class="st4" d="M148.3,145.5v1.4h1.3v0.7h-1.3v2.6c0,0.6,0.2,0.9,0.7,0.9c0.2,0,0.4,0,0.5-0.1l0,0.7
				c-0.2,0.1-0.4,0.1-0.8,0.1c-0.4,0-0.7-0.1-0.9-0.4c-0.2-0.3-0.3-0.7-0.3-1.3v-2.6h-0.8v-0.7h0.8v-1.2L148.3,145.5z"/>
			<path class="st4" d="M154.9,149.3c0,1.8-1.2,2.6-2.4,2.6c-1.3,0-2.3-1-2.3-2.5c0-1.6,1.1-2.6,2.4-2.6
				C154,146.8,154.9,147.8,154.9,149.3z M151.1,149.3c0,1.1,0.6,1.9,1.5,1.9c0.8,0,1.5-0.8,1.5-1.9c0-0.8-0.4-1.9-1.4-1.9
				C151.5,147.4,151.1,148.4,151.1,149.3z"/>
			<path class="st4" d="M156,148.2c0-0.5,0-0.9,0-1.3h0.8l0,0.8h0c0.2-0.5,0.8-0.9,1.6-0.9c0.7,0,1.7,0.4,1.7,2.1v2.9h-0.9v-2.8
				c0-0.8-0.3-1.4-1.1-1.4c-0.6,0-1,0.4-1.2,0.9c0,0.1-0.1,0.3-0.1,0.4v2.9H156V148.2z"/>
		</g>
	</g>
	<g>
		<rect x="165.1" y="68.3" class="st6" width="71" height="71"/>
		<g>
			<g>
				<path class="st3" d="M183.9,105.1c0,1.4,0.9,2,2,2c0.8,0,1.2-0.1,1.6-0.3l0.2,0.8c-0.4,0.2-1,0.4-1.9,0.4
					c-1.8,0-2.9-1.2-2.9-2.9s1-3.1,2.7-3.1c1.9,0,2.4,1.7,2.4,2.7c0,0.2,0,0.4,0,0.5H183.9z M187,104.3c0-0.7-0.3-1.7-1.5-1.7
					c-1.1,0-1.5,1-1.6,1.7H187z"/>
				<path class="st3" d="M190.2,107c0.2,0,0.5,0,0.9,0c0.6-0.1,1.2-0.3,1.6-0.8c0.5-0.5,0.9-1.2,1-2.1h0c-0.4,0.5-1.1,0.8-1.8,0.8
					c-1.4,0-2.3-1.1-2.3-2.4c0-1.5,1.1-2.8,2.7-2.8s2.6,1.3,2.6,3.3c0,1.7-0.6,2.9-1.3,3.7c-0.6,0.6-1.4,0.9-2.3,1
					c-0.4,0.1-0.7,0.1-1,0.1V107z M190.6,102.5c0,1,0.6,1.7,1.5,1.7c0.7,0,1.3-0.3,1.5-0.8c0.1-0.1,0.1-0.2,0.1-0.4
					c0-1.3-0.5-2.4-1.6-2.4C191.3,100.6,190.6,101.4,190.6,102.5z"/>
				<path class="st3" d="M199.9,107.8l-0.1-0.7h0c-0.3,0.5-0.9,0.9-1.8,0.9c-1.2,0-1.8-0.8-1.8-1.7c0-1.4,1.2-2.2,3.5-2.2V104
					c0-0.5-0.1-1.3-1.3-1.3c-0.5,0-1.1,0.2-1.5,0.4l-0.2-0.7c0.5-0.3,1.2-0.5,1.9-0.5c1.8,0,2.2,1.2,2.2,2.4v2.2c0,0.5,0,1,0.1,1.4
					H199.9z M199.8,104.8c-1.2,0-2.5,0.2-2.5,1.3c0,0.7,0.5,1,1,1c0.8,0,1.2-0.5,1.4-1c0-0.1,0.1-0.2,0.1-0.3V104.8z"/>
				<path class="st3" d="M203.2,107.8v-5h-0.8V102h0.8v-0.3c0-0.8,0.2-1.6,0.7-2c0.4-0.4,0.9-0.5,1.4-0.5c0.4,0,0.7,0.1,0.9,0.2
					l-0.1,0.8c-0.2-0.1-0.4-0.1-0.7-0.1c-0.9,0-1.1,0.8-1.1,1.7v0.3h1.4v0.8h-1.4v5H203.2z"/>
				<path class="st3" d="M211.5,100.9h-3l-0.3,2c0.2,0,0.3,0,0.6,0c0.6,0,1.2,0.1,1.7,0.4c0.6,0.3,1.1,1,1.1,2
					c0,1.5-1.2,2.7-2.9,2.7c-0.9,0-1.6-0.2-1.9-0.5l0.3-0.8c0.3,0.2,1,0.4,1.7,0.4c1,0,1.8-0.6,1.8-1.7c0-1-0.7-1.7-2.2-1.7
					c-0.4,0-0.8,0-1.1,0.1l0.5-3.7h3.7V100.9z"/>
				<path class="st3" d="M218.7,100v0.7l-3.4,7.1h-1.1l3.4-6.9v0h-3.8V100H218.7z"/>
			</g>
		</g>
		<g>
			<path class="st4" d="M170.6,150.7c0.4,0.2,1,0.4,1.6,0.4c0.9,0,1.4-0.5,1.4-1.1c0-0.6-0.4-1-1.3-1.3c-1.1-0.4-1.8-1-1.8-1.9
				c0-1,0.9-1.8,2.2-1.8c0.7,0,1.2,0.2,1.5,0.3l-0.2,0.7c-0.2-0.1-0.7-0.3-1.3-0.3c-0.9,0-1.3,0.5-1.3,1c0,0.6,0.4,0.9,1.3,1.3
				c1.1,0.4,1.7,1,1.7,2c0,1-0.8,1.9-2.4,1.9c-0.6,0-1.4-0.2-1.7-0.4L170.6,150.7z"/>
			<path class="st4" d="M176.2,149.5c0,1.2,0.8,1.7,1.7,1.7c0.6,0,1-0.1,1.3-0.2l0.1,0.6c-0.3,0.1-0.8,0.3-1.6,0.3
				c-1.5,0-2.4-1-2.4-2.4c0-1.5,0.9-2.6,2.3-2.6c1.6,0,2,1.4,2,2.3c0,0.2,0,0.3,0,0.4H176.2z M178.8,148.8c0-0.6-0.2-1.4-1.2-1.4
				c-0.9,0-1.3,0.8-1.3,1.4H178.8z"/>
			<path class="st4" d="M180.7,144.6h0.9v7.1h-0.9V144.6z"/>
			<path class="st4" d="M183.6,149.5c0,1.2,0.8,1.7,1.7,1.7c0.6,0,1-0.1,1.3-0.2l0.1,0.6c-0.3,0.1-0.8,0.3-1.6,0.3
				c-1.5,0-2.4-1-2.4-2.4c0-1.5,0.9-2.6,2.3-2.6c1.6,0,2,1.4,2,2.3c0,0.2,0,0.3,0,0.4H183.6z M186.2,148.8c0-0.6-0.2-1.4-1.2-1.4
				c-0.9,0-1.3,0.8-1.3,1.4H186.2z"/>
			<path class="st4" d="M191.5,151.5c-0.2,0.1-0.7,0.3-1.4,0.3c-1.5,0-2.4-1-2.4-2.5c0-1.5,1-2.6,2.6-2.6c0.5,0,1,0.1,1.2,0.2
				l-0.2,0.7c-0.2-0.1-0.5-0.2-1-0.2c-1.1,0-1.7,0.8-1.7,1.8c0,1.1,0.7,1.8,1.7,1.8c0.5,0,0.8-0.1,1.1-0.2L191.5,151.5z"/>
			<path class="st4" d="M193.8,145.5v1.4h1.3v0.7h-1.3v2.6c0,0.6,0.2,0.9,0.7,0.9c0.2,0,0.4,0,0.5-0.1l0,0.7
				c-0.2,0.1-0.4,0.1-0.8,0.1c-0.4,0-0.7-0.1-0.9-0.4c-0.2-0.3-0.3-0.7-0.3-1.3v-2.6h-0.8v-0.7h0.8v-1.2L193.8,145.5z"/>
			<path class="st4" d="M197,145.5c0,0.3-0.2,0.5-0.6,0.5c-0.3,0-0.5-0.2-0.5-0.5c0-0.3,0.2-0.5,0.5-0.5
				C196.8,145,197,145.2,197,145.5z M196,151.7v-4.8h0.9v4.8H196z"/>
			<path class="st4" d="M198.7,146.9l0.9,2.7c0.2,0.4,0.3,0.8,0.4,1.2h0c0.1-0.4,0.2-0.8,0.4-1.2l0.9-2.7h0.9l-1.9,4.8h-0.8
				l-1.8-4.8H198.7z"/>
			<path class="st4" d="M203.6,149.5c0,1.2,0.8,1.7,1.7,1.7c0.6,0,1-0.1,1.3-0.2l0.1,0.6c-0.3,0.1-0.8,0.3-1.6,0.3
				c-1.5,0-2.4-1-2.4-2.4c0-1.5,0.9-2.6,2.3-2.6c1.6,0,2,1.4,2,2.3c0,0.2,0,0.3,0,0.4H203.6z M206.1,148.8c0-0.6-0.2-1.4-1.2-1.4
				c-0.9,0-1.3,0.8-1.3,1.4H206.1z"/>
			<path class="st4" d="M211.1,145v6.7h-0.9V145H211.1z"/>
			<path class="st4" d="M213.8,145.5v1.4h1.3v0.7h-1.3v2.6c0,0.6,0.2,0.9,0.7,0.9c0.2,0,0.4,0,0.5-0.1l0,0.7
				c-0.2,0.1-0.4,0.1-0.8,0.1c-0.4,0-0.7-0.1-0.9-0.4c-0.2-0.3-0.3-0.7-0.3-1.3v-2.6h-0.8v-0.7h0.8v-1.2L213.8,145.5z"/>
			<path class="st4" d="M216.5,149.5c0,1.2,0.8,1.7,1.7,1.7c0.6,0,1-0.1,1.3-0.2l0.1,0.6c-0.3,0.1-0.8,0.3-1.6,0.3
				c-1.5,0-2.4-1-2.4-2.4c0-1.5,0.9-2.6,2.3-2.6c1.6,0,2,1.4,2,2.3c0,0.2,0,0.3,0,0.4H216.5z M219.1,148.8c0-0.6-0.2-1.4-1.2-1.4
				c-0.9,0-1.3,0.8-1.3,1.4H219.1z"/>
			<path class="st4" d="M221,148.2c0-0.5,0-0.9,0-1.3h0.8l0,0.8h0c0.3-0.5,0.7-0.9,1.5-0.9c0.7,0,1.2,0.4,1.4,1h0
				c0.1-0.3,0.3-0.5,0.5-0.6c0.3-0.2,0.6-0.3,1.1-0.3c0.6,0,1.6,0.4,1.6,2.1v2.8H227V149c0-0.9-0.3-1.5-1-1.5c-0.5,0-0.9,0.4-1,0.8
				c0,0.1-0.1,0.3-0.1,0.4v3H224v-2.9c0-0.8-0.3-1.3-1-1.3c-0.5,0-0.9,0.4-1.1,0.9c-0.1,0.1-0.1,0.3-0.1,0.4v2.9H221V148.2z"/>
			<path class="st4" d="M229.2,150.8c0.3,0.2,0.7,0.3,1.2,0.3c0.6,0,0.9-0.3,0.9-0.7c0-0.4-0.2-0.6-0.9-0.9
				c-0.9-0.3-1.3-0.8-1.3-1.4c0-0.8,0.6-1.4,1.7-1.4c0.5,0,0.9,0.1,1.2,0.3l-0.2,0.6c-0.2-0.1-0.5-0.3-1-0.3c-0.5,0-0.8,0.3-0.8,0.7
				c0,0.4,0.3,0.6,0.9,0.8c0.8,0.3,1.3,0.7,1.3,1.5c0,0.8-0.7,1.4-1.8,1.4c-0.5,0-1-0.1-1.4-0.3L229.2,150.8z"/>
		</g>
	</g>
	<g>
		<rect x="236.1" y="68.3" class="st7" width="71" height="71"/>
		<g>
			<path class="st8" d="M253.1,108.4c0.2,0,0.5,0,0.9,0c0.6-0.1,1.2-0.3,1.6-0.8c0.5-0.5,0.9-1.2,1-2.1h0c-0.4,0.5-1.1,0.8-1.8,0.8
				c-1.4,0-2.3-1.1-2.3-2.4c0-1.5,1.1-2.8,2.7-2.8c1.6,0,2.6,1.3,2.6,3.3c0,1.7-0.6,2.9-1.3,3.7c-0.6,0.6-1.4,0.9-2.3,1
				c-0.4,0.1-0.7,0.1-1,0.1V108.4z M253.5,103.9c0,1,0.6,1.7,1.5,1.7c0.7,0,1.3-0.3,1.5-0.8c0.1-0.1,0.1-0.2,0.1-0.4
				c0-1.3-0.5-2.4-1.6-2.4C254.1,102,253.5,102.8,253.5,103.9z"/>
			<path class="st8" d="M264.3,101.3v0.7l-3.4,7.1h-1.1l3.4-6.9v0h-3.8v-0.9H264.3z"/>
			<path class="st8" d="M266.6,108.4c0.2,0,0.5,0,0.9,0c0.6-0.1,1.2-0.3,1.6-0.8c0.5-0.5,0.9-1.2,1-2.1h0c-0.4,0.5-1.1,0.8-1.8,0.8
				c-1.4,0-2.3-1.1-2.3-2.4c0-1.5,1.1-2.8,2.7-2.8s2.6,1.3,2.6,3.3c0,1.7-0.6,2.9-1.3,3.7c-0.6,0.6-1.4,0.9-2.3,1
				c-0.4,0.1-0.7,0.1-1,0.1V108.4z M267,103.9c0,1,0.6,1.7,1.5,1.7c0.7,0,1.3-0.3,1.5-0.8c0.1-0.1,0.1-0.2,0.1-0.4
				c0-1.3-0.5-2.4-1.6-2.4C267.6,102,267,102.8,267,103.9z"/>
			<path class="st8" d="M277.8,101.3v0.7l-3.4,7.1h-1.1l3.4-6.9v0h-3.8v-0.9H277.8z"/>
			<path class="st8" d="M280.1,108.4c0.2,0,0.5,0,0.9,0c0.6-0.1,1.2-0.3,1.6-0.8c0.5-0.5,0.9-1.2,1-2.1h0c-0.4,0.5-1.1,0.8-1.8,0.8
				c-1.4,0-2.3-1.1-2.3-2.4c0-1.5,1.1-2.8,2.7-2.8s2.6,1.3,2.6,3.3c0,1.7-0.6,2.9-1.3,3.7c-0.6,0.6-1.4,0.9-2.3,1
				c-0.4,0.1-0.7,0.1-1,0.1V108.4z M280.5,103.9c0,1,0.6,1.7,1.5,1.7c0.7,0,1.3-0.3,1.5-0.8c0.1-0.1,0.1-0.2,0.1-0.4
				c0-1.3-0.5-2.4-1.6-2.4C281.1,102,280.5,102.8,280.5,103.9z"/>
			<path class="st8" d="M291.3,101.3v0.7l-3.4,7.1h-1.1l3.4-6.9v0h-3.8v-0.9H291.3z"/>
		</g>
		<g>
			<path class="st4" d="M243.6,145v6.7h-0.9V145H243.6z"/>
			<path class="st4" d="M248.6,151.5c-0.2,0.1-0.7,0.3-1.4,0.3c-1.5,0-2.4-1-2.4-2.5c0-1.5,1-2.6,2.6-2.6c0.5,0,1,0.1,1.2,0.2
				l-0.2,0.7c-0.2-0.1-0.5-0.2-1-0.2c-1.1,0-1.7,0.8-1.7,1.8c0,1.1,0.7,1.8,1.7,1.8c0.5,0,0.8-0.1,1.1-0.2L248.6,151.5z"/>
			<path class="st4" d="M253.9,149.3c0,1.8-1.2,2.6-2.4,2.6c-1.3,0-2.3-1-2.3-2.5c0-1.6,1.1-2.6,2.4-2.6
				C253,146.8,253.9,147.8,253.9,149.3z M250.1,149.3c0,1.1,0.6,1.9,1.5,1.9c0.8,0,1.5-0.8,1.5-1.9c0-0.8-0.4-1.9-1.4-1.9
				C250.5,147.4,250.1,148.4,250.1,149.3z"/>
			<path class="st4" d="M255,148.2c0-0.5,0-0.9,0-1.3h0.8l0,0.8h0c0.2-0.5,0.8-0.9,1.6-0.9c0.7,0,1.7,0.4,1.7,2.1v2.9h-0.9v-2.8
				c0-0.8-0.3-1.4-1.1-1.4c-0.6,0-1,0.4-1.2,0.9c0,0.1-0.1,0.3-0.1,0.4v2.9H255V148.2z"/>
			<path class="st4" d="M260.5,150.8c0.3,0.2,0.7,0.3,1.2,0.3c0.6,0,0.9-0.3,0.9-0.7c0-0.4-0.2-0.6-0.9-0.9
				c-0.9-0.3-1.3-0.8-1.3-1.4c0-0.8,0.6-1.4,1.7-1.4c0.5,0,0.9,0.1,1.2,0.3l-0.2,0.6c-0.2-0.1-0.5-0.3-1-0.3c-0.5,0-0.8,0.3-0.8,0.7
				c0,0.4,0.3,0.6,0.9,0.8c0.8,0.3,1.3,0.7,1.3,1.5c0,0.8-0.7,1.4-1.8,1.4c-0.5,0-1-0.1-1.4-0.3L260.5,150.8z"/>
			<path class="st4" d="M242.7,163.7c0-0.3,0-0.8,0-1.2v-5.8h0.9v3h0c0.3-0.5,0.9-0.9,1.6-0.9c1.2,0,2,1,2,2.5
				c0,1.7-1.1,2.6-2.2,2.6c-0.7,0-1.3-0.3-1.6-0.9h0l0,0.8H242.7z M243.6,161.8c0,0.1,0,0.2,0,0.3c0.2,0.6,0.7,1,1.3,1
				c0.9,0,1.5-0.7,1.5-1.9c0-1-0.5-1.8-1.4-1.8c-0.6,0-1.2,0.4-1.3,1.1c0,0.1,0,0.2,0,0.4V161.8z"/>
			<path class="st4" d="M252.8,161.3c0,1.8-1.2,2.6-2.4,2.6c-1.3,0-2.3-1-2.3-2.5c0-1.6,1.1-2.6,2.4-2.6
				C251.9,158.8,252.8,159.8,252.8,161.3z M249,161.3c0,1.1,0.6,1.9,1.5,1.9c0.8,0,1.5-0.8,1.5-1.9c0-0.8-0.4-1.9-1.4-1.9
				C249.4,159.4,249,160.4,249,161.3z"/>
			<path class="st4" d="M253.9,160.4c0-0.6,0-1.1,0-1.5h0.8l0,0.9h0c0.2-0.6,0.7-1.1,1.3-1.1c0.1,0,0.2,0,0.2,0v0.8
				c-0.1,0-0.2,0-0.3,0c-0.6,0-1.1,0.5-1.2,1.1c0,0.1,0,0.3,0,0.4v2.6h-0.9V160.4z"/>
			<path class="st4" d="M261.3,156.6v5.8c0,0.4,0,0.9,0,1.2h-0.8l0-0.8h0c-0.3,0.5-0.9,0.9-1.6,0.9c-1.2,0-2.1-1-2.1-2.5
				c0-1.6,1-2.6,2.2-2.6c0.7,0,1.2,0.3,1.5,0.7h0v-2.9H261.3z M260.4,160.9c0-0.1,0-0.3,0-0.4c-0.1-0.6-0.6-1-1.3-1
				c-0.9,0-1.4,0.8-1.4,1.9c0,1,0.5,1.8,1.4,1.8c0.6,0,1.1-0.4,1.3-1c0-0.1,0-0.2,0-0.4V160.9z"/>
			<path class="st4" d="M263.2,161.5c0,1.2,0.8,1.7,1.7,1.7c0.6,0,1-0.1,1.3-0.2l0.1,0.6c-0.3,0.1-0.8,0.3-1.6,0.3
				c-1.5,0-2.4-1-2.4-2.4c0-1.5,0.9-2.6,2.3-2.6c1.6,0,2,1.4,2,2.3c0,0.2,0,0.3,0,0.4H263.2z M265.8,160.8c0-0.6-0.2-1.4-1.2-1.4
				c-0.9,0-1.3,0.8-1.3,1.4H265.8z"/>
			<path class="st4" d="M267.7,160.4c0-0.6,0-1.1,0-1.5h0.8l0,0.9h0c0.2-0.6,0.7-1.1,1.3-1.1c0.1,0,0.2,0,0.2,0v0.8
				c-0.1,0-0.2,0-0.3,0c-0.6,0-1.1,0.5-1.2,1.1c0,0.1,0,0.3,0,0.4v2.6h-0.9V160.4z"/>
			<path class="st4" d="M270.9,162.8c0.3,0.2,0.7,0.3,1.2,0.3c0.6,0,0.9-0.3,0.9-0.7c0-0.4-0.2-0.6-0.9-0.9
				c-0.9-0.3-1.3-0.8-1.3-1.4c0-0.8,0.6-1.4,1.7-1.4c0.5,0,0.9,0.1,1.2,0.3l-0.2,0.6c-0.2-0.1-0.5-0.3-1-0.3c-0.5,0-0.8,0.3-0.8,0.7
				c0,0.4,0.3,0.6,0.9,0.8c0.8,0.3,1.3,0.7,1.3,1.5c0,0.8-0.7,1.4-1.8,1.4c-0.5,0-1-0.1-1.4-0.3L270.9,162.8z"/>
			<path class="st4" d="M246.8,174.4c0,0.5,0,0.9,0,1.3H246l0-0.8h0c-0.2,0.4-0.7,0.9-1.6,0.9c-0.8,0-1.7-0.4-1.7-2.1v-2.8h0.9v2.7
				c0,0.9,0.3,1.5,1.1,1.5c0.6,0,1-0.4,1.2-0.8c0-0.1,0.1-0.3,0.1-0.4v-3h0.9V174.4z"/>
			<path class="st4" d="M248.2,172.2c0-0.5,0-0.9,0-1.3h0.8l0,0.8h0c0.2-0.5,0.8-0.9,1.6-0.9c0.7,0,1.7,0.4,1.7,2.1v2.9h-0.9v-2.8
				c0-0.8-0.3-1.4-1.1-1.4c-0.6,0-1,0.4-1.2,0.9c0,0.1-0.1,0.3-0.1,0.4v2.9h-0.9V172.2z"/>
			<path class="st4" d="M253.7,174.8c0.3,0.2,0.7,0.3,1.2,0.3c0.6,0,0.9-0.3,0.9-0.7c0-0.4-0.2-0.6-0.9-0.9
				c-0.9-0.3-1.3-0.8-1.3-1.4c0-0.8,0.6-1.4,1.7-1.4c0.5,0,0.9,0.1,1.2,0.3l-0.2,0.6c-0.2-0.1-0.5-0.3-1-0.3c-0.5,0-0.8,0.3-0.8,0.7
				c0,0.4,0.3,0.6,0.9,0.8c0.8,0.3,1.3,0.7,1.3,1.5c0,0.8-0.7,1.4-1.8,1.4c-0.5,0-1-0.1-1.4-0.3L253.7,174.8z"/>
			<path class="st4" d="M258.2,173.5c0,1.2,0.8,1.7,1.7,1.7c0.6,0,1-0.1,1.3-0.2l0.1,0.6c-0.3,0.1-0.8,0.3-1.6,0.3
				c-1.5,0-2.4-1-2.4-2.4c0-1.5,0.9-2.6,2.3-2.6c1.6,0,2,1.4,2,2.3c0,0.2,0,0.3,0,0.4H258.2z M260.8,172.8c0-0.6-0.2-1.4-1.2-1.4
				c-0.9,0-1.3,0.8-1.3,1.4H260.8z"/>
			<path class="st4" d="M262.8,168.6h0.9v7.1h-0.9V168.6z"/>
			<path class="st4" d="M265.6,173.5c0,1.2,0.8,1.7,1.7,1.7c0.6,0,1-0.1,1.3-0.2l0.1,0.6c-0.3,0.1-0.8,0.3-1.6,0.3
				c-1.5,0-2.4-1-2.4-2.4c0-1.5,0.9-2.6,2.3-2.6c1.6,0,2,1.4,2,2.3c0,0.2,0,0.3,0,0.4H265.6z M268.2,172.8c0-0.6-0.2-1.4-1.2-1.4
				c-0.9,0-1.3,0.8-1.3,1.4H268.2z"/>
			<path class="st4" d="M273.6,175.5c-0.2,0.1-0.7,0.3-1.4,0.3c-1.5,0-2.4-1-2.4-2.5c0-1.5,1-2.6,2.6-2.6c0.5,0,1,0.1,1.2,0.2
				l-0.2,0.7c-0.2-0.1-0.5-0.2-1-0.2c-1.1,0-1.7,0.8-1.7,1.8c0,1.1,0.7,1.8,1.7,1.8c0.5,0,0.8-0.1,1.1-0.2L273.6,175.5z"/>
			<path class="st4" d="M275.8,169.5v1.4h1.3v0.7h-1.3v2.6c0,0.6,0.2,0.9,0.7,0.9c0.2,0,0.4,0,0.5-0.1l0,0.7
				c-0.2,0.1-0.4,0.1-0.8,0.1c-0.4,0-0.7-0.1-0.9-0.4c-0.2-0.3-0.3-0.7-0.3-1.3v-2.6h-0.8v-0.7h0.8v-1.2L275.8,169.5z"/>
			<path class="st4" d="M278.5,173.5c0,1.2,0.8,1.7,1.7,1.7c0.6,0,1-0.1,1.3-0.2l0.1,0.6c-0.3,0.1-0.8,0.3-1.6,0.3
				c-1.5,0-2.4-1-2.4-2.4c0-1.5,0.9-2.6,2.3-2.6c1.6,0,2,1.4,2,2.3c0,0.2,0,0.3,0,0.4H278.5z M281.1,172.8c0-0.6-0.2-1.4-1.2-1.4
				c-0.9,0-1.3,0.8-1.3,1.4H281.1z"/>
			<path class="st4" d="M287.2,168.6v5.8c0,0.4,0,0.9,0,1.2h-0.8l0-0.8h0c-0.3,0.5-0.9,0.9-1.6,0.9c-1.2,0-2.1-1-2.1-2.5
				c0-1.6,1-2.6,2.2-2.6c0.7,0,1.2,0.3,1.5,0.7h0v-2.9H287.2z M286.3,172.9c0-0.1,0-0.3,0-0.4c-0.1-0.6-0.6-1-1.3-1
				c-0.9,0-1.4,0.8-1.4,1.9c0,1,0.5,1.8,1.4,1.8c0.6,0,1.1-0.4,1.3-1c0-0.1,0-0.2,0-0.4V172.9z"/>
			<path class="st4" d="M291.7,169.5c0,0.3-0.2,0.5-0.6,0.5c-0.3,0-0.5-0.2-0.5-0.5c0-0.3,0.2-0.5,0.5-0.5
				C291.5,169,291.7,169.2,291.7,169.5z M290.8,175.7v-4.8h0.9v4.8H290.8z"/>
			<path class="st4" d="M294.2,169.5v1.4h1.3v0.7h-1.3v2.6c0,0.6,0.2,0.9,0.7,0.9c0.2,0,0.4,0,0.5-0.1l0,0.7
				c-0.2,0.1-0.4,0.1-0.8,0.1c-0.4,0-0.7-0.1-0.9-0.4c-0.2-0.3-0.3-0.7-0.3-1.3v-2.6h-0.8v-0.7h0.8v-1.2L294.2,169.5z"/>
			<path class="st4" d="M296.8,173.5c0,1.2,0.8,1.7,1.7,1.7c0.6,0,1-0.1,1.3-0.2l0.1,0.6c-0.3,0.1-0.8,0.3-1.6,0.3
				c-1.5,0-2.4-1-2.4-2.4c0-1.5,0.9-2.6,2.3-2.6c1.6,0,2,1.4,2,2.3c0,0.2,0,0.3,0,0.4H296.8z M299.4,172.8c0-0.6-0.2-1.4-1.2-1.4
				c-0.9,0-1.3,0.8-1.3,1.4H299.4z"/>
			<path class="st4" d="M301.4,172.2c0-0.5,0-0.9,0-1.3h0.8l0,0.8h0c0.3-0.5,0.7-0.9,1.5-0.9c0.7,0,1.2,0.4,1.4,1h0
				c0.1-0.3,0.3-0.5,0.5-0.6c0.3-0.2,0.6-0.3,1.1-0.3c0.6,0,1.6,0.4,1.6,2.1v2.8h-0.9V173c0-0.9-0.3-1.5-1-1.5c-0.5,0-0.9,0.4-1,0.8
				c0,0.1-0.1,0.3-0.1,0.4v3h-0.9v-2.9c0-0.8-0.3-1.3-1-1.3c-0.5,0-0.9,0.4-1.1,0.9c-0.1,0.1-0.1,0.3-0.1,0.4v2.9h-0.9V172.2z"/>
		</g>
	</g>
</g>
<g>
	<g>
		<rect x="342.1" y="68.3" class="st9" width="71" height="71"/>
		<g>
			<path class="st3" d="M363.2,108.1c-0.3,0.1-0.9,0.3-1.7,0.3c-1.8,0-2.9-1.2-2.9-3c0-1.8,1.2-3.1,3.1-3.1c0.6,0,1.2,0.2,1.5,0.3
				l-0.2,0.8c-0.3-0.1-0.6-0.3-1.2-0.3c-1.3,0-2.1,1-2.1,2.2c0,1.3,0.9,2.2,2,2.2c0.6,0,1-0.2,1.3-0.3L363.2,108.1z"/>
			<path class="st3" d="M369.9,104.3c0,2.7-1,4.1-2.7,4.1c-1.5,0-2.6-1.4-2.6-4c0-2.6,1.1-4.1,2.7-4.1
				C368.9,100.3,369.9,101.8,369.9,104.3z M365.7,104.4c0,2,0.6,3.2,1.6,3.2c1.1,0,1.6-1.3,1.6-3.3c0-1.9-0.5-3.2-1.6-3.2
				C366.3,101.2,365.7,102.3,365.7,104.4z"/>
			<path class="st3" d="M372.4,105.6c0,1.4,0.9,2,2,2c0.8,0,1.2-0.1,1.6-0.3l0.2,0.8c-0.4,0.2-1,0.4-1.9,0.4c-1.8,0-2.9-1.2-2.9-2.9
				c0-1.8,1-3.1,2.7-3.1c1.9,0,2.4,1.7,2.4,2.7c0,0.2,0,0.4,0,0.5H372.4z M375.5,104.8c0-0.7-0.3-1.7-1.5-1.7c-1.1,0-1.5,1-1.6,1.7
				H375.5z"/>
			<path class="st3" d="M383.4,99.8v7c0,0.5,0,1.1,0,1.5h-0.9l0-1h0c-0.3,0.6-1,1.1-2,1.1c-1.4,0-2.5-1.2-2.5-3
				c0-1.9,1.2-3.1,2.6-3.1c0.9,0,1.5,0.4,1.8,0.9h0v-3.5H383.4z M382.4,104.8c0-0.1,0-0.3,0-0.4c-0.2-0.7-0.7-1.2-1.5-1.2
				c-1.1,0-1.7,1-1.7,2.2c0,1.2,0.6,2.1,1.7,2.1c0.7,0,1.4-0.5,1.5-1.3c0-0.1,0-0.3,0-0.5V104.8z"/>
			<path class="st3" d="M389.9,108.1c-0.3,0.1-0.9,0.3-1.7,0.3c-1.8,0-2.9-1.2-2.9-3c0-1.8,1.2-3.1,3.1-3.1c0.6,0,1.2,0.2,1.5,0.3
				l-0.2,0.8c-0.3-0.1-0.6-0.3-1.2-0.3c-1.3,0-2.1,1-2.1,2.2c0,1.3,0.9,2.2,2,2.2c0.6,0,1-0.2,1.3-0.3L389.9,108.1z"/>
			<path class="st3" d="M391.7,107.1c0.3,0.2,1,0.5,1.7,0.5c1.4,0,1.8-0.9,1.8-1.5c0-1.1-1-1.6-2-1.6h-0.6v-0.8h0.6
				c0.8,0,1.7-0.4,1.7-1.3c0-0.6-0.4-1.2-1.4-1.2c-0.6,0-1.2,0.3-1.6,0.5l-0.3-0.8c0.4-0.3,1.2-0.6,2-0.6c1.5,0,2.2,0.9,2.2,1.9
				c0,0.8-0.5,1.5-1.4,1.8v0c1,0.2,1.7,0.9,1.7,2c0,1.2-1,2.3-2.8,2.3c-0.9,0-1.6-0.3-2-0.5L391.7,107.1z"/>
		</g>
	</g>
	<g>
		<rect x="413.1" y="68.3" class="st10" width="71" height="71"/>
		<g>
			<g>
				<path class="st3" d="M431.9,105.1c0,1.4,0.9,2,2,2c0.8,0,1.2-0.1,1.6-0.3l0.2,0.8c-0.4,0.2-1,0.4-1.9,0.4
					c-1.8,0-2.9-1.2-2.9-2.9s1-3.1,2.7-3.1c1.9,0,2.4,1.7,2.4,2.7c0,0.2,0,0.4,0,0.5H431.9z M435,104.3c0-0.7-0.3-1.7-1.5-1.7
					c-1.1,0-1.5,1-1.6,1.7H435z"/>
				<path class="st3" d="M443,99.3v7c0,0.5,0,1.1,0,1.5h-0.9l0-1h0c-0.3,0.6-1,1.1-2,1.1c-1.4,0-2.5-1.2-2.5-3
					c0-1.9,1.2-3.1,2.6-3.1c0.9,0,1.5,0.4,1.8,0.9h0v-3.5H443z M441.9,104.3c0-0.1,0-0.3,0-0.4c-0.2-0.7-0.7-1.2-1.5-1.2
					c-1.1,0-1.7,1-1.7,2.2c0,1.2,0.6,2.1,1.7,2.1c0.7,0,1.4-0.5,1.5-1.3c0-0.1,0-0.3,0-0.5V104.3z"/>
				<path class="st3" d="M449.5,107.6c-0.3,0.1-0.9,0.3-1.7,0.3c-1.8,0-2.9-1.2-2.9-3c0-1.8,1.2-3.1,3.1-3.1c0.6,0,1.2,0.2,1.5,0.3
					l-0.2,0.8c-0.3-0.1-0.6-0.3-1.2-0.3c-1.3,0-2.1,1-2.1,2.2c0,1.3,0.9,2.2,2,2.2c0.6,0,1-0.2,1.3-0.3L449.5,107.6z"/>
				<path class="st3" d="M455.4,107.6c-0.3,0.1-0.9,0.3-1.7,0.3c-1.8,0-2.9-1.2-2.9-3c0-1.8,1.2-3.1,3.1-3.1c0.6,0,1.2,0.2,1.5,0.3
					l-0.2,0.8c-0.3-0.1-0.6-0.3-1.2-0.3c-1.3,0-2.1,1-2.1,2.2c0,1.3,0.9,2.2,2,2.2c0.6,0,1-0.2,1.3-0.3L455.4,107.6z"/>
				<path class="st3" d="M460.4,107.8l-0.1-0.7h0c-0.3,0.5-0.9,0.9-1.8,0.9c-1.2,0-1.8-0.8-1.8-1.7c0-1.4,1.2-2.2,3.5-2.2V104
					c0-0.5-0.1-1.3-1.3-1.3c-0.5,0-1.1,0.2-1.5,0.4l-0.2-0.7c0.5-0.3,1.2-0.5,1.9-0.5c1.8,0,2.2,1.2,2.2,2.4v2.2c0,0.5,0,1,0.1,1.4
					H460.4z M460.3,104.8c-1.2,0-2.5,0.2-2.5,1.3c0,0.7,0.5,1,1,1c0.8,0,1.2-0.5,1.4-1c0-0.1,0.1-0.2,0.1-0.3V104.8z"/>
				<path class="st3" d="M466.5,107.8v-2.1h-3.6V105l3.5-5h1.1v4.8h1.1v0.8h-1.1v2.1H466.5z M466.5,104.8v-2.6c0-0.4,0-0.8,0-1.2h0
					c-0.2,0.5-0.4,0.8-0.6,1.2l-1.9,2.7v0H466.5z"/>
			</g>
		</g>
	</g>
</g>
</svg>
