<?xml version="1.0" encoding="utf-8"?>
<!-- Generator: Adobe Illustrator 22.0.0, SVG Export Plug-In . SVG Version: 6.00 Build 0)  -->
<svg version="1.1" id="Layer_1" xmlns="http://www.w3.org/2000/svg" xmlns:xlink="http://www.w3.org/1999/xlink" x="0px" y="0px"
	 viewBox="0 0 510.4 107.5" style="enable-background:new 0 0 510.4 107.5;" xml:space="preserve">
<style type="text/css">
	.st0{fill:#494948;}
	.st1{fill:#4C4B4A;}
</style>
<g>
	<path class="st0" d="M27.4,15.1v11.3h-1.7V15.1H27.4z"/>
	<path class="st0" d="M39.2,15.7v2c-1-0.8-2-1.2-3.1-1.2c-1.2,0-2.1,0.4-2.9,1.3c-0.8,0.8-1.2,1.8-1.2,3c0,1.2,0.4,2.2,1.2,3
		s1.8,1.2,2.9,1.2c0.6,0,1.1-0.1,1.5-0.3c0.2-0.1,0.5-0.2,0.7-0.4s0.5-0.4,0.8-0.6v2.1c-1,0.6-2,0.8-3.1,0.8c-1.6,0-3-0.6-4.1-1.7
		c-1.1-1.1-1.7-2.5-1.7-4.1c0-1.4,0.5-2.7,1.4-3.9c1.2-1.4,2.7-2.1,4.5-2.1C37.2,14.9,38.2,15.2,39.2,15.7z"/>
	<path class="st0" d="M41.4,20.7c0-1.6,0.6-3,1.8-4.1c1.2-1.1,2.6-1.7,4.2-1.7c1.6,0,3,0.6,4.1,1.7c1.2,1.2,1.7,2.5,1.7,4.2
		c0,1.6-0.6,3-1.7,4.1c-1.2,1.1-2.6,1.7-4.2,1.7c-1.5,0-2.8-0.5-3.9-1.5C42.1,24,41.4,22.6,41.4,20.7z M43.2,20.8
		c0,1.2,0.4,2.3,1.3,3.1c0.8,0.8,1.8,1.2,2.9,1.2c1.2,0,2.2-0.4,3-1.2c0.8-0.8,1.2-1.8,1.2-3c0-1.2-0.4-2.2-1.2-3
		c-0.8-0.8-1.8-1.2-3-1.2c-1.2,0-2.2,0.4-3,1.2C43.6,18.6,43.2,19.6,43.2,20.8z"/>
	<path class="st0" d="M56.2,26.4V14.4l8.2,8.6v-7.9h1.7v12l-8.2-8.6v7.9H56.2z"/>
	<path class="st0" d="M76,16.8l-1.4,0.8c-0.3-0.4-0.5-0.7-0.7-0.9c-0.2-0.2-0.6-0.2-0.9-0.2c-0.5,0-0.9,0.1-1.2,0.4
		c-0.3,0.3-0.5,0.6-0.5,1c0,0.6,0.4,1,1.2,1.3l1.1,0.5c0.9,0.4,1.6,0.8,2,1.4c0.4,0.5,0.6,1.2,0.6,2c0,1-0.3,1.9-1,2.6
		c-0.7,0.7-1.6,1-2.6,1c-1,0-1.8-0.3-2.4-0.9c-0.6-0.6-1-1.4-1.2-2.5l1.7-0.4c0.1,0.7,0.2,1.1,0.4,1.4c0.4,0.5,0.9,0.7,1.5,0.7
		c0.5,0,1-0.2,1.3-0.5s0.5-0.8,0.5-1.4c0-0.2,0-0.4-0.1-0.6c-0.1-0.2-0.2-0.4-0.3-0.5c-0.1-0.2-0.3-0.3-0.5-0.4
		c-0.2-0.1-0.4-0.3-0.7-0.4l-1.1-0.5c-1.5-0.7-2.3-1.6-2.3-2.9c0-0.8,0.3-1.6,1-2.1c0.6-0.6,1.5-0.9,2.4-0.9
		C74.2,14.9,75.2,15.6,76,16.8z"/>
</g>
<g>
	<g>
		<path class="st1" d="M68.6,78.3c-1.6-1.6-3.6-2.8-5.7-3.6c2.3-1.6,3.8-4.2,3.8-7.1c0-4.8-3.9-8.7-8.7-8.7s-8.7,3.9-8.7,8.7
			c0,3,1.5,5.6,3.8,7.1c-2.1,0.7-4.1,1.9-5.7,3.6c-2.8,2.8-4.4,6.6-4.4,10.6h2.3c0-7,5.7-12.7,12.7-12.7s12.7,5.7,12.7,12.7H73
			C73,84.9,71.4,81.1,68.6,78.3z M58,73.9c-3.5,0-6.3-2.8-6.3-6.3s2.8-6.3,6.3-6.3s6.3,2.8,6.3,6.3S61.5,73.9,58,73.9z"/>
	</g>
</g>
<g>
	<g>
		<g>
			<path class="st1" d="M312.3,60.5c-4.8,0-8.7,3.9-8.7,8.7s3.9,8.7,8.7,8.7c4.8,0,8.7-3.9,8.7-8.7S317.1,60.5,312.3,60.5z
				 M312.3,76.5c-4,0-7.3-3.3-7.3-7.3c0-4,3.3-7.3,7.3-7.3s7.3,3.3,7.3,7.3C319.7,73.2,316.4,76.5,312.3,76.5z"/>
		</g>
	</g>
	<g>
		<g>
			<path class="st1" d="M312.3,56.5c-1.5,0-2.7,1.2-2.7,2.7c0,1.5,1.2,2.7,2.7,2.7s2.7-1.2,2.7-2.7C315,57.7,313.8,56.5,312.3,56.5z
				 M312.3,60.5c-0.7,0-1.3-0.6-1.3-1.3c0-0.7,0.6-1.3,1.3-1.3c0.7,0,1.3,0.6,1.3,1.3C313.7,59.9,313.1,60.5,312.3,60.5z"/>
		</g>
	</g>
	<g>
		<g>
			<rect x="311.7" y="59.2" class="st1" width="1.3" height="2"/>
		</g>
	</g>
	<g>
		<g>
			
				<rect x="305.7" y="61.6" transform="matrix(0.7071 -0.7071 0.7071 0.7071 45.5108 234.9236)" class="st1" width="1.3" height="1.9"/>
		</g>
	</g>
	<g>
		<g>
			
				<rect x="303.8" y="61.2" transform="matrix(0.7071 -0.7071 0.7071 0.7071 45.7871 234.2569)" class="st1" width="3.8" height="1.3"/>
		</g>
	</g>
	<g>
		<g>
			
				<rect x="317.4" y="61.9" transform="matrix(0.7071 -0.7071 0.7071 0.7071 49.0263 243.4084)" class="st1" width="1.9" height="1.3"/>
		</g>
	</g>
	<g>
		<g>
			
				<rect x="318.3" y="60" transform="matrix(0.7071 -0.7071 0.7071 0.7071 49.6915 243.6853)" class="st1" width="1.3" height="3.8"/>
		</g>
	</g>
	<g>
		<g>
			<circle class="st1" cx="312.3" cy="69.2" r="1.3"/>
		</g>
	</g>
	<g>
		<g>
			
				<rect x="310.9" y="65.9" transform="matrix(0.5298 -0.8481 0.8481 0.5298 91.2171 297.5884)" class="st1" width="6.3" height="1.3"/>
		</g>
	</g>
	<g>
		<g>
			<rect x="311.7" y="63.2" class="st1" width="1.3" height="1.3"/>
		</g>
	</g>
	<g>
		<g>
			<rect x="311.7" y="73.9" class="st1" width="1.3" height="1.3"/>
		</g>
	</g>
	<g>
		<g>
			
				<rect x="309" y="63.9" transform="matrix(0.8658 -0.5004 0.5004 0.8658 9.2435 163.6237)" class="st1" width="1.3" height="1.3"/>
		</g>
	</g>
	<g>
		<g>
			
				<rect x="314.3" y="73.1" transform="matrix(0.8657 -0.5006 0.5006 0.8657 5.3619 167.6003)" class="st1" width="1.3" height="1.3"/>
		</g>
	</g>
	<g>
		<g>
			
				<rect x="307" y="65.9" transform="matrix(0.5004 -0.8658 0.8658 0.5004 96.1357 299.655)" class="st1" width="1.3" height="1.3"/>
		</g>
	</g>
	<g>
		<g>
			
				<rect x="316.3" y="71.2" transform="matrix(0.5004 -0.8658 0.8658 0.5004 96.1356 310.313)" class="st1" width="1.3" height="1.3"/>
		</g>
	</g>
	<g>
		<g>
			<rect x="306.3" y="68.5" class="st1" width="1.3" height="1.3"/>
		</g>
	</g>
	<g>
		<g>
			<rect x="317" y="68.5" class="st1" width="1.3" height="1.3"/>
		</g>
	</g>
	<g>
		<g>
			
				<rect x="307.1" y="71.2" transform="matrix(0.8657 -0.5005 0.5005 0.8657 5.3526 163.6662)" class="st1" width="1.3" height="1.3"/>
		</g>
	</g>
	<g>
		<g>
			
				<rect x="316.3" y="65.9" transform="matrix(0.8657 -0.5005 0.5005 0.8657 9.2608 167.5704)" class="st1" width="1.3" height="1.3"/>
		</g>
	</g>
	<g>
		<g>
			<rect x="309" y="73.1" transform="matrix(0.5001 -0.866 0.866 0.5001 90.8744 305.0502)" class="st1" width="1.3" height="1.3"/>
		</g>
	</g>
	<g>
		<g>
			<path class="st1" d="M309.7,83.2c-2.2,0-4,1.8-4,4s1.8,4,4,4s4-1.8,4-4S311.9,83.2,309.7,83.2z M309.7,89.9
				c-1.5,0-2.7-1.2-2.7-2.7s1.2-2.7,2.7-2.7s2.7,1.2,2.7,2.7S311.1,89.9,309.7,89.9z"/>
		</g>
	</g>
	<g>
		<g>
			<rect x="309" y="86.5" class="st1" width="1.3" height="1.3"/>
		</g>
	</g>
	<g>
		<g>
			<path class="st1" d="M332.3,83.2c-2.2,0-4,1.8-4,4s1.8,4,4,4s4-1.8,4-4S334.5,83.2,332.3,83.2z M332.3,89.9
				c-1.5,0-2.7-1.2-2.7-2.7s1.2-2.7,2.7-2.7c1.5,0,2.7,1.2,2.7,2.7S333.8,89.9,332.3,89.9z"/>
		</g>
	</g>
	<g>
		<g>
			<rect x="331.7" y="86.5" class="st1" width="1.3" height="1.3"/>
		</g>
	</g>
	<g>
		<g>
			<rect x="313" y="86.5" class="st1" width="16" height="1.3"/>
		</g>
	</g>
	<g>
		<g>
			<path class="st1" d="M340.7,79.3l-4.5-3.2l-3-8.9c-0.3-0.8-1-1.4-1.9-1.4c0,0,0,0,0,0h-11v1.3h11c0,0,0,0,0,0
				c0.3,0,0.5,0.2,0.6,0.5l3,9.1c0,0.1,0.1,0.2,0.2,0.3l4.4,3.1v6.3h-4v1.3h4.7c0.4,0,0.7-0.3,0.7-0.7v-7.3
				C341,79.6,340.9,79.4,340.7,79.3z"/>
		</g>
	</g>
	<g>
		<g>
			<path class="st1" d="M302.3,86.5V67.5c0-0.1,0.1-0.3,0.3-0.3h2.4v-1.3h-2.4c-0.9,0-1.6,0.7-1.6,1.6v19.7c0,0.4,0.3,0.7,0.7,0.7
				h4.7v-1.3H302.3z"/>
		</g>
	</g>
	<g>
		<g>
			<rect x="337.7" y="83.9" class="st1" width="2.7" height="1.3"/>
		</g>
	</g>
	<g>
		<g>
			<rect x="301.7" y="83.9" class="st1" width="4" height="1.3"/>
		</g>
	</g>
	<g>
		<g>
			<path class="st1" d="M329.7,75.9c-0.4,0-0.7-0.3-0.7-0.7v-4.7c0-0.4,0.3-0.7,0.7-0.7h3.3v-1.3h-3.3c-1.1,0-2,0.9-2,2v4.7
				c0,1.1,0.9,2,2,2h6v-1.3H329.7z"/>
		</g>
	</g>
	<g>
		<g>
			<rect x="329" y="78.5" class="st1" width="2.7" height="1.3"/>
		</g>
	</g>
	<g>
		<g>
			<rect x="314.3" y="83.9" class="st1" width="12.7" height="1.3"/>
		</g>
	</g>
	<g>
		<g>
			<rect x="301.7" y="75.9" class="st1" width="2.7" height="1.3"/>
		</g>
	</g>
</g>
<g>
	<g>
		<path class="st1" d="M206.7,59.2h-34.4c-1.6,0-2.8,1.3-2.8,2.8v23.7c0,1.6,1.3,2.8,2.8,2.8h34.4c1.6,0,2.8-1.3,2.8-2.8V62
			C209.5,60.5,208.2,59.2,206.7,59.2z M208.2,85.7c0,0.8-0.7,1.5-1.5,1.5h-34.4c-0.8,0-1.5-0.7-1.5-1.5V62c0-0.8,0.7-1.5,1.5-1.5
			h34.4c0.8,0,1.5,0.7,1.5,1.5V85.7z"/>
		<path class="st1" d="M180.2,78.5h-6c-0.4,0-0.7,0.3-0.7,0.7c0,0.4,0.3,0.7,0.7,0.7h6c0.4,0,0.7-0.3,0.7-0.7
			C180.8,78.8,180.5,78.5,180.2,78.5z"/>
		<path class="st1" d="M188.8,78.5h-6c-0.4,0-0.7,0.3-0.7,0.7c0,0.4,0.3,0.7,0.7,0.7h6c0.4,0,0.7-0.3,0.7-0.7
			C189.5,78.8,189.2,78.5,188.8,78.5z"/>
		<path class="st1" d="M174.8,81.9h-0.7c-0.4,0-0.7,0.3-0.7,0.7c0,0.4,0.3,0.7,0.7,0.7h0.7c0.4,0,0.7-0.3,0.7-0.7
			C175.5,82.2,175.2,81.9,174.8,81.9z"/>
		<path class="st1" d="M178.8,81.9h-1.3c-0.4,0-0.7,0.3-0.7,0.7c0,0.4,0.3,0.7,0.7,0.7h1.3c0.4,0,0.7-0.3,0.7-0.7
			C179.5,82.2,179.2,81.9,178.8,81.9z"/>
		<path class="st1" d="M182.2,81.9h-0.7c-0.4,0-0.7,0.3-0.7,0.7c0,0.4,0.3,0.7,0.7,0.7h0.7c0.4,0,0.7-0.3,0.7-0.7
			C182.8,82.2,182.5,81.9,182.2,81.9z"/>
		<path class="st1" d="M186.2,81.9h-1.3c-0.4,0-0.7,0.3-0.7,0.7c0,0.4,0.3,0.7,0.7,0.7h1.3c0.4,0,0.7-0.3,0.7-0.7
			C186.8,82.2,186.5,81.9,186.2,81.9z"/>
		<path class="st1" d="M188.4,82.1c-0.1,0.1-0.2,0.3-0.2,0.5s0.1,0.3,0.2,0.5c0.1,0.1,0.3,0.2,0.5,0.2c0.2,0,0.3-0.1,0.5-0.2
			c0.1-0.1,0.2-0.3,0.2-0.5s-0.1-0.3-0.2-0.5C189.1,81.8,188.6,81.8,188.4,82.1z"/>
		<path class="st1" d="M201.5,75.9c-0.9,0-1.6,0.2-2.3,0.6c-0.7-0.4-1.5-0.6-2.3-0.6c-2.6,0-4.7,2.1-4.7,4.7s2.1,4.7,4.7,4.7
			c0.9,0,1.6-0.2,2.3-0.6c0.7,0.4,1.5,0.6,2.3,0.6c2.6,0,4.7-2.1,4.7-4.7S204.1,75.9,201.5,75.9z M200.2,80.5c0,0.9-0.4,1.8-1,2.4
			c-0.6-0.6-1-1.4-1-2.4c0-0.9,0.4-1.8,1-2.4C199.8,78.8,200.2,79.6,200.2,80.5z M193.5,80.5c0-1.8,1.5-3.3,3.3-3.3
			c0.4,0,0.8,0.1,1.2,0.2c-0.7,0.8-1.2,1.9-1.2,3.1c0,1.2,0.5,2.3,1.2,3.1c-0.4,0.1-0.8,0.2-1.2,0.2C195,83.9,193.5,82.4,193.5,80.5
			z M201.5,83.9c-0.4,0-0.8-0.1-1.2-0.2c0.7-0.8,1.2-1.9,1.2-3.1c0-1.2-0.5-2.3-1.2-3.1c0.4-0.1,0.8-0.2,1.2-0.2
			c1.8,0,3.3,1.5,3.3,3.3C204.8,82.4,203.3,83.9,201.5,83.9z"/>
		<path class="st1" d="M175,73.9h4h1h4c0.8,0,1.5-0.7,1.5-1.5V67v-1c0-0.8-0.7-1.5-1.5-1.5h-5h-4c-0.8,0-1.5,0.7-1.5,1.5v6.3
			C173.5,73.2,174.2,73.9,175,73.9z M177.5,69.9h-2.7v-1.3h2.7V69.9z M174.8,72.4v-1.2h2.7v1.2c0,0.1,0,0.1,0,0.2H175
			C174.9,72.5,174.8,72.4,174.8,72.4z M184.2,69.9h-2.7v-1.2c0-0.1,0.1-0.2,0.2-0.2h2.3c0.1,0,0.1,0,0.2,0V69.9L184.2,69.9z
			 M184,72.5h-2.5c0-0.1,0-0.1,0-0.2v-1.2h2.7v1.2C184.2,72.4,184.1,72.5,184,72.5z M184,65.9c0.1,0,0.2,0.1,0.2,0.2v1
			c0,0.1-0.1,0.2-0.2,0.2h-2.3c-0.8,0-1.5,0.7-1.5,1.5v3.7c0,0.1-0.1,0.2-0.2,0.2h-1c-0.1,0-0.2-0.1-0.2-0.2V66
			c0-0.1,0.1-0.2,0.2-0.2H184z M175,65.9h2.5c0,0.1,0,0.1,0,0.2v1.2h-2.7V66C174.8,65.9,174.9,65.9,175,65.9z"/>
	</g>
</g>
<g>
	<g>
		<g>
			<path class="st1" d="M120.5,85.3c-1.9,0-3.5,1.6-3.5,3.5c0,1.9,1.6,3.5,3.5,3.5s3.5-1.6,3.5-3.5C124,86.9,122.5,85.3,120.5,85.3z
				 M120.5,90.4c-0.9,0-1.6-0.7-1.6-1.6c0-0.9,0.7-1.6,1.6-1.6s1.6,0.7,1.6,1.6C122.1,89.7,121.4,90.4,120.5,90.4z"/>
		</g>
	</g>
	<g>
		<g>
			<path class="st1" d="M132.9,85.3c-1.9,0-3.5,1.6-3.5,3.5c0,1.9,1.6,3.5,3.5,3.5s3.5-1.6,3.5-3.5
				C136.4,86.9,134.8,85.3,132.9,85.3z M132.9,90.4c-0.9,0-1.6-0.7-1.6-1.6c0-0.9,0.7-1.6,1.6-1.6c0.9,0,1.6,0.7,1.6,1.6
				C134.4,89.7,133.7,90.4,132.9,90.4z"/>
		</g>
	</g>
	<g>
		<g>
			<path class="st1" d="M133.7,66.8h-14.1c-0.5,0-1,0.4-1,1s0.4,1,1,1h14.1c0.5,0,1-0.4,1-1C134.7,67.2,134.3,66.8,133.7,66.8z"/>
		</g>
	</g>
	<g>
		<g>
			<path class="st1" d="M133,71.9h-12.5c-0.5,0-1,0.4-1,1c0,0.5,0.4,1,1,1H133c0.5,0,1-0.4,1-1C133.9,72.3,133.5,71.9,133,71.9z"/>
		</g>
	</g>
	<g>
		<g>
			<path class="st1" d="M143.3,62.4c-0.4-0.5-0.9-0.7-1.5-0.7h-30.6l-0.6-3c-0.1-0.6-0.6-1.2-1.1-1.4l-4.3-1.9
				c-0.5-0.2-1.1,0-1.3,0.5c-0.2,0.5,0,1.1,0.5,1.3l4.3,1.9l4.8,23.1c0.2,0.9,1,1.6,1.9,1.6h23.5c0.5,0,1-0.4,1-1c0-0.5-0.4-1-1-1
				h-23.5l-0.6-2.8H139c0.9,0,1.7-0.7,1.9-1.6l2.7-13.3C143.8,63.5,143.7,62.9,143.3,62.4z M139,77h-24.7l-2.7-13.3l30.2,0L139,77z"
				/>
		</g>
	</g>
</g>
<g>
	<g>
		<g>
			<path class="st1" d="M263.7,75.4h-5.4c-1.5,0-2.7,1.2-2.7,2.7v4.2c0,1.5,1.2,2.7,2.7,2.7h5.4c1.5,0,2.7-1.2,2.7-2.7v-4.2
				C266.4,76.6,265.2,75.4,263.7,75.4z M264.4,82.3c0,0.4-0.3,0.7-0.7,0.7h-5.4c-0.4,0-0.7-0.3-0.7-0.7v-4.2c0-0.4,0.3-0.7,0.7-0.7
				h5.4c0.4,0,0.7,0.3,0.7,0.7V82.3z"/>
			<path class="st1" d="M275.2,67.8c0-0.2,0-0.3-0.1-0.5l-6-10.5c-0.2-0.3-0.5-0.5-0.9-0.5h-26.1c-0.4,0-0.7,0.2-0.9,0.5l-5.9,10.5
				c-0.1,0.1-0.1,0.3-0.1,0.5c0,2.3,1.4,4.4,3.4,5.2v17.3c0,0.5,0.4,1,1,1h5.4c0,0,0,0,0,0h7.6c0,0,0,0,0,0h18.1c0.5,0,1-0.4,1-1
				V73.2c0,0,0-0.1,0-0.1C273.8,72.2,275.2,70.2,275.2,67.8z M242.7,58.4h25l4.7,8.2h-34.3L242.7,58.4z M263.7,68.5
				c-0.3,1.8-1.9,3.1-3.7,3.1c-1.9,0-3.4-1.3-3.7-3.1H263.7z M254.2,68.5c-0.3,1.8-1.9,3.1-3.7,3.1s-3.4-1.3-3.7-3.1H254.2z
				 M237.3,68.5h7.4c-0.3,1.8-1.9,3.1-3.7,3.1C239.1,71.6,237.6,70.3,237.3,68.5z M251.7,89.4h-5.6V78.8c0-0.8,0.6-1.4,1.4-1.4h2.9
				c0.8,0,1.4,0.6,1.4,1.4L251.7,89.4L251.7,89.4z M269.8,89.4h-16.2V78.8c0-1.8-1.5-3.4-3.4-3.4h-2.9c-1.8,0-3.4,1.5-3.4,3.4v10.6
				h-3.5V73.6c0.1,0,0.2,0,0.3,0c2,0,3.7-1,4.8-2.5c1,1.5,2.8,2.5,4.8,2.5c2,0,3.7-1,4.8-2.5c1,1.5,2.8,2.5,4.7,2.5
				c2,0,3.7-1,4.7-2.5c1,1.5,2.8,2.5,4.8,2.5c0.1,0,0.2,0,0.3,0V89.4L269.8,89.4z M269.5,71.6c-1.9,0-3.4-1.3-3.7-3.1h7.4
				C272.9,70.3,271.4,71.6,269.5,71.6z"/>
		</g>
	</g>
</g>
</svg>
