<?xml version="1.0" encoding="utf-8"?>
<!-- Generator: Adobe Illustrator 22.0.0, SVG Export Plug-In . SVG Version: 6.00 Build 0)  -->
<svg version="1.1" id="Layer_1" xmlns="http://www.w3.org/2000/svg" xmlns:xlink="http://www.w3.org/1999/xlink" x="0px" y="0px"
	 viewBox="0 0 510.4 193.1" style="enable-background:new 0 0 510.4 193.1;" xml:space="preserve">
<style type="text/css">
	.st0{fill:#72C47B;}
	.st1{fill:#E9AF57;}
	.st2{fill:#C0EDC3;}
	.st3{fill:#EDCCA4;}
	.st4{fill:#FFFFFF;}
	.st5{fill:#494948;}
</style>
<g>
	<g>
		<rect x="40.6" y="78.3" class="st0" width="180" height="40"/>
	</g>
	<g>
		<rect x="40.6" y="132.3" class="st1" width="180" height="36"/>
	</g>
</g>
<g>
	<g>
		<rect x="278.6" y="78.8" class="st2" width="180" height="39.5"/>
	</g>
	<g>
		<rect x="278.1" y="132.3" class="st3" width="180" height="36"/>
	</g>
</g>
<g>
	<g>
		<path class="st4" d="M112.2,103.7v-9.7l6.6,6.9v-6.3h1.4v9.6l-6.6-6.9v6.3H112.2z"/>
		<path class="st4" d="M129.7,96H126v2.2h3.5v1.3H126v3h3.6v1.3h-5v-9h5V96z"/>
		<path class="st4" d="M135.8,99l-2.5-4.3h1.6l1.7,3.1l1.8-3.1h1.6l-2.6,4.3l2.7,4.7h-1.5l-2-3.5l-2.1,3.5h-1.5L135.8,99z"/>
		<path class="st4" d="M146.2,96v7.8h-1.4V96h-2.1v-1.3h5.5V96H146.2z"/>
	</g>
	<g>
		<path class="st4" d="M112.2,154.7v-9.7l6.6,6.9v-6.3h1.4v9.6l-6.6-6.9v6.3H112.2z"/>
		<path class="st4" d="M129.7,147H126v2.2h3.5v1.3H126v3h3.6v1.3h-5v-9h5V147z"/>
		<path class="st4" d="M135.8,150l-2.5-4.3h1.6l1.7,3.1l1.8-3.1h1.6l-2.6,4.3l2.7,4.7h-1.5l-2-3.5l-2.1,3.5h-1.5L135.8,150z"/>
		<path class="st4" d="M146.2,147v7.8h-1.4V147h-2.1v-1.3h5.5v1.3H146.2z"/>
	</g>
	<g>
		<path class="st4" d="M347.2,102.7v-9.7l6.6,6.9v-6.3h1.4v9.6l-6.6-6.9v6.3H347.2z"/>
		<path class="st4" d="M364.7,95H361v2.2h3.5v1.3H361v3h3.6v1.3h-5v-9h5V95z"/>
		<path class="st4" d="M370.8,98l-2.5-4.3h1.6l1.7,3.1l1.8-3.1h1.6l-2.6,4.3l2.7,4.7h-1.5l-2-3.5l-2.1,3.5h-1.5L370.8,98z"/>
		<path class="st4" d="M381.2,95v7.8h-1.4V95h-2.1v-1.3h5.5V95H381.2z"/>
	</g>
	<g>
		<path class="st4" d="M348.2,154.7v-9.7l6.6,6.9v-6.3h1.4v9.6l-6.6-6.9v6.3H348.2z"/>
		<path class="st4" d="M365.7,147H362v2.2h3.5v1.3H362v3h3.6v1.3h-5v-9h5V147z"/>
		<path class="st4" d="M371.8,150l-2.5-4.3h1.6l1.7,3.1l1.8-3.1h1.6l-2.6,4.3l2.7,4.7h-1.5l-2-3.5l-2.1,3.5h-1.5L371.8,150z"/>
		<path class="st4" d="M382.2,147v7.8h-1.4V147h-2.1v-1.3h5.5v1.3H382.2z"/>
	</g>
</g>
<g>
	<path class="st5" d="M24.1,26.4V15.1h1.7c0.8,0,1.4,0.1,1.8,0.2c0.5,0.1,0.8,0.3,1.1,0.6c0.3,0.3,0.6,0.6,0.8,1.1
		c0.2,0.4,0.3,0.9,0.3,1.3c0,0.8-0.3,1.5-0.9,2.1c0.6,0.2,1.1,0.6,1.4,1.1c0.4,0.5,0.5,1.1,0.5,1.8c0,0.9-0.3,1.6-0.9,2.2
		c-0.4,0.4-0.8,0.6-1.3,0.8c-0.5,0.1-1.2,0.2-1.9,0.2H24.1z M25.8,20h0.5c0.6,0,1.1-0.1,1.4-0.4c0.3-0.3,0.4-0.7,0.4-1.2
		c0-0.5-0.2-0.9-0.5-1.2s-0.7-0.4-1.3-0.4h-0.6V20z M25.8,24.8h1.1c0.8,0,1.3-0.2,1.7-0.5c0.4-0.3,0.6-0.7,0.6-1.2
		c0-0.5-0.2-0.9-0.5-1.2c-0.4-0.3-1-0.5-1.9-0.5h-0.9V24.8z"/>
	<path class="st5" d="M34.7,15.1V22c0,1,0.2,1.7,0.5,2.1c0.5,0.6,1.1,1,2,1c0.9,0,1.5-0.3,2-1c0.3-0.4,0.5-1.1,0.5-2.1v-6.8h1.7v7.3
		c0,1.2-0.4,2.2-1.1,2.9c-0.8,0.9-1.9,1.3-3.1,1.3s-2.2-0.4-3.1-1.3c-0.7-0.8-1.1-1.8-1.1-2.9v-7.3H34.7z"/>
	<path class="st5" d="M47.2,16.7v9.7h-1.7v-9.7h-2.6v-1.6h6.9v1.6H47.2z"/>
	<path class="st5" d="M54.4,16.7v9.7h-1.7v-9.7h-2.6v-1.6H57v1.6H54.4z"/>
	<path class="st5" d="M57.6,20.7c0-1.6,0.6-3,1.8-4.1c1.2-1.1,2.6-1.7,4.2-1.7c1.6,0,3,0.6,4.1,1.7c1.2,1.2,1.7,2.5,1.7,4.2
		c0,1.6-0.6,3-1.7,4.1c-1.2,1.1-2.6,1.7-4.2,1.7c-1.5,0-2.8-0.5-3.9-1.5C58.2,24,57.6,22.6,57.6,20.7z M59.3,20.8
		c0,1.2,0.4,2.3,1.3,3.1c0.8,0.8,1.8,1.2,2.9,1.2c1.2,0,2.2-0.4,3-1.2c0.8-0.8,1.2-1.8,1.2-3c0-1.2-0.4-2.2-1.2-3
		c-0.8-0.8-1.8-1.2-3-1.2c-1.2,0-2.2,0.4-3,1.2C59.7,18.6,59.3,19.6,59.3,20.8z"/>
	<path class="st5" d="M71.6,26.4V14.4l8.2,8.6v-7.9h1.7v12l-8.2-8.6v7.9H71.6z"/>
</g>
<g>
	<path class="st5" d="M23.5,54.1c0-1.3,0.5-2.4,1.4-3.3c0.9-0.9,2-1.4,3.4-1.4c1.3,0,2.4,0.5,3.3,1.4c0.9,0.9,1.4,2,1.4,3.3
		c0,1.3-0.5,2.4-1.4,3.3c-0.9,0.9-2.1,1.4-3.4,1.4c-1.2,0-2.2-0.4-3.1-1.2C24,56.8,23.5,55.6,23.5,54.1z M24.8,54.2
		c0,1,0.3,1.8,1,2.5c0.7,0.6,1.4,1,2.3,1c0.9,0,1.8-0.3,2.4-1c0.7-0.7,1-1.5,1-2.4c0-1-0.3-1.8-1-2.4c-0.6-0.7-1.4-1-2.4-1
		c-0.9,0-1.7,0.3-2.4,1C25.2,52.4,24.8,53.2,24.8,54.2z"/>
	<path class="st5" d="M34.4,53h1.3v0.5c0.2-0.3,0.5-0.4,0.6-0.5c0.2-0.1,0.4-0.1,0.7-0.1c0.3,0,0.7,0.1,1.1,0.3l-0.6,1.2
		c-0.2-0.2-0.5-0.3-0.7-0.3c-0.7,0-1.1,0.5-1.1,1.6v3h-1.3V53z"/>
	<path class="st5" d="M38.9,50.6c0-0.2,0.1-0.4,0.3-0.6s0.4-0.3,0.6-0.3c0.2,0,0.4,0.1,0.6,0.3c0.2,0.2,0.3,0.4,0.3,0.6
		s-0.1,0.4-0.3,0.6c-0.2,0.2-0.4,0.3-0.6,0.3s-0.4-0.1-0.6-0.3S38.9,50.9,38.9,50.6z M40.4,53v5.7h-1.3V53H40.4z"/>
	<path class="st5" d="M47.6,58.6c0,0.3,0,0.5,0,0.7s0,0.4-0.1,0.5c-0.1,0.4-0.3,0.8-0.6,1.1c-0.5,0.6-1.2,0.9-2.1,0.9
		c-0.8,0-1.4-0.2-1.9-0.6c-0.5-0.4-0.8-1-0.9-1.8h1.3c0.1,0.3,0.1,0.5,0.3,0.7c0.3,0.4,0.7,0.5,1.2,0.5c1,0,1.4-0.6,1.4-1.8v-0.8
		c-0.5,0.5-1.1,0.8-1.8,0.8c-0.8,0-1.4-0.3-1.9-0.8c-0.5-0.6-0.8-1.3-0.8-2.1c0-0.8,0.2-1.5,0.7-2.1c0.5-0.6,1.2-0.9,2-0.9
		c0.7,0,1.3,0.3,1.8,0.8V53h1.3V58.6z M46.3,55.9c0-0.6-0.1-1-0.4-1.3c-0.3-0.3-0.7-0.5-1.2-0.5c-0.5,0-0.9,0.2-1.2,0.6
		c-0.3,0.3-0.4,0.8-0.4,1.3c0,0.5,0.1,0.9,0.4,1.3c0.3,0.4,0.7,0.5,1.2,0.5s0.9-0.2,1.2-0.6C46.2,56.8,46.3,56.4,46.3,55.9z"/>
	<path class="st5" d="M49,50.6c0-0.2,0.1-0.4,0.3-0.6s0.4-0.3,0.6-0.3c0.2,0,0.4,0.1,0.6,0.3c0.2,0.2,0.3,0.4,0.3,0.6
		s-0.1,0.4-0.3,0.6c-0.2,0.2-0.4,0.3-0.6,0.3s-0.4-0.1-0.6-0.3S49,50.9,49,50.6z M50.6,53v5.7h-1.3V53H50.6z"/>
	<path class="st5" d="M52.2,53h1.3v0.5c0.5-0.5,1-0.7,1.6-0.7c0.7,0,1.2,0.2,1.6,0.6c0.3,0.4,0.5,0.9,0.5,1.7v3.5h-1.3v-3.2
		c0-0.6-0.1-1-0.2-1.2c-0.2-0.2-0.4-0.3-0.8-0.3c-0.4,0-0.7,0.1-0.9,0.4c-0.2,0.3-0.3,0.8-0.3,1.5v2.8h-1.3V53z"/>
	<path class="st5" d="M63,53h1.3v5.7H63v-0.6c-0.5,0.5-1.1,0.8-1.8,0.8c-0.8,0-1.4-0.3-2-0.9c-0.5-0.6-0.8-1.3-0.8-2.2
		c0-0.9,0.3-1.6,0.8-2.1s1.2-0.9,1.9-0.9c0.7,0,1.3,0.3,1.8,0.8V53z M59.9,55.8c0,0.5,0.1,1,0.4,1.3c0.3,0.3,0.7,0.5,1.1,0.5
		c0.5,0,0.9-0.2,1.2-0.5c0.3-0.3,0.5-0.8,0.5-1.3s-0.2-1-0.5-1.3c-0.3-0.3-0.7-0.5-1.2-0.5c-0.5,0-0.8,0.2-1.1,0.5
		C60,54.9,59.9,55.3,59.9,55.8z"/>
	<path class="st5" d="M67.3,48.8v9.9H66v-9.9H67.3z"/>
</g>
<g>
	<path class="st5" d="M262.3,53.2h3.9v-3.5h1.4v9h-1.4v-4.2h-3.9v4.2h-1.4v-9h1.4V53.2z"/>
	<path class="st5" d="M269.2,55.8c0-0.8,0.3-1.5,0.9-2.1s1.3-0.9,2.2-0.9c0.9,0,1.6,0.3,2.2,0.9c0.6,0.6,0.9,1.3,0.9,2.1
		c0,0.9-0.3,1.6-0.9,2.2c-0.6,0.6-1.3,0.9-2.2,0.9c-0.9,0-1.6-0.3-2.2-0.9C269.5,57.4,269.2,56.7,269.2,55.8z M270.5,55.8
		c0,0.6,0.2,1,0.5,1.4c0.3,0.3,0.7,0.5,1.2,0.5c0.5,0,0.9-0.2,1.2-0.5s0.5-0.8,0.5-1.3s-0.2-1-0.5-1.3c-0.3-0.3-0.7-0.5-1.2-0.5
		c-0.5,0-0.9,0.2-1.2,0.5S270.5,55.3,270.5,55.8z"/>
	<path class="st5" d="M277.2,53l1.5,3.2l1.5-3.2h1.5l-3,6.1l-2.9-6.1H277.2z"/>
	<path class="st5" d="M287.5,56.2h-4.1c0,0.5,0.2,0.8,0.5,1.1c0.3,0.3,0.6,0.4,1,0.4c0.3,0,0.6-0.1,0.8-0.2c0.2-0.2,0.5-0.4,0.7-0.9
		l1.1,0.6c-0.2,0.3-0.4,0.5-0.5,0.8s-0.4,0.4-0.6,0.5s-0.5,0.2-0.7,0.3s-0.5,0.1-0.8,0.1c-0.9,0-1.5-0.3-2.1-0.8
		c-0.5-0.6-0.8-1.3-0.8-2.2c0-0.9,0.2-1.6,0.8-2.2c0.5-0.6,1.2-0.8,2-0.8c0.8,0,1.5,0.3,2,0.8c0.5,0.5,0.7,1.3,0.7,2.2L287.5,56.2z
		 M286.1,55.1c-0.2-0.7-0.6-1.1-1.3-1.1c-0.2,0-0.3,0-0.5,0.1s-0.3,0.1-0.4,0.2s-0.2,0.2-0.3,0.3s-0.1,0.3-0.2,0.4H286.1z"/>
	<path class="st5" d="M288.9,53h1.3v0.5c0.2-0.3,0.5-0.4,0.6-0.5c0.2-0.1,0.4-0.1,0.7-0.1c0.3,0,0.7,0.1,1.1,0.3l-0.6,1.2
		c-0.2-0.2-0.5-0.3-0.7-0.3c-0.7,0-1.1,0.5-1.1,1.6v3h-1.3V53z"/>
</g>
</svg>
