<?xml version="1.0" encoding="utf-8"?>
<!-- Generator: Adobe Illustrator 22.0.0, SVG Export Plug-In . SVG Version: 6.00 Build 0)  -->
<svg version="1.1" id="Layer_1" xmlns="http://www.w3.org/2000/svg" xmlns:xlink="http://www.w3.org/1999/xlink" x="0px" y="0px"
	 viewBox="0 0 32 32" style="enable-background:new 0 0 32 32;" xml:space="preserve">
<style type="text/css">
	.st0{fill:#660420;}
	.st1{fill:#FFFFFF;}
</style>
<path class="st0" d="M16,31.8L16,31.8C7.3,31.8,0.2,24.7,0.2,16l0,0C0.2,7.3,7.3,0.2,16,0.2l0,0c8.7,0,15.7,7.1,15.7,15.7l0,0
	C31.8,24.7,24.7,31.8,16,31.8z"/>
<g>
	<path class="st1" d="M26,7.7V14h-0.2c-0.2-3.2-4.3-6.1-6.6-6.1h-0.3v16.3c0,1.9,0.2,2.9,1.2,2.9v0.2h-8.2v-0.2c1.1,0,1.2-1,1.2-2.9
		V8h-0.3c-2.3,0-6.5,2.8-6.6,6H6V7.7H26z"/>
</g>
</svg>
